<?xml version="1.0" standalone="no"?>
<!DOCTYPE svg PUBLIC "-//W3C//DTD SVG 20010904//EN"
 "http://www.w3.org/TR/2001/REC-SVG-20010904/DTD/svg10.dtd">
<svg version="1.0" xmlns="http://www.w3.org/2000/svg"
 width="2451.000000pt" height="688.000000pt" viewBox="0 0 2451.000000 688.000000"
 preserveAspectRatio="xMidYMid meet">

<g transform="translate(0.000000,688.000000) scale(0.100000,-0.100000)"
fill="#000000" stroke="none">
<path d="M14196 6869 c-506 -53 -909 -326 -1129 -765 -122 -243 -177 -504
-177 -839 0 -332 53 -590 170 -827 200 -407 532 -660 994 -760 135 -29 470
-32 613 -5 458 85 821 357 1019 762 94 193 142 380 165 632 19 220 -1 515 -47
698 -109 435 -370 773 -739 958 -248 124 -569 178 -869 146z m420 -653 c175
-56 310 -178 402 -362 142 -284 158 -788 34 -1107 -90 -233 -267 -396 -492
-454 -87 -22 -280 -22 -374 1 -315 76 -520 356 -565 774 -30 280 6 568 94 759
97 209 261 352 467 404 111 28 323 21 434 -15z"/>
<path d="M2070 5915 c-1119 -519 -2041 -947 -2048 -952 -11 -6 93 -414 497
-1952 281 -1069 513 -1947 516 -1949 5 -6 766 86 773 93 3 2 -43 554 -102
1226 -59 672 -106 1222 -104 1224 9 9 234 105 245 105 7 0 13 -6 13 -12 0 -7
99 -569 219 -1248 l218 -1235 24 1 c34 2 1303 157 1307 159 2 2 -49 597 -112
1323 -64 726 -116 1335 -116 1354 0 34 0 34 120 87 67 30 123 51 125 49 3 -3
114 -621 246 -1374 133 -753 243 -1371 245 -1373 4 -4 1337 159 1343 165 3 3
-222 2634 -252 2942 -2 21 12 29 122 78 68 30 126 52 129 50 3 -3 124 -680
269 -1503 146 -824 266 -1500 268 -1502 3 -3 1129 132 1293 155 l42 6 0 2112
0 2111 -1608 403 c-884 222 -1614 402 -1622 402 -8 -1 -931 -426 -2050 -945z"/>
<path d="M8840 5260 l0 -1570 355 0 355 0 0 550 0 550 367 -2 366 -3 182 -545
182 -545 390 -3 390 -2 -202 587 -202 588 -278 5 -278 5 -13 45 c-8 25 -14 48
-14 51 0 3 31 11 69 18 362 65 627 303 712 641 19 74 21 103 16 240 -6 178
-25 264 -88 398 -136 292 -399 481 -757 542 -106 19 -165 20 -833 20 l-719 0
0 -1570z m1325 980 c172 -42 287 -145 330 -294 26 -88 18 -233 -17 -307 -49
-107 -135 -178 -263 -220 -65 -21 -92 -23 -367 -27 l-298 -4 0 437 0 437 283
-5 c171 -3 302 -10 332 -17z"/>
<path d="M11770 5260 l0 -1570 355 0 355 0 0 1570 0 1570 -355 0 -355 0 0
-1570z"/>
<path d="M15930 6540 l0 -290 609 0 609 0 16 -47 c9 -26 16 -48 16 -49 0 -1
-26 -8 -57 -14 -93 -18 -243 -68 -308 -103 l-60 -32 -3 -1158 -2 -1157 347 2
348 3 3 1278 2 1277 405 0 405 0 0 290 0 290 -1165 0 -1165 0 0 -290z"/>
<path d="M9949 3215 c-428 -69 -769 -285 -986 -622 -219 -342 -305 -814 -238
-1302 81 -578 423 -1022 926 -1199 326 -115 745 -118 1074 -7 368 123 656 408
776 765 55 164 61 224 66 573 l5 327 -666 0 -666 0 0 -265 0 -265 326 0 327 0
-7 -62 c-10 -83 -49 -197 -90 -261 -69 -109 -206 -204 -351 -243 -33 -9 -119
-18 -191 -21 -171 -7 -264 10 -394 74 -200 98 -336 292 -402 572 -25 109 -36
434 -19 563 52 387 256 658 557 739 104 28 299 31 394 6 197 -52 342 -178 412
-357 l23 -60 359 0 358 0 -7 47 c-41 276 -216 557 -460 741 -144 108 -363 203
-562 243 -139 28 -434 35 -564 14z"/>
<path d="M22745 3224 c-271 -41 -448 -103 -615 -213 -70 -46 -180 -150 -235
-221 -55 -71 -109 -180 -136 -272 -31 -105 -38 -327 -14 -434 53 -244 197
-409 474 -549 109 -54 275 -106 557 -174 302 -73 367 -92 459 -136 143 -68
209 -155 209 -276 0 -85 -35 -160 -105 -223 -101 -90 -218 -126 -420 -126
-204 0 -337 43 -449 147 -71 65 -116 150 -133 247 l-11 66 -343 0 -343 0 6
-57 c32 -326 109 -501 301 -684 128 -123 286 -204 498 -259 161 -41 277 -54
490 -54 204 1 300 11 463 49 518 123 806 495 761 984 -12 126 -25 172 -81 289
-40 85 -63 118 -129 187 -97 101 -196 171 -332 235 -136 64 -245 98 -532 164
-132 31 -269 66 -305 77 -80 26 -184 79 -232 119 -103 85 -119 261 -35 372 42
55 109 100 194 130 60 20 87 23 223 23 132 0 165 -3 225 -22 142 -45 250 -156
277 -283 l12 -60 339 0 340 0 -6 84 c-29 367 -284 671 -674 802 -147 49 -252
65 -468 69 -110 2 -213 1 -230 -1z"/>
<path d="M12464 2618 c-106 -315 -343 -1022 -527 -1571 l-336 -997 382 2 382
3 100 337 100 338 574 -3 574 -2 100 -338 101 -337 378 0 c208 0 378 4 378 8
0 4 -236 710 -524 1567 l-524 1560 -483 3 -484 2 -191 -572z m908 -748 c92
-311 168 -570 168 -577 0 -10 -84 -13 -399 -13 -220 0 -402 3 -404 8 -3 6 315
1082 336 1135 6 15 17 17 69 15 l62 -3 168 -565z"/>
<path d="M15020 1620 l0 -1570 355 0 355 0 0 1196 0 1195 43 -3 42 -3 345
-1192 344 -1193 353 0 352 0 16 53 c8 28 167 565 354 1192 l338 1140 37 3 36
3 0 -1195 0 -1196 350 0 350 0 0 1570 0 1570 -597 -2 -598 -3 -300 -1050 -301
-1050 -36 -3 c-36 -3 -36 -2 -52 50 -8 29 -145 504 -302 1056 l-287 1002 -598
0 -599 0 0 -1570z"/>
<path d="M19200 1620 l0 -1570 1080 0 1080 0 -2 288 -3 287 -722 3 -723 2 0
350 0 350 585 0 585 0 0 290 0 290 -585 0 -585 0 0 350 0 350 720 0 720 0 0
290 0 290 -1075 0 -1075 0 0 -1570z"/>
<path d="M24275 3177 c-49 -22 -93 -80 -100 -131 -6 -37 -3 -55 16 -93 32 -62
65 -85 133 -91 171 -14 244 197 104 301 -33 25 -113 32 -153 14z m123 -51 c33
-18 62 -66 62 -101 0 -42 -33 -92 -74 -111 -76 -37 -166 23 -166 111 0 37 6
50 35 80 30 29 43 35 78 35 23 -1 52 -6 65 -14z"/>
<path d="M24280 3025 c0 -68 2 -75 20 -75 15 0 20 7 20 25 0 14 5 25 10 25 6
0 16 -11 22 -25 7 -16 19 -25 35 -25 23 0 23 1 9 29 -14 26 -14 30 -1 41 40
34 1 80 -68 80 l-47 0 0 -75z m80 25 c0 -13 -7 -20 -20 -20 -13 0 -20 7 -20
20 0 13 7 20 20 20 13 0 20 -7 20 -20z"/>
<path d="M5770 1137 c-850 -104 -1546 -191 -1548 -192 -1 -1 13 -87 31 -191
l33 -189 30 -7 c16 -5 693 -118 1504 -253 811 -135 1487 -248 1503 -251 l27
-6 0 641 c0 604 -1 641 -17 640 -10 -1 -713 -87 -1563 -192z"/>
</g>
</svg>
