<?xml version="1.0" standalone="no"?>
<!DOCTYPE svg PUBLIC "-//W3C//DTD SVG 20010904//EN"
 "http://www.w3.org/TR/2001/REC-SVG-20010904/DTD/svg10.dtd">
<svg version="1.0" xmlns="http://www.w3.org/2000/svg"
 width="601.000000pt" height="867.000000pt" viewBox="0 0 601.000000 867.000000"
 preserveAspectRatio="xMidYMid meet">

<g transform="translate(0.000000,867.000000) scale(0.100000,-0.100000)"
fill="#000000" stroke="none">
<path d="M903 8656 c-88 -22 -164 -66 -234 -135 -102 -102 -149 -219 -149
-371 l0 -70 70 0 71 0 -3 -102 -3 -103 -67 -3 -68 -3 0 -34 0 -35 62 0 61 0
81 88 c181 195 182 196 362 190 103 -3 114 -5 160 -33 76 -47 106 -98 112
-189 6 -90 -13 -149 -61 -198 -54 -54 -99 -68 -219 -68 l-108 0 0 105 0 104
98 3 c96 3 97 3 97 28 0 24 -2 25 -80 28 -44 2 -89 1 -101 -2 -11 -3 -66 -57
-122 -121 -56 -63 -117 -122 -134 -131 -20 -10 -67 -19 -120 -22 l-88 -5 0
-132 0 -132 53 -7 c28 -3 173 -6 321 -6 182 0 282 -4 310 -12 25 -8 59 -31 87
-59 39 -38 49 -56 59 -105 23 -109 -5 -213 -72 -269 -64 -54 -71 -55 -428 -55
l-330 0 0 -195 0 -194 28 4 c36 7 783 125 788 125 2 0 4 -49 4 -109 l0 -110
-52 -5 c-29 -4 -179 -18 -333 -31 -274 -25 -331 -31 -290 -34 11 -1 150 -15
309 -31 159 -17 296 -30 304 -30 10 0 5 9 -14 25 -16 14 -32 25 -36 25 -5 0
-8 7 -8 15 0 8 3 15 8 15 8 0 53 -29 62 -40 3 -3 25 -21 50 -40 25 -19 47 -38
48 -42 2 -5 10 -8 18 -8 8 0 14 -4 14 -9 0 -5 10 -13 22 -17 12 -4 37 -22 55
-40 18 -19 36 -34 40 -34 5 0 20 -11 35 -25 15 -14 30 -25 33 -25 9 0 95 -84
95 -92 0 -17 -42 -7 -63 15 -12 12 -49 42 -82 67 -33 24 -62 46 -65 50 -3 3
-23 19 -45 36 -21 16 -53 42 -70 59 l-30 29 -3 -98 -3 -97 -27 5 c-15 3 -189
33 -387 66 -198 33 -370 62 -382 65 l-23 5 0 -175 c0 -128 3 -175 12 -175 6 0
145 -23 307 -51 163 -28 341 -58 396 -67 l100 -17 0 -110 0 -110 -155 -26
c-85 -14 -261 -43 -390 -63 -129 -21 -243 -40 -253 -42 -16 -5 -17 -122 -15
-2437 l3 -2432 24 -60 c69 -172 209 -294 375 -324 75 -14 1256 -15 1256 -2 0
5 -7 16 -15 25 -8 8 -15 19 -15 25 0 6 -4 11 -10 11 -17 0 -11 30 11 62 26 36
38 27 48 -38 8 -47 8 -48 20 -24 10 22 11 20 7 -22 l-4 -48 389 0 388 0 5 43
c3 23 7 58 8 77 5 60 23 38 33 -39 6 -41 15 -76 21 -78 13 -4 30 34 43 102 26
132 40 186 62 240 4 11 11 36 14 55 16 86 54 144 41 63 -3 -21 -10 -105 -15
-188 -6 -82 -13 -178 -17 -212 l-6 -63 1183 0 c1014 0 1193 2 1247 15 194 46
347 202 381 389 8 42 11 590 10 1805 -1 960 -5 1728 -9 1706 -10 -55 -48 -159
-60 -163 -6 -2 -10 -39 -10 -83 0 -43 -4 -79 -8 -79 -9 0 -26 -14 -133 -115
-41 -40 -90 -79 -109 -88 -36 -18 -130 -23 -130 -7 0 14 -66 12 -90 -2 -17
-11 -27 -9 -60 9 -35 20 -46 22 -102 14 -66 -9 -158 8 -188 35 -12 12 -10 14
13 14 15 0 27 5 27 10 0 6 9 10 21 10 24 0 179 79 179 91 0 5 5 9 10 9 21 0
60 49 60 75 0 14 -4 25 -10 25 -5 0 -10 6 -10 14 0 8 -9 30 -19 48 -18 31 -19
35 -4 68 8 19 17 30 20 23 2 -7 0 -21 -6 -32 -6 -11 -8 -21 -3 -23 4 -2 27
-29 51 -60 24 -32 47 -58 52 -58 19 0 8 -21 -31 -60 -36 -36 -46 -50 -36 -50
2 0 19 13 37 30 28 24 35 27 38 13 2 -10 -9 -27 -25 -40 l-29 -23 25 0 c14 0
52 14 85 31 33 17 74 34 90 38 29 6 30 9 33 64 2 41 -1 57 -10 58 -7 1 -17 2
-23 4 -5 1 -18 3 -27 3 -19 2 -68 47 -68 62 0 6 -4 10 -10 10 -5 0 -10 -13
-10 -29 0 -21 10 -37 38 -60 l37 -30 -35 -1 c-38 0 -39 1 -91 97 -32 60 -33
85 -1 118 10 11 27 33 37 48 17 27 43 32 37 7 -1 -7 5 -18 14 -25 10 -7 15
-19 11 -29 -6 -14 -4 -14 20 1 15 10 35 16 45 15 24 -4 23 9 -3 42 -33 43 -16
40 31 -4 23 -22 50 -40 59 -40 9 0 25 -7 35 -15 16 -12 17 -17 6 -30 -7 -8
-10 -18 -7 -22 4 -3 1 -15 -5 -26 -9 -17 -8 -19 7 -14 9 4 18 7 20 7 5 0 95
128 95 135 0 4 7 13 15 21 23 24 18 60 -11 79 -38 25 -24 28 44 11 69 -18 82
-19 82 -7 0 4 -15 11 -32 15 -38 7 -124 31 -150 41 -13 5 -18 2 -18 -8 0 -8 7
-17 15 -21 30 -11 4 -35 -43 -38 -44 -3 -47 -5 -47 -30 1 -35 -3 -35 -15 -3
-6 15 -17 25 -30 25 -24 0 -25 -8 -4 -38 25 -36 9 -37 -27 -1 -29 28 -34 30
-44 15 -13 -18 -35 -22 -35 -6 0 6 -11 10 -25 10 -16 0 -25 6 -25 15 0 8 5 15
10 15 6 0 10 5 10 10 0 36 -126 -33 -219 -119 -24 -23 -48 -41 -52 -41 -5 0
-34 -25 -66 -55 -32 -30 -64 -55 -70 -55 -7 0 -13 -9 -13 -21 0 -24 -27 -86
-48 -111 -10 -12 -29 -18 -58 -18 -42 0 -155 -41 -183 -66 -18 -16 -6 -34 24
-34 12 0 25 -7 29 -15 3 -8 11 -15 17 -15 16 0 38 -31 39 -54 0 -20 0 -20 -15
0 -13 17 -14 17 -15 2 0 -14 -9 -18 -37 -18 -39 -1 -203 -28 -309 -53 -41 -9
-68 -11 -79 -5 -21 12 -35 0 -15 -12 12 -8 10 -10 -9 -10 -13 0 -32 -9 -41
-20 -12 -14 -20 -17 -25 -10 -4 6 2 21 13 33 10 12 28 38 38 57 10 19 21 37
24 40 7 7 40 79 40 87 0 3 -8 -1 -18 -10 -9 -8 -35 -19 -57 -23 -22 -4 -42
-10 -45 -13 -8 -10 -44 -31 -62 -37 -10 -4 -18 -10 -18 -15 0 -5 -7 -9 -15 -9
-21 0 -19 16 3 24 20 6 50 25 70 44 11 10 10 12 -7 12 -22 0 -94 -31 -99 -42
-7 -17 -32 -7 -32 12 0 21 -20 29 -20 8 -1 -27 -39 34 -45 71 -7 44 9 81 37
81 9 0 29 5 43 12 20 9 31 8 50 -2 30 -16 44 -6 27 20 -11 18 -9 20 12 20 13
0 86 16 162 35 75 19 148 35 160 35 13 0 26 5 29 10 10 16 38 12 32 -4 -4 -9
0 -14 11 -14 33 3 90 -13 102 -27 7 -8 27 -14 44 -14 23 1 25 3 9 6 -13 2 -23
7 -23 11 0 8 -31 22 -93 43 -34 12 -36 15 -21 26 10 7 26 13 35 13 21 0 339
127 354 141 5 5 19 9 32 9 13 0 23 5 23 10 0 6 7 10 17 10 9 0 58 20 109 45
64 32 105 59 136 92 95 104 87 99 169 95 41 -3 76 -8 79 -12 3 -4 41 -10 85
-13 44 -3 110 -9 148 -13 l67 -7 0 767 0 768 -32 -8 c-18 -4 -43 -7 -55 -6
-13 1 -23 -2 -23 -7 0 -8 -21 -12 -132 -28 -24 -3 -38 -1 -38 6 0 6 4 11 9 11
5 0 11 7 14 14 4 10 1 13 -8 10 -8 -3 -22 4 -32 15 -28 34 -37 24 -13 -14 19
-31 21 -40 10 -65 -7 -17 -16 -30 -21 -30 -5 0 -9 -8 -9 -18 0 -10 -6 -24 -12
-31 -11 -11 -8 -12 12 -6 14 4 27 12 28 16 2 5 17 9 33 9 17 0 28 -4 24 -10
-3 -5 -8 -48 -10 -95 -3 -47 -10 -95 -16 -106 -6 -12 -9 -33 -6 -48 6 -29 -27
-71 -56 -71 -8 0 -18 -6 -20 -12 -4 -10 -8 -10 -15 1 -12 17 -46 7 -39 -12 2
-7 25 -12 63 -13 140 -3 144 -3 138 -19 -4 -8 -15 -15 -26 -15 -10 0 -39 -11
-64 -25 -25 -14 -61 -25 -81 -25 -28 0 -33 -3 -25 -13 9 -10 1 -16 -36 -26
-125 -34 -213 -68 -220 -83 -6 -14 -22 -8 -50 17 -15 14 -32 25 -38 25 -33 0
-15 34 55 107 81 85 111 124 111 145 0 8 -5 6 -11 -4 -5 -10 -21 -18 -35 -18
-14 0 -41 -12 -60 -26 -19 -15 -36 -25 -38 -23 -2 2 -10 17 -18 32 l-14 28
-44 -41 c-24 -22 -47 -40 -52 -40 -4 0 -8 -7 -8 -15 0 -8 5 -15 12 -15 6 0 8
-3 5 -7 -8 -8 -47 31 -47 47 0 5 -3 10 -8 10 -4 0 -28 34 -52 75 -24 41 -47
75 -51 75 -4 0 -10 11 -13 25 -4 14 -11 25 -16 25 -6 0 -10 7 -10 15 0 8 -4
15 -9 15 -5 0 -12 8 -15 18 -3 9 -12 26 -19 37 -7 11 -24 40 -39 65 -15 25
-41 54 -58 65 -16 11 -30 23 -30 28 0 4 -7 7 -15 7 -8 0 -15 4 -15 10 0 5 -11
12 -25 16 -14 3 -25 8 -25 10 0 15 150 144 166 144 8 0 14 4 14 9 0 4 32 12
72 16 l72 7 97 98 c103 105 168 153 194 144 8 -3 15 -10 15 -15 0 -5 9 -9 20
-9 11 0 20 -4 20 -10 0 -5 9 -10 20 -10 11 0 44 -12 74 -26 56 -26 112 -29
175 -9 31 10 28 2 -35 -96 -27 -40 -47 -80 -46 -86 2 -7 -5 -13 -14 -13 -16 0
-16 -2 2 -14 12 -10 23 -11 31 -5 7 7 13 6 17 0 4 -6 19 -8 34 -5 15 3 40 -1
57 -10 17 -9 40 -16 52 -16 12 0 23 -3 25 -7 5 -12 64 -43 81 -43 9 0 17 -5
19 -12 2 -6 31 -13 66 -16 l62 -4 0 1255 c0 878 -3 1272 -11 1309 -39 187
-200 348 -387 387 -81 17 -4638 14 -4709 -3z m4402 -441 c236 -62 382 -303
321 -531 -30 -113 -122 -231 -216 -279 l-46 -23 -102 167 c-56 93 -102 171
-102 174 0 4 76 8 170 9 l170 3 -33 55 c-19 30 -84 138 -146 240 -62 102 -115
188 -118 193 -7 12 38 8 102 -8z m-154 -181 l97 -159 -172 -5 -172 -5 152
-250 c84 -137 153 -253 154 -257 0 -12 -60 -9 -116 6 -333 89 -444 495 -201
738 47 47 132 100 152 94 5 -1 53 -74 106 -162z m-987 -569 c15 -8 35 -15 42
-15 8 0 14 -4 14 -8 0 -16 145 -42 199 -35 43 5 51 3 51 -11 0 -13 -11 -16
-60 -16 -52 0 -75 -7 -164 -51 -58 -27 -110 -57 -117 -65 -6 -8 -18 -14 -25
-14 -8 0 -14 -4 -14 -10 0 -5 -16 -12 -35 -16 -19 -3 -35 -10 -35 -15 0 -5 -5
-9 -11 -9 -6 0 -17 -7 -25 -15 -20 -19 -5 -19 20 0 11 8 26 15 33 15 7 0 31
11 53 25 22 14 49 25 60 25 11 0 20 7 20 16 0 11 6 13 19 9 12 -3 23 0 28 9 8
14 59 23 197 32 74 5 80 4 101 -18 12 -14 26 -34 29 -46 4 -12 11 -22 15 -22
4 0 19 -9 32 -21 13 -11 34 -29 46 -39 12 -10 34 -27 50 -37 70 -45 68 -67 -3
-33 -26 12 -63 24 -81 27 -18 3 -33 10 -33 14 0 5 -24 9 -52 8 -29 0 -46 -3
-38 -6 8 -3 47 -21 86 -39 39 -19 76 -34 81 -34 6 0 21 -16 34 -35 13 -19 27
-35 32 -35 4 0 7 -7 7 -15 0 -8 4 -15 8 -15 5 0 19 -21 32 -47 13 -27 26 -50
29 -53 4 -3 15 -22 26 -42 11 -21 23 -38 27 -38 5 0 8 -9 8 -20 0 -11 5 -20
10 -20 6 0 10 -6 10 -13 0 -7 11 -28 24 -47 13 -19 27 -50 30 -67 4 -18 12
-33 17 -33 5 0 9 -10 9 -21 0 -18 -2 -19 -15 -9 -8 7 -15 19 -15 28 0 15 -77
124 -92 130 -4 2 -8 8 -8 14 0 5 -16 26 -35 46 -19 20 -35 40 -35 44 0 11 -82
92 -112 111 -15 9 -36 17 -48 17 -11 0 -20 4 -20 9 0 21 -223 36 -280 18 -19
-6 -39 -15 -44 -19 -6 -4 -23 -8 -39 -8 -16 0 -41 -7 -55 -15 -15 -8 -49 -25
-77 -37 l-50 -22 60 -7 c227 -27 240 -34 259 -121 4 -15 12 -32 19 -38 6 -5
26 -21 43 -35 31 -24 64 -99 64 -145 0 -12 4 -30 10 -40 8 -15 5 -23 -15 -38
-17 -14 -25 -30 -25 -50 0 -17 -4 -34 -10 -37 -5 -3 -10 -15 -10 -26 0 -10 -5
-19 -11 -19 -5 0 -7 -4 -4 -10 4 -6 15 -2 27 10 29 27 34 25 48 -12 6 -18 18
-48 26 -66 8 -18 14 -41 14 -52 0 -10 5 -20 11 -22 12 -4 22 -128 11 -144 -7
-10 -96 -64 -105 -64 -3 0 -8 12 -12 27 -3 15 -16 35 -28 46 -19 16 -22 17
-25 3 -4 -17 20 -46 37 -46 21 0 11 -15 -18 -28 -45 -20 -73 -49 -73 -77 0
-13 -8 -30 -16 -37 -13 -11 -15 -10 -9 4 9 25 -15 13 -38 -19 -11 -15 -29 -36
-40 -48 -21 -23 -41 -51 -52 -75 -4 -8 -18 -27 -32 -41 -24 -24 -30 -25 -91
-19 l-65 7 50 3 c43 3 45 4 15 7 -19 3 -39 9 -45 14 -16 16 -55 11 -55 -7 0
-14 -3 -14 -15 -4 -22 18 -20 89 3 96 9 3 26 10 37 15 11 5 52 8 92 7 62 -3
74 0 90 18 10 11 25 23 33 27 8 3 -15 6 -52 6 -38 1 -68 5 -68 10 0 5 -25 9
-56 10 -65 0 -72 4 -53 27 22 27 74 44 131 44 51 0 89 12 72 23 -12 6 -146 1
-212 -8 l-54 -8 24 26 c26 29 64 115 54 124 -4 4 -33 -2 -66 -14 -33 -11 -70
-18 -83 -16 -23 4 -23 7 -23 126 1 101 -2 122 -14 125 -13 2 -15 -18 -15 -129
l0 -132 35 -12 c27 -9 36 -18 38 -38 2 -15 -1 -27 -7 -27 -6 0 -8 -7 -5 -15 4
-8 12 -15 20 -15 13 0 19 -13 15 -34 -1 -4 -2 -28 -3 -52 -1 -49 -12 -58 -22
-18 -7 25 -28 54 -40 54 -3 0 -6 -21 -6 -47 -1 -56 -18 -88 -37 -68 -7 7 -10
15 -7 17 2 3 0 23 -5 44 -9 39 -9 39 -10 -18 -1 -55 1 -59 45 -102 25 -25 54
-48 65 -51 10 -4 19 -11 19 -16 0 -5 5 -9 10 -9 6 0 23 -11 38 -25 15 -14 32
-25 39 -25 13 0 93 -77 93 -89 0 -4 16 -16 35 -27 19 -10 35 -21 35 -24 0 -10
59 -31 77 -28 13 2 20 -7 27 -37 6 -22 13 -42 17 -45 3 -3 8 -30 11 -60 3 -30
3 -47 1 -37 -2 9 -9 17 -14 17 -5 0 -9 16 -9 35 0 21 -6 38 -17 45 -13 8 -14
13 -5 16 22 10 13 29 -20 43 -18 8 -36 19 -40 25 -5 8 -8 7 -8 -1 0 -6 7 -18
15 -27 8 -8 15 -17 15 -21 0 -4 7 -13 15 -21 10 -10 12 -21 7 -32 -5 -9 -10
-39 -11 -66 -1 -26 -7 -69 -12 -95 -6 -25 -13 -77 -16 -114 -4 -56 -8 -67 -22
-65 -11 2 -18 20 -25 66 -5 34 -13 62 -17 62 -5 0 -9 7 -9 17 0 9 -3 14 -6 10
-3 -3 1 -27 10 -53 9 -26 16 -60 16 -76 0 -15 5 -28 10 -28 6 0 10 -9 10 -20
0 -16 7 -20 35 -20 34 0 34 0 22 -27 -6 -16 -20 -37 -29 -47 -10 -11 -20 -28
-24 -38 -3 -10 -10 -18 -15 -18 -5 0 -9 -7 -9 -15 0 -8 -4 -15 -10 -15 -5 0
-12 -11 -16 -25 -3 -14 -10 -25 -15 -25 -5 0 -9 -4 -9 -10 0 -5 -13 -29 -29
-52 -16 -24 -69 -104 -117 -178 -48 -74 -91 -137 -94 -140 -4 -3 -15 -20 -25
-37 -11 -18 -23 -33 -27 -33 -4 0 -8 -4 -8 -9 0 -4 -23 -42 -50 -84 -35 -53
-55 -75 -65 -71 -8 4 -15 11 -15 16 0 15 130 231 142 236 5 2 8 8 8 13 0 6 52
93 115 195 63 101 115 189 115 194 0 6 4 10 10 10 5 0 12 11 16 25 3 14 9 25
13 25 3 0 15 17 26 38 11 20 24 40 30 45 7 4 7 10 0 15 -16 11 -45 72 -45 92
0 10 -7 31 -15 46 -8 16 -15 37 -15 46 0 9 -4 20 -10 23 -5 3 -10 13 -10 21 0
8 -9 25 -21 37 -11 12 -25 31 -30 42 -4 11 -22 43 -39 70 -17 28 -33 58 -36
68 -4 9 -10 17 -14 17 -5 0 -11 9 -15 19 -10 34 -108 121 -121 109 -3 -3 2
-12 10 -20 12 -13 8 -15 -32 -15 -37 0 -55 6 -87 31 -22 17 -44 34 -50 38 -59
43 -67 55 -57 74 16 27 31 114 21 114 -5 0 -9 -12 -9 -26 0 -14 -12 -50 -26
-81 -15 -31 -22 -58 -17 -62 15 -10 86 -65 108 -83 11 -9 30 -25 42 -35 12
-10 33 -27 47 -37 36 -26 32 -36 -11 -29 -40 7 -123 50 -123 64 0 5 -7 9 -15
9 -24 0 -105 62 -105 81 0 10 -3 19 -7 21 -11 4 -43 67 -43 84 0 8 -4 14 -10
14 -5 0 -12 16 -16 35 -10 54 -24 41 -24 -22 l-1 -58 -21 25 -21 25 8 -25 c4
-14 11 -29 16 -34 5 -6 9 -17 9 -25 1 -9 9 -34 20 -56 11 -22 19 -50 20 -62 0
-13 5 -23 10 -23 6 0 10 -7 10 -15 0 -8 4 -15 9 -15 5 0 11 -8 14 -17 2 -10 8
-25 11 -34 11 -25 -21 -32 -55 -12 -16 10 -29 22 -29 28 0 6 -11 22 -25 37
-14 15 -25 32 -25 38 0 5 -5 10 -10 10 -6 0 -15 11 -20 25 -10 26 -62 55 -99
55 -11 0 -21 3 -23 8 -4 10 -67 42 -84 42 -7 0 -16 11 -20 25 -3 13 -12 29
-20 36 -11 9 -14 39 -13 123 1 61 4 122 8 136 7 25 7 25 19 4 6 -12 23 -24 38
-27 24 -4 26 -2 21 23 -16 77 -19 130 -8 130 6 0 11 13 11 29 0 17 5 33 10 36
6 3 10 17 10 31 0 15 6 24 15 24 8 0 15 -8 15 -17 1 -19 108 -103 132 -103 8
0 29 -7 47 -16 17 -8 37 -13 44 -11 7 3 5 6 -5 6 -10 1 -18 8 -18 17 0 13 7
15 34 10 33 -6 33 -6 39 37 7 51 -2 155 -14 163 -5 3 -9 21 -9 40 0 19 -4 34
-9 34 -5 0 -12 21 -16 48 -4 26 -10 52 -14 57 -9 13 -32 82 -42 124 -7 32 3
95 31 196 6 22 16 64 22 94 7 34 20 64 35 79 23 23 28 24 61 14 40 -13 65 -1
44 20 -7 7 -12 20 -12 30 0 10 -4 18 -10 18 -23 0 -6 27 55 87 35 34 69 63 74
63 5 0 11 3 13 8 2 4 44 27 93 52 96 47 218 119 223 132 2 4 10 8 18 8 8 0 14
4 14 10 0 5 11 12 25 16 14 3 25 9 25 14 0 4 16 15 35 26 19 10 35 22 35 26 0
5 5 8 11 8 6 0 17 7 25 15 19 19 32 19 68 0z m521 -715 c18 -8 17 -9 -7 -9
-17 -1 -29 -8 -33 -21 -3 -11 -11 -20 -16 -20 -5 0 -9 -6 -9 -14 0 -8 -3 -16
-8 -18 -15 -6 -72 -105 -72 -125 0 -12 7 -23 15 -27 17 -6 20 -42 5 -51 -10
-6 -15 -45 -6 -45 21 0 36 17 36 39 0 17 11 38 30 56 35 33 38 58 10 78 -13 9
-17 20 -13 35 8 30 18 28 49 -14 41 -54 37 -87 -19 -139 -43 -40 -61 -75 -37
-75 16 0 11 -48 -9 -89 -14 -27 -26 -37 -41 -36 -39 3 -44 20 -47 163 -4 158
6 193 69 253 21 20 38 41 38 47 0 20 33 26 65 12z m-179 -35 c-9 -9 -16 -23
-16 -31 0 -8 -4 -14 -10 -14 -5 0 -10 -9 -10 -20 0 -11 -4 -20 -10 -20 -21 0
-8 46 22 77 17 18 34 31 36 28 2 -2 -3 -11 -12 -20z m214 -65 l0 -50 -26 16
c-17 11 -23 22 -18 33 3 9 9 24 11 34 3 9 12 17 19 17 10 0 14 -14 14 -50z
m107 -67 c-3 -10 -5 -4 -5 12 0 17 2 24 5 18 2 -7 2 -21 0 -30z m-2743 2 c8
-8 17 -15 21 -15 3 0 16 -11 29 -25 13 -14 27 -25 32 -25 5 0 20 -10 34 -23
14 -12 45 -38 70 -57 25 -19 47 -37 50 -40 3 -3 23 -18 45 -35 46 -34 60 -45
80 -62 7 -7 16 -13 19 -13 16 0 116 -96 116 -111 0 -15 -20 -10 -43 12 -12 11
-41 30 -64 41 -24 12 -43 25 -43 29 0 3 -8 9 -17 12 -24 8 -124 66 -144 83 -8
8 -19 14 -24 14 -4 0 -23 11 -41 25 -18 14 -37 25 -43 25 -6 0 -11 3 -11 8 0
4 -27 23 -60 42 -33 19 -60 38 -60 43 0 4 -6 7 -14 7 -8 0 -16 5 -18 12 -2 6
-32 13 -69 16 -72 5 -106 22 -43 22 22 0 44 4 50 9 8 9 38 14 111 19 12 1 28
-5 37 -13z m2886 -90 c0 -14 4 -25 9 -25 5 0 12 -27 16 -60 4 -33 11 -63 16
-66 5 -3 9 -33 9 -68 0 -34 4 -66 8 -71 5 -6 19 -38 32 -73 26 -71 40 -87 40
-45 0 16 5 34 11 40 7 7 9 29 5 60 -13 96 -16 183 -6 183 5 0 12 -12 16 -27 3
-16 10 -38 15 -51 5 -13 9 -33 9 -45 0 -12 12 -45 26 -73 25 -47 28 -50 50
-40 13 6 24 14 24 19 0 10 48 9 54 -2 3 -4 -15 -19 -39 -31 -25 -13 -45 -27
-45 -32 0 -5 -11 -13 -25 -18 -14 -5 -25 -14 -25 -20 0 -5 -7 -10 -15 -10 -8
0 -15 -3 -15 -7 0 -11 -58 -43 -76 -43 -8 0 -14 -4 -14 -10 0 -5 -7 -10 -15
-10 -8 0 -15 -4 -15 -9 0 -5 -15 -13 -32 -16 -18 -4 -38 -11 -44 -16 -6 -5
-25 -10 -43 -12 -17 -2 -37 -9 -43 -15 -7 -7 -16 -12 -21 -12 -5 0 -20 -11
-33 -25 -13 -14 -26 -25 -30 -25 -8 0 -33 -32 -34 -42 0 -5 7 -8 15 -8 8 0 15
5 15 12 0 6 3 8 7 5 3 -4 -3 -16 -15 -27 -18 -17 -22 -18 -22 -5 0 8 -5 15
-11 15 -6 0 -9 -9 -6 -20 3 -13 1 -18 -6 -13 -6 4 -8 0 -4 -10 3 -10 2 -17 -4
-17 -36 0 10 128 55 152 11 6 31 21 45 34 14 13 28 24 31 24 10 0 42 61 36 67
-3 4 -6 1 -6 -5 0 -7 -11 -12 -25 -12 -14 0 -25 -4 -25 -8 0 -5 -17 -17 -37
-27 -21 -10 -50 -24 -65 -32 -37 -18 -50 -17 -39 5 22 39 52 124 81 232 7 25
16 54 20 66 5 12 11 48 15 80 8 63 20 94 35 94 14 0 40 -67 40 -101 l0 -28 25
25 c14 14 25 35 26 47 1 21 2 20 8 -3 5 -14 4 -29 -1 -34 -11 -14 -10 -66 2
-66 6 0 11 -30 11 -67 1 -38 4 -56 6 -40 2 15 8 27 12 27 12 0 35 106 26 127
-8 19 -23 108 -32 186 -3 31 -1 47 6 47 6 0 11 -11 11 -25z m-143 -32 c-3 -10
-5 -4 -5 12 0 17 2 24 5 18 2 -7 2 -21 0 -30z m-112 -22 c-6 -5 -25 10 -25 20
0 5 6 4 14 -3 8 -7 12 -15 11 -17z m-39 -16 c9 -8 12 -19 9 -25 -7 -11 -35 12
-35 29 0 15 9 14 26 -4z m374 -25 c0 -5 -5 -10 -11 -10 -5 0 -7 5 -4 10 3 6 8
10 11 10 2 0 4 -4 4 -10z m-326 -125 c-6 -31 -8 -35 -16 -20 -7 12 -6 25 3 41
17 32 22 24 13 -21z m353 23 c-3 -8 -6 -5 -6 6 -1 11 2 17 5 13 3 -3 4 -12 1
-19z m-452 -88 c-3 -5 -12 -10 -20 -10 -7 0 -21 -7 -29 -16 -21 -21 -21 -6 1
18 17 19 59 26 48 8z m-2429 -94 c11 -3 29 -14 40 -24 11 -9 36 -26 57 -36 22
-12 37 -26 37 -38 0 -21 -15 -24 -23 -4 -5 14 -19 22 -97 62 -19 10 -40 23
-47 29 -7 5 -20 16 -29 24 -13 11 -13 15 -3 22 8 4 19 1 28 -10 9 -10 25 -21
37 -25z m2394 14 c0 -16 -4 -30 -10 -30 -5 0 -10 14 -10 30 0 17 5 30 10 30 6
0 10 -13 10 -30z m43 -55 c4 -8 2 -17 -3 -20 -6 -4 -10 3 -10 14 0 25 6 27 13
6z m-28 -54 c3 -5 1 -12 -5 -16 -5 -3 -10 1 -10 9 0 18 6 21 15 7z m45 -7 c0
-8 -5 -12 -10 -9 -6 4 -8 11 -5 16 9 14 15 11 15 -7z m2 -59 c-5 -41 -22 -37
-22 6 0 17 5 29 13 29 9 0 12 -11 9 -35z m-62 -16 c0 -16 -4 -29 -10 -29 -5 0
-10 16 -10 36 0 21 4 33 10 29 6 -3 10 -19 10 -36z m-2111 10 c25 -20 23 -36
-3 -26 -16 6 -42 47 -29 47 4 -1 19 -10 32 -21z m2498 -35 c-3 -3 -12 -4 -19
-1 -8 3 -5 6 6 6 11 1 17 -2 13 -5z m-2950 -66 c-3 -8 -6 -5 -6 6 -1 11 2 17
5 13 3 -3 4 -12 1 -19z m2831 8 c-8 -7 -25 -17 -38 -21 -21 -7 -22 -6 -9 7 14
14 36 26 52 27 5 1 2 -5 -5 -13z m-2861 -72 c-3 -3 -12 -4 -19 -1 -8 3 -5 6 6
6 11 1 17 -2 13 -5z m773 -19 c22 -14 42 -25 46 -25 3 0 12 -7 20 -15 9 -8 11
-15 6 -15 -15 0 -72 34 -72 43 0 4 -9 7 -19 7 -10 0 -21 7 -25 15 -7 20 -2 19
44 -10z m-677 -2 c-7 -2 -21 -2 -30 0 -10 3 -4 5 12 5 17 0 24 -2 18 -5z
m2447 -28 c0 -14 -4 -25 -10 -25 -11 0 -14 33 -3 43 11 11 13 8 13 -18z m158
-13 c2 -7 -7 -12 -23 -12 -24 0 -26 2 -15 15 14 17 31 16 38 -3z m-2609 -53
c-20 -13 -29 -11 -29 5 0 16 33 27 39 13 2 -5 -3 -13 -10 -18z m2461 15 c0
-12 -34 -79 -52 -103 -20 -26 -16 -41 12 -41 10 0 20 -7 24 -15 4 -10 -1 -15
-14 -15 -11 0 -20 -4 -20 -10 0 -5 -7 -10 -15 -10 -8 0 -15 -5 -15 -11 0 -12
-38 -49 -50 -49 -8 0 50 150 61 160 3 3 14 26 25 52 10 27 25 48 32 48 6 0 12
-3 12 -6z m-1595 -34 c3 -5 -1 -10 -9 -10 -9 0 -16 5 -16 10 0 6 4 10 9 10 6
0 13 -4 16 -10z m75 -90 c0 -5 -2 -10 -4 -10 -3 0 -8 5 -11 10 -3 6 -1 10 4
10 6 0 11 -4 11 -10z m-836 -35 c8 -8 20 -15 26 -15 21 0 60 -33 60 -51 0 -25
-16 -24 -78 6 -29 14 -56 25 -62 25 -14 0 -13 23 2 38 16 16 33 15 52 -3z
m776 0 c-7 -8 -18 -15 -25 -15 -8 0 -15 -3 -17 -7 -4 -11 -67 -43 -84 -43 -8
0 -14 -3 -14 -8 0 -4 -9 -12 -20 -17 -84 -42 -204 -107 -215 -118 -7 -6 -32
-28 -55 -46 -23 -19 -48 -41 -56 -48 -7 -7 -17 -13 -23 -13 -6 0 -11 -4 -11
-10 0 -5 -11 -12 -24 -16 -29 -7 -76 -57 -76 -80 0 -13 -6 -15 -30 -10 -16 3
-44 9 -61 12 -34 7 -36 30 -4 48 10 6 25 17 33 24 7 6 20 12 28 12 8 0 14 3
14 8 0 4 10 12 23 18 41 20 92 49 97 55 3 4 15 9 28 13 12 4 22 12 22 17 0 5
6 9 14 9 8 0 16 4 18 8 4 9 134 92 145 92 5 0 54 23 111 50 57 28 107 50 113
50 5 0 9 4 9 9 0 10 22 18 54 20 15 1 16 -2 6 -14z m460 -234 c0 -6 -4 -11
-10 -11 -5 0 -10 4 -10 9 0 5 -3 18 -7 28 -6 17 -6 17 10 1 9 -9 17 -21 17
-27z m312 2 c24 -9 45 -19 48 -23 10 -11 95 -45 107 -42 15 3 43 -21 43 -36 0
-6 3 -12 8 -14 9 -4 42 -66 42 -80 0 -6 -9 -8 -22 -4 -13 4 -45 9 -73 12 -53
5 -63 13 -145 114 -19 24 -46 54 -60 67 -20 19 -22 23 -8 23 10 0 37 -8 60
-17z m2238 -1 c0 -15 -11 -21 -27 -15 -12 5 -12 7 -1 14 17 11 28 11 28 1z
m-1666 -106 c31 -1 56 -3 56 -7 0 -8 -92 -65 -119 -74 -19 -6 -20 -4 -10 25 6
17 8 43 5 58 -5 19 -4 23 3 12 7 -9 28 -14 65 -14z m-90 -111 c-4 -8 -11 -12
-16 -9 -6 4 -5 10 3 15 19 12 19 11 13 -6z m-1823 -99 c-8 -17 -16 -49 -16
-71 0 -34 -3 -39 -19 -37 -10 2 -29 1 -42 -2 -23 -6 -23 -7 -27 -204 -3 -147
-8 -213 -21 -262 -10 -36 -22 -92 -26 -125 -5 -33 -16 -94 -24 -135 -28 -138
-35 -184 -46 -317 -9 -111 -8 -142 4 -185 8 -29 18 -89 21 -133 6 -74 5 -82
-17 -110 -33 -43 -59 -73 -93 -110 -16 -18 -73 -79 -125 -136 -109 -118 -113
-122 -164 -167 -21 -19 -35 -36 -33 -38 3 -3 18 -7 33 -8 22 -3 28 -8 27 -22
-5 -45 -15 -90 -23 -109 -5 -11 -15 -40 -23 -65 -8 -24 -20 -46 -27 -48 -8 -3
-10 2 -6 16 6 17 -9 68 -24 82 -3 3 -14 25 -25 50 -11 25 -22 47 -25 50 -3 3
-13 22 -23 44 -16 35 -15 73 3 86 3 3 26 41 50 85 23 44 45 82 49 85 4 3 15
25 26 50 11 25 22 47 25 50 3 3 14 28 24 55 10 28 21 59 26 70 4 11 16 47 26
80 10 33 21 65 25 70 4 6 10 27 14 48 4 20 11 40 16 43 5 3 9 16 9 30 0 13 4
32 9 42 9 16 15 34 55 177 10 33 22 70 27 83 5 13 9 32 9 42 0 11 4 20 9 20 5
0 12 22 16 50 4 27 11 52 16 56 5 3 9 16 9 29 0 13 4 26 9 30 6 3 13 26 17 50
3 25 10 48 15 51 5 3 9 16 9 29 0 13 4 26 9 29 5 4 12 29 16 56 4 28 10 50 15
50 4 0 10 17 13 38 3 20 13 64 22 97 35 127 54 239 42 247 -6 4 -9 9 -7 13 3
3 37 38 75 78 70 74 97 83 66 23z m1660 -46 c5 0 9 -4 9 -10 0 -15 -20 -12
-38 7 -16 16 -16 16 1 10 10 -4 23 -7 28 -7z m386 -42 c-3 -8 -6 -5 -6 6 -1
11 2 17 5 13 3 -3 4 -12 1 -19z m-532 -8 c3 -6 -1 -7 -9 -4 -18 7 -21 14 -7
14 6 0 13 -4 16 -10z m-140 -1025 c-9 -5 -29 -20 -43 -32 -25 -21 -72 -32 -72
-17 0 11 82 139 92 142 4 2 8 9 8 16 0 7 6 18 13 25 10 10 13 -1 15 -56 3 -55
0 -70 -13 -78z m1625 64 c0 -7 -10 -20 -22 -31 -28 -24 -38 -5 -12 23 19 21
34 25 34 8z m-1713 -211 c35 -13 41 -28 20 -50 -7 -7 -22 -29 -33 -48 -10 -19
-25 -41 -31 -48 -7 -7 -13 -17 -13 -21 0 -4 -16 -24 -35 -44 -19 -20 -35 -39
-35 -42 0 -3 -5 -11 -11 -18 -5 -7 -29 -41 -52 -76 -39 -60 -46 -65 -96 -78
-30 -7 -56 -12 -58 -9 -2 2 12 29 31 59 20 31 36 58 36 61 0 4 96 160 177 289
25 40 44 45 100 25z m434 -118 c9 -8 20 -33 23 -55 l6 -41 -53 -16 c-44 -13
-54 -13 -68 -2 -13 12 -21 12 -49 -3 -32 -15 -56 -33 -85 -60 -7 -7 -15 -10
-18 -7 -3 3 13 26 36 51 81 87 137 143 143 143 3 0 13 7 22 16 13 13 17 14 21
3 2 -7 12 -20 22 -29z m63 -149 c-2 -2 2 -11 8 -20 8 -10 4 -9 -10 3 -12 11
-22 25 -22 33 0 11 3 11 14 1 8 -7 12 -15 10 -17z m-153 -3 c7 -12 12 -37 11
-55 -1 -18 2 -33 7 -33 5 0 12 -11 15 -24 3 -14 14 -26 23 -28 15 -3 15 -5 -2
-22 -15 -14 -16 -22 -7 -36 12 -19 0 -32 -82 -94 -21 -16 -63 -54 -92 -84 -30
-30 -56 -53 -57 -51 -31 43 -36 59 -24 72 6 7 30 32 51 55 22 23 36 45 33 49
-4 4 -39 -26 -78 -67 -56 -59 -70 -80 -67 -101 1 -14 -2 -33 -7 -40 -26 -36
-46 -80 -40 -89 3 -6 -1 -7 -9 -4 -12 5 -16 -1 -16 -24 0 -39 -20 -56 -46 -38
-16 12 -17 17 -5 40 10 19 12 46 7 106 l-6 80 41 45 c23 25 48 45 56 45 7 0
16 7 19 15 4 8 10 15 16 15 5 0 16 7 24 15 8 8 24 21 36 29 12 9 18 21 15 30
-8 21 -26 20 -34 -1 -8 -20 -33 -48 -33 -37 0 4 14 30 32 57 26 40 29 53 20
67 -9 14 -7 23 10 42 11 12 25 22 30 20 6 -1 16 2 24 8 19 16 97 57 111 59 7
0 18 -9 24 -21z m206 -61 c-6 -19 -23 -18 -23 2 0 11 5 17 14 14 7 -3 11 -10
9 -16z m1540 17 c-3 -3 -12 -4 -19 -1 -8 3 -5 6 6 6 11 1 17 -2 13 -5z m-1680
-46 c-3 -8 -6 -5 -6 6 -1 11 2 17 5 13 3 -3 4 -12 1 -19z m100 -4 c-3 -3 -12
-4 -19 -1 -8 3 -5 6 6 6 11 1 17 -2 13 -5z m-37 -12 c0 -5 -11 -14 -25 -20
-15 -7 -25 -8 -25 -2 0 6 7 10 15 10 8 0 15 5 15 10 0 6 5 10 10 10 6 0 10 -4
10 -8z m1674 -28 c5 -12 -4 -14 -47 -9 -64 8 -80 13 -74 22 9 14 115 2 121
-13z m-1589 -14 c-15 -16 -32 -27 -36 -24 -12 7 1 34 17 34 8 0 14 5 14 10 0
6 8 10 17 10 13 0 11 -6 -12 -30z m25 -41 c-43 -41 -49 -30 -8 13 18 19 35 30
36 26 2 -5 -10 -23 -28 -39z m1553 2 c6 -6 19 -11 29 -11 11 0 18 -7 18 -20 0
-15 -7 -20 -26 -20 -27 0 -27 1 -7 -48 3 -8 0 -10 -11 -6 -9 3 -16 10 -16 15
0 5 -7 9 -15 9 -8 0 -15 4 -15 9 0 5 -7 12 -16 15 -14 6 -14 3 2 -21 9 -16 30
-41 46 -56 15 -16 28 -33 28 -38 0 -6 -25 14 -55 45 -30 30 -55 64 -55 75 0
13 -8 21 -22 23 -15 2 -24 11 -26 27 -4 24 -3 24 63 19 37 -3 72 -11 78 -17z
m-2513 -21 c0 -5 -10 -10 -22 -10 -19 0 -20 2 -8 10 19 13 30 13 30 0z m-551
-32 c-7 -13 -17 -26 -23 -30 -19 -13 -46 -9 -46 6 0 18 38 46 63 46 15 0 16
-3 6 -22z m61 -7 c0 -4 -8 -19 -18 -32 -10 -13 -26 -41 -37 -61 -24 -47 -37
-49 -33 -5 2 22 10 35 26 42 12 5 20 14 18 20 -5 16 13 45 29 45 8 0 15 -4 15
-9z m720 -43 c0 -5 -11 -8 -24 -8 -13 0 -27 -6 -30 -12 -3 -7 -3 -2 0 12 11
42 24 53 40 33 7 -10 14 -21 14 -25z m-820 -15 c0 -18 -49 -63 -69 -63 -27 0
-27 18 1 47 20 21 68 32 68 16z m110 -32 c0 -12 -26 -32 -33 -25 -9 10 4 34
19 34 8 0 14 -4 14 -9z m-170 -115 c0 -2 -7 -9 -15 -16 -12 -10 -15 -10 -15 4
0 9 7 16 15 16 8 0 15 -2 15 -4z m689 -27 c-19 -12 -24 -2 -8 17 9 11 14 13
17 4 3 -7 -2 -16 -9 -21z m433 -29 c-11 -11 -27 -20 -33 -20 -7 0 -2 8 9 19
12 10 22 24 22 32 0 10 3 10 12 1 9 -9 7 -16 -10 -32z m-471 -21 c-5 -13 -10
-19 -10 -12 -1 15 10 45 15 40 3 -2 0 -15 -5 -28z m-711 -4 c0 -8 -7 -15 -15
-15 -8 0 -24 -5 -34 -12 -15 -9 -23 -7 -47 15 l-29 27 63 0 c48 0 62 -3 62
-15z m-135 -5 c3 -5 1 -10 -4 -10 -6 0 -11 -7 -11 -15 0 -15 -3 -23 -33 -83
-9 -19 -17 -40 -17 -48 0 -15 -9 -17 -34 -8 -18 7 -22 39 -6 49 6 3 10 17 10
31 0 15 14 38 36 59 38 37 49 41 59 25z m822 -32 c-3 -8 -6 -5 -6 6 -1 11 2
17 5 13 3 -3 4 -12 1 -19z m-777 -86 c0 -11 -39 -52 -50 -52 -5 0 3 13 18 29
31 33 32 34 32 23z m1010 -34 c0 -5 -4 -8 -10 -8 -5 0 -10 10 -10 23 0 18 2
19 10 7 5 -8 10 -18 10 -22z m-2055 -20 c39 -6 109 -14 157 -17 96 -8 113 -15
84 -37 -14 -10 -49 -14 -121 -14 -98 0 -125 -8 -125 -34 0 -6 5 -4 10 4 8 12
10 9 12 -12 3 -60 3 -63 -12 -60 -29 7 51 -76 135 -137 33 -25 62 -48 63 -53
2 -4 10 -8 18 -8 8 0 14 -3 14 -8 0 -4 16 -16 35 -26 42 -23 43 -32 8 -70 -18
-20 -27 -41 -28 -64 0 -37 -33 -71 -42 -44 -3 6 -11 12 -18 12 -16 0 -85 78
-85 96 0 6 -7 25 -15 40 -8 16 -15 37 -15 47 0 9 -3 17 -7 17 -5 0 -16 20 -26
44 -10 25 -28 55 -40 68 -12 13 -35 51 -52 84 -16 32 -33 61 -37 62 -5 2 -8 8
-8 13 0 5 -10 26 -23 47 -42 66 -41 71 6 65 23 -2 74 -9 112 -15z m1522 -10
c-3 -8 -6 -5 -6 6 -1 11 2 17 5 13 3 -3 4 -12 1 -19z m500 -10 c-3 -7 -5 -2
-5 12 0 14 2 19 5 13 2 -7 2 -19 0 -25z m68 3 c-6 -5 -25 10 -25 20 0 5 6 4
14 -3 8 -7 12 -15 11 -17z m-1100 -43 c35 -3 40 -6 43 -31 l3 -27 -75 3 c-60
3 -76 1 -76 -10 0 -27 -32 -63 -57 -63 l-24 0 18 31 c10 17 28 39 41 49 12 10
22 23 22 28 0 6 5 23 10 38 l11 27 22 -21 c13 -12 39 -22 62 -24z m1018 5 c-7
-3 -13 -12 -13 -20 0 -9 -2 -14 -5 -11 -4 3 -3 18 1 33 5 20 9 24 18 14 8 -8
8 -13 -1 -16z m87 15 c0 -7 -11 -26 -25 -42 -14 -16 -25 -33 -25 -38 0 -4 -4
-8 -10 -8 -13 0 -13 17 0 33 6 7 19 24 31 40 23 30 29 33 29 15z m-403 -40
c-3 -8 -6 -5 -6 6 -1 11 2 17 5 13 3 -3 4 -12 1 -19z m-22 -37 c-3 -12 -10
-21 -15 -21 -4 0 -3 11 3 24 14 29 22 27 12 -3z m305 5 c0 -8 -9 -24 -19 -37
l-20 -24 6 23 c3 12 9 22 14 22 5 0 9 7 9 15 0 8 2 15 5 15 3 0 5 -6 5 -14z
m-1024 -62 c-19 -19 -21 -11 -4 16 7 11 14 16 16 10 2 -5 -4 -17 -12 -26z m72
-18 c-7 -8 -15 -12 -17 -11 -5 6 10 25 20 25 5 0 4 -6 -3 -14z m592 -26 c0 -5
-5 -10 -11 -10 -5 0 -7 5 -4 10 3 6 8 10 11 10 2 0 4 -4 4 -10z m-759 -22 c7
-13 18 -28 25 -35 11 -11 9 -53 -2 -53 -3 0 -21 7 -40 15 -30 12 -35 19 -30
37 3 13 6 31 6 41 0 24 27 21 41 -5z m725 -34 c-9 -8 -16 -22 -16 -30 0 -8 -4
-14 -10 -14 -5 0 -10 -7 -10 -17 0 -9 -3 -13 -7 -10 -3 4 2 24 13 44 23 46 38
64 42 52 2 -5 -4 -16 -12 -25z m-625 12 c12 6 12 5 0 -9 -10 -13 -17 -15 -27
-6 -8 6 -11 16 -8 21 4 6 9 5 14 -2 5 -8 13 -9 21 -4z m1245 -26 c-3 -23 -10
-49 -15 -58 -13 -24 -36 -96 -57 -175 -9 -37 -21 -70 -26 -73 -4 -3 -8 -16 -8
-29 0 -30 -13 -38 -77 -45 l-53 -6 0 36 c0 34 3 38 38 49 34 11 41 19 88 119
29 59 60 127 70 152 31 79 50 93 40 30z m1379 -22 c6 -4 2 -8 -7 -8 -10 0 -18
7 -18 17 0 9 3 12 8 7 4 -5 12 -12 17 -16z m-2811 3 c3 -5 -3 -20 -14 -34 -28
-36 -25 -45 20 -64 43 -19 61 -43 31 -43 -20 0 -31 -19 -31 -51 0 -18 -18 -58
-31 -69 -3 -3 -8 -13 -12 -22 -5 -16 -83 -58 -106 -58 -5 0 -28 -19 -50 -42
-42 -43 -54 -38 -24 10 10 15 20 29 23 32 3 3 10 14 16 25 37 67 66 119 80
141 11 16 15 36 11 57 -9 56 64 155 87 118z m288 -14 c7 -8 20 -16 28 -20 12
-4 12 -6 -2 -6 -9 -1 -20 4 -23 10 -4 6 -17 14 -29 19 -16 7 -17 9 -4 9 9 1
23 -5 30 -12z m465 -57 c-17 -28 -29 -25 -15 5 6 13 15 22 19 19 5 -3 3 -14
-4 -24z m2443 20 c0 -5 -7 -10 -16 -10 -8 0 -12 5 -9 10 3 6 10 10 16 10 5 0
9 -4 9 -10z m-3017 -46 c7 -7 -13 -54 -24 -54 -14 0 -17 14 -8 38 8 22 20 28
32 16z m530 -51 c-9 -15 -20 -30 -23 -33 -4 -3 -16 -25 -29 -50 -18 -35 -21
-39 -16 -15 4 16 10 32 14 35 5 3 11 15 15 28 4 12 12 22 17 22 5 0 9 7 9 15
0 8 5 15 10 15 6 0 10 8 11 18 0 9 3 12 5 5 3 -6 -3 -24 -13 -40z m-1067 -70
c-2 -16 -13 -44 -24 -63 -17 -26 -22 -51 -22 -100 0 -58 -12 -102 -23 -90 -3
3 -8 50 -11 106 l-7 101 33 36 c40 44 59 47 54 10z m968 -100 c-10 -21 -22
-39 -26 -41 -5 -2 -8 -10 -8 -18 0 -8 -4 -14 -9 -14 -5 0 -13 -10 -17 -22 -4
-13 -9 -25 -13 -28 -3 -3 -16 -25 -29 -50 -19 -36 -22 -39 -17 -15 4 16 10 32
13 35 4 3 16 23 27 45 11 22 23 42 26 45 4 3 19 29 35 57 31 59 48 64 18 6z
m-868 -69 c12 -48 -3 -97 -43 -134 -73 -68 -113 -70 -113 -4 0 31 25 55 32 32
7 -20 36 0 54 37 19 40 12 55 -16 37 -17 -10 -20 -10 -20 5 0 18 50 49 82 52
11 0 20 -9 24 -25z m78 -131 c-3 -21 -16 -48 -28 -61 -28 -32 -83 -65 -99 -59
-6 2 1 11 18 19 46 24 70 49 91 95 10 23 20 43 22 43 2 0 0 -17 -4 -37z m251
17 c-3 -5 -13 -10 -21 -10 -8 0 -14 5 -14 10 0 6 9 10 21 10 11 0 17 -4 14
-10z m-102 -37 c-3 -19 -11 -33 -19 -33 -19 0 -18 20 2 48 20 29 23 26 17 -15z
m493 -31 c-10 -11 -16 -12 -16 -4 0 7 5 12 10 12 6 0 10 8 11 18 0 11 2 13 6
4 3 -8 -2 -21 -11 -30z m866 -82 c-2 -41 -7 -88 -12 -105 -5 -16 -11 -65 -15
-107 -6 -75 -8 -78 -32 -78 l-25 0 7 98 c4 53 11 101 16 107 5 5 9 39 9 75 0
68 12 93 40 88 12 -3 14 -17 12 -78z m-1392 51 c0 -16 -18 -22 -45 -15 -37 9
-31 24 10 24 19 0 35 -4 35 -9z m496 -27 c-9 -8 -16 -11 -16 -4 0 15 24 40 28
29 2 -5 -4 -16 -12 -25z m-460 -12 c-8 -25 -36 -37 -36 -17 0 8 7 15 15 15 8
0 15 8 15 17 0 9 3 14 6 10 3 -3 3 -14 0 -25z m3424 -28 c0 -2 -9 -4 -21 -4
-11 0 -18 4 -14 10 5 8 35 3 35 -6z m-3493 0 c-3 -3 -12 -4 -19 -1 -8 3 -5 6
6 6 11 1 17 -2 13 -5z m-214 -38 c15 -12 16 -18 7 -33 -15 -24 -65 -53 -91
-53 -10 0 -19 -5 -19 -12 0 -9 -3 -9 -11 -1 -9 9 -5 20 11 45 51 73 67 81 103
54z m247 4 c0 -5 -4 -10 -10 -10 -5 0 -10 5 -10 10 0 6 5 10 10 10 6 0 10 -4
10 -10z m426 -46 c-9 -8 -16 -23 -16 -31 0 -9 -3 -13 -7 -9 -4 4 2 23 12 42
11 20 21 31 23 25 2 -6 -4 -18 -12 -27z m-50 -89 c-9 -13 -16 -31 -16 -40 0
-8 -4 -15 -10 -15 -5 0 -12 -11 -16 -25 -3 -14 -10 -25 -15 -25 -5 0 -9 -7 -9
-15 0 -8 -4 -15 -9 -15 -5 0 -13 -10 -17 -22 -4 -13 -10 -25 -13 -28 -4 -3
-17 -25 -29 -50 -23 -48 -62 -118 -75 -135 -20 -26 -87 -145 -87 -154 0 -6 -4
-11 -9 -11 -5 0 -12 -11 -15 -25 -4 -14 -11 -25 -16 -25 -6 0 -10 -7 -10 -15
0 -8 -3 -15 -7 -15 -5 0 -17 -20 -27 -44 -11 -25 -24 -42 -29 -39 -5 3 -4 10
2 16 6 6 11 19 11 29 0 10 4 18 8 18 5 0 17 17 28 38 10 20 22 39 26 42 3 3
24 39 45 80 22 41 63 113 91 159 29 46 52 90 52 98 0 7 4 13 10 13 5 0 12 11
16 25 3 14 10 25 15 25 5 0 9 7 9 15 0 8 4 15 9 15 5 0 13 10 17 23 4 12 10
24 13 27 4 3 16 22 27 43 10 22 23 48 29 58 5 11 11 15 13 9 2 -6 -3 -22 -12
-35z m-826 0 c0 -3 -13 -27 -30 -53 -34 -56 -36 -62 -15 -62 8 0 15 4 15 10 0
5 11 20 25 34 14 14 25 30 25 36 0 5 7 10 16 10 14 0 14 -1 0 -16 -9 -8 -16
-18 -16 -22 0 -4 -11 -20 -25 -36 -29 -34 -31 -49 -10 -70 8 -8 15 -17 15 -20
0 -3 -34 -40 -75 -81 -41 -42 -75 -79 -75 -83 0 -12 -86 -102 -97 -102 -5 0
-24 -7 -42 -16 -18 -9 -35 -14 -37 -11 -3 3 58 70 135 148 125 126 159 169
133 169 -4 0 -13 9 -20 21 -11 17 -11 27 -2 50 7 16 16 29 21 29 5 0 9 7 9 15
0 8 4 15 9 15 5 0 11 9 14 20 4 17 27 30 27 15z m3899 -49 c9 -11 6 -12 -14
-8 -14 2 -25 8 -25 13 0 14 26 11 39 -5z m-2096 -151 c4 -8 2 -17 -2 -20 -5
-2 -11 -19 -14 -37 -27 -152 -41 -208 -50 -197 -5 5 7 100 24 197 12 69 29 92
42 57z m-2184 -359 c0 -6 -9 -24 -20 -41 -10 -16 -22 -37 -26 -45 -4 -8 -17
-26 -30 -40 -27 -29 -29 -39 -8 -46 8 -4 15 -12 15 -19 0 -7 6 -16 13 -18 9
-4 9 -8 1 -14 -6 -4 -49 -69 -95 -143 -45 -74 -86 -136 -91 -138 -4 -2 -8 -7
-8 -12 0 -7 -78 -129 -90 -140 -5 -5 -35 -59 -54 -97 -6 -13 -14 -23 -18 -23
-5 0 -8 -6 -8 -12 -1 -35 -16 -41 -70 -27 -29 7 -55 19 -57 26 -5 12 71 124
89 131 4 2 8 10 8 18 0 8 4 14 9 14 5 0 12 11 15 25 4 14 11 25 16 25 6 0 10
5 10 10 0 6 18 35 40 65 22 30 40 59 40 65 0 5 4 10 8 10 5 0 17 16 28 35 10
19 22 35 26 35 5 0 8 7 8 15 0 8 4 15 9 15 5 0 12 8 15 18 3 9 22 34 42 55 27
28 35 44 31 63 -3 16 6 40 24 70 16 24 29 47 29 51 0 3 16 25 35 49 23 27 41
41 50 37 8 -3 15 -10 14 -17z m1795 -180 c-5 -94 -10 -126 -21 -130 -12 -5
-13 9 -7 92 3 53 10 101 15 107 5 5 9 22 9 39 0 16 3 27 6 24 3 -4 2 -63 -2
-132z m-1007 9 c-4 -8 -12 -15 -19 -14 -10 0 -10 2 0 6 6 2 12 12 12 21 0 8 3
13 6 9 4 -3 4 -13 1 -22z m663 -35 c0 -11 -4 -20 -10 -20 -5 0 -10 9 -10 20 0
11 5 20 10 20 6 0 10 -9 10 -20z m-106 -55 c-4 -8 -12 -15 -20 -15 -20 0 -17
18 4 23 9 3 18 5 19 6 1 0 0 -6 -3 -14z m46 -225 c0 -5 -2 -10 -4 -10 -3 0 -8
5 -11 10 -3 6 -1 10 4 10 6 0 11 -4 11 -10z m850 -194 c0 -42 -2 -45 -40 -60
-22 -9 -47 -16 -54 -16 -8 0 -26 -7 -42 -14 -15 -8 -31 -13 -35 -10 -8 5 -29
69 -29 89 0 15 59 35 101 35 19 0 41 5 49 10 35 22 50 12 50 -34z"/>
<path d="M3823 7036 c-6 -6 -28 -26 -47 -44 -34 -31 -50 -82 -26 -82 6 0 10 8
10 17 0 9 18 39 41 65 23 27 40 51 38 53 -2 1 -9 -2 -16 -9z"/>
<path d="M4580 7033 c19 -10 38 -22 42 -28 5 -7 8 -6 8 1 0 15 -44 44 -67 44
-11 0 -4 -7 17 -17z"/>
<path d="M4368 7023 c6 -2 18 -2 25 0 6 3 1 5 -13 5 -14 0 -19 -2 -12 -5z"/>
<path d="M4230 7010 c-36 -20 -89 -40 -103 -40 -9 0 -17 -5 -19 -11 -2 -6 -27
-12 -55 -14 -49 -4 -93 -21 -93 -37 0 -14 69 -14 80 0 8 11 79 42 95 42 8 0
15 5 15 10 0 6 9 10 20 10 11 0 20 4 20 8 0 5 17 13 38 18 20 5 33 12 27 15
-5 4 -17 3 -25 -1z"/>
<path d="M4558 6993 c6 -2 18 -2 25 0 6 3 1 5 -13 5 -14 0 -19 -2 -12 -5z"/>
<path d="M4640 6992 c0 -9 31 -37 59 -52 14 -7 21 -7 21 0 0 5 -3 10 -7 10 -5
0 -21 11 -37 25 -31 27 -36 29 -36 17z"/>
<path d="M3623 6973 c-7 -3 -13 -17 -13 -32 0 -35 29 -121 41 -121 5 0 9 -7 9
-15 0 -21 -12 -18 -39 11 -25 26 -61 49 -61 39 0 -3 11 -18 25 -32 33 -36 25
-39 -25 -11 l-41 23 -42 -46 c-23 -25 -54 -68 -68 -95 l-26 -49 9 -195 c21
-452 17 -410 42 -410 16 0 28 11 41 38 10 20 22 45 26 54 5 10 9 30 9 44 0 26
1 26 50 22 47 -5 50 -4 50 18 0 13 -4 24 -9 24 -5 0 -12 23 -16 52 -4 29 -11
59 -15 68 -5 8 -16 33 -26 55 -9 22 -25 52 -36 67 -16 24 -19 44 -17 140 1
106 11 148 34 148 15 0 13 -206 -3 -222 -6 -6 -12 -19 -12 -28 0 -21 73 -107
87 -103 13 5 25 -55 24 -125 -1 -50 1 -55 44 -96 27 -27 45 -53 45 -67 0 -18
3 -20 12 -11 8 8 14 53 16 120 4 110 10 125 47 116 12 -3 29 3 42 16 27 24 36
25 53 5 9 -11 22 -14 42 -10 20 5 30 2 34 -9 3 -9 12 -16 20 -16 8 0 14 -4 14
-8 0 -14 62 -32 79 -22 13 8 13 9 -6 10 -34 0 -33 24 1 36 l31 11 -37 12 c-21
7 -38 19 -38 27 0 17 13 18 56 2 28 -10 36 -9 52 5 21 19 47 23 36 6 -5 -8 -1
-8 14 0 11 6 29 11 39 11 22 0 76 74 71 97 -4 22 -82 37 -120 24 -22 -8 -28
-7 -28 5 0 7 -4 14 -10 14 -5 0 -10 -4 -10 -10 0 -5 -6 -10 -14 -10 -8 0 -16
-7 -20 -15 -3 -8 -14 -15 -25 -15 -20 0 -92 -29 -101 -41 -5 -6 -97 -13 -127
-10 -7 0 -13 7 -13 15 0 7 -7 19 -15 26 -12 10 -15 10 -15 -4 0 -9 5 -16 10
-16 6 0 10 -7 10 -15 0 -8 6 -15 14 -15 12 0 30 -39 22 -47 -8 -8 -33 10 -49
35 l-18 27 6 -37 c7 -48 -7 -49 -51 -7 -29 28 -31 34 -22 60 5 16 14 29 19 29
5 0 9 16 9 35 0 19 5 35 10 35 6 0 10 14 10 30 0 17 -4 30 -10 30 -5 0 -10 -5
-10 -12 0 -6 -8 -1 -19 10 -10 12 -26 22 -35 22 -22 0 -30 24 -16 49 17 32 37
25 44 -15 7 -37 22 -41 40 -9 36 63 92 112 168 148 37 18 68 35 68 38 0 11
-44 19 -50 10 -3 -5 -14 -11 -25 -15 -11 -3 -33 -17 -49 -31 -16 -14 -35 -25
-43 -25 -18 0 22 53 77 102 22 20 40 39 40 42 0 7 -59 -24 -65 -35 -4 -5 -25
-9 -47 -9 -27 0 -45 -6 -54 -17 -19 -25 -18 -54 1 -47 10 4 15 0 15 -13 0 -21
-48 -43 -93 -43 -22 0 -28 6 -37 43 -6 23 -18 55 -26 71 -11 22 -12 31 -3 36
15 10 8 28 -8 23z m94 -385 c-3 -8 -6 -5 -6 6 -1 11 2 17 5 13 3 -3 4 -12 1
-19z m-7 -32 c0 -7 -7 -19 -15 -26 -16 -13 -20 -3 -9 24 8 20 24 21 24 2z m19
-182 c12 -11 12 -15 1 -30 -13 -15 -15 -14 -31 5 -10 12 -23 21 -30 21 -6 0
-2 -8 9 -19 24 -20 28 -31 12 -31 -14 0 -59 51 -60 68 0 16 79 5 99 -14z"/>
<path d="M3731 6884 c0 -11 3 -14 6 -6 3 7 2 16 -1 19 -3 4 -6 -2 -5 -13z"/>
<path d="M3710 6856 c0 -16 18 -31 27 -22 3 3 -2 12 -11 21 -14 14 -16 14 -16
1z"/>
<path d="M4118 6343 c-16 -2 -28 -9 -28 -14 0 -15 47 -10 54 6 3 8 4 14 3 14
-1 -1 -14 -4 -29 -6z"/>
<path d="M3625 6151 c-3 -5 -1 -12 5 -16 5 -3 10 1 10 9 0 18 -6 21 -15 7z"/>
<path d="M3596 6104 c-9 -8 -16 -20 -16 -26 0 -6 9 -1 20 12 29 33 25 44 -4
14z"/>
<path d="M3662 6090 c0 -14 2 -19 5 -12 2 6 2 18 0 25 -3 6 -5 1 -5 -13z"/>
<path d="M4307 5980 c-12 -15 -13 -20 -3 -20 7 0 21 9 31 20 14 16 15 20 4 20
-8 0 -22 -9 -32 -20z"/>
<path d="M3493 5974 c-3 -8 -1 -20 6 -27 8 -8 11 -4 11 16 0 30 -7 35 -17 11z"/>
<path d="M4265 5940 c-3 -5 1 -10 9 -10 9 0 16 5 16 10 0 6 -4 10 -9 10 -6 0
-13 -4 -16 -10z"/>
<path d="M3525 5860 c3 -5 8 -10 11 -10 2 0 4 5 4 10 0 6 -5 10 -11 10 -5 0
-7 -4 -4 -10z"/>
<path d="M3031 5854 c-1 -15 38 -127 48 -137 4 -4 13 -1 20 7 9 11 7 22 -13
52 -14 22 -30 44 -34 49 -5 6 -12 17 -15 25 -3 8 -6 10 -6 4z"/>
<path d="M3488 5843 c7 -3 16 -2 19 1 4 3 -2 6 -13 5 -11 0 -14 -3 -6 -6z"/>
<path d="M3181 5824 c0 -11 3 -14 6 -6 3 7 2 16 -1 19 -3 4 -6 -2 -5 -13z"/>
<path d="M3144 5786 c-10 -8 -17 -16 -14 -19 3 -2 14 4 24 14 23 22 18 25 -10
5z"/>
<path d="M3252 5710 c0 -19 2 -27 5 -17 2 9 2 25 0 35 -3 9 -5 1 -5 -18z"/>
<path d="M4010 5420 c0 -11 4 -20 9 -20 5 0 7 9 4 20 -3 11 -7 20 -9 20 -2 0
-4 -9 -4 -20z"/>
<path d="M3916 5381 c-6 -8 23 -92 35 -101 3 -3 9 -12 12 -20 3 -9 6 -4 6 12
1 15 8 31 17 36 17 10 12 52 -7 52 -5 0 -9 7 -9 15 0 16 -45 21 -54 6z"/>
<path d="M4032 5365 c0 -16 2 -22 5 -12 2 9 2 23 0 30 -3 6 -5 -1 -5 -18z"/>
<path d="M4041 5298 c0 -22 4 -38 10 -38 6 0 9 -7 6 -15 -4 -8 -2 -17 3 -20
13 -8 13 28 1 41 -5 5 -11 23 -14 39 -4 27 -4 26 -6 -7z"/>
<path d="M4040 5199 c0 -5 5 -7 10 -4 6 3 10 8 10 11 0 2 -4 4 -10 4 -5 0 -10
-5 -10 -11z"/>
<path d="M1703 2943 c9 -2 23 -2 30 0 6 3 -1 5 -18 5 -16 0 -22 -2 -12 -5z"/>
<path d="M4054 3575 c-10 -14 -23 -25 -29 -25 -6 0 -16 -9 -22 -19 -10 -15 -9
-20 2 -25 8 -3 17 3 20 14 3 11 19 27 36 37 16 9 29 23 29 30 0 20 -16 15 -36
-12z"/>
<path d="M4075 3510 c3 -5 8 -10 11 -10 2 0 4 5 4 10 0 6 -5 10 -11 10 -5 0
-7 -4 -4 -10z"/>
<path d="M1434 2597 c-8 -9 -7 -16 1 -24 10 -9 13 -6 13 13 0 13 -1 24 -2 24
0 -1 -6 -6 -12 -13z"/>
<path d="M520 7975 l0 -75 49 0 c56 0 61 8 61 98 l0 52 -55 0 -55 0 0 -75z"/>
<path d="M930 8039 c-14 -5 -81 -68 -150 -139 l-125 -130 -67 0 -68 0 0 -81 0
-82 83 5 c46 3 97 12 113 21 16 8 67 58 112 111 129 148 126 146 241 146 108
0 131 -11 131 -62 0 -44 -28 -58 -118 -58 l-82 0 0 -75 0 -75 93 0 c106 0 148
18 200 82 26 32 31 48 35 112 4 62 1 82 -17 119 -23 48 -76 91 -132 107 -43
13 -216 12 -249 -1z"/>
<path d="M520 7195 l0 -75 320 0 c316 0 319 0 340 -22 26 -28 26 -72 0 -98
-19 -19 -33 -20 -340 -20 l-320 0 0 -75 0 -75 334 0 334 0 48 33 c66 45 89 92
89 187 0 92 -23 142 -84 185 l-43 30 -339 3 -339 3 0 -76z"/>
<path d="M520 7050 l0 -40 316 2 c289 3 318 5 328 21 8 12 8 22 0 35 -10 15
-39 17 -328 20 l-316 2 0 -40z"/>
<path d="M1239 6496 c-2 -2 -51 -11 -109 -20 -115 -17 -526 -82 -577 -91 l-33
-6 0 -124 0 -123 28 -6 c52 -11 738 -126 750 -126 8 0 12 23 12 75 0 69 -2 75
-22 79 -13 3 -140 17 -283 31 -417 42 -380 36 -383 68 -2 16 2 29 10 32 7 2
146 15 308 30 162 14 312 28 333 31 l37 6 0 74 0 74 -33 0 c-19 0 -36 -2 -38
-4z"/>
<path d="M5229 6012 c-32 -4 -42 -38 -33 -117 4 -29 4 -64 1 -77 -6 -23 -49
-78 -60 -78 -3 0 -25 -18 -49 -40 -24 -22 -47 -40 -52 -40 -5 0 -16 -8 -25
-18 -9 -11 -26 -24 -38 -31 -13 -6 -23 -21 -23 -31 0 -11 1 -20 3 -20 9 0 108
38 114 43 3 4 13 7 22 7 9 0 42 8 74 17 58 18 79 42 59 66 -20 24 10 114 56
165 103 114 117 137 90 147 -17 6 -107 11 -139 7z"/>
<path d="M5488 5813 c7 -3 16 -2 19 1 4 3 -2 6 -13 5 -11 0 -14 -3 -6 -6z"/>
<path d="M5598 5743 c7 -3 16 -2 19 1 4 3 -2 6 -13 5 -11 0 -14 -3 -6 -6z"/>
<path d="M5570 5710 c0 -17 2 -19 14 -8 14 13 12 28 -5 28 -5 0 -9 -9 -9 -20z"/>
<path d="M520 5507 c0 -200 1 -215 18 -211 9 2 172 29 362 59 190 30 360 57
378 60 l32 6 0 83 0 83 -32 6 c-18 3 -181 31 -363 62 -181 31 -345 59 -362 62
l-33 6 0 -216z m298 46 l192 -17 0 -31 0 -32 -217 -16 c-120 -10 -224 -17
-230 -17 -9 0 -13 21 -13 71 l0 71 38 -6 c20 -3 124 -13 230 -23z"/>
<path d="M580 5504 l0 -36 48 6 c26 3 117 11 202 17 85 7 150 14 145 15 -14 4
-337 34 -369 34 -23 0 -26 -4 -26 -36z"/>
<path d="M5721 5455 c0 -5 -12 -23 -26 -39 -14 -16 -25 -36 -25 -45 0 -10 5
-8 17 9 9 14 23 30 31 36 8 6 12 19 9 30 -2 10 -5 15 -6 9z"/>
<path d="M5337 5347 c-8 -21 0 -25 43 -16 l35 6 -32 2 c-17 0 -33 6 -35 13 -3
8 -7 6 -11 -5z"/>
<path d="M5463 5313 c9 -2 23 -2 30 0 6 3 -1 5 -18 5 -16 0 -22 -2 -12 -5z"/>
<path d="M5497 5263 c-10 -10 -8 -81 2 -87 5 -3 11 5 13 19 3 14 1 25 -5 25
-5 0 -7 11 -5 25 6 27 5 29 -5 18z"/>
<path d="M5570 5251 c0 -5 -10 -12 -22 -14 -20 -4 -19 -4 5 -6 18 -1 27 4 27
14 0 8 -2 15 -5 15 -3 0 -5 -4 -5 -9z"/>
<path d="M5531 5156 c2 -2 14 -9 27 -15 18 -10 22 -9 22 4 0 10 -9 15 -27 15
-14 0 -24 -2 -22 -4z"/>
<path d="M5425 5080 c3 -5 8 -10 11 -10 2 0 4 5 4 10 0 6 -5 10 -11 10 -5 0
-7 -4 -4 -10z"/>
<path d="M5348 5053 c6 -2 18 -2 25 0 6 3 1 5 -13 5 -14 0 -19 -2 -12 -5z"/>
<path d="M5308 5033 c7 -3 16 -2 19 1 4 3 -2 6 -13 5 -11 0 -14 -3 -6 -6z"/>
<path d="M5750 4140 c0 -5 7 -10 15 -10 8 0 15 5 15 10 0 6 -7 10 -15 10 -8 0
-15 -4 -15 -10z"/>
<path d="M5818 4123 c6 -2 18 -2 25 0 6 3 1 5 -13 5 -14 0 -19 -2 -12 -5z"/>
<path d="M5910 4110 c0 -5 11 -10 25 -10 14 0 25 5 25 10 0 6 -11 10 -25 10
-14 0 -25 -4 -25 -10z"/>
<path d="M5676 3865 c4 -8 17 -15 30 -15 27 0 32 15 8 24 -28 11 -44 7 -38 -9z"/>
<path d="M5630 3861 c0 -6 -6 -11 -13 -11 -7 0 -18 -14 -24 -31 -10 -26 -10
-36 2 -53 15 -20 15 -20 15 5 0 30 26 69 46 69 9 0 14 6 12 13 -6 15 -38 22
-38 8z"/>
<path d="M4870 3760 c0 -5 6 -10 14 -10 8 0 18 5 21 10 3 6 -3 10 -14 10 -12
0 -21 -4 -21 -10z"/>
<path d="M4945 3710 c-8 -13 5 -13 25 0 13 8 13 10 -2 10 -9 0 -20 -4 -23 -10z"/>
<path d="M4620 3680 c-8 -5 -55 -28 -105 -52 -49 -24 -91 -46 -93 -50 -2 -5
-10 -8 -17 -8 -20 0 -98 -44 -85 -48 6 -2 16 1 23 6 7 6 29 13 50 17 20 4 40
11 43 16 3 5 14 9 24 9 31 0 132 52 163 83 36 37 34 49 -3 27z"/>
<path d="M4292 3584 c-13 -20 -22 -38 -19 -40 8 -8 49 45 45 60 -2 11 -10 4
-26 -20z"/>
<path d="M4775 3556 c-22 -27 -48 -52 -60 -57 -11 -5 -29 -15 -40 -21 -87 -56
-145 -88 -158 -88 -9 0 -19 -4 -22 -10 -4 -6 5 -10 19 -10 14 0 26 5 26 10 0
6 8 10 19 10 10 0 32 7 47 15 16 8 37 15 47 15 9 0 17 3 17 8 0 4 21 15 48 25
26 11 56 23 68 29 15 7 35 5 73 -8 28 -9 54 -14 56 -12 5 5 -13 15 -80 44 -22
10 -41 19 -43 20 -2 1 4 14 13 28 32 48 9 49 -30 2z"/>
</g>
</svg>
