<?xml version="1.0" standalone="no"?>
<!DOCTYPE svg PUBLIC "-//W3C//DTD SVG 20010904//EN"
 "http://www.w3.org/TR/2001/REC-SVG-20010904/DTD/svg10.dtd">
<svg version="1.0" xmlns="http://www.w3.org/2000/svg"
 width="601.000000pt" height="867.000000pt" viewBox="0 0 601.000000 867.000000"
 preserveAspectRatio="xMidYMid meet">

<g transform="translate(0.000000,867.000000) scale(0.100000,-0.100000)"
fill="#000000" stroke="none">
<path d="M903 8656 c-88 -22 -164 -66 -234 -135 -102 -102 -149 -219 -149
-371 l0 -68 333 -4 332 -3 54 -30 c87 -48 121 -110 121 -218 0 -85 -18 -135
-67 -184 -58 -59 -117 -74 -269 -71 l-119 3 0 105 0 105 130 5 130 5 0 30 0
30 -322 3 -323 2 0 -40 0 -40 75 0 c74 0 75 0 75 25 0 25 2 26 58 23 l57 -3 0
-125 0 -125 -132 4 -133 3 0 -151 0 -151 417 0 416 0 -6 -152 c-4 -83 -7 -177
-7 -210 l0 -58 -90 0 -90 0 0 100 0 100 -145 0 -145 0 0 -75 0 -75 -75 0 -75
0 0 75 0 75 -100 0 -100 0 0 -240 0 -240 178 0 c97 0 282 -3 410 -7 l232 -6 0
-98 0 -99 -187 -2 -188 -3 187 -65 188 -65 0 -107 0 -107 -62 24 c-35 13 -128
48 -208 79 -80 31 -154 56 -165 56 -11 0 -101 -24 -200 -53 l-180 -53 -3 -177
-2 -177 288 0 c159 0 344 -3 410 -7 l122 -6 0 -98 0 -99 -187 -2 -188 -3 185
-65 185 -65 3 -102 c2 -84 0 -103 -12 -103 -8 0 -103 34 -211 76 -155 60 -204
75 -231 71 -19 -3 -108 -27 -199 -54 l-165 -48 0 -147 0 -148 324 0 324 0 53
-28 c67 -35 105 -88 120 -166 23 -127 -23 -234 -126 -289 -39 -21 -48 -22
-368 -19 l-327 4 2 -2014 3 -2013 24 -60 c69 -172 209 -294 375 -324 39 -7
267 -11 643 -11 l583 0 -21 51 c-11 29 -18 55 -17 59 6 15 160 131 166 125 8
-7 -64 -72 -94 -84 -11 -5 -26 -27 -33 -48 -11 -34 -11 -44 3 -70 l16 -31 95
-1 c92 -1 97 0 119 26 22 26 25 26 63 15 23 -7 46 -19 53 -27 11 -13 193 -15
1511 -15 l1498 0 15 53 c8 29 20 77 26 107 18 91 43 184 51 194 5 5 26 -7 49
-27 41 -38 79 -47 98 -24 5 6 25 77 42 157 29 129 37 150 71 193 27 35 40 61
44 95 8 73 35 250 47 319 10 56 14 63 35 63 l23 0 0 156 c0 130 -3 161 -17
186 -16 27 -17 31 -2 41 22 16 27 257 6 257 -17 0 -53 38 -44 47 4 3 19 1 33
-6 l26 -11 -5 77 c-2 43 -7 89 -11 103 -6 19 -5 22 3 10 8 -11 11 274 11 998
0 774 -3 1012 -12 1012 -9 0 -9 3 0 12 14 14 17 132 3 124 -5 -3 -14 1 -21 8
-9 12 -7 17 9 26 21 11 21 13 18 847 l-2 837 -52 27 c-29 15 -62 37 -74 48
-13 12 -28 21 -33 21 -6 0 -22 9 -36 20 -14 11 -37 20 -52 20 -16 0 -28 6 -28
13 0 6 -32 25 -71 40 -55 21 -75 25 -85 16 -11 -9 -14 -8 -14 4 0 10 -26 24
-79 42 -85 28 -116 28 -201 -2 -49 -18 -62 -30 -55 -53 3 -9 -1 -7 -10 4 -15
20 -16 20 -60 -2 -25 -12 -50 -22 -57 -22 -13 0 -161 -89 -169 -103 -4 -6 -18
1 -34 16 -15 13 -24 30 -21 36 12 19 109 80 118 75 4 -3 8 -14 8 -25 0 -12 5
-19 13 -16 6 2 11 14 10 26 -2 17 8 27 51 48 51 25 55 25 71 9 21 -20 46 -5
38 23 -6 25 100 60 129 42 14 -9 18 -8 18 4 0 27 72 17 184 -25 58 -22 114
-44 124 -49 9 -5 69 -34 132 -65 63 -30 143 -71 178 -91 59 -35 62 -35 62 -14
0 39 -178 191 -188 161 -5 -17 -42 9 -42 30 0 24 -87 73 -130 73 -28 0 -35 4
-35 19 0 15 -15 24 -62 40 -34 12 -65 24 -69 29 -15 15 -45 6 -56 -18 -6 -14
-17 -25 -24 -25 -23 0 22 72 60 98 l35 24 137 -92 c75 -50 187 -127 249 -171
62 -43 116 -79 119 -79 12 0 7 2206 -5 2262 -39 187 -200 348 -387 387 -81 17
-4638 14 -4709 -3z m4402 -441 c236 -62 382 -303 321 -531 -30 -113 -122 -231
-216 -279 l-46 -23 -102 167 c-56 93 -102 171 -102 174 0 4 76 8 170 9 l170 3
-33 55 c-19 30 -84 138 -146 240 -62 102 -115 188 -118 193 -7 12 38 8 102 -8z
m-154 -181 l97 -159 -172 -5 -172 -5 152 -250 c84 -137 153 -253 154 -257 0
-12 -60 -9 -116 6 -333 89 -444 495 -201 738 47 47 132 100 152 94 5 -1 53
-74 106 -162z m-1965 -389 c13 -113 12 -129 -2 -156 -8 -17 -18 -29 -20 -26
-5 5 -11 104 -13 224 l-1 72 -32 3 -33 4 35 11 c19 5 39 7 44 2 5 -4 15 -64
22 -134z m729 -183 c28 -9 57 -22 66 -29 8 -7 31 -15 50 -19 23 -4 48 -21 79
-54 l45 -48 68 9 c68 8 70 8 107 -23 22 -17 51 -48 66 -70 15 -22 39 -48 52
-59 29 -23 25 -33 -11 -24 -16 5 -50 37 -89 86 -35 46 -68 78 -77 77 -8 -2
-21 -18 -28 -36 l-13 -33 64 -29 c35 -17 69 -30 75 -30 6 0 21 -14 33 -31 14
-18 29 -28 39 -26 9 3 24 -4 33 -15 16 -19 16 -19 -8 -16 -14 2 -25 -1 -25 -7
-1 -5 8 -10 20 -10 14 0 26 -13 40 -45 11 -27 43 -66 77 -97 46 -42 55 -54 45
-64 -7 -7 -13 -36 -13 -63 0 -76 49 -146 148 -214 42 -29 118 -80 167 -115 50
-34 104 -71 121 -82 134 -85 168 -115 130 -115 -7 0 -38 -11 -68 -25 -56 -26
-104 -27 -160 -6 -13 5 -37 6 -55 4 -25 -4 -34 -1 -43 18 -19 35 -101 119
-133 135 -34 18 -27 34 15 34 20 0 39 -9 54 -26 13 -14 24 -24 25 -22 0 2 2
10 4 18 2 8 6 22 10 31 4 12 -1 16 -23 17 -16 0 -56 14 -89 31 l-61 31 -42
-19 -43 -19 47 -20 c26 -12 46 -28 46 -36 0 -9 3 -16 8 -16 4 0 7 -11 7 -25 0
-14 0 -25 -1 -25 0 0 -29 -11 -65 -25 -35 -13 -55 -18 -45 -10 14 11 16 18 8
27 -6 7 -20 39 -32 70 -25 69 -34 76 -63 52 -12 -11 -19 -15 -15 -10 4 5 3 17
-2 27 -7 12 -6 19 3 22 6 3 2 6 -10 6 -18 1 -27 -10 -44 -49 -23 -55 -35 -62
-42 -27 -3 15 -5 12 -6 -11 -1 -33 -46 -178 -61 -197 -5 -5 -10 -21 -12 -34
-2 -19 -14 -28 -54 -42 -29 -9 -86 -33 -128 -53 -102 -49 -116 -48 -116 7 0
67 9 86 49 104 20 9 40 19 45 21 5 3 6 0 2 -6 -12 -19 19 -14 43 7 12 10 34
24 50 31 39 16 50 52 35 118 -4 19 -9 21 -32 16 -15 -4 -40 -16 -55 -26 -39
-27 -122 -49 -136 -35 -7 7 -14 7 -24 -1 -8 -7 -17 -9 -20 -6 -4 4 -18 -1 -32
-10 -24 -16 -25 -16 -25 4 0 14 7 20 23 20 29 0 80 47 72 67 -3 9 2 24 11 34
22 24 11 24 -56 -2 -30 -11 -79 -28 -109 -38 -46 -14 -56 -22 -77 -61 l-23
-45 6 48 c5 37 2 52 -12 67 -18 20 -18 21 1 35 10 8 24 15 31 15 7 0 18 10 24
22 7 13 14 18 16 11 3 -8 15 -7 42 4 42 16 41 13 26 113 l-7 45 84 40 c73 35
83 43 81 65 -1 14 -2 44 -4 68 -4 55 -16 62 -128 70 -96 8 -92 4 -78 90 6 36
-14 45 -33 15 -8 -15 -9 -13 -4 10 3 15 4 27 1 27 -3 0 -26 -14 -51 -30 -24
-17 -59 -33 -77 -37 -45 -9 -30 10 21 27 67 22 60 33 -16 28 -38 -3 -77 -9
-86 -13 -14 -5 -16 -2 -13 14 3 14 0 19 -7 15 -7 -5 -9 -1 -5 9 7 19 6 20 -17
11 -23 -9 -20 -21 6 -28 17 -4 20 -8 12 -16 -9 -9 -17 -8 -33 2 -11 7 -21 16
-21 20 0 7 40 38 96 75 16 10 7 12 -49 8 l-67 -4 -21 41 c-11 22 -22 60 -24
84 -3 38 0 47 21 60 13 9 24 23 24 30 0 8 9 14 20 14 11 0 20 5 20 10 0 6 -9
10 -20 10 -11 0 -20 -4 -20 -10 0 -5 -9 -10 -20 -10 -11 0 -20 -4 -20 -8 0
-14 -48 -33 -52 -20 -5 13 -153 -65 -191 -100 -49 -45 -139 -192 -180 -292
-32 -77 -40 -111 -45 -181 -2 -48 -2 -106 2 -131 6 -37 11 -46 37 -55 30 -12
30 -11 15 6 -26 29 -39 77 -26 98 8 13 10 14 7 2 -3 -9 -1 -22 4 -30 7 -11 9
-10 9 6 0 11 4 26 9 34 7 12 13 7 25 -20 8 -19 17 -45 20 -60 5 -22 9 -25 41
-21 41 5 41 3 16 -47 -11 -21 -23 -61 -27 -90 -4 -28 -10 -51 -14 -51 -22 0
-93 105 -121 180 -31 79 -32 82 -61 78 -18 -3 -27 -1 -25 6 2 6 15 66 27 134
13 68 29 130 37 137 8 9 11 24 8 38 -5 17 -2 26 10 31 12 4 15 13 11 31 -5 18
-1 27 14 35 15 8 19 17 14 34 -4 17 0 28 13 37 16 11 19 26 19 78 l-1 63 45
17 c38 15 45 21 43 43 -1 24 4 28 62 43 35 10 71 15 79 12 9 -4 22 0 30 8 12
12 233 58 371 78 55 8 209 -4 260 -21z m-996 -128 c7 -7 12 -119 6 -143 -9
-37 -23 -12 -28 51 -2 31 -12 69 -22 84 l-17 27 28 -7 c16 -4 31 -9 33 -12z
m-240 -177 c13 -17 -1 -67 -19 -67 -12 0 -16 10 -25 63 -6 35 -5 38 13 28 10
-5 24 -16 31 -24z m201 -137 c0 -5 -10 -10 -22 -9 -22 0 -22 1 -3 9 11 5 21 9
23 9 1 1 2 -3 2 -9z m-1170 -306 c78 -16 88 -21 129 -63 46 -50 127 -165 161
-231 20 -40 40 -53 40 -26 0 16 30 26 82 26 27 0 46 -8 68 -27 28 -25 30 -32
24 -69 l-6 -41 -47 4 c-68 6 -142 31 -171 57 -42 38 -162 112 -205 126 -56 18
-88 36 -103 59 -12 18 -11 19 7 14 11 -3 29 -2 38 2 14 5 5 13 -41 40 -32 18
-64 39 -71 46 -14 14 -75 123 -75 132 0 3 19 -2 43 -13 23 -10 80 -26 127 -36z
m1765 -4 c-3 -5 -14 -10 -23 -9 -14 0 -13 2 3 9 27 11 27 11 20 0z m-49 -37
c0 -28 0 -28 -20 1 -15 23 -14 25 2 23 12 0 18 -9 18 -24z m284 -54 c0 -9 -93
-18 -102 -10 -4 4 5 21 20 38 l27 31 28 -26 c15 -14 27 -29 27 -33z m-1468
-113 c111 -101 152 -153 142 -179 -4 -11 2 -16 23 -19 23 -2 39 -20 93 -100
50 -74 71 -98 90 -100 21 -2 33 -20 75 -104 28 -56 56 -109 64 -118 20 -24 0
-20 -37 8 -47 34 -83 76 -76 87 3 6 -2 13 -12 16 -29 7 -87 86 -134 179 -43
86 -67 110 -101 101 -12 -3 -19 0 -19 9 0 18 -5 18 -35 -2 -14 -9 -25 -25 -25
-35 0 -11 -4 -19 -10 -19 -15 0 -12 43 5 67 8 12 27 23 42 25 42 5 37 21 -18
68 -47 40 -53 42 -64 26 -21 -28 -53 -1 -91 79 -19 39 -48 90 -63 115 -40 62
-38 71 7 29 20 -19 85 -79 144 -133z m1311 61 c-1 -16 5 -18 45 -14 26 2 62 9
80 15 25 8 32 8 32 -2 0 -8 -18 -16 -42 -20 -24 -4 -52 -13 -63 -20 -11 -7
-36 -16 -55 -20 -35 -6 -36 -5 -46 34 -13 46 -9 52 26 48 17 -2 25 -9 23 -21z
m242 -35 c-6 -4 -16 -18 -23 -32 -7 -14 -10 -17 -7 -7 3 10 5 25 5 33 0 8 8
14 18 14 10 0 13 -3 7 -8z m-285 -149 c17 -18 30 -41 30 -49 0 -10 -8 -6 -23
13 -42 50 -57 77 -56 98 0 18 1 17 10 -4 5 -13 23 -39 39 -58z m1226 -132 c4
-17 11 -34 15 -37 15 -9 10 -34 -7 -34 -13 0 -14 3 -5 13 8 10 7 14 -4 14 -17
0 -20 -23 -4 -33 8 -5 8 -9 -1 -14 -15 -10 -66 15 -74 37 -6 14 -9 14 -27 -3
l-21 -19 19 32 c14 25 20 29 26 17 16 -28 29 -15 23 22 -4 20 -4 49 -1 65 l7
29 24 -29 c13 -16 27 -43 30 -60z m-1471 43 c11 -4 34 -8 50 -9 27 0 30 -3 30
-32 0 -18 3 -33 7 -33 5 0 7 -3 6 -7 -2 -5 7 -25 19 -45 15 -26 29 -38 45 -38
83 -1 232 -88 247 -145 6 -24 13 -30 34 -30 15 1 27 -3 27 -8 0 -5 44 -7 98
-6 91 3 100 1 145 -25 48 -29 60 -42 30 -32 -10 3 -79 15 -153 26 -147 21
-206 35 -215 50 -14 23 -24 7 -11 -17 17 -34 54 -157 58 -196 l3 -27 33 31
c18 17 39 29 46 26 30 -12 28 -97 -4 -157 -10 -19 -10 -24 4 -32 22 -12 20
-40 -4 -70 -17 -22 -19 -40 -18 -134 1 -131 -9 -164 -51 -164 -34 0 -67 38
-97 112 -21 52 -29 58 -39 29 -9 -29 -134 -143 -182 -166 l-41 -20 -7 -125
c-7 -129 -11 -157 -22 -146 -3 3 -16 0 -27 -7 -12 -8 -44 -20 -73 -27 -43 -11
-57 -11 -80 0 -15 7 -66 23 -113 37 -176 49 -251 75 -284 98 -11 8 -32 15 -46
15 l-25 1 28 24 c15 13 27 26 27 28 0 5 -114 18 -147 18 -40 -1 -70 17 -78 46
-8 35 -23 53 -52 64 -21 8 -22 11 -11 36 19 45 21 45 91 20 37 -14 67 -21 67
-17 0 4 -16 20 -35 34 -20 15 -48 39 -63 53 -15 14 -37 32 -49 40 -32 21 -44
76 -53 233 -4 74 -8 115 -9 90 0 -25 -4 -61 -7 -81 l-6 -36 -52 4 c-61 4 -177
21 -226 33 l-35 9 40 -2 c26 -1 39 3 38 11 -2 7 2 12 7 12 6 0 10 -7 10 -15 0
-8 6 -15 13 -16 6 0 24 -2 39 -3 l26 -2 -19 27 c-10 15 -19 31 -19 36 0 4 25
20 54 35 40 20 56 24 65 15 8 -8 11 -4 11 15 0 15 2 33 5 41 5 12 -3 12 -57 0
-93 -20 -120 -12 -146 42 -12 25 -26 45 -32 45 -7 0 -8 -6 0 -19 8 -17 4 -23
-36 -45 -26 -14 -49 -26 -53 -26 -16 0 -177 73 -191 86 -12 12 -10 14 22 14
20 0 48 -4 63 -10 18 -7 31 -6 45 2 14 9 25 9 45 0 15 -7 31 -9 37 -6 6 4 -33
28 -88 54 -73 35 -104 45 -117 38 -31 -16 -35 -9 -53 95 l-5 32 18 -25 c19
-26 60 -30 76 -6 5 8 9 7 16 -3 10 -15 42 -13 206 11 78 11 79 12 39 19 -69
12 -182 92 -203 144 -27 66 -25 70 15 32 22 -21 50 -40 64 -42 14 -3 43 -9 65
-15 41 -9 82 -3 141 21 26 10 34 9 56 -5 22 -14 28 -31 43 -111 10 -56 22 -95
28 -95 7 0 25 -21 41 -46 31 -49 33 -51 95 -107 34 -31 40 -41 31 -52 -14 -16
-5 -35 16 -35 8 0 14 -5 14 -11 0 -5 -6 -7 -12 -4 -7 4 25 -30 71 -75 83 -80
111 -97 74 -43 -38 54 -36 71 15 131 26 31 42 53 36 49 -6 -3 -11 0 -11 8 0
23 7 19 58 -31 l46 -45 41 69 c22 38 47 74 55 81 9 7 62 13 143 15 94 2 139 7
166 19 42 19 80 71 104 144 8 27 24 55 35 65 18 16 17 18 -52 85 -39 37 -78
72 -87 77 -24 13 -25 14 -18 25 6 9 22 5 91 -25z m-113 -26 c24 -13 43 -30 43
-38 0 -8 10 -23 22 -33 13 -10 23 -23 23 -29 0 -5 -16 4 -35 21 -20 17 -44 31
-55 31 -29 0 -118 -106 -125 -149 -8 -49 8 -89 40 -97 34 -8 84 2 107 23 18
16 35 13 24 -5 -10 -16 -77 -44 -92 -38 -8 3 -14 2 -14 -3 0 -18 -48 2 -54 22
-5 18 -8 19 -15 7 -9 -12 -11 -12 -17 3 -3 9 -10 17 -16 17 -5 0 -6 -4 -3 -10
3 -5 2 -18 -4 -27 -7 -14 -9 -6 -7 30 1 26 8 53 14 59 7 7 12 22 12 34 0 12 4
24 8 26 16 6 79 103 75 115 -6 17 -59 -3 -105 -39 -52 -41 -48 -18 5 27 33 29
80 57 124 74 1 1 21 -9 45 -21z m1428 12 c0 -5 -5 -10 -11 -10 -5 0 -7 5 -4
10 3 6 8 10 11 10 2 0 4 -4 4 -10z m-60 -52 c0 -49 -5 -47 -14 5 -4 23 -3 37
4 37 5 0 10 -19 10 -42z m-2752 -76 c-10 -2 -18 -12 -18 -23 0 -10 -4 -19 -10
-19 -14 0 -13 61 2 92 l12 26 17 -37 c15 -34 15 -36 -3 -39z m1441 -28 c22
-28 27 -44 12 -44 -5 0 -11 9 -14 20 -3 11 -13 20 -24 20 -17 -1 -17 -1 0 -14
39 -30 5 -96 -59 -112 -63 -16 -89 59 -36 108 59 55 91 60 121 22z m38 -6 c-3
-7 -5 -2 -5 12 0 14 2 19 5 13 2 -7 2 -19 0 -25z m1603 23 l25 -7 -22 -12
c-19 -11 -23 -10 -23 2 0 8 -8 17 -17 19 -12 3 -13 5 -3 5 8 0 26 -3 40 -7z
m-1890 -51 c-6 -11 -13 -20 -16 -20 -2 0 0 9 6 20 6 11 13 20 16 20 2 0 0 -9
-6 -20z m1600 10 c0 -5 -2 -10 -4 -10 -3 0 -8 5 -11 10 -3 6 -1 10 4 10 6 0
11 -4 11 -10z m-2663 -46 c-3 -3 -12 -4 -19 -1 -8 3 -5 6 6 6 11 1 17 -2 13
-5z m642 -29 c19 -18 21 -26 12 -42 -14 -27 -55 -19 -81 14 -15 20 -17 30 -9
45 12 23 43 17 78 -17z m2060 8 c2 -2 -3 -3 -11 -3 -9 0 -19 7 -22 16 -6 15
-4 15 11 3 10 -7 20 -15 22 -16z m270 -145 c11 -30 10 -30 -7 -15 -10 10 -22
17 -25 17 -4 0 -20 -26 -36 -57 l-29 -58 -11 28 c-10 26 -7 33 31 82 46 59 58
59 77 3z m-2293 -34 c-9 -8 -24 -14 -34 -11 -14 3 -13 6 8 15 36 15 44 14 26
-4z m-46 -28 c0 -2 -8 -10 -17 -17 -16 -13 -17 -12 -4 4 13 16 21 21 21 13z
m2192 -73 c-3 -23 -16 -51 -33 -71 -16 -18 -29 -42 -29 -52 0 -22 -7 -24 -28
-11 -10 6 -5 22 24 72 31 53 62 99 69 99 0 0 -1 -17 -3 -37z m-2082 2 c0 -1
-6 -7 -13 -13 -10 -8 -13 -6 -13 7 0 11 6 17 13 14 7 -3 13 -6 13 -8z m2226
-21 c-79 -167 -117 -233 -179 -311 -91 -114 -170 -207 -179 -211 -13 -6 -9
-39 12 -92 22 -57 24 -70 10 -70 -5 0 -13 15 -19 33 -5 17 -15 46 -22 64 -12
30 -11 35 18 75 73 102 143 212 143 225 0 8 14 34 30 58 17 24 30 48 30 53 0
5 23 35 51 67 27 32 58 69 66 84 39 61 64 78 39 25z m-2339 7 c0 -11 -5 -18
-9 -15 -4 3 -5 11 -1 19 7 21 12 19 10 -4z m2089 -202 c-8 -24 -14 -37 -15
-28 -1 19 20 82 25 76 2 -2 -2 -23 -10 -48z m384 -63 c0 -12 -39 -48 -113
-105 -9 -8 -20 -12 -22 -9 -3 3 20 22 50 43 57 39 71 65 34 65 -27 0 -61 -19
-54 -30 3 -5 -8 -16 -24 -25 -17 -8 -34 -23 -40 -32 -13 -24 -23 -11 -16 19 5
18 22 32 63 51 31 15 68 28 82 30 14 3 28 5 33 6 4 0 7 -5 7 -13z m-408 -18
c-7 -7 -12 -8 -12 -2 0 14 12 26 19 19 2 -3 -1 -11 -7 -17z m533 -6 c17 -2 38
-11 48 -20 16 -14 16 -16 0 -34 -15 -17 -18 -17 -40 -2 -60 39 -99 87 -55 69
9 -4 31 -10 47 -13z m-67 -52 c12 0 13 -3 4 -12 -18 -18 -48 14 -37 39 8 16 9
16 12 -4 3 -13 12 -23 21 -23z m-308 -7 c-5 -16 -13 -41 -19 -58 -9 -27 -24
-103 -40 -195 -7 -41 -58 -120 -77 -120 -8 0 -14 -4 -14 -9 0 -4 -10 -19 -23
-32 -12 -13 -36 -42 -52 -64 -16 -22 -33 -44 -38 -50 -4 -5 -14 -19 -21 -29
-7 -10 -18 -16 -24 -12 -14 9 22 77 112 209 36 54 66 103 66 110 0 11 130 277
136 277 1 0 -1 -12 -6 -27z m240 -7 c-5 -15 -14 -25 -19 -22 -5 3 -14 -1 -21
-9 -6 -7 -19 -11 -28 -9 -14 5 -14 3 1 -6 15 -9 16 -14 6 -26 -10 -12 -8 -23
9 -53 32 -56 27 -64 -7 -11 -26 42 -42 55 -96 76 -16 7 -13 9 18 12 25 2 56
17 90 42 28 22 53 38 54 36 2 -2 -1 -15 -7 -30z m-1022 -31 c-12 -14 -25 -25
-29 -25 -10 0 34 50 43 50 5 0 -2 -11 -14 -25z m1068 -6 c18 -20 18 -21 -1
-35 -25 -18 -59 -18 -75 1 -11 13 -11 18 0 28 8 8 11 8 7 1 -10 -18 21 -40 35
-26 9 9 9 12 0 12 -7 0 -12 9 -12 20 0 26 22 26 46 -1z m774 -22 c0 -2 -17
-19 -37 -38 l-38 -34 34 38 c33 34 41 42 41 34z m-845 -37 c3 -5 1 -10 -4 -10
-6 0 -11 5 -11 10 0 6 2 10 4 10 3 0 8 -4 11 -10z m-105 -21 c0 -5 -7 -9 -15
-9 -15 0 -20 12 -9 23 8 8 24 -1 24 -14z m22 -31 c-7 -7 -12 -8 -12 -2 0 14
12 26 19 19 2 -3 -1 -11 -7 -17z m158 9 c0 -2 -9 -12 -20 -22 -24 -21 -27 -14
-4 9 15 15 24 20 24 13z m-120 -37 c0 -5 -4 -10 -10 -10 -5 0 -10 5 -10 10 0
6 5 10 10 10 6 0 10 -4 10 -10z m213 -77 c-7 -2 -19 -2 -25 0 -7 3 -2 5 12 5
14 0 19 -2 13 -5z m100 -8 c4 -8 2 -17 -3 -20 -6 -4 -10 3 -10 14 0 25 6 27
13 6z m-143 -4 c0 -5 -7 -11 -15 -15 -9 -3 -15 0 -15 9 0 8 7 15 15 15 8 0 15
-4 15 -9z m-50 -11 c0 -5 -15 -16 -33 -24 -21 -8 -38 -25 -46 -45 -16 -37 -21
-38 -47 -8 -49 55 -50 58 -11 42 33 -14 37 -13 49 3 26 33 88 57 88 32z m79
-41 c-9 -17 -8 -23 2 -30 20 -13 30 -11 51 8 11 10 18 12 18 4 0 -12 -121 -71
-147 -71 -12 0 -14 7 -9 28 4 15 8 33 10 41 1 8 18 20 37 27 48 17 51 17 38
-7z m-1155 -24 c3 -8 1 -15 -4 -15 -6 0 -10 7 -10 15 0 8 2 15 4 15 2 0 6 -7
10 -15z m1350 -24 c3 -4 -6 -6 -19 -3 -14 2 -25 6 -25 8 0 8 39 4 44 -5z
m-469 -21 c12 -13 25 -18 37 -14 10 3 26 0 35 -8 19 -16 102 -38 119 -31 22 8
3 -37 -20 -49 -11 -6 -32 -24 -44 -40 -36 -44 -174 -108 -188 -87 -3 6 1 16 8
22 8 7 25 28 38 47 13 19 41 54 63 77 43 45 43 46 -22 57 -19 3 -40 14 -48 24
-8 9 -12 12 -9 5 4 -6 2 -14 -4 -18 -11 -7 -14 18 -3 28 10 11 19 8 38 -13z
m-125 -5 c0 -9 -9 -15 -21 -15 -18 0 -19 2 -9 15 7 8 16 15 21 15 5 0 9 -7 9
-15z m475 -32 c-28 -20 -41 -16 -20 7 10 11 22 17 28 13 6 -4 3 -12 -8 -20z
m-550 -14 c5 -7 14 -4 28 8 15 12 18 13 9 2 -6 -9 -8 -19 -4 -23 4 -4 1 -6 -7
-4 -9 2 -15 -7 -16 -25 -1 -15 -5 -30 -8 -33 -3 -4 -5 10 -3 30 2 20 0 39 -5
42 -9 5 -10 0 -13 -43 -2 -31 -11 -36 -27 -16 -12 16 -12 17 2 6 13 -11 15 -7
16 28 1 36 0 38 -14 22 -13 -17 -13 -16 -4 3 6 12 7 25 3 29 -4 4 3 3 15 -4
12 -6 25 -16 28 -22z m478 11 c-3 -11 -7 -20 -9 -20 -2 0 -4 9 -4 20 0 11 4
20 9 20 5 0 7 -9 4 -20z m-416 -4 c-3 -7 -1 -18 4 -23 6 -6 4 -10 -5 -10 -7 0
-12 7 -11 16 2 9 4 19 4 24 1 4 4 7 7 7 3 0 4 -6 1 -14z m-105 -90 c12 -9 25
-13 30 -10 4 3 8 1 8 -4 0 -18 -31 -22 -37 -6 -5 13 -7 13 -14 2 -6 -9 -9 -9
-9 -1 0 7 -9 10 -21 8 -12 -3 -18 -1 -15 3 4 4 13 7 19 7 7 0 11 13 11 28 -1
16 0 19 3 7 2 -11 14 -26 25 -34z m99 39 c9 2 16 -4 16 -11 0 -10 -4 -11 -10
-5 -7 7 -15 7 -22 1 -7 -6 -11 -2 -12 13 -1 12 1 17 5 11 4 -6 14 -10 23 -9z
m359 -15 c0 -5 -9 -10 -21 -10 -11 0 -17 5 -14 10 3 6 13 10 21 10 8 0 14 -4
14 -10z m-305 -80 c2 -4 -7 -5 -20 -2 -14 2 -27 8 -30 12 -2 4 7 5 20 2 14 -2
27 -8 30 -12z m-328 -30 c-1 -10 -3 -17 -6 -15 -2 3 -13 -9 -23 -26 -22 -35
-36 -33 -18 3 12 22 40 58 46 58 1 0 2 -9 1 -20z m43 -60 c13 -8 13 -10 -2
-10 -9 0 -20 5 -23 10 -8 13 5 13 25 0z m-673 -82 c-3 -7 -5 -2 -5 12 0 14 2
19 5 13 2 -7 2 -19 0 -25z m730 13 c-1 -3 9 -20 22 -36 13 -17 22 -23 19 -14
-8 21 25 42 41 26 6 -6 11 -21 11 -34 0 -26 -54 -116 -64 -106 -3 3 -6 -2 -6
-13 0 -21 -49 -107 -50 -86 0 6 -5 12 -11 12 -6 0 -8 -8 -4 -20 9 -29 -20 -68
-50 -65 -22 3 -41 -16 -28 -29 11 -11 23 -6 23 10 0 8 5 12 10 9 7 -4 6 -14
-2 -28 -15 -29 -66 -76 -73 -68 -4 3 -15 -5 -26 -19 -16 -20 -15 -16 4 20 19
36 29 45 48 43 15 -1 17 0 7 3 -10 3 -18 10 -18 16 0 20 70 133 90 146 12 7
28 27 35 45 8 18 14 26 15 20 0 -7 5 -13 11 -13 6 0 8 7 5 16 -3 8 -2 12 3 9
5 -3 12 -1 16 5 3 5 -1 10 -9 10 -9 0 -16 3 -16 8 -1 4 -5 26 -9 50 -8 41 -5
49 15 35 5 -5 -1 1 -13 12 -26 23 -32 58 -8 49 8 -3 13 -9 12 -13z m1335 -396
c-3 -13 1 -16 12 -12 18 7 20 -1 7 -22 -7 -11 -14 -8 -34 15 -18 20 -22 31
-14 36 18 12 32 3 29 -17z m78 -10 c30 -15 32 -45 4 -45 -8 0 -14 -4 -14 -10
0 -5 7 -10 15 -10 18 0 18 -2 3 -35 -9 -20 -17 -25 -32 -20 -12 4 -34 6 -51 6
-24 0 -35 7 -56 38 -19 27 -24 43 -18 54 8 14 12 13 32 -6 55 -51 63 -56 74
-38 6 9 8 31 5 49 -5 36 -2 38 38 17z m-115 -123 c29 -28 41 -48 40 -67 0 -44
-17 -39 -69 20 -26 30 -54 55 -62 55 -13 0 -13 4 2 30 20 33 12 36 89 -38z
m-1575 33 c-12 -13 -25 -24 -29 -23 -3 0 -8 -1 -11 -2 -3 -2 -20 -3 -39 -4
-30 -2 -31 -1 -15 11 17 13 24 14 62 16 9 1 21 7 25 14 4 7 13 13 19 13 6 0 1
-11 -12 -25z m-127 -61 c-17 -12 -17 -13 3 -10 11 3 27 0 35 -5 11 -7 9 -9 -8
-9 -11 0 -45 -11 -74 -25 -29 -13 -55 -22 -57 -20 -6 6 51 54 63 55 6 0 17 9
25 19 7 11 18 17 22 15 5 -3 1 -12 -9 -20z m1811 -10 c11 -28 6 -41 -18 -52
-22 -10 -26 -8 -31 9 -5 13 0 27 12 39 23 23 29 24 37 4z m-914 -2 c0 -5 -18
-29 -41 -53 -22 -24 -57 -62 -77 -84 -20 -22 -41 -38 -47 -37 -5 2 -7 0 -3 -4
9 -9 -11 -36 -21 -29 -4 2 -8 -2 -8 -9 0 -18 -45 -75 -60 -75 -6 -1 -15 -6
-19 -13 -5 -7 -3 -8 7 -3 7 5 -4 -14 -26 -43 -22 -28 -44 -50 -50 -48 -5 2
-20 -5 -32 -16 -21 -19 -21 -20 -3 -38 18 -18 15 -26 -106 -268 -115 -232
-154 -297 -154 -261 0 8 14 48 31 89 47 115 61 167 63 248 2 70 4 75 34 98 17
14 48 41 70 62 21 20 27 28 13 17 -14 -11 7 15 47 59 40 43 80 91 89 107 10
16 23 27 30 25 15 -6 53 45 53 71 -1 14 -9 9 -35 -21 -19 -22 -37 -37 -41 -34
-3 3 30 37 73 74 42 38 107 97 143 131 69 67 70 67 70 55z m785 -48 c40 -43
51 -61 47 -80 -7 -36 -20 -39 -45 -8 -32 41 -75 84 -84 84 -4 0 -9 14 -10 30
-3 48 31 39 92 -26z m-135 -9 c0 -8 -7 -15 -16 -15 -14 0 -14 3 -4 15 7 8 14
15 16 15 2 0 4 -7 4 -15z m-1500 -50 c0 -30 -4 -55 -10 -55 -11 0 -13 33 -4
79 9 46 14 38 14 -24z m-62 5 c-5 -17 -8 -43 -6 -59 4 -26 2 -28 -14 -18 -13
9 -21 8 -30 -1 -19 -19 -38 -14 -35 11 2 20 72 97 89 97 4 0 2 -14 -4 -30z
m1661 -12 c68 -71 47 -105 -30 -50 -39 27 -57 61 -44 81 12 20 33 11 74 -31z
m-1744 22 c-3 -5 -12 -10 -18 -10 -7 0 -6 4 3 10 19 12 23 12 15 0z m1895 -10
c0 -13 -12 -19 -26 -13 -21 8 -17 22 6 20 11 -1 20 -4 20 -7z m-10 -79 c0 -5
-7 -12 -16 -15 -24 -9 -28 -7 -14 9 14 17 30 20 30 6z m-1925 -11 c3 -5 1 -10
-4 -10 -6 0 -11 5 -11 10 0 6 2 10 4 10 3 0 8 -4 11 -10z m1731 -34 c12 -5 14
-1 9 17 l-7 22 17 -23 c9 -12 14 -26 10 -31 -3 -5 -1 -12 5 -16 5 -3 10 -1 10
5 0 6 5 8 10 5 12 -8 12 -16 0 -35 -7 -12 -13 -9 -30 13 -12 15 -28 27 -36 27
-9 0 -14 10 -13 28 1 15 3 20 6 10 2 -9 11 -19 19 -22z m105 -3 c2 1 1 -2 -4
-8 -5 -6 -11 -4 -17 5 -15 23 -11 37 4 18 7 -10 15 -17 17 -15z m-1842 8 c7
-5 9 -11 5 -14 -5 -3 -15 1 -22 9 -14 16 -5 18 17 5z m1912 -59 c6 -15 5 -22
-4 -22 -23 0 -38 16 -31 34 8 22 25 16 35 -12z m-2044 -24 c-3 -8 -6 -5 -6 6
-1 11 2 17 5 13 3 -3 4 -12 1 -19z m-20 -40 c-3 -7 -5 -2 -5 12 0 14 2 19 5
13 2 -7 2 -19 0 -25z m1725 -6 c-12 -2 -20 -8 -17 -13 4 -5 0 -9 -8 -9 -10 0
-13 7 -10 18 3 15 11 18 31 13 25 -5 26 -6 4 -9z m107 -18 c9 -8 -45 -2 -64 6
-14 7 -8 8 20 3 22 -3 42 -7 44 -9z m64 -21 c-7 -2 -19 -2 -25 0 -7 3 -2 5 12
5 14 0 19 -2 13 -5z m107 -27 c8 -4 -1 -4 -20 -1 -19 3 -39 10 -44 15 -10 10
19 3 64 -14z m-2100 -3 c0 -5 -13 -17 -28 -27 l-27 -19 24 26 c26 28 31 32 31
20z m933 -8 c-3 -9 -8 -14 -10 -11 -3 3 -2 9 2 15 9 16 15 13 8 -4z m1030 8
c-7 -2 -19 -2 -25 0 -7 3 -2 5 12 5 14 0 19 -2 13 -5z m117 -22 c0 -4 -11 -6
-25 -3 -14 2 -25 6 -25 8 0 2 11 4 25 4 14 0 25 -4 25 -9z m-316 -44 c12 3 29
-2 37 -9 8 -8 19 -13 26 -11 13 5 109 -41 136 -65 36 -32 15 -32 -43 0 -46 25
-62 30 -68 20 -7 -10 -14 -9 -38 2 -16 8 -47 17 -68 20 -22 4 -41 8 -43 9 -1
2 5 14 14 27 9 13 18 19 20 13 2 -5 14 -8 27 -6z m503 -13 c-3 -3 -12 -4 -19
-1 -8 3 -5 6 6 6 11 1 17 -2 13 -5z m-577 -103 c1 -14 2 -14 11 1 12 22 54 15
127 -20 56 -28 61 -36 36 -64 -20 -22 -12 -34 50 -73 38 -24 47 -36 56 -77 15
-59 33 -75 24 -20 -11 71 29 65 67 -9 23 -46 24 -82 4 -99 -8 -7 -15 -29 -15
-49 0 -52 -70 -159 -104 -161 -5 0 1 11 13 24 34 36 18 48 -32 26 -61 -28
-130 -26 -184 5 -23 14 -43 30 -43 34 0 5 -18 29 -40 54 -50 57 -110 81 -180
75 -28 -3 -53 -1 -56 3 -9 16 -24 10 -24 -9 0 -11 -12 -24 -26 -31 -35 -15
-74 8 -74 44 0 14 -4 25 -9 25 -13 0 -19 -82 -11 -137 10 -58 53 -157 58 -131
2 9 -4 30 -12 47 -9 16 -16 40 -16 53 0 17 5 13 20 -19 10 -24 24 -43 31 -43
7 0 10 -3 6 -6 -8 -8 44 -65 54 -58 5 3 9 1 9 -5 0 -13 86 -45 104 -38 8 3 17
1 20 -6 2 -7 5 -4 5 6 1 9 9 17 19 17 13 0 14 -2 3 -9 -9 -6 -10 -11 -2 -15 6
-4 11 -2 11 4 0 7 7 10 15 6 8 -3 15 -2 15 2 0 5 6 17 14 27 12 17 13 17 18
-7 4 -19 1 -25 -9 -21 -31 12 -10 -29 32 -59 24 -18 44 -36 45 -39 0 -3 -11
-11 -24 -17 -60 -27 -212 26 -287 101 -21 22 -39 35 -39 29 0 -15 96 -93 150
-122 36 -19 64 -25 138 -28 84 -4 101 -2 163 23 53 21 79 39 119 82 27 30 53
66 56 79 7 29 24 32 24 4 0 -50 -78 -130 -170 -174 -59 -28 -74 -31 -166 -31
-95 0 -104 2 -175 37 -132 65 -216 171 -245 308 -13 64 -13 78 2 138 9 37 22
76 29 88 23 37 90 101 125 120 l35 19 -27 3 c-34 4 -35 15 -6 42 26 23 78 40
129 40 42 0 53 -8 38 -27 -9 -10 -6 -13 15 -13 20 0 30 8 42 33 17 35 44 46
44 18z m311 -59 c35 -33 69 -57 76 -55 17 6 26 -16 13 -32 -10 -12 -19 -7 -55
33 -24 27 -60 59 -79 73 -34 23 -45 39 -27 39 4 0 37 -26 72 -58z m-1781 18
c0 -3 -25 -28 -55 -54 -59 -51 -90 -98 -80 -124 7 -18 -11 -32 -41 -32 -30 0
-53 -28 -33 -41 10 -6 10 -9 2 -9 -7 0 -13 -12 -13 -27 0 -25 -19 -72 -20 -49
0 5 -7 3 -15 -4 -18 -15 -125 -165 -144 -202 -8 -16 -20 -28 -28 -28 -7 0 -13
-8 -13 -18 0 -11 -10 -27 -21 -38 -31 -27 -79 -100 -79 -118 0 -9 -4 -16 -10
-16 -5 0 -10 -7 -10 -16 0 -23 -91 -164 -105 -164 -13 0 -13 23 -1 55 10 25
74 163 88 189 14 27 71 236 71 261 0 11 -3 40 -7 65 -8 49 -2 57 110 162 46
44 57 57 73 85 6 12 28 32 48 44 21 13 40 26 43 29 3 3 21 18 40 33 32 25 42
27 118 25 45 -1 82 -4 82 -8z m1855 -40 c3 -5 1 -10 -4 -10 -6 0 -11 5 -11 10
0 6 2 10 4 10 3 0 8 -4 11 -10z m-2245 -55 c0 -8 -4 -15 -10 -15 -5 0 -7 7 -4
15 4 8 8 15 10 15 2 0 4 -7 4 -15z m-15 -35 c-28 -12 -37 -12 -30 0 3 6 16 10
28 9 21 0 21 -1 2 -9z m-35 -35 c0 -8 -4 -15 -10 -15 -5 0 -7 7 -4 15 4 8 8
15 10 15 2 0 4 -7 4 -15z m2404 -71 c15 -58 22 -164 11 -152 -3 3 -8 34 -10
68 -3 47 -10 72 -29 98 -19 27 -23 39 -14 49 16 19 24 7 42 -63z m-2414 36 c0
-5 -5 -10 -11 -10 -5 0 -7 5 -4 10 3 6 8 10 11 10 2 0 4 -4 4 -10z m-49 -83
c-10 -9 -11 -8 -5 6 3 10 9 15 12 12 3 -3 0 -11 -7 -18z m2449 -8 c0 -6 -4 -7
-10 -4 -5 3 -10 11 -10 16 0 6 5 7 10 4 6 -3 10 -11 10 -16z m-2476 -33 c-3
-9 -10 -16 -15 -16 -5 0 -4 9 3 20 14 22 21 20 12 -4z m651 -135 l-12 -135
-67 -63 c-67 -65 -84 -87 -44 -59 12 9 32 16 43 16 23 0 69 42 58 53 -3 4 2 7
12 7 10 0 55 37 100 83 139 139 135 129 -14 -38 -78 -88 -163 -185 -189 -215
-26 -30 -65 -75 -88 -100 -73 -80 -213 -258 -250 -317 -20 -32 -62 -96 -93
-143 -32 -47 -79 -123 -106 -170 -27 -47 -50 -87 -53 -90 -2 -3 -21 15 -42 38
l-37 44 69 141 c39 78 77 157 86 176 10 19 22 36 29 38 26 9 22 -38 -11 -116
-19 -44 -33 -81 -33 -81 1 0 31 41 67 90 36 49 89 120 118 157 41 54 52 75 52
104 0 21 -4 39 -10 41 -9 3 30 68 67 112 31 38 9 142 -36 166 -29 15 -63 12
-112 -9 -24 -11 -61 -23 -81 -26 -34 -6 -39 -4 -49 18 -16 35 16 78 84 112 28
15 64 34 78 42 55 34 147 -15 192 -102 l22 -43 60 100 c87 143 196 311 199
307 2 -2 -2 -64 -9 -138z m1123 85 c-1 -14 -5 -23 -9 -20 -7 4 0 44 7 44 2 0
3 -11 2 -24z m162 -3 c0 -9 -6 -13 -15 -9 -12 4 -13 2 -6 -13 7 -13 6 -18 -4
-18 -10 0 -13 8 -11 23 3 13 1 25 -2 27 -4 2 -1 2 6 1 6 -2 12 1 12 7 0 6 5 7
10 4 6 -3 10 -13 10 -22z m-1974 -8 c-1 -8 -5 -17 -8 -21 -5 -4 -4 16 1 34 3
9 9 -1 7 -13z m1894 -15 c13 -9 13 -10 0 -10 -12 0 -12 -2 -1 -9 9 -6 10 -11
2 -15 -10 -6 -13 -1 -10 21 0 4 -8 10 -18 14 -13 6 -14 8 -3 8 8 0 22 -4 30
-9z m-155 -20 c3 -5 1 -10 -4 -10 -6 0 -11 5 -11 10 0 6 2 10 4 10 3 0 8 -4
11 -10z m43 -39 c-12 -4 -28 17 -28 39 0 10 7 7 20 -10 11 -15 15 -26 8 -29z
m63 29 c10 0 19 -4 19 -10 0 -5 8 -10 17 -10 9 0 14 -3 10 -6 -3 -4 -14 -3
-24 1 -10 5 -25 9 -33 9 -8 1 -16 10 -17 21 -2 11 0 14 3 8 3 -7 14 -13 25
-13z m694 -46 c-3 -24 -10 -44 -16 -44 -11 0 -11 -2 3 62 13 61 23 48 13 -18z
m-555 34 c0 -4 -4 -8 -9 -8 -6 0 -12 4 -15 8 -3 5 1 9 9 9 8 0 15 -4 15 -9z
m-9 -35 l24 -28 -27 24 c-16 13 -32 20 -39 16 -8 -5 -10 -4 -5 3 11 18 20 15
47 -15z m-194 1 c-3 -3 -12 -4 -19 -1 -8 3 -5 6 6 6 11 1 17 -2 13 -5z m24
-18 c-8 -9 -8 -16 -2 -20 5 -4 14 2 20 11 9 16 10 16 11 -4 0 -14 6 -23 15
-23 17 0 21 -35 5 -45 -6 -4 -8 -10 -6 -14 3 -4 -7 -6 -22 -3 -34 5 -71 59
-47 68 8 4 12 10 9 15 -3 5 1 15 8 23 17 18 25 11 9 -8z m211 -8 c-8 -8 -9 -4
-5 13 4 13 8 18 11 10 2 -7 -1 -18 -6 -23z m-2101 -1 c-10 -9 -11 -8 -5 6 3
10 9 15 12 12 3 -3 0 -11 -7 -18z m1840 -11 c-6 -7 -9 -16 -6 -20 3 -3 0 -2
-6 3 -14 12 -3 45 11 36 8 -5 8 -11 1 -19z m227 -7 c-6 -4 -4 -10 8 -17 16 -9
15 -10 -8 -9 -21 2 -25 7 -24 28 1 22 3 25 18 15 11 -6 13 -13 6 -17z m62 -10
c0 -5 -4 -9 -8 -9 -5 0 -9 7 -9 15 0 8 4 12 9 9 4 -3 8 -9 8 -15z m-134 -14
c1 -8 -1 -17 -5 -19 -4 -3 -7 6 -7 19 0 25 8 25 12 0z m327 -64 c-15 -23 -37
-24 -62 -4 -26 22 -20 50 12 55 30 4 63 -30 50 -51z m287 49 c0 -5 -4 -10 -10
-10 -5 0 -10 5 -10 10 0 6 5 10 10 10 6 0 10 -4 10 -10z m-620 -24 c0 -2 -9
-6 -20 -9 -11 -3 -18 -1 -14 4 5 9 34 13 34 5z m574 -48 c-8 -28 -35 -70 -41
-65 -6 7 9 37 18 37 5 0 9 11 9 25 0 14 5 25 11 25 6 0 8 -9 3 -22z m-2314
-297 c0 -35 -5 -42 -55 -80 -72 -54 -107 -70 -113 -52 -2 7 -13 22 -23 32 -39
39 -190 15 -301 -48 -32 -17 -58 -28 -58 -22 0 5 4 9 9 9 5 0 16 6 23 13 17
17 92 52 143 67 22 6 59 21 82 33 l42 21 23 -21 c33 -30 69 -47 77 -36 3 5 25
20 49 33 24 13 52 39 63 57 27 43 39 42 39 -6z m-457 -69 c-6 -23 -23 -31 -19
-9 2 16 17 39 22 35 2 -2 1 -14 -3 -26z m1550 22 c3 -4 -1 -20 -9 -35 -12 -25
-19 -28 -42 -23 -39 10 -40 13 -7 40 30 24 47 29 58 18z m-1615 -59 c-6 -14
-13 -23 -15 -21 -5 5 15 46 22 46 3 0 -1 -11 -7 -25z m1706 10 c11 -8 16 -18
12 -22 -3 -4 -16 3 -28 15 -25 25 -13 29 16 7z m-1514 -24 c0 -24 -88 -181
-101 -181 -3 0 14 43 39 95 40 84 62 114 62 86z m1611 -11 c32 -9 35 -13 31
-41 -2 -17 -11 -33 -18 -36 -23 -9 -76 18 -70 34 4 8 6 23 6 34 0 22 3 22 51
9z m-136 -12 c28 -13 32 -30 11 -47 -11 -9 -19 -9 -35 1 -23 14 -24 18 -15 42
7 19 6 19 39 4z m-1575 -2 c0 -2 -7 -7 -16 -10 -8 -3 -12 -2 -9 4 6 10 25 14
25 6z m-63 -85 c-10 -12 -13 -9 -15 13 -3 27 -4 27 -23 10 -23 -21 -25 -8 -3
17 16 17 17 17 34 -4 14 -17 16 -25 7 -36z m17 43 c5 -14 4 -15 -9 -4 -17 14
-19 20 -6 20 5 0 12 -7 15 -16z m1491 -30 c-24 -18 -49 -14 -53 9 -5 25 38 40
58 20 13 -13 13 -16 -5 -29z m386 36 c5 0 9 -16 9 -35 0 -19 -5 -35 -11 -35
-18 0 -46 19 -53 35 -7 20 14 46 32 40 8 -3 18 -5 23 -5z m-461 -19 c0 -6 -4
-13 -10 -16 -5 -3 -10 1 -10 9 0 9 5 16 10 16 6 0 10 -4 10 -9z m168 -13 c7
-7 12 -16 12 -22 0 -6 -5 -5 -12 2 -20 20 -39 13 -50 -19 -6 -16 -12 -28 -15
-26 -2 3 3 21 11 41 15 37 33 45 54 24z m136 -13 c25 -11 36 -22 36 -36 0 -16
-4 -19 -17 -14 -10 4 -31 12 -48 19 -16 6 -31 11 -33 12 -6 3 11 34 18 34 4 0
24 -7 44 -15z m-1463 -168 c-18 -53 -18 -59 -4 -88 14 -27 14 -33 1 -46 -13
-13 -16 -11 -21 16 -5 22 -15 34 -34 41 -16 6 -38 15 -49 21 -21 11 -84 8
-151 -6 -20 -5 -33 -15 -37 -27 -4 -17 -10 -20 -34 -15 -17 3 -34 1 -42 -6
-24 -23 -7 11 30 58 24 31 57 56 107 81 81 41 116 40 135 -1 14 -32 23 -31 53
1 15 16 26 44 30 72 10 76 18 81 27 16 8 -51 6 -70 -11 -117z m-324 142 c-5
-17 -2 -20 14 -16 12 3 19 0 19 -10 0 -10 -6 -13 -16 -9 -8 3 -12 2 -9 -3 3
-5 1 -12 -4 -15 -5 -3 -11 4 -13 17 -4 25 1 57 9 57 3 0 3 -9 0 -21z m2055 -3
c14 -15 37 -26 58 -28 27 -2 35 -7 35 -23 0 -17 -6 -19 -35 -17 -19 2 -38 9
-42 15 -5 8 -11 7 -21 -1 -21 -17 -47 -4 -47 23 0 13 -4 27 -10 30 -18 11 -10
25 15 25 13 0 34 -11 47 -24z m934 -13 c-7 -7 -26 7 -26 19 0 6 6 6 15 -2 9
-7 13 -15 11 -17z m-1545 2 c0 -6 -10 -12 -23 -13 -19 -4 -20 -2 -9 12 15 17
33 18 32 1z m462 1 c24 -18 22 -21 -18 -22 -20 0 -35 4 -35 11 0 27 25 32 53
11z m-369 -8 c-3 -4 -14 -8 -25 -8 -11 0 -18 4 -14 9 3 6 14 9 25 8 10 -1 16
-5 14 -9z m96 -8 c0 -5 -7 -7 -15 -4 -8 4 -15 8 -15 10 0 2 7 4 15 4 8 0 15
-4 15 -10z m120 -6 c0 -2 -9 -4 -20 -4 -11 0 -20 4 -20 9 0 5 9 7 20 4 11 -3
20 -7 20 -9z m-1802 -27 c7 -5 12 -3 12 4 0 7 2 10 5 7 3 -3 2 -13 -1 -22 -5
-13 -9 -14 -14 -5 -6 8 -13 2 -24 -20 -19 -36 -29 -41 -17 -8 4 12 7 29 6 38
-3 17 10 19 33 6z m2280 -3 c18 -5 20 -9 11 -20 -13 -16 -33 -19 -24 -4 3 6
-1 10 -9 10 -9 0 -16 5 -16 10 0 11 6 12 38 4z m-2193 -24 c3 -5 1 -10 -4 -10
-6 0 -11 5 -11 10 0 6 2 10 4 10 3 0 8 -4 11 -10z m2296 -7 c21 -10 39 -22 39
-27 0 -5 12 -25 26 -44 l27 -34 -24 7 c-13 4 -34 17 -47 28 -12 12 -37 28 -55
37 -33 16 -46 50 -19 50 8 0 33 -8 53 -17z m-2441 -4 c0 8 2 12 5 9 3 -3 2
-13 -1 -22 -5 -14 -9 -15 -15 -4 -5 7 -9 18 -9 23 0 6 5 3 10 -5 8 -12 10 -12
10 -1z m2217 5 c31 -8 17 -34 -18 -34 -27 0 -39 17 -22 33 8 8 12 8 40 1z
m773 -19 c0 -8 -7 -11 -20 -8 -23 6 -26 19 -7 26 16 6 27 -1 27 -18z m-1366 0
c-4 -8 -12 -15 -20 -15 -18 0 -17 -18 1 -50 12 -22 11 -27 -2 -42 -21 -23 -28
-23 -51 2 l-19 21 4 -26 c3 -15 1 -25 -6 -25 -14 0 -15 57 -1 65 8 5 7 11 -1
21 -10 12 -8 18 12 32 43 31 92 41 83 17z m66 -10 c0 -9 6 -18 14 -21 8 -3 19
-19 25 -35 9 -26 8 -29 -10 -29 -10 0 -28 6 -39 13 -17 10 -22 9 -31 -3 -9
-12 -10 -12 -5 3 3 10 2 27 -4 37 -8 14 -5 19 11 23 12 3 18 10 14 16 -3 6 1
11 9 11 9 0 16 -7 16 -15z m-1590 -2 c-1 -5 -12 -21 -26 -38 -23 -27 -24 -27
-14 -5 20 40 41 62 40 43z m1351 -23 c16 0 32 -6 35 -14 9 -23 -36 -158 -50
-148 -6 5 -24 12 -39 16 -17 4 -26 12 -24 19 3 7 13 43 23 80 10 37 20 63 22
57 2 -5 17 -10 33 -10z m1144 -6 c47 -23 48 -24 15 -19 -19 3 -36 10 -38 15
-2 6 -14 10 -27 10 -13 0 -27 5 -30 10 -11 18 29 10 80 -16z m302 20 c-3 -3
-12 -4 -19 -1 -8 3 -5 6 6 6 11 1 17 -2 13 -5z m-1544 -42 c9 -8 17 -18 17
-21 0 -10 -51 -30 -64 -25 -12 5 -20 50 -11 65 7 10 34 1 58 -19z m1042 18 c3
-5 1 -10 -4 -10 -6 0 -11 5 -11 10 0 6 2 10 4 10 3 0 8 -4 11 -10z m435 0 c0
-5 -10 -10 -23 -10 -12 0 -32 -6 -43 -14 -13 -10 -25 -11 -35 -5 -12 7 -11 9
2 9 9 0 30 7 45 15 34 17 54 19 54 5z m-2880 -10 c0 -5 -5 -10 -11 -10 -5 0
-7 5 -4 10 3 6 8 10 11 10 2 0 4 -4 4 -10z m1899 -11 c13 -26 7 -54 -12 -54
-10 0 -22 -6 -26 -14 -5 -7 -14 -10 -20 -7 -7 5 -11 -5 -11 -28 0 -40 18 -48
37 -17 10 15 10 21 0 24 -7 3 -5 6 4 6 11 1 19 -10 23 -34 7 -35 21 -46 28
-23 3 8 11 7 28 -5 23 -16 23 -17 5 -18 -11 -1 -26 -1 -33 0 -8 1 -20 -4 -29
-11 -12 -10 -17 -9 -28 5 -15 21 -29 22 -50 1 -26 -27 -44 -2 -23 34 8 15 13
33 11 40 -3 7 0 19 6 26 6 7 8 21 5 31 -4 10 -1 20 6 25 11 7 11 11 0 25 -12
15 -10 16 29 12 24 -2 46 -10 50 -18z m268 15 c-3 -3 -12 -4 -19 -1 -8 3 -5 6
6 6 11 1 17 -2 13 -5z m-29 -31 c27 -39 25 -60 -7 -58 -14 1 -36 3 -48 3 -15
1 -21 7 -17 16 3 8 1 23 -5 34 -9 17 -8 21 7 25 37 10 51 6 70 -20z m169 4 c4
-7 0 -8 -11 -4 -10 4 -22 7 -27 7 -5 0 -9 4 -9 9 0 12 38 2 47 -12z m-2395
-12 c70 -18 87 -39 21 -24 -102 22 -133 31 -127 40 3 6 13 8 22 5 10 -2 47
-12 84 -21z m2083 5 c15 0 45 -27 45 -41 0 -5 -13 -9 -30 -9 -16 0 -30 -4 -30
-10 0 -5 -9 -10 -20 -10 -21 0 -25 16 -14 58 4 15 12 21 21 18 8 -3 21 -6 28
-6z m244 0 c15 -7 51 -75 51 -95 0 -2 -13 -3 -30 -3 -16 1 -30 4 -30 8 0 4 -9
10 -20 13 -13 3 -18 10 -14 21 3 8 -2 23 -12 33 -16 17 -16 18 7 24 13 4 25 7
27 8 2 1 11 -3 21 -9z m440 -6 c2 -2 -2 -10 -9 -19 -18 -22 -89 3 -75 25 5 8
74 2 84 -6z m124 -11 c4 -3 3 -10 -2 -17 -6 -7 -7 -23 -4 -36 5 -21 4 -22 -18
-17 -13 4 -30 7 -36 7 -7 0 -13 11 -13 25 0 16 -6 25 -15 25 -21 0 -19 17 3
23 17 5 70 -1 85 -10z m-399 -65 c21 -51 21 -51 -16 -44 -46 8 -55 -2 -50 -56
6 -68 32 -74 32 -8 0 48 12 66 23 36 5 -14 -7 -83 -16 -92 -3 -3 -25 1 -49 10
-23 8 -37 15 -29 16 8 0 11 3 8 7 -4 3 -3 11 2 17 14 17 23 133 11 141 -16 10
-12 23 8 27 31 7 61 -14 76 -54z m101 47 c23 -10 25 -13 10 -14 -11 0 -31 6
-45 14 -32 18 -5 19 35 0z m630 4 c4 -6 5 -12 2 -15 -7 -7 -37 7 -37 17 0 13
27 11 35 -2z m-1490 -29 c-3 -5 -10 -10 -16 -10 -5 0 -9 5 -9 10 0 6 7 10 16
10 8 0 12 -4 9 -10z m93 -2 c13 -13 16 -84 4 -92 -4 -2 -6 11 -4 30 3 21 0 34
-7 34 -6 0 -11 -9 -11 -20 0 -11 -7 -20 -15 -20 -8 0 -13 6 -11 13 3 6 7 24
10 40 7 30 16 33 34 15z m802 -82 c0 -38 -15 -39 -44 -5 -23 27 -29 29 -43 18
-14 -12 -15 -11 -9 8 4 12 2 31 -3 42 -9 17 -7 20 12 24 29 5 87 -53 87 -87z
m450 74 c-9 -16 -15 -18 -31 -10 -25 14 -16 30 17 30 22 0 23 -2 14 -20z
m-1366 -13 c8 8 8 -6 0 -46 -5 -26 -9 -29 -21 -19 -11 9 -17 9 -24 -3 -8 -12
-11 -11 -23 4 -11 14 -11 26 -3 52 10 33 11 34 37 20 15 -8 30 -11 34 -8z
m476 2 c0 -11 -4 -18 -9 -15 -5 3 -11 -8 -15 -25 -10 -50 -7 -69 9 -69 8 0 15
7 15 15 0 8 7 15 15 15 8 0 15 5 15 10 0 6 -7 13 -15 16 -8 4 -15 11 -15 17 0
6 10 2 21 -10 19 -18 20 -25 10 -55 -10 -31 -15 -34 -41 -30 -46 7 -52 29 -28
95 21 58 38 74 38 36z m540 -1 c0 -5 -9 -4 -20 2 -11 6 -20 12 -20 14 0 2 9 2
20 -1 11 -3 20 -9 20 -15z m-2680 -3 c20 -10 30 -23 30 -39 0 -36 -12 -39 -36
-9 -19 24 -24 26 -38 14 -22 -19 -31 -8 -11 13 15 15 15 16 -1 16 -19 0 -64
-45 -64 -64 0 -21 40 -66 57 -66 9 0 13 -3 9 -7 -10 -10 -76 28 -76 44 0 7 -5
12 -11 11 -28 -7 -16 22 25 60 49 45 71 50 116 27z m2010 -10 c0 -9 -6 -12
-16 -8 -13 5 -13 7 -2 14 17 11 18 11 18 -6z m-1800 -9 c0 -3 -4 -8 -10 -11
-5 -3 -10 -1 -10 4 0 6 5 11 10 11 6 0 10 -2 10 -4z m2440 -17 c0 -5 9 -9 19
-9 20 0 31 -18 31 -51 0 -27 -17 -23 -24 6 -8 30 -17 31 -42 4 -18 -20 -18
-22 -1 -34 9 -6 17 -17 17 -24 0 -6 7 -11 15 -11 8 0 15 -7 15 -15 0 -36 -34
-7 -62 54 -12 26 -14 39 -6 49 8 9 8 16 0 24 -19 19 -14 26 13 20 14 -2 25 -8
25 -13z m400 -7 c0 -15 -2 -15 -10 -2 -13 20 -13 33 0 25 6 -3 10 -14 10 -23z
m-823 -26 c-5 -31 -3 -34 24 -38 20 -3 29 0 29 9 0 7 5 13 11 13 6 0 8 -7 5
-16 -3 -9 -6 -20 -6 -25 0 -5 -12 -4 -26 2 -15 5 -36 7 -47 3 -16 -5 -19 -3
-13 12 4 11 10 31 13 47 8 39 17 33 10 -7z m83 8 c0 -8 -4 -14 -10 -14 -5 0
-10 9 -10 21 0 11 5 17 10 14 6 -3 10 -13 10 -21z m-563 -14 c14 -11 21 -20
15 -20 -12 0 -60 39 -49 40 5 0 20 -9 34 -20z m1030 -20 c35 0 67 -52 46 -74
-4 -4 -8 -15 -8 -23 0 -9 -6 -18 -12 -20 -8 -3 -13 4 -13 15 0 33 -11 53 -36
63 -24 8 -33 29 -14 29 7 0 7 6 0 19 -15 30 -12 38 6 13 8 -12 22 -22 31 -22z
m-2812 -8 c-3 -3 -11 0 -18 7 -9 10 -8 11 6 5 10 -3 15 -9 12 -12z m2963 -15
c18 -36 24 -85 11 -92 -5 -4 -9 -17 -9 -31 0 -13 -4 -24 -9 -24 -5 0 -7 9 -4
20 5 17 0 20 -26 20 -21 0 -31 -5 -31 -15 0 -8 -3 -15 -8 -15 -11 0 -2 93 11
108 7 9 7 16 -1 24 -23 23 -14 39 20 36 24 -2 36 -10 46 -31z m-380 -51 c-3
-40 -6 -41 -42 -25 -22 10 -23 14 -13 38 6 14 15 31 20 38 16 21 37 -11 35
-51z m485 26 c21 -23 39 -104 26 -116 -5 -6 -9 -22 -9 -37 0 -15 -12 -39 -30
-57 -16 -18 -30 -27 -30 -21 0 6 -7 17 -15 25 -17 17 -20 64 -5 64 14 0 50 37
50 51 0 7 -10 9 -25 5 -20 -5 -25 -3 -25 13 0 11 6 21 13 24 10 4 10 7 0 18
-24 25 -16 39 28 48 3 0 13 -7 22 -17z m-2880 1 c-7 -2 -21 -2 -30 0 -10 3 -4
5 12 5 17 0 24 -2 18 -5z m2951 1 c9 -3 14 -10 11 -14 -6 -10 -45 -1 -45 11 0
10 12 11 34 3z m-2754 -24 c-6 -11 -13 -20 -16 -20 -2 0 0 9 6 20 6 11 13 20
16 20 2 0 0 -9 -6 -20z m2396 -5 c-3 -10 6 -26 25 -43 24 -22 30 -33 25 -50
-4 -12 -14 -22 -22 -22 -8 0 -12 4 -9 10 3 5 -6 12 -21 16 -19 5 -22 9 -12 15
10 6 10 9 1 9 -7 0 -13 5 -13 12 0 6 10 2 23 -10 23 -21 47 -29 47 -15 0 3
-14 18 -31 32 -21 18 -28 31 -24 44 4 9 9 17 12 17 3 0 2 -7 -1 -15z m-2673
-12 c-7 -2 -19 -2 -25 0 -7 3 -2 5 12 5 14 0 19 -2 13 -5z m80 0 c-7 -2 -21
-2 -30 0 -10 3 -4 5 12 5 17 0 24 -2 18 -5z m2453 -20 c-7 -7 -26 7 -26 19 0
6 6 6 15 -2 9 -7 13 -15 11 -17z m549 2 c14 -13 25 -32 26 -42 0 -10 2 -30 3
-45 1 -17 -3 -28 -11 -28 -7 0 -10 -7 -7 -15 10 -25 -5 -83 -23 -89 -21 -8
-43 11 -26 22 9 6 6 15 -12 34 -20 22 -23 33 -18 65 3 21 9 43 14 49 4 5 2 22
-5 36 -8 15 -12 29 -8 32 13 13 44 4 67 -19z m-3218 -27 c-3 -7 -5 -2 -5 12 0
14 2 19 5 13 2 -7 2 -19 0 -25z m391 11 c30 2 42 -1 38 -8 -4 -6 -2 -11 3 -11
6 0 11 -4 11 -10 0 -13 -47 -13 -55 0 -4 7 -11 8 -18 1 -8 -6 -18 -1 -31 17
-11 14 -13 21 -6 17 8 -5 34 -8 58 -6z m308 -50 l33 -32 -38 -56 c-20 -31 -50
-77 -65 -103 -24 -44 -56 -64 -56 -37 0 16 84 259 90 259 2 0 19 -14 36 -31z
m-231 1 c3 -6 -4 -10 -17 -10 -18 0 -20 2 -8 10 19 12 18 12 25 0z m-255 -26
c0 -7 18 -18 40 -24 21 -6 42 -14 44 -19 7 -10 -74 17 -91 30 -15 13 -69 15
-113 5 -31 -8 -33 -7 -22 7 23 27 142 28 142 1z m-220 -7 c0 -16 -9 -28 -25
-35 -37 -17 -45 -14 -12 4 15 8 27 23 27 34 0 11 2 20 5 20 3 0 5 -11 5 -23z
m2986 -3 c-5 -12 -13 -14 -34 -9 -43 10 -50 25 -9 18 27 -4 37 -2 37 7 0 7 3
11 6 7 4 -3 4 -14 0 -23z m-2601 6 c3 -5 1 -10 -4 -10 -6 0 -11 5 -11 10 0 6
2 10 4 10 3 0 8 -4 11 -10z m85 -35 c-7 -9 -15 -13 -17 -11 -7 7 7 26 19 26 6
0 6 -6 -2 -15z m-20 -29 c0 -2 -7 -9 -15 -16 -12 -10 -15 -10 -15 4 0 9 7 16
15 16 8 0 15 -2 15 -4z m-316 -86 c-14 -66 28 -121 114 -152 45 -16 47 -18 45
-55 -1 -21 -6 -50 -12 -66 -11 -27 -11 -27 -47 -12 -20 8 -47 25 -60 37 -31
29 -70 103 -79 151 -9 48 -25 60 -69 51 -34 -6 -36 -8 -36 -48 0 -70 -15 -70
-33 0 -10 37 -17 67 -15 69 2 1 46 14 98 28 52 14 96 25 97 26 1 1 0 -12 -3
-29z m3062 -30 c-1 -41 -9 -52 -20 -24 -7 18 3 64 14 64 4 0 7 -18 6 -40z
m-3337 -70 c-10 -52 -24 -99 -30 -105 -8 -7 -10 -4 -6 10 3 11 9 45 12 76 6
45 4 58 -10 69 -15 12 -13 15 17 31 18 9 34 16 35 15 1 -1 -7 -44 -18 -96z
m401 75 c0 -3 -9 -5 -20 -5 -11 0 -20 7 -20 15 0 13 4 14 20 5 11 -6 20 -13
20 -15z m120 6 l25 -7 -26 -7 c-21 -5 -28 -16 -39 -62 -7 -30 -15 -53 -17 -51
-2 2 -1 33 3 70 7 68 9 70 54 57z m-83 -33 c-3 -8 -6 -5 -6 6 -1 11 2 17 5 13
3 -3 4 -12 1 -19z m1853 1 c0 -17 -5 -20 -32 -17 -43 4 -48 26 -6 31 18 2 34
5 36 5 1 1 2 -7 2 -19z m-1506 -158 l29 -121 -32 -118 c-29 -107 -30 -122 -21
-177 31 -173 36 -225 21 -225 -5 0 -12 26 -16 58 -3 31 -14 105 -25 164 -24
129 -24 163 -5 322 13 109 13 128 0 172 -19 62 -19 67 3 55 12 -6 26 -46 46
-130z m-365 83 c14 -12 -19 -1 -35 12 -18 14 -18 14 6 3 14 -6 27 -13 29 -15z
m1841 -103 c5 -19 5 -31 -1 -31 -5 0 -9 6 -9 13 0 6 -3 23 -7 37 -9 36 6 19
17 -19z m-2295 -28 c-4 -27 -1 -44 9 -58 9 -11 16 -27 16 -35 0 -8 11 -28 24
-43 19 -24 26 -27 48 -18 14 5 29 7 32 4 3 -4 6 1 6 10 0 9 5 17 11 17 6 0 9
-6 6 -13 -4 -10 4 -12 27 -10 17 2 24 0 16 -3 -8 -4 -22 -14 -30 -24 -8 -9
-36 -22 -62 -29 -62 -15 -68 -14 -68 7 0 10 -11 52 -25 94 -16 50 -23 87 -19
107 9 44 17 38 9 -6z m205 -94 c0 -7 28 -10 85 -8 47 2 85 1 85 -2 0 -4 -43
-7 -95 -8 -80 -2 -95 0 -95 14 0 8 5 15 10 15 6 0 10 -5 10 -11z m2097 -21
c-3 -7 -5 -2 -5 12 0 14 2 19 5 13 2 -7 2 -19 0 -25z m50 -120 c-3 -8 -6 -5
-6 6 -1 11 2 17 5 13 3 -3 4 -12 1 -19z m37 -66 c3 -15 8 -51 11 -79 l7 -53
-34 0 c-51 0 -58 10 -61 85 -2 66 -1 69 23 75 35 9 48 2 54 -28z m-2680 -143
c-3 -5 -10 -7 -15 -3 -5 3 -7 10 -3 15 3 5 10 7 15 3 5 -3 7 -10 3 -15z m-34
7 c0 -3 -4 -8 -10 -11 -5 -3 -10 -1 -10 4 0 6 5 11 10 11 6 0 10 -2 10 -4z
m70 -6 c0 -5 -4 -10 -10 -10 -5 0 -10 5 -10 10 0 6 5 10 10 10 6 0 10 -4 10
-10z m918 -26 c35 -10 26 -20 -13 -16 -30 4 -41 -1 -77 -37 -28 -29 -44 -39
-52 -31 -7 7 2 22 29 50 39 40 63 47 113 34z m-1073 -14 c3 -5 1 -10 -4 -10
-6 0 -11 5 -11 10 0 6 2 10 4 10 3 0 8 -4 11 -10z m608 -1 c12 -6 35 -23 50
-38 l29 -26 22 26 c42 49 150 50 181 3 14 -22 14 -25 -1 -31 -9 -3 -19 -1 -23
5 -3 5 -26 13 -51 17 -41 6 -48 4 -73 -21 -15 -14 -27 -33 -27 -40 0 -8 -5
-14 -11 -14 -6 0 -9 7 -6 15 8 20 -8 28 -23 10 -11 -13 -16 -12 -42 10 -33 28
-38 29 -71 14 -23 -10 -57 -56 -67 -91 -4 -14 -7 -15 -24 -3 -18 14 -18 16 13
47 37 38 42 62 6 28 -47 -44 -25 -6 27 47 57 57 59 58 91 42z m-203 -64 c17
-25 36 -45 41 -45 6 0 7 -4 4 -10 -11 -17 -41 -5 -79 33 -24 23 -36 42 -33 52
11 27 35 16 67 -30z m-353 -7 c-3 -8 -6 -5 -6 6 -1 11 2 17 5 13 3 -3 4 -12 1
-19z m317 -41 c8 -13 6 -22 -10 -38 -18 -17 -29 -20 -62 -14 -22 3 -43 13 -46
21 -8 21 4 44 24 44 10 0 23 7 30 15 11 13 16 14 33 2 12 -8 26 -21 31 -30z
m279 -34 c-4 -11 -10 -11 -30 3 -15 9 -38 14 -54 12 -40 -6 -38 17 4 42 l32
20 26 -32 c15 -18 25 -38 22 -45z m2217 58 c0 -4 -7 -8 -15 -8 -16 0 -20 9 -9
20 8 8 24 -1 24 -12z m80 -60 c28 -24 31 -30 16 -31 -12 0 -16 -5 -12 -15 3
-8 0 -15 -5 -15 -7 0 -9 9 -5 22 4 18 -3 31 -32 57 -45 40 -12 25 38 -18z
m-40 -33 c0 -6 -6 -5 -15 2 -8 7 -15 14 -15 16 0 2 7 1 15 -2 8 -4 15 -11 15
-16z m-1706 -63 c-13 -38 -24 -82 -24 -96 0 -24 -25 -58 -34 -48 -2 2 -6 31
-10 65 l-7 61 46 48 c24 27 47 47 49 44 2 -2 -6 -35 -20 -74z m1824 38 c30
-19 62 -49 62 -58 0 -4 -14 5 -31 19 -17 14 -39 26 -50 26 -10 0 -19 7 -19 15
0 19 5 19 38 -2z m-3001 -15 c-3 -8 -6 -5 -6 6 -1 11 2 17 5 13 3 -3 4 -12 1
-19z m2969 -20 c3 -24 -9 -23 -32 3 -19 21 -19 21 5 18 14 -2 25 -12 27 -21z
m39 -28 c3 -5 -1 -10 -10 -10 -9 0 -13 5 -10 10 3 6 8 10 10 10 2 0 7 -4 10
-10z m145 -57 c0 -8 -7 -6 -20 7 -11 11 -27 20 -35 20 -8 0 -15 2 -15 4 0 2
-3 12 -6 20 -4 12 6 9 35 -11 22 -14 41 -33 41 -40z m-77 -13 c9 0 17 -6 17
-14 0 -7 7 -19 15 -26 12 -10 15 -10 15 0 0 8 3 11 6 7 4 -3 4 -13 1 -22 -5
-12 -15 -6 -47 25 -22 22 -45 40 -50 40 -5 0 -15 10 -21 23 -10 19 -8 19 18
-5 16 -16 37 -28 46 -28z m-1943 -92 c-1 -7 -7 -24 -15 -38 l-14 -25 -1 31 c0
17 3 34 7 37 10 11 23 8 23 -5z m-1032 -242 c-59 -38 -58 -38 -58 -17 0 13 5
18 14 15 8 -3 17 0 21 5 3 6 11 9 16 5 6 -3 9 -7 7 -8z m-15 -74 c-13 -2 -23
-8 -23 -13 0 -5 -4 -9 -10 -9 -5 0 -10 4 -10 8 0 13 43 31 55 23 6 -3 0 -7
-12 -9z"/>
<path d="M4190 7280 c0 -16 2 -30 4 -30 2 0 6 14 8 30 3 17 1 30 -4 30 -4 0
-8 -13 -8 -30z"/>
<path d="M4221 7202 c-1 -7 -5 -11 -10 -8 -5 4 -11 0 -14 -6 -3 -10 -7 -10
-20 1 -24 20 -22 10 24 -84 34 -71 45 -85 65 -85 17 0 28 10 40 35 15 32 20
35 60 35 24 0 44 4 44 8 0 16 -45 51 -75 58 -16 4 -35 11 -42 16 -7 5 -21 7
-33 3 -15 -5 -22 -1 -29 17 -6 13 -10 17 -10 10z"/>
<path d="M3599 7151 c12 -8 51 -4 51 5 0 2 -15 4 -32 4 -23 0 -29 -3 -19 -9z"/>
<path d="M3725 7095 c27 -22 31 -23 47 -8 25 22 13 33 -35 33 l-42 -1 30 -24z"/>
<path d="M4483 6978 c-5 -7 -15 -28 -22 -45 -8 -18 -16 -31 -20 -29 -4 3 -7
-3 -8 -12 -1 -9 -4 -27 -8 -39 -7 -21 -4 -23 28 -23 20 0 39 5 42 10 3 6 1 10
-4 10 -6 0 -11 5 -11 10 0 6 10 10 23 10 32 0 84 -98 68 -128 -16 -30 -14 -41
9 -35 12 3 20 0 20 -8 0 -7 2 -10 5 -7 7 6 -42 240 -52 247 -4 4 -20 17 -34
29 -20 18 -28 20 -36 10z"/>
<path d="M4440 6796 c0 -8 5 -18 10 -21 6 -3 10 3 10 14 0 12 -4 21 -10 21 -5
0 -10 -6 -10 -14z"/>
<path d="M3062 6535 c9 -10 21 -16 28 -13 7 2 -1 10 -16 17 -27 12 -28 11 -12
-4z"/>
<path d="M4073 6165 c0 -8 4 -12 9 -9 5 3 6 10 3 15 -9 13 -12 11 -12 -6z"/>
<path d="M4136 6158 c3 -5 10 -6 15 -3 13 9 11 12 -6 12 -8 0 -12 -4 -9 -9z"/>
<path d="M4085 6141 c-3 -5 -2 -12 3 -15 5 -3 9 1 9 9 0 17 -3 19 -12 6z"/>
<path d="M1881 6478 c0 -7 25 -32 55 -56 51 -40 68 -45 41 -12 -24 30 -97 82
-96 68z"/>
<path d="M3493 5655 c-13 -19 -23 -39 -23 -45 0 -13 -47 -106 -72 -142 -12
-18 -17 -35 -12 -53 5 -21 -1 -32 -32 -61 -22 -19 -65 -51 -96 -70 -32 -20
-58 -37 -58 -40 0 -2 27 9 59 26 43 21 79 51 129 109 39 44 76 90 82 103 7 12
19 31 28 40 14 16 16 16 35 -8 l20 -26 28 62 c31 65 50 130 29 98 -13 -22 -30
-23 -30 -4 0 20 -28 46 -48 46 -9 0 -27 -16 -39 -35z"/>
<path d="M2591 5227 c2 -1 13 -9 24 -17 19 -14 19 -14 6 3 -7 9 -18 17 -24 17
-6 0 -8 -1 -6 -3z"/>
<path d="M3148 6233 c7 -3 16 -2 19 1 4 3 -2 6 -13 5 -11 0 -14 -3 -6 -6z"/>
<path d="M4930 5359 c0 -5 5 -7 10 -4 6 3 10 8 10 11 0 2 -4 4 -10 4 -5 0 -10
-5 -10 -11z"/>
<path d="M4926 5035 c4 -8 10 -12 15 -9 14 8 10 24 -6 24 -9 0 -12 -6 -9 -15z"/>
<path d="M4583 4605 c0 -6 6 -12 14 -12 7 0 13 6 13 12 0 6 -6 12 -13 12 -8 0
-14 -6 -14 -12z"/>
<path d="M4547 4565 c-4 -8 -3 -16 1 -19 4 -3 9 4 9 15 2 23 -3 25 -10 4z"/>
<path d="M4457 4384 c-3 -5 1 -15 9 -22 16 -14 18 -5 5 17 -5 7 -11 9 -14 5z"/>
<path d="M4054 3955 c-3 -8 -3 -19 1 -25 11 -17 35 -11 35 9 0 23 -29 36 -36
16z"/>
<path d="M5152 3341 c-17 -18 -35 -44 -38 -57 -10 -38 5 -134 21 -134 21 0 23
35 4 59 -11 13 -19 31 -19 40 1 14 2 14 11 -1 5 -10 14 -18 18 -18 12 0 31 48
31 78 0 26 2 28 36 24 19 -2 38 -11 41 -18 9 -25 24 -15 21 14 -2 19 -9 28
-25 30 -13 2 -23 -1 -23 -7 0 -18 -38 -12 -42 6 -2 13 -9 10 -36 -16z"/>
<path d="M5245 3280 c-3 -5 -20 -10 -36 -10 -18 0 -28 -4 -24 -10 13 -21 85
-1 85 24 0 10 -18 7 -25 -4z"/>
<path d="M5586 3177 c-10 -8 -18 -26 -18 -41 0 -25 -3 -27 -29 -24 -31 5 -37
-8 -16 -34 14 -17 58 -48 69 -48 7 0 4 60 -7 102 -6 22 -2 29 22 42 16 9 21
15 12 16 -8 0 -23 -6 -33 -13z"/>
<path d="M5657 3115 c-4 -8 -16 -15 -29 -15 -15 0 -19 -3 -12 -10 6 -6 18 -8
27 -5 15 6 31 34 23 42 -2 2 -6 -3 -9 -12z"/>
<path d="M3677 3319 c7 -7 15 -10 18 -7 3 3 -2 9 -12 12 -14 6 -15 5 -6 -5z"/>
<path d="M3579 2817 c-62 -37 -109 -79 -109 -96 0 -15 2 -15 78 16 89 35 139
34 169 -3 13 -16 29 -49 36 -73 l13 -43 17 26 c23 34 21 52 -12 111 -27 49
-86 94 -122 95 -8 0 -40 -15 -70 -33z"/>
<path d="M3883 2673 c-7 -2 -13 -9 -13 -15 0 -6 6 -5 15 2 13 11 14 10 9 -4
-4 -10 -13 -15 -24 -11 -21 7 -34 -10 -35 -45 -1 -14 -5 -36 -9 -50 -6 -18 9
-7 53 39 34 36 61 71 61 78 0 13 -33 16 -57 6z"/>
<path d="M3804 2592 c-29 -23 -50 -60 -58 -101 -8 -42 10 -31 39 26 11 21 22
40 26 43 5 4 20 50 16 50 -1 0 -12 -8 -23 -18z"/>
<path d="M3685 2450 c-3 -5 -1 -10 4 -10 6 0 11 5 11 10 0 6 -2 10 -4 10 -3 0
-8 -4 -11 -10z"/>
<path d="M4346 2028 c-8 -32 -7 -40 3 -34 11 7 21 56 11 56 -4 0 -10 -10 -14
-22z"/>
<path d="M5323 1821 c-11 -18 -8 -31 8 -31 11 0 18 26 10 38 -4 7 -11 5 -18
-7z"/>
<path d="M4838 1473 c6 -2 18 -2 25 0 6 3 1 5 -13 5 -14 0 -19 -2 -12 -5z"/>
<path d="M520 7978 c0 -60 3 -77 16 -82 9 -3 154 -6 323 -6 286 0 309 -1 324
-18 21 -23 22 -76 1 -96 -12 -13 -39 -16 -130 -16 l-114 0 0 -81 0 -81 123 4
c134 5 160 13 215 70 38 40 52 82 52 154 0 67 -16 112 -53 151 -56 60 -62 61
-424 69 l-333 7 0 -75z"/>
<path d="M698 7778 c-3 -22 -8 -23 -90 -26 l-88 -3 0 -69 0 -70 120 0 121 0
-3 93 c-3 91 -3 92 -30 95 -21 3 -27 -1 -30 -20z"/>
<path d="M520 7170 l0 -80 115 0 115 0 0 -70 0 -70 45 0 45 0 0 70 0 70 178 0
177 0 0 -97 0 -98 58 -3 57 -3 0 181 0 180 -395 0 -395 0 0 -80z"/>
<path d="M520 6472 l0 -82 58 0 c41 0 79 -9 135 -31 43 -17 76 -34 73 -36 -2
-3 -44 -15 -93 -28 -48 -12 -107 -28 -130 -34 l-43 -12 0 -69 c0 -40 4 -70 10
-70 5 0 93 24 194 54 l185 55 193 -75 c106 -41 196 -74 201 -74 4 0 7 32 5 72
l-3 72 -175 62 c-172 60 -175 62 -175 90 l0 29 178 3 177 2 0 70 0 70 -198 0
c-110 0 -287 3 -395 7 l-197 6 0 -81z"/>
<path d="M520 6319 c0 -33 3 -40 15 -35 9 3 44 13 78 22 34 8 66 19 70 24 13
12 -51 30 -109 30 l-54 0 0 -41z"/>
<path d="M4970 6000 c-9 -6 -10 -10 -3 -10 6 0 15 5 18 10 8 12 4 12 -15 0z"/>
<path d="M520 5616 l0 -75 58 -6 c61 -7 222 -67 200 -74 -7 -2 -67 -18 -133
-36 l-120 -32 -3 -71 c-2 -40 0 -72 4 -72 3 0 90 25 193 55 l187 54 193 -74
c107 -42 195 -74 196 -73 2 2 5 34 7 72 l3 69 -178 63 c-99 34 -180 64 -182
66 -2 2 -1 15 2 31 l5 27 179 0 179 0 0 68 0 69 -292 6 c-161 4 -339 7 -395 7
l-103 0 0 -74z"/>
<path d="M520 5464 c0 -36 0 -36 34 -30 19 4 58 14 87 22 l53 16 -33 14 c-18
8 -58 14 -87 14 l-54 0 0 -36z"/>
<path d="M520 4815 l0 -75 310 0 311 0 26 -26 c20 -20 24 -31 19 -56 -12 -60
-1 -58 -347 -58 l-319 0 0 -75 0 -75 325 0 c300 0 329 2 363 19 71 36 103 93
104 189 2 84 -13 130 -55 170 -62 60 -74 62 -422 62 l-315 0 0 -75z"/>
<path d="M520 4670 l0 -40 309 0 c265 0 310 2 321 15 10 12 10 21 2 40 l-12
25 -310 0 -310 0 0 -40z"/>
<path d="M5930 654 c-41 -36 -81 -71 -89 -78 -17 -18 -52 -188 -40 -201 14
-14 11 -28 -5 -22 -10 4 -15 -6 -18 -36 -3 -23 -1 -47 3 -53 5 -6 -3 -52 -16
-104 -14 -51 -24 -95 -22 -96 8 -8 100 61 138 104 51 58 110 177 117 237 4 39
2 45 -14 46 -14 0 -15 2 -4 6 8 3 18 11 22 17 6 9 11 247 5 246 -1 -1 -36 -30
-77 -66z m-70 -274 c0 -5 -5 -10 -11 -10 -5 0 -7 5 -4 10 3 6 8 10 11 10 2 0
4 -4 4 -10z"/>
<path d="M2395 21 c-17 -7 -16 -9 13 -16 37 -8 55 1 32 15 -17 11 -18 11 -45
1z"/>
</g>
</svg>
