<?xml version="1.0" standalone="no"?>
<!DOCTYPE svg PUBLIC "-//W3C//DTD SVG 20010904//EN"
 "http://www.w3.org/TR/2001/REC-SVG-20010904/DTD/svg10.dtd">
<svg version="1.0" xmlns="http://www.w3.org/2000/svg"
 width="195.000000pt" height="20.000000pt" viewBox="0 0 195.000000 20.000000"
 preserveAspectRatio="xMidYMid meet">

<g transform="translate(0.000000,20.000000) scale(0.100000,-0.100000)"
fill="#000000" stroke="none">
<path d="M71 191 c-54 -15 -84 -106 -49 -148 32 -38 100 -48 137 -19 24 19 41
71 32 101 -12 47 -71 80 -120 66z"/>
<path d="M321 191 c-54 -15 -84 -106 -49 -148 32 -38 100 -48 137 -19 24 19
41 71 32 101 -12 47 -71 80 -120 66z"/>
<path d="M571 191 c-54 -15 -84 -106 -49 -148 32 -38 100 -48 137 -19 24 19
41 71 32 101 -12 47 -71 80 -120 66z"/>
<path d="M821 191 c-54 -15 -84 -106 -49 -148 32 -38 100 -48 137 -19 24 19
41 71 32 101 -12 47 -71 80 -120 66z"/>
<path d="M1071 191 c-54 -15 -84 -106 -49 -148 32 -38 100 -48 137 -19 24 19
41 71 32 101 -12 47 -71 80 -120 66z"/>
<path d="M1321 191 c-54 -15 -84 -106 -49 -148 32 -38 100 -48 137 -19 24 19
41 71 32 101 -12 47 -71 80 -120 66z"/>
<path d="M1571 191 c-54 -15 -84 -106 -49 -148 32 -38 100 -48 137 -19 24 19
41 71 32 101 -12 47 -71 80 -120 66z"/>
<path d="M1821 191 c-54 -15 -84 -106 -49 -148 32 -38 100 -48 137 -19 24 19
41 71 32 101 -12 47 -71 80 -120 66z"/>
</g>
</svg>
