<?xml version="1.0" standalone="no"?>
<!DOCTYPE svg PUBLIC "-//W3C//DTD SVG 20010904//EN"
 "http://www.w3.org/TR/2001/REC-SVG-20010904/DTD/svg10.dtd">
<svg version="1.0" xmlns="http://www.w3.org/2000/svg"
 width="1283.000000pt" height="723.000000pt" viewBox="0 0 1283.000000 723.000000"
 preserveAspectRatio="xMidYMid meet">

<g transform="translate(0.000000,723.000000) scale(0.100000,-0.100000)"
fill="#000000" stroke="none">
<path d="M0 3615 l0 -3615 6415 0 6415 0 0 3615 0 3615 -6415 0 -6415 0 0
-3615z m6540 3253 c-1 -30 -14 -35 -55 -23 l-40 13 38 1 c20 1 37 6 37 11 0 6
5 10 10 10 6 0 10 -6 10 -12z m-2775 -653 c-18 -807 -24 -978 -37 -945 -5 14
-7 96 -4 190 3 91 8 318 11 505 6 382 24 875 32 888 3 5 7 7 8 5 2 -2 -2 -291
-10 -643z m2650 598 c63 6 76 4 98 -13 14 -11 29 -20 34 -20 12 0 10 -327 -2
-339 -9 -8 -89 -34 -243 -76 -29 -8 -66 -22 -82 -30 -16 -8 -37 -15 -47 -15
-15 0 -16 -2 -3 -10 13 -8 12 -10 -5 -11 -11 -1 -26 -1 -33 0 -7 1 -48 -9 -90
-23 -114 -36 -150 -39 -164 -13 -6 12 -17 28 -25 35 -11 11 -13 6 -15 -30 -1
-31 -3 -24 -7 27 -4 39 -3 72 1 73 12 5 10 32 -3 32 -5 0 -8 4 -5 8 3 5 6 55
7 111 1 58 8 123 16 149 8 26 15 53 16 60 0 15 17 1 21 -19 9 -42 29 -109 34
-109 8 0 52 50 52 61 0 5 -4 9 -10 9 -5 0 -10 -5 -10 -11 0 -5 -4 -7 -10 -4
-16 10 -12 22 10 28 11 3 23 13 26 24 24 74 20 71 94 69 37 -1 66 2 64 6 -3 5
1 8 8 9 41 2 73 9 76 18 2 5 12 6 24 3 15 -3 19 -1 14 7 -5 8 3 10 26 9 31 -3
33 -6 39 -48 l6 -45 3 60 c1 33 5 49 7 36 5 -23 7 -24 78 -18z m145 2 c0 -8
-4 -15 -10 -15 -5 0 -10 7 -10 15 0 8 5 15 10 15 6 0 10 -7 10 -15z m-1215
-395 c3 -5 2 -10 -4 -10 -5 0 -13 5 -16 10 -3 6 -2 10 4 10 5 0 13 -4 16 -10z
m-973 -192 c-5 -132 -9 -145 -10 -35 -1 59 1 107 6 107 4 0 6 -33 4 -72z
m1875 -20 c4 -7 6 -20 5 -29 -2 -12 4 -15 30 -12 l33 5 -30 -21 c-16 -12 -25
-21 -20 -21 6 -1 -1 -7 -15 -15 -16 -8 -29 -10 -36 -4 -7 5 -18 8 -25 7 -16
-3 -14 21 6 70 14 33 38 42 52 20z m6416 -73 c-3 -9 -8 -14 -10 -11 -3 3 -2 9
2 15 9 16 15 13 8 -4z m-6907 -43 c6 -4 14 -19 17 -34 6 -21 11 -25 29 -21 22
6 22 5 -2 -14 -14 -11 -34 -23 -44 -27 -25 -9 -58 2 -49 17 4 6 6 25 5 41 -3
36 19 55 44 38z m-1391 -414 c-4 -222 -9 -405 -12 -408 -3 -3 -3 159 1 360 3
201 6 384 6 408 0 23 3 42 6 42 4 0 3 -181 -1 -402z m1881 315 c8 -17 20 -33
26 -35 9 -3 9 -6 1 -11 -6 -4 -19 0 -28 9 -9 10 -24 14 -38 11 -21 -6 -21 -6
-2 9 14 11 19 25 18 57 -1 23 1 31 3 17 3 -14 12 -39 20 -57z m6304 67 c0 -5
-5 -10 -11 -10 -5 0 -7 5 -4 10 3 6 8 10 11 10 2 0 4 -4 4 -10z m-6270 -40 c0
-5 -5 -10 -11 -10 -5 0 -7 5 -4 10 3 6 8 10 11 10 2 0 4 -4 4 -10z m-1136
-106 c9 -3 16 -14 16 -24 0 -10 5 -20 11 -22 22 -7 -23 -39 -50 -36 -27 3 -28
8 -16 66 6 23 13 26 39 16z m1176 -24 c0 -5 3 -10 8 -9 20 3 50 -15 63 -39 13
-22 13 -33 4 -61 -21 -59 -64 -63 -65 -6 -1 17 -3 15 -16 -8 -12 -22 -13 -31
-3 -43 10 -12 9 -13 -4 -9 -8 4 -18 1 -23 -6 -4 -8 -3 -10 4 -5 7 4 12 1 12
-9 0 -9 5 -13 10 -10 6 3 10 -3 10 -14 0 -11 6 -24 13 -28 7 -4 24 -30 36 -56
31 -63 68 -107 92 -107 63 0 -50 -55 -131 -64 -185 -19 -218 -24 -248 -40 -19
-10 -57 -21 -86 -26 -29 -5 -71 -17 -92 -26 -21 -10 -59 -20 -84 -21 -25 -1
-71 -5 -102 -9 -64 -6 -75 4 -33 32 26 17 55 72 55 104 0 9 9 25 20 35 11 10
20 31 20 46 0 15 5 31 10 34 16 10 12 48 -3 42 -27 -10 -39 8 -31 49 5 25 22
54 52 86 l45 48 79 0 c44 0 88 -5 99 -10 28 -15 87 -2 94 21 11 34 58 81 100
100 44 20 95 25 95 9z m10 -150 c0 -5 -4 -10 -10 -10 -5 0 -10 5 -10 10 0 6 5
10 10 10 6 0 10 -4 10 -10z m5620 -114 c0 -3 -4 -8 -10 -11 -5 -3 -10 -1 -10
4 0 6 5 11 10 11 6 0 10 -2 10 -4z m-6630 -36 c0 -5 8 -10 18 -10 9 0 13 -4 7
-8 -5 -4 -21 -28 -34 -54 -22 -45 -23 -49 -7 -72 9 -14 16 -36 16 -48 0 -13 9
-29 20 -36 11 -7 20 -19 20 -28 0 -20 18 -37 66 -62 l39 -20 -53 -24 c-35 -15
-55 -30 -58 -45 -4 -13 -12 -23 -20 -23 -16 0 -19 -26 -4 -35 20 -12 -14 -58
-57 -76 -32 -14 -43 -24 -44 -41 -1 -13 -3 -40 -4 -60 -4 -39 10 -52 22 -20 4
9 15 26 25 36 10 11 18 26 18 33 0 7 7 13 15 13 14 0 16 -20 14 -136 0 -81 -6
-144 -13 -157 -14 -26 -51 -34 -40 -9 4 10 9 31 12 47 3 17 10 33 16 37 6 4 7
11 2 15 -5 4 -11 2 -13 -4 -3 -7 -13 -13 -23 -13 -11 0 -26 -14 -37 -37 -10
-20 -29 -45 -43 -55 -25 -18 -102 -30 -127 -21 -10 4 -13 54 -13 219 0 184 2
214 15 214 8 0 15 7 15 15 0 9 -6 12 -15 9 -13 -5 -15 8 -15 85 0 94 7 107 37
72 13 -16 18 -17 30 -6 7 8 13 18 13 23 0 6 18 41 40 80 22 38 40 79 40 91 0
26 -26 28 -39 3 -5 -10 -23 -19 -41 -20 l-31 -2 17 30 c10 16 22 30 26 30 4 0
8 7 8 15 0 8 16 19 38 25 20 6 48 17 62 25 29 16 80 20 80 5z m3017 -132 c-3
-7 -5 -2 -5 12 0 14 2 19 5 13 2 -7 2 -19 0 -25z m3373 -12 c0 -3 -4 -8 -10
-11 -5 -3 -10 -1 -10 4 0 6 5 11 10 11 6 0 10 -2 10 -4z m-3373 -68 c-3 -7 -5
-2 -5 12 0 14 2 19 5 13 2 -7 2 -19 0 -25z m-1939 -22 c-10 -7 -18 -18 -18
-23 0 -12 -36 -21 -63 -15 -17 4 -17 6 4 28 16 17 33 24 58 24 32 -1 34 -2 19
-14z m982 -118 l0 -111 -25 23 c-23 22 -25 31 -25 111 0 75 2 88 18 92 9 2 20
2 25 0 4 -2 7 -54 7 -115z m-60 37 c0 -41 -2 -75 -5 -75 -2 0 -13 10 -25 22
-14 16 -20 35 -20 69 0 47 4 52 43 58 4 0 7 -33 7 -74z m-60 24 c0 -18 -4 -28
-10 -24 -5 3 -10 20 -10 36 0 18 4 28 10 24 6 -3 10 -20 10 -36z m1077 -66
c-2 -21 -4 -4 -4 37 0 41 2 58 4 38 2 -21 2 -55 0 -75z m-2258 50 c28 -16 30
-21 25 -53 -4 -19 -8 -37 -10 -38 -5 -6 -74 22 -74 29 0 4 -9 11 -20 14 -25 8
-26 40 -2 54 25 15 46 13 81 -6z m-1722 -60 c-3 -10 -5 -4 -5 12 0 17 2 24 5
18 2 -7 2 -21 0 -30z m2430 -15 c-3 -8 -6 -5 -6 6 -1 11 2 17 5 13 3 -3 4 -12
1 -19z m-2430 -115 c-4 -58 -7 -151 -7 -205 0 -72 -3 -97 -11 -92 -9 5 -10 51
-5 163 3 86 6 175 6 199 0 25 5 42 12 42 8 0 9 -29 5 -107z m2524 -6 c-8 -8
-11 -5 -11 9 0 27 14 41 18 19 2 -9 -1 -22 -7 -28z m-24 -54 c-3 -10 -5 -4 -5
12 0 17 2 24 5 18 2 -7 2 -21 0 -30z m-804 8 c4 -1 14 -1 22 -1 9 0 21 -11 27
-25 6 -14 19 -25 29 -25 10 0 21 -5 25 -11 4 -7 27 -10 60 -7 33 3 55 0 58 -6
2 -6 5 -3 5 6 1 10 12 20 26 24 14 3 25 10 25 14 0 9 13 7 45 -4 11 -5 26 -10
33 -12 6 -2 12 -7 12 -12 0 -14 -36 -52 -49 -52 -6 0 -14 -18 -17 -41 l-7 -41
-56 4 c-38 2 -55 -1 -54 -8 1 -7 -11 -14 -27 -16 -17 -3 -30 -1 -30 4 0 4 5 8
10 8 6 0 10 18 10 41 l0 41 -32 -7 c-36 -8 -48 -20 -48 -48 0 -22 -28 -52 -55
-61 -11 -3 -50 -8 -87 -11 -52 -5 -68 -3 -68 7 0 9 -3 9 -11 -2 -8 -12 -12
-12 -16 -2 -4 10 -8 9 -18 -5 -12 -16 -13 -12 -11 30 2 44 1 48 -23 53 -47 10
-58 17 -38 21 14 4 16 11 11 38 -5 28 -3 34 15 40 12 3 21 11 21 16 0 5 6 9
14 9 7 0 19 7 26 15 9 11 17 12 30 5 25 -14 33 -13 27 3 -4 10 2 13 19 9 13
-2 30 3 39 12 11 11 22 13 33 7 9 -5 20 -9 25 -10z m807 -108 c0 -20 -3 -24
-11 -16 -7 7 -9 19 -6 27 10 24 17 19 17 -11z m1490 -3 c0 -5 -2 -10 -4 -10
-3 0 -8 5 -11 10 -3 6 -1 10 4 10 6 0 11 -4 11 -10z m-3 -257 c-1 -43 -3 -10
-3 72 0 83 2 118 3 78 2 -40 2 -107 0 -150z m-3972 63 c23 -63 30 -147 27
-313 -4 -160 -10 -177 -49 -148 -16 12 -18 34 -21 258 -3 215 -2 244 12 244 9
0 22 -17 31 -41z m1794 -36 c5 -25 19 -80 30 -123 l21 -78 -101 -209 -102
-210 -94 0 c-51 0 -93 2 -93 4 0 7 89 202 170 371 66 138 119 253 131 284 13
32 26 18 38 -39z m612 -77 c32 -69 59 -126 59 -128 0 -2 32 -70 71 -152 72
-150 119 -252 119 -259 0 -2 -42 -4 -93 -4 l-93 0 -103 212 c-78 160 -101 218
-97 237 3 14 15 60 27 101 12 41 24 87 26 102 3 15 10 25 15 22 6 -4 37 -63
69 -131z m-267 -163 c11 -25 55 -119 98 -209 43 -90 78 -166 78 -168 0 -1 -19
-3 -42 -3 -46 0 -100 -27 -117 -57 -10 -20 -24 -136 -41 -358 -6 -77 -15 -180
-20 -230 -5 -49 -12 -130 -15 -180 -4 -49 -10 -115 -14 -145 l-7 -55 -8 55
c-7 53 -19 186 -32 393 -5 72 -10 97 -20 97 -8 0 -14 5 -14 10 0 6 5 10 11 10
7 0 8 24 4 73 -17 214 -29 305 -42 327 -20 35 -67 60 -114 60 -21 0 -39 2 -39
4 0 1 24 54 53 117 30 63 62 132 72 154 10 22 38 80 61 130 24 49 44 95 44
100 0 6 5 16 12 23 9 9 19 -1 42 -46 17 -31 40 -77 50 -102z m1833 98 c-3 -7
-5 -2 -5 12 0 14 2 19 5 13 2 -7 2 -19 0 -25z m-3517 -251 c-5 -16 -10 -59
-10 -94 0 -57 -2 -64 -17 -59 -10 3 -47 10 -82 15 -35 6 -66 12 -68 15 -3 2
-1 45 3 96 l7 91 33 -32 c19 -18 34 -39 34 -46 0 -7 5 -13 10 -13 6 0 10 11
10 25 0 82 49 189 70 155 8 -12 10 -10 12 10 1 14 4 -11 5 -54 2 -43 -1 -93
-7 -109z m3527 -324 c-2 -21 -4 -4 -4 37 0 41 2 58 4 38 2 -21 2 -55 0 -75z
m-1567 -66 c41 -22 80 -43 85 -47 6 -4 75 -42 155 -85 212 -114 207 -109 425
-380 111 -138 147 -186 142 -191 -5 -5 -118 46 -338 154 -91 45 -168 82 -171
82 -12 0 -298 142 -304 151 -3 5 67 9 170 9 97 0 176 4 176 9 0 5 -12 17 -27
27 -25 17 -54 19 -281 22 l-253 3 5 32 c3 18 10 70 17 117 13 102 24 127 58
138 34 11 51 6 141 -41z m-575 27 c28 -18 42 -56 50 -139 3 -33 8 -77 11 -97
l6 -37 -254 -3 c-227 -3 -256 -5 -280 -22 -16 -10 -28 -22 -28 -27 0 -5 82 -9
181 -9 160 0 180 -2 169 -15 -7 -8 -16 -15 -20 -15 -7 0 -275 -125 -520 -243
-155 -74 -274 -126 -278 -122 -2 2 9 21 25 42 26 36 47 62 143 178 19 23 62
77 95 119 79 101 135 142 329 242 89 45 195 100 236 122 85 45 101 48 135 26z
m-440 -690 c109 -158 295 -283 480 -323 33 -7 65 -14 71 -16 6 -2 16 -50 23
-107 7 -56 15 -119 18 -138 2 -19 7 -71 9 -115 l5 -80 -20 42 c-11 23 -27 59
-36 80 -10 21 -28 61 -40 88 -12 28 -25 58 -28 68 -7 19 -20 25 -122 57 -122
37 -263 121 -351 207 -88 85 -189 222 -175 236 12 12 104 56 117 57 6 0 28
-25 49 -56z m1421 26 c35 -16 64 -32 64 -35 0 -16 -99 -142 -160 -204 -122
-123 -268 -207 -438 -251 -39 -10 -46 -17 -64 -58 -11 -26 -38 -85 -59 -130
-22 -46 -39 -87 -39 -92 0 -4 -6 -13 -14 -19 -12 -10 -14 -7 -10 16 2 15 6 57
9 93 3 36 13 120 21 187 7 67 14 124 14 127 0 3 15 6 33 6 73 0 247 72 342
141 64 46 135 118 188 191 23 32 44 58 45 58 2 0 33 -13 68 -30z m962 -28 c2
-24 -1 -32 -12 -32 -9 0 -16 8 -16 19 0 11 -3 27 -6 36 -5 13 -2 16 12 13 13
-2 20 -13 22 -36z m1141 -229 c58 -25 109 -49 113 -52 4 -4 -54 -6 -129 -4
-75 1 -139 6 -142 11 -11 15 -38 21 -50 9 -8 -8 -11 -8 -11 1 0 7 4 12 9 12 4
0 28 16 52 35 24 19 46 35 48 35 2 0 51 -21 110 -47z m532 -143 c5 0 9 -4 9
-10 0 -12 -47 -13 -54 -1 -8 12 6 22 22 16 7 -3 18 -5 23 -5z m559 0 c8 -5 11
-12 8 -16 -10 -9 -58 4 -58 16 0 13 30 13 50 0z m-485 -76 c15 -15 15 -18 1
-32 -18 -19 -22 -16 -31 21 -8 31 5 36 30 11z m305 1 c16 -20 6 -45 -19 -45
-23 0 -32 18 -19 43 11 21 22 22 38 2z m-63 -181 c-3 -3 -12 -4 -19 -1 -8 3
-5 6 6 6 11 1 17 -2 13 -5z m-6077 -302 c0 -5 -13 -7 -30 -4 -16 2 -30 6 -30
8 0 2 14 4 30 4 17 0 30 -4 30 -8z m-73 -8 c-3 -3 -12 -4 -19 -1 -8 3 -5 6 6
6 11 1 17 -2 13 -5z m-56 -11 c-19 -4 -22 -10 -19 -32 4 -27 1 -28 -56 -41
-34 -7 -87 -19 -119 -27 -32 -8 -65 -12 -73 -9 -8 3 -13 2 -10 -3 3 -5 -22
-14 -57 -21 -34 -7 -118 -26 -187 -42 -68 -16 -133 -27 -142 -25 -10 3 -16 1
-13 -3 7 -11 -51 -23 -66 -14 -8 5 -9 3 -4 -6 6 -10 1 -12 -19 -8 -14 3 -26 1
-26 -4 0 -6 -11 -7 -24 -4 -15 4 -26 1 -28 -6 -2 -6 -20 -12 -39 -13 -18 -1
-41 -5 -49 -8 -21 -8 -135 -37 -189 -48 -25 -5 -53 -7 -63 -3 -10 3 -18 0 -18
-6 0 -6 -4 -9 -9 -5 -5 3 -13 0 -16 -6 -4 -6 -18 -8 -31 -5 -13 4 -24 2 -24
-3 0 -5 -9 -11 -20 -14 -12 -3 -18 -1 -14 5 4 6 -2 7 -17 3 -13 -4 -25 -11
-27 -15 -2 -4 -12 -5 -24 -2 -15 3 -19 2 -14 -7 6 -8 1 -10 -18 -5 -16 4 -26
2 -26 -5 0 -6 -10 -10 -22 -9 -42 3 -138 -13 -138 -23 0 -6 -4 -7 -10 -4 -5 3
-10 2 -10 -3 0 -5 -11 -7 -24 -5 -13 3 -27 0 -30 -6 -4 -5 -13 -8 -21 -4 -9 3
-22 -1 -31 -8 -9 -7 -29 -12 -46 -11 -18 2 -27 -2 -23 -8 9 -14 -8 -13 -23 2
-9 9 -17 9 -34 0 -13 -7 -33 -10 -45 -8 -13 3 -23 1 -23 -5 0 -5 -9 -9 -20 -9
-36 0 -21 20 20 26 22 4 43 10 46 15 2 4 11 6 19 3 7 -3 25 2 39 11 25 16 26
16 26 -1 0 -17 2 -16 18 4 15 19 24 22 46 16 27 -6 29 -5 24 20 -4 20 -1 26
13 26 11 0 18 -5 17 -11 -4 -16 14 -21 32 -9 12 8 13 12 2 19 -10 6 -8 10 10
14 35 10 58 8 58 -4 0 -6 -6 -9 -13 -6 -19 7 -41 -8 -32 -23 5 -8 10 -9 14 -2
4 6 28 14 55 17 26 4 71 16 100 26 37 14 42 18 19 14 -18 -2 -35 0 -38 5 -3 6
2 10 12 10 10 0 36 7 58 15 22 8 51 14 64 15 23 0 24 -1 6 -13 -10 -8 -15 -19
-11 -26 6 -9 11 -8 19 3 7 9 31 17 55 20 23 2 46 7 50 11 4 4 -15 5 -41 2 -55
-5 -51 10 3 17 19 2 43 7 53 11 12 5 17 2 17 -8 0 -9 7 -14 18 -12 72 15 74
16 62 30 -9 11 -5 15 26 21 25 5 39 3 42 -5 2 -6 8 -11 14 -11 6 0 7 7 4 16
-5 14 0 16 36 11 27 -4 36 -3 23 2 -17 7 -13 10 20 15 22 4 67 13 100 21 33 9
125 29 205 45 80 17 159 34 175 40 17 5 98 23 180 40 83 17 175 37 205 44 30
8 64 14 75 14 15 -1 14 -2 -4 -5z m6669 -123 c0 -5 -9 -14 -21 -21 -14 -7 -19
-17 -16 -30 8 -29 -7 -31 -70 -9 -32 12 -77 28 -100 36 -24 9 -43 20 -43 25 0
5 56 9 125 9 74 0 125 -4 125 -10z m-6820 -79 c0 -10 -42 -23 -49 -15 -7 6 20
24 37 24 6 0 12 -4 12 -9z m-80 -30 c-13 -11 -45 -22 -70 -24 -25 -3 -67 -11
-95 -17 -27 -6 -61 -11 -75 -12 -14 0 -27 -4 -30 -8 -3 -5 -12 -5 -20 0 -10 6
-7 10 16 15 16 3 53 12 83 20 30 8 58 12 64 8 5 -3 12 -1 16 4 8 13 69 31 106
32 l30 1 -25 -19z m6960 -10 c0 -5 20 -33 43 -63 24 -29 49 -62 55 -74 10 -19
9 -21 -16 -16 -31 5 -136 105 -146 140 -7 20 -4 22 28 22 20 0 36 -4 36 -9z
m-7855 -11 c-3 -5 -10 -10 -16 -10 -5 0 -9 5 -9 10 0 6 7 10 16 10 8 0 12 -4
9 -10z m580 -40 c3 -6 -4 -10 -17 -10 -18 0 -20 2 -8 10 19 12 18 12 25 0z
m-1175 -84 c0 -2 -11 -6 -25 -8 -13 -3 -22 -1 -19 3 5 9 44 13 44 5z m-71 -20
c-12 -10 -49 -16 -49 -7 0 5 10 11 23 13 22 4 34 1 26 -6z m-129 -26 c0 -5
-15 -10 -32 -9 -31 1 -32 1 -8 9 35 11 40 11 40 0z m-73 -16 c-3 -3 -12 -4
-19 -1 -8 3 -5 6 6 6 11 1 17 -2 13 -5z m-47 -8 c0 -11 -19 -15 -25 -6 -3 5 1
10 9 10 9 0 16 -2 16 -4z m-57 -13 c-13 -2 -23 -8 -23 -13 0 -5 -7 -7 -15 -4
-24 10 -6 24 28 23 24 -1 26 -3 10 -6z m109 -31 c-6 -2 -8 -11 -4 -20 6 -16 4
-16 -20 0 -22 15 -27 15 -32 3 -7 -20 -22 -19 -30 2 -7 18 10 34 28 27 7 -3
20 2 31 10 18 13 21 13 29 -2 6 -10 5 -17 -2 -20z m-198 -12 c-1 -16 -3 -33
-4 -37 -1 -5 -2 -12 -1 -16 1 -4 -8 -3 -20 3 -16 9 -18 14 -9 26 7 7 10 20 7
28 -6 16 1 26 17 26 6 0 10 -13 10 -30z m-79 -1 c-4 -6 1 -16 11 -24 23 -17
11 -31 -31 -39 -16 -4 -25 -4 -18 0 7 3 15 21 19 40 3 19 10 34 16 34 5 0 6
-5 3 -11z m175 -4 c8 -9 8 -15 2 -15 -6 0 -12 6 -15 13 -3 6 -10 -1 -17 -18
-7 -17 -14 -24 -17 -17 -3 6 -10 9 -16 5 -7 -4 -8 0 -4 11 4 10 7 22 7 27 0
15 46 10 60 -6z m167 9 c-3 -3 -12 -4 -19 -1 -8 3 -5 6 6 6 11 1 17 -2 13 -5z
m-402 -14 c-3 -5 -10 -10 -16 -10 -5 0 -9 5 -9 10 0 6 7 10 16 10 8 0 12 -4 9
-10z m-78 -16 c-3 -3 -12 -4 -19 -1 -8 3 -5 6 6 6 11 1 17 -2 13 -5z m-72 -14
c-3 -5 -11 -10 -16 -10 -6 0 -7 5 -4 10 3 6 11 10 16 10 6 0 7 -4 4 -10z m100
-30 c4 0 14 8 21 18 15 20 38 5 29 -19 -8 -20 -111 -20 -107 1 5 23 26 31 38
15 6 -8 15 -15 19 -15z m-175 10 c0 -5 -7 -7 -15 -4 -8 4 -15 8 -15 10 0 2 7
4 15 4 8 0 15 -4 15 -10z m-76 -14 c-21 -15 -30 -14 -19 3 3 6 14 11 23 11 13
0 13 -2 -4 -14z m159 -14 c-20 -21 -33 -19 -33 4 0 8 10 14 25 14 24 0 24 -1
8 -18z m-233 -2 c0 -5 -8 -10 -17 -10 -15 0 -16 2 -3 10 19 12 20 12 20 0z
m155 -31 c-11 -3 -28 -3 -38 -1 -16 4 -16 6 4 22 19 17 22 18 38 2 16 -16 15
-17 -4 -23z m-235 17 c0 -2 -7 -7 -16 -10 -8 -3 -12 -2 -9 4 6 10 25 14 25 6z
m160 -17 c0 -6 -7 -17 -15 -25 -13 -14 -15 -13 -15 9 0 13 3 27 6 30 9 8 24
-1 24 -14z m-255 -9 c-3 -5 -11 -10 -16 -10 -6 0 -7 5 -4 10 3 6 11 10 16 10
6 0 7 -4 4 -10z m175 -16 c0 -8 -6 -14 -14 -14 -9 0 -12 7 -9 20 6 22 23 18
23 -6z m-267 -36 c5 -30 3 -38 -10 -38 -11 0 -14 6 -9 23 3 12 6 31 6 41 0 29
6 16 13 -26z m-83 22 c0 -5 -5 -10 -11 -10 -5 0 -7 5 -4 10 3 6 8 10 11 10 2
0 4 -4 4 -10z m260 -15 c0 -14 -4 -25 -10 -25 -11 0 -14 33 -3 43 11 11 13 8
13 -18z m-84 -1 c-3 -9 -6 -18 -6 -20 0 -2 -7 -4 -15 -4 -16 0 -16 20 0 32 17
13 27 9 21 -8z m-265 -54 c6 0 7 -4 4 -10 -12 -19 -25 -10 -24 18 1 16 3 20 6
10 2 -10 9 -18 14 -18z m89 5 c0 -28 -15 -34 -24 -9 -10 25 -7 34 9 34 9 0 15
-9 15 -25z m-186 -48 c-3 -9 -10 -17 -15 -17 -11 0 -12 34 -2 44 11 11 24 -9
17 -27z m10421 3 c4 -6 -7 -10 -27 -10 -25 0 -29 3 -18 10 19 13 37 13 45 0z
m179 -60 c21 -5 45 -14 52 -22 11 -11 -17 -13 -163 -11 -159 3 -209 10 -191
29 22 22 206 24 302 4z m-64 -80 c-17 -11 -81 -11 -125 0 -21 5 -5 8 55 9 58
0 80 -2 70 -9z"/>
<path d="M6093 6706 c17 -16 39 -25 55 -25 24 2 24 2 5 6 -13 2 -23 8 -23 13
0 4 -8 10 -17 14 -10 3 -25 9 -33 12 -8 3 -2 -6 13 -20z"/>
<path d="M5900 6534 c0 -10 5 -26 10 -34 8 -11 9 -7 4 15 -8 37 -14 45 -14 19z"/>
<path d="M6145 5658 c-11 -7 -26 -18 -33 -25 -7 -7 -25 -13 -38 -13 -40 0 -27
-34 14 -38 27 -3 35 1 39 17 3 11 16 27 29 36 40 26 30 46 -11 23z"/>
<path d="M6065 5560 c3 -5 12 -10 20 -10 8 0 17 5 20 10 4 6 -5 10 -20 10 -15
0 -24 -4 -20 -10z"/>
<path d="M5208 5143 c7 -3 16 -2 19 1 4 3 -2 6 -13 5 -11 0 -14 -3 -6 -6z"/>
<path d="M2868 2053 c7 -3 16 -2 19 1 4 3 -2 6 -13 5 -11 0 -14 -3 -6 -6z"/>
<path d="M2550 1992 c0 -14 11 -21 26 -15 21 8 17 23 -6 23 -11 0 -20 -4 -20
-8z"/>
</g>
</svg>
