<?xml version="1.0" standalone="no"?>
<!DOCTYPE svg PUBLIC "-//W3C//DTD SVG 20010904//EN"
 "http://www.w3.org/TR/2001/REC-SVG-20010904/DTD/svg10.dtd">
<svg version="1.0" xmlns="http://www.w3.org/2000/svg"
 width="601.000000pt" height="867.000000pt" viewBox="0 0 601.000000 867.000000"
 preserveAspectRatio="xMidYMid meet">

<g transform="translate(0.000000,867.000000) scale(0.100000,-0.100000)"
fill="#000000" stroke="none">
<path d="M903 8656 c-88 -22 -164 -66 -234 -135 -102 -102 -149 -219 -149
-371 l0 -69 338 -3 c325 -3 338 -4 378 -25 55 -29 101 -83 115 -135 16 -62 8
-175 -17 -223 -25 -47 -90 -100 -142 -115 -22 -6 -167 -10 -354 -10 l-318 0 0
-145 0 -145 410 0 410 0 0 -140 c0 -106 -3 -140 -12 -140 -44 1 -768 -56 -748
-59 14 -2 189 -18 390 -35 l365 -31 3 -138 3 -137 -411 0 -410 0 0 -150 0
-150 410 0 410 0 0 -210 0 -210 -90 0 -90 0 0 93 0 94 -107 6 c-58 4 -123 7
-145 7 l-38 0 0 -75 0 -75 -80 0 -80 0 0 75 0 75 -95 0 -95 0 0 -245 0 -245
410 0 411 0 -3 -102 -3 -102 -280 -55 c-271 -54 -278 -56 -220 -62 33 -4 160
-7 283 -8 l222 -1 0 -54 0 -54 40 19 c21 10 46 19 54 19 8 0 18 5 21 10 3 6
14 10 23 10 9 0 30 7 46 15 15 8 37 15 47 15 28 0 23 17 -16 57 -39 40 -43 53
-17 53 10 0 22 4 28 8 17 16 89 32 209 48 66 9 126 19 135 23 8 4 33 9 55 10
22 1 42 6 43 11 2 6 23 10 47 10 24 0 47 5 50 10 3 6 16 10 28 10 13 0 40 9
61 20 22 10 43 17 48 14 13 -8 -57 -74 -78 -74 -18 0 -105 -57 -117 -77 -4 -7
-15 -13 -22 -13 -8 0 -15 -4 -15 -9 0 -12 -10 -22 -85 -86 -31 -27 -67 -58
-78 -67 -11 -10 -23 -18 -27 -18 -5 0 -10 -7 -13 -14 -6 -15 5 -14 48 4 11 5
47 11 80 14 63 4 107 12 140 26 27 10 120 31 131 29 5 -1 23 0 39 1 22 2 25 4
10 7 -11 3 -23 10 -27 17 -6 8 -10 7 -17 -3 -10 -16 -32 -6 -27 12 1 7 1 9 -1
5 -7 -12 -33 -9 -33 2 0 18 42 94 61 111 11 9 19 20 19 25 0 5 10 20 21 34 14
17 22 21 26 13 2 -7 11 -13 19 -13 8 0 20 -5 27 -10 7 -6 29 -22 51 -36 35
-23 43 -24 87 -15 27 6 55 8 63 5 8 -3 17 -1 21 5 3 6 19 11 36 11 16 0 29 5
29 10 0 6 14 10 30 10 17 0 30 5 30 10 0 6 16 10 35 10 19 0 35 4 35 9 0 5 15
11 33 14 17 2 74 20 126 38 69 25 95 31 98 22 5 -15 33 -18 33 -4 0 5 34 9 75
8 l75 -1 0 -33 c0 -26 4 -33 19 -33 11 0 23 5 26 10 3 6 17 10 31 10 13 0 59
10 102 21 42 12 97 25 122 30 25 4 63 13 85 19 72 21 119 32 160 37 22 3 45 9
50 13 6 4 54 11 108 15 53 4 97 10 97 14 0 5 10 13 23 19 18 9 10 11 -45 11
-38 1 -68 5 -68 11 0 6 17 10 37 10 37 0 192 42 225 60 10 6 31 10 48 10 16 0
30 5 30 10 0 6 12 10 28 10 15 0 52 10 82 21 30 12 67 24 83 26 15 3 30 9 33
14 3 5 23 9 44 9 21 0 42 5 45 10 3 6 22 10 41 10 19 0 34 3 34 8 0 14 55 31
121 37 37 3 80 9 95 13 24 6 193 7 309 3 17 -1 119 1 227 5 l197 6 -9 -33 c-6
-19 -10 -46 -10 -61 0 -16 -4 -28 -10 -28 -15 0 -12 -29 4 -46 8 -8 23 -14 32
-14 14 0 15 -3 7 -11 -9 -9 -19 -9 -40 -1 -49 19 -78 18 -108 -6 -15 -12 -40
-25 -54 -29 -14 -3 -33 -14 -42 -25 -9 -10 -24 -18 -33 -18 -9 0 -16 -4 -16
-9 0 -5 -13 -11 -30 -14 -16 -4 -49 -16 -72 -27 -23 -11 -45 -20 -50 -20 -5 0
-30 -9 -56 -21 -59 -26 -78 -34 -122 -52 -19 -8 -45 -24 -57 -36 -12 -11 -29
-21 -38 -21 -8 0 -15 -4 -15 -10 0 -5 -7 -10 -15 -10 -8 0 -15 -3 -15 -7 0 -5
-16 -19 -35 -32 -19 -13 -45 -32 -57 -43 -37 -32 -106 -78 -117 -78 -6 0 -11
-4 -11 -10 0 -5 -9 -10 -19 -10 -11 0 -23 -4 -26 -10 -3 -5 -15 -10 -26 -10
-10 0 -19 -4 -19 -10 0 -5 -7 -10 -15 -10 -9 0 -44 -16 -79 -35 -35 -19 -71
-35 -79 -35 -9 0 -17 -3 -19 -7 -1 -5 -39 -26 -83 -48 -44 -22 -81 -43 -83
-47 -2 -5 -7 -8 -12 -8 -4 0 -36 -16 -70 -35 -95 -54 -105 -44 -32 31 6 7 12
17 12 23 0 6 5 11 10 11 6 0 10 9 10 20 0 17 -7 20 -38 20 -41 0 -141 -26
-156 -41 -6 -5 -20 -9 -33 -9 -13 0 -23 -4 -23 -10 0 -5 -11 -10 -24 -10 -26
0 -126 -39 -126 -49 0 -4 -16 -13 -35 -21 -19 -7 -32 -16 -30 -20 2 -4 -7 -5
-20 -2 -26 4 -35 -12 -12 -22 6 -3 0 -5 -15 -3 -19 3 -25 0 -21 -10 3 -9 -3
-13 -21 -13 -14 0 -26 -4 -26 -10 0 -5 -11 -10 -25 -10 -14 0 -33 -4 -43 -8
-9 -5 -37 -18 -62 -29 -25 -10 -70 -31 -100 -45 -30 -14 -70 -32 -87 -39 -18
-8 -33 -17 -33 -21 0 -5 -9 -8 -19 -8 -11 0 -23 -4 -26 -10 -3 -5 -15 -10 -26
-10 -10 0 -19 -4 -19 -9 0 -5 -13 -12 -30 -16 -16 -4 -32 -11 -35 -16 -4 -5
-15 -9 -26 -9 -10 0 -19 -4 -19 -10 0 -5 -9 -10 -20 -10 -11 0 -20 -4 -20 -10
0 -5 -5 -10 -12 -10 -15 0 -162 -73 -166 -82 -2 -5 -12 -8 -22 -8 -10 0 -20
-3 -22 -7 -1 -5 -39 -26 -83 -47 -44 -22 -82 -42 -85 -46 -5 -5 -99 -57 -137
-75 -13 -5 -23 -13 -23 -17 0 -5 -7 -8 -15 -8 -8 0 -15 -3 -15 -7 0 -5 -29
-21 -65 -37 -36 -16 -65 -32 -65 -36 0 -3 -16 -12 -35 -20 -19 -8 -35 -17 -35
-22 0 -4 -6 -8 -14 -8 -18 0 -76 -32 -76 -42 0 -5 -6 -8 -13 -8 -7 0 -22 -8
-33 -17 -26 -24 -93 -58 -100 -51 -3 3 -35 -5 -71 -18 -36 -13 -77 -24 -89
-24 -13 0 -24 -4 -24 -10 0 -5 -16 -10 -36 -10 -34 0 -176 -40 -216 -61 -10
-5 -27 -9 -38 -9 -11 0 -20 -4 -20 -10 0 -5 -9 -10 -20 -10 -11 0 -20 -4 -20
-10 0 -5 -11 -10 -25 -10 -14 0 -25 -4 -25 -10 0 -5 -11 -10 -25 -10 -25 0
-64 -13 -178 -59 -15 -6 -37 -11 -47 -11 -11 0 -20 -4 -20 -10 0 -5 -8 -10
-18 -10 -10 0 -37 -9 -60 -20 -22 -11 -45 -20 -51 -20 -5 0 -38 -13 -73 -29
-66 -31 -81 -27 -53 15 29 44 17 75 -45 111 -30 18 -60 36 -66 40 -11 9 -40
26 -102 61 l-42 24 2 -1794 3 -1793 24 -59 c13 -33 33 -75 44 -94 19 -31 21
-33 28 -15 4 11 18 29 31 39 21 17 98 162 98 185 0 5 5 9 10 9 6 0 10 8 10 18
0 9 16 50 35 89 19 40 35 77 35 83 0 5 5 10 10 10 6 0 10 9 10 19 0 11 3 21 7
23 10 4 83 151 83 166 0 7 5 12 10 12 6 0 10 9 10 20 0 11 5 20 10 20 6 0 10
9 10 20 0 11 3 20 8 20 4 0 15 21 26 46 18 44 18 46 0 80 -10 19 -22 34 -26
34 -5 0 -8 7 -8 15 0 26 16 17 36 -20 18 -35 48 -46 57 -22 3 9 9 7 23 -5 14
-14 16 -21 6 -30 -7 -7 -12 -20 -12 -30 0 -10 -4 -18 -10 -18 -5 0 -10 -5 -10
-11 0 -11 -36 -88 -158 -339 -26 -52 -50 -96 -54 -98 -5 -2 -8 -12 -8 -23 0
-10 -4 -19 -10 -19 -5 0 -10 -4 -10 -9 0 -5 -27 -65 -59 -133 -45 -94 -69
-133 -101 -161 -43 -37 -43 -37 -24 -58 38 -43 131 -104 194 -128 64 -24 72
-25 403 -29 332 -3 337 -3 337 17 0 11 5 23 10 26 6 3 10 21 10 40 0 19 4 36
9 39 4 3 11 25 14 48 6 41 38 151 57 193 20 45 34 172 20 180 -15 9 -12 54 4
71 9 8 34 14 60 14 45 0 46 -1 40 -27 -3 -16 -9 -37 -13 -48 -5 -11 -16 -42
-26 -70 -9 -27 -26 -72 -36 -100 -11 -27 -19 -58 -19 -67 0 -10 -8 -32 -19
-51 -10 -18 -21 -48 -24 -67 -5 -36 -15 -72 -41 -152 l-15 -48 1892 0 1892 0
-1 102 c-1 57 2 112 7 123 4 12 8 -27 8 -97 l1 -118 26 -6 c43 -11 168 4 231
27 166 62 292 207 322 373 7 40 11 416 11 1163 l0 1104 -22 -20 c-13 -13 -29
-19 -42 -15 -26 6 -66 -28 -66 -56 0 -25 5 -25 32 0 12 11 25 20 30 20 4 0 8
-9 8 -20 0 -11 -4 -20 -10 -20 -5 0 -10 -13 -10 -30 0 -16 -4 -30 -10 -30 -5
0 -10 -11 -10 -24 0 -13 -7 -29 -15 -36 -10 -8 -13 -24 -9 -53 4 -28 1 -52
-10 -72 -14 -26 -16 -27 -16 -8 0 12 5 34 12 48 9 19 9 28 0 37 -9 9 -12 8
-12 -5 0 -10 -11 -29 -25 -43 -14 -14 -25 -33 -25 -42 -1 -24 -24 -52 -44 -52
-10 0 -16 -8 -16 -21 0 -17 4 -20 23 -16 33 9 53 -7 25 -20 -56 -26 -82 -33
-118 -33 -22 0 -40 -4 -40 -10 0 -5 -9 -10 -20 -10 -11 0 -20 7 -20 15 0 12
-13 15 -55 15 -52 0 -55 1 -55 24 0 14 5 28 10 31 12 7 12 208 1 279 -5 28
-15 53 -25 58 -33 18 -15 34 57 51 40 9 83 17 95 17 11 0 24 5 27 10 4 6 -13
10 -44 10 -27 0 -53 -4 -56 -10 -3 -5 -31 -10 -61 -10 -41 0 -54 -4 -54 -15 0
-8 -4 -15 -10 -15 -5 0 -10 11 -10 25 0 16 6 25 16 25 10 0 14 7 13 23 -2 12
0 27 4 34 4 6 8 23 9 37 1 15 9 26 16 26 11 0 13 10 9 43 -2 23 -3 36 0 30 7
-20 23 -15 23 7 0 11 4 20 9 20 5 0 11 10 13 22 2 13 15 29 31 36 32 16 34 23
7 40 -11 7 -20 19 -20 27 0 21 17 19 24 -2 3 -10 4 -6 2 8 -2 22 1 25 19 21
15 -2 31 5 48 22 20 20 36 26 71 26 25 0 48 5 51 10 3 6 22 10 41 10 19 0 34
5 34 10 0 6 7 10 16 10 8 0 37 7 65 16 27 9 58 14 69 11 17 -4 20 0 19 31 0
21 -3 31 -6 25 -2 -7 -16 -13 -29 -13 -13 0 -24 -3 -24 -8 0 -9 -30 -21 -136
-56 -84 -27 -124 -33 -124 -17 0 13 114 61 144 61 14 0 26 5 26 10 0 6 14 10
31 10 16 0 28 4 24 9 -3 5 7 12 22 14 16 2 6 2 -22 0 -27 -2 -51 -8 -53 -14
-2 -5 -19 -9 -38 -9 -19 0 -34 -4 -34 -10 0 -5 -15 -10 -34 -10 -18 0 -50 -7
-69 -15 -42 -18 -67 -19 -67 -5 0 22 68 77 128 106 34 16 62 32 62 36 0 5 7 8
15 8 8 0 15 5 15 10 0 6 10 10 23 10 13 0 38 11 57 25 19 14 47 25 62 25 39 0
40 35 1 38 -23 2 -167 -59 -183 -77 -3 -4 -27 -17 -55 -31 -27 -14 -60 -36
-72 -50 -33 -38 -35 -20 -5 40 38 76 62 135 62 148 0 7 5 12 10 12 6 0 10 16
10 35 0 28 4 35 20 35 23 0 27 25 5 34 -8 3 -12 12 -9 21 7 17 74 22 74 5 0
-5 7 -10 15 -10 9 0 15 -9 15 -25 0 -14 -1 -26 -1 -27 -1 -2 8 -22 20 -45 28
-56 61 -60 61 -8 0 30 3 35 24 35 15 0 26 -7 29 -17 3 -10 5 74 6 188 l1 205
-52 -7 c-46 -5 -91 -18 -173 -50 -11 -4 -42 -13 -70 -19 -27 -7 -81 -21 -119
-32 -44 -13 -72 -16 -78 -10 -6 6 -6 12 1 16 6 4 11 16 11 27 0 28 24 49 55
49 37 0 55 19 41 45 -24 43 -76 81 -76 55 0 -5 9 -10 20 -10 23 0 26 -10 8
-28 -17 -17 -28 -15 -28 7 0 11 -6 22 -12 25 -10 5 -10 7 0 12 6 3 12 10 12
16 0 6 9 19 21 29 11 10 18 22 16 26 -12 18 37 53 73 53 11 0 20 5 20 10 0 6
13 10 29 10 17 0 33 5 36 10 8 13 95 13 95 0 0 -5 -9 -10 -20 -10 -13 0 -20
-7 -20 -20 0 -11 -4 -20 -9 -20 -5 0 -17 -7 -25 -16 -19 -19 -22 -100 -3 -107
8 -3 5 -10 -9 -23 -21 -19 -20 -19 90 -16 61 2 123 8 139 14 l27 10 0 134 c0
125 -1 134 -19 134 -10 0 -32 -7 -47 -15 -16 -8 -52 -19 -81 -25 -44 -10 -56
-9 -68 3 -15 15 -50 12 -61 -4 -3 -5 -16 -9 -30 -9 -13 0 -24 -4 -24 -10 0 -5
-9 -10 -20 -10 -11 0 -20 -4 -20 -10 0 -5 -9 -10 -19 -10 -11 0 -21 -3 -23 -7
-4 -10 -110 -63 -126 -63 -6 0 -12 -4 -12 -8 0 -4 -27 -21 -60 -37 -33 -17
-60 -33 -60 -37 0 -5 -8 -8 -17 -8 -15 0 -13 4 8 24 14 13 35 27 47 30 15 5
19 11 12 19 -56 69 -73 102 -75 147 0 8 -9 15 -20 15 -11 0 -21 8 -23 18 -3
12 3 17 22 17 14 0 28 4 31 10 3 6 15 10 26 10 10 0 19 5 19 10 0 6 9 10 21
10 11 0 27 7 36 15 14 14 13 15 -13 9 -16 -4 -33 -11 -38 -15 -6 -5 -18 -9
-28 -9 -10 0 -18 -4 -18 -10 0 -5 -3 -10 -7 -10 -9 0 -33 48 -33 66 0 6 -7 25
-15 40 l-15 29 0 -27 c0 -15 -4 -30 -10 -33 -6 -4 -10 20 -10 64 0 43 4 71 11
71 5 0 8 -4 4 -9 -3 -5 -1 -12 5 -16 5 -3 10 -1 10 4 0 6 14 11 30 11 17 0 30
4 30 8 0 15 148 31 186 19 19 -6 34 -14 34 -19 0 -4 7 -8 15 -8 9 0 27 -7 40
-16 14 -9 35 -14 48 -11 30 7 91 31 97 38 5 6 50 19 50 15 0 -10 -39 -45 -55
-49 -20 -5 -20 -5 0 -6 11 0 38 11 60 24 42 26 79 33 73 13 -2 -6 -13 -16 -24
-22 -10 -6 -32 -21 -47 -33 -16 -13 -39 -23 -52 -23 -19 0 -35 -16 -35 -36 0
-2 32 -4 70 -4 69 0 75 -3 71 -37 -2 -15 25 -17 34 -3 8 13 55 -9 55 -26 0 -8
-12 -17 -27 -20 -16 -4 -37 -13 -48 -21 -18 -13 -16 -14 25 -8 25 4 47 11 50
15 3 4 16 10 30 11 l25 4 3 1990 c2 1448 0 2006 -8 2050 -36 191 -197 354
-388 394 -81 17 -4638 14 -4709 -3z m4395 -441 c89 -21 138 -49 208 -119 34
-34 71 -80 83 -103 35 -70 65 -223 43 -223 -4 0 -101 79 -216 175 -114 96
-212 175 -217 175 -8 0 -214 -169 -374 -307 -27 -24 -53 -43 -57 -43 -24 0 5
148 43 222 28 55 113 143 169 176 52 31 157 61 215 61 22 1 68 -6 103 -14z
m-73 -294 c3 -5 84 -76 181 -157 97 -81 178 -152 181 -159 6 -16 -17 -59 -55
-104 l-29 -34 -152 127 -152 128 -150 -127 c-122 -103 -153 -125 -164 -115
-24 20 -75 102 -74 119 1 20 368 329 391 330 9 1 19 -3 23 -8z m-1545 -36 c0
-19 5 -35 11 -35 6 0 9 -11 7 -24 -3 -22 9 -37 76 -93 9 -7 20 -13 26 -13 5 0
10 -4 10 -10 0 -5 9 -10 20 -10 11 0 20 -3 20 -8 0 -4 28 -20 63 -36 34 -17
67 -35 73 -40 34 -31 56 -46 69 -46 8 0 15 -3 15 -8 0 -4 20 -16 45 -27 44
-20 58 -35 32 -35 -13 0 -63 -77 -55 -85 6 -6 34 19 47 43 13 24 37 29 44 10
6 -19 -3 -38 -20 -38 -8 0 -30 -16 -49 -35 -18 -19 -38 -35 -44 -35 -6 0 -15
-12 -21 -26 -5 -15 -22 -43 -37 -63 -35 -47 -52 -77 -52 -94 0 -8 -9 -24 -20
-37 -12 -14 -18 -31 -15 -39 8 -19 6 -277 -1 -307 -10 -40 13 -34 67 16 30 27
80 73 113 103 l58 53 1 102 c1 56 5 102 9 102 5 0 8 -25 8 -56 0 -31 5 -61 13
-68 6 -7 26 -30 42 -51 17 -21 36 -44 43 -51 6 -7 12 -20 12 -28 0 -9 4 -16 9
-16 5 0 17 -20 27 -46 9 -25 24 -51 33 -57 9 -7 31 -29 50 -49 33 -36 34 -38
17 -63 -9 -14 -21 -25 -27 -25 -16 0 -47 -33 -58 -63 -11 -29 -31 -37 -31 -11
0 15 -23 44 -34 44 -3 0 -6 -18 -6 -40 0 -22 5 -40 10 -40 6 0 10 -16 10 -35
0 -28 -4 -35 -19 -35 -11 0 -23 -4 -26 -10 -3 -5 -15 -10 -25 -10 -10 0 -25
-6 -32 -12 -33 -30 -62 -38 -143 -38 -50 0 -85 -4 -85 -10 0 -5 5 -10 10 -10
21 0 8 -32 -25 -61 -19 -17 -35 -37 -35 -45 0 -8 -4 -22 -9 -32 -5 -9 -15 -31
-22 -49 -7 -17 -17 -29 -21 -27 -11 7 -10 138 1 149 8 9 15 47 24 133 2 24 16
29 35 10 6 -6 15 -8 19 -4 4 4 1 12 -8 17 -9 4 -31 22 -49 39 -38 35 -49 37
-80 10 -12 -11 -31 -22 -41 -25 -11 -4 -19 -11 -19 -16 0 -5 -7 -9 -15 -9 -8
0 -15 -4 -15 -10 0 -5 -5 -10 -11 -10 -5 0 -27 -11 -47 -25 -22 -15 -30 -25
-20 -25 9 0 18 4 20 8 2 5 16 12 31 16 25 6 27 5 19 -11 -6 -10 -11 -88 -12
-173 -1 -85 -3 -165 -4 -178 -3 -27 -23 -49 -33 -37 -5 4 -3 10 4 12 9 3 6 11
-7 26 -11 11 -20 31 -20 44 0 13 -6 36 -13 51 -8 15 -20 50 -27 77 -8 28 -16
52 -20 55 -16 13 -39 78 -34 97 5 16 -1 25 -23 36 -26 13 -74 29 -98 32 -26 4
-72 17 -86 25 -10 5 -21 4 -28 -3 -8 -8 -11 4 -11 46 0 58 -8 68 -33 42 -24
-23 -28 -5 -6 26 24 34 39 37 39 10 0 -11 5 -23 11 -27 6 -3 9 -19 7 -35 -4
-25 -1 -30 21 -36 14 -3 37 -11 51 -18 21 -11 27 -10 40 3 13 14 12 15 -3 9
-9 -3 -17 -2 -17 3 0 6 -7 10 -16 10 -17 0 -45 24 -43 37 4 21 -2 33 -16 33
-8 0 -15 5 -15 10 0 6 7 10 15 10 8 0 15 -4 15 -10 0 -5 5 -10 10 -10 6 0 10
7 10 15 0 8 5 24 12 34 11 17 14 18 35 4 13 -8 23 -24 23 -34 0 -15 -7 -19
-35 -19 -38 0 -50 -26 -17 -37 47 -15 92 -38 92 -45 0 -4 6 -8 14 -8 9 0 12 7
9 20 -3 11 -9 20 -14 20 -5 0 -9 9 -9 21 0 11 -5 29 -10 39 -14 26 3 34 20 9
8 -10 18 -19 23 -19 25 0 37 -32 37 -99 0 -41 4 -71 10 -71 6 0 10 -7 10 -15
0 -8 9 -15 20 -15 11 0 20 5 20 10 0 6 -4 10 -10 10 -6 0 -10 44 -10 113 0 62
-4 117 -9 122 -5 6 -12 42 -15 80 -2 39 -9 102 -15 140 -26 186 -31 253 -31
418 0 149 2 179 15 183 22 9 18 32 -7 45 -43 23 -48 32 -29 54 20 23 71 139
71 161 0 8 5 14 10 14 6 0 10 8 10 18 0 9 9 28 20 42 11 14 20 31 20 38 0 6 4
12 8 12 4 0 14 16 21 35 7 19 17 35 22 35 5 0 9 -16 9 -35z m-100 -65 c0 -5
-4 -10 -8 -10 -5 0 -14 -16 -22 -35 -8 -19 -17 -35 -20 -35 -4 0 -15 -19 -26
-42 -19 -43 -37 -68 -49 -68 -4 0 -42 -36 -86 -79 -75 -76 -79 -81 -79 -125 0
-24 -4 -48 -10 -51 -5 -3 -10 -33 -10 -66 0 -33 -4 -59 -10 -59 -5 0 -10 -16
-10 -35 0 -19 -4 -43 -9 -53 -5 -9 -17 -37 -26 -62 -9 -25 -21 -53 -26 -62 -5
-10 -9 -25 -9 -33 0 -8 -3 -15 -7 -15 -11 0 -33 -50 -33 -72 0 -10 -4 -18 -10
-18 -5 0 -10 -7 -10 -16 0 -8 -11 -35 -25 -60 -14 -25 -25 -51 -25 -59 0 -8
-4 -15 -8 -15 -5 0 -15 -19 -22 -42 -8 -24 -20 -52 -27 -63 -7 -11 -13 -27
-13 -37 0 -10 -4 -18 -10 -18 -5 0 -10 -9 -10 -20 0 -11 -4 -20 -10 -20 -5 0
-10 -9 -10 -19 0 -11 -6 -21 -12 -23 -8 -3 -12 -22 -12 -49 1 -24 -1 -38 -3
-31 -6 15 -23 16 -23 2 0 -13 -45 -60 -57 -60 -4 0 -21 -11 -37 -25 -16 -14
-35 -25 -43 -25 -7 0 -13 -4 -13 -10 0 -5 -5 -10 -11 -10 -6 0 -31 -15 -57
-32 -64 -45 -153 -98 -162 -98 -5 0 -11 -6 -13 -12 -3 -8 -6 -8 -6 -2 -1 12
50 75 92 112 15 14 27 28 27 32 0 4 20 28 45 54 25 27 45 54 45 62 0 8 5 14
10 14 6 0 10 8 10 18 0 10 4 22 8 27 5 6 14 30 22 55 21 74 43 134 52 145 4 5
8 22 8 37 0 15 4 28 9 28 5 0 11 12 14 28 2 15 14 61 27 102 12 41 26 93 32
115 5 22 14 48 19 57 5 10 9 38 9 63 0 25 5 45 10 45 6 0 10 9 10 19 0 12 57
78 138 160 196 201 382 398 437 464 30 37 45 46 45 27z m1707 -362 c58 -49 80
-74 71 -78 -61 -33 -226 -37 -298 -8 l-34 14 85 72 c46 39 86 71 88 72 2 0 42
-32 88 -72z m-1976 -222 c14 -15 11 -26 -6 -26 -11 0 -15 10 -14 38 1 21 3 28
6 17 3 -11 9 -24 14 -29z m9 -73 c0 -26 -3 -34 -11 -26 -9 9 -3 63 7 63 2 0 4
-17 4 -37z m1005 -18 c25 -24 47 -57 50 -72 4 -16 11 -38 16 -51 20 -50 -1
-43 -62 19 -60 62 -93 121 -76 138 18 18 25 14 72 -34z m-1025 -40 c0 -12 -5
-26 -11 -32 -7 -7 -12 -69 -13 -166 -1 -139 -10 -197 -23 -159 -10 27 -23 -2
-25 -56 -1 -55 -1 -55 -7 17 -7 81 4 239 20 311 6 25 10 60 9 78 -1 42 19 66
37 43 7 -9 13 -25 13 -36z m1005 -135 c3 -5 1 -10 -4 -10 -6 0 -11 5 -11 10 0
6 2 10 4 10 3 0 8 -4 11 -10z m12 -42 c-3 -8 -6 -5 -6 6 -1 11 2 17 5 13 3 -3
4 -12 1 -19z m43 -45 c0 -5 8 -18 19 -29 10 -11 22 -31 26 -45 l7 -24 -18 23
c-11 13 -29 36 -41 52 -27 33 -33 72 -8 46 8 -8 15 -19 15 -23z m67 -115 c-3
-8 -6 -5 -6 6 -1 11 2 17 5 13 3 -3 4 -12 1 -19z m165 -68 c5 0 8 -7 8 -16 0
-8 7 -22 15 -30 8 -9 15 -24 15 -35 0 -12 7 -19 20 -19 22 0 27 -16 8 -22 -15
-5 -58 36 -58 56 0 8 -3 16 -7 18 -10 4 -43 75 -43 91 0 7 8 0 18 -15 9 -16
20 -28 24 -28z m-1325 5 c0 -8 -4 -15 -9 -15 -4 0 -8 7 -8 15 0 8 4 15 8 15 5
0 9 -7 9 -15z m93 -14 c0 -11 -26 -22 -34 -14 -12 12 -5 23 14 23 11 0 20 -4
20 -9z m-147 -96 c-4 -23 -2 -35 6 -35 6 0 11 -9 11 -20 0 -11 -7 -20 -15 -20
-12 0 -15 13 -15 55 0 30 4 55 9 55 6 0 7 -16 4 -35z m1524 -31 c-15 -13 -33
-24 -40 -24 -7 0 3 14 22 30 19 17 37 28 40 24 3 -3 -7 -17 -22 -30z m-907
-74 c0 -5 -7 -10 -16 -10 -8 0 -12 5 -9 10 3 6 10 10 16 10 5 0 9 -4 9 -10z
m1145 -15 c18 -18 25 -35 25 -65 0 -22 -4 -40 -10 -40 -5 0 -10 -7 -10 -15 0
-8 -7 -15 -15 -15 -8 0 -15 -4 -15 -8 0 -5 -12 -15 -27 -23 -16 -8 -30 -17
-33 -21 -3 -3 -34 -23 -70 -43 -52 -29 -68 -35 -82 -26 -10 6 -26 11 -35 12
-11 0 -13 3 -5 6 6 2 12 11 12 18 0 11 20 38 80 112 6 7 10 24 10 38 0 14 5
25 10 25 6 0 10 10 10 23 0 28 31 44 88 46 33 1 48 -5 67 -24z m-1599 -29 c13
-9 25 -36 33 -73 7 -32 20 -74 28 -93 27 -64 31 -75 37 -102 3 -14 9 -33 12
-42 3 -9 1 -16 -5 -16 -6 0 -11 9 -11 19 0 11 -3 21 -7 23 -5 2 -21 29 -37 61
-15 31 -32 57 -37 57 -5 0 -9 6 -9 13 0 7 -9 23 -20 35 -11 12 -20 26 -20 32
0 5 -4 10 -10 10 -11 0 -14 73 -3 83 10 11 27 8 49 -7z m-476 -171 c0 -2 -19
-13 -42 -25 -24 -12 -46 -27 -49 -32 -4 -6 -12 -9 -18 -7 -16 6 13 38 53 60
25 14 56 16 56 4z m1323 -13 c-4 -16 3 -19 59 -20 53 -2 68 2 86 19 13 11 30
18 40 16 12 -3 8 -8 -15 -17 -18 -6 -33 -16 -33 -21 0 -5 -7 -9 -15 -9 -8 0
-15 -4 -15 -10 0 -13 -37 -13 -42 0 -2 6 -43 11 -93 12 -50 1 -78 4 -62 6 15
2 27 8 27 13 0 5 9 9 20 9 11 0 20 5 20 10 0 6 6 10 14 10 9 0 12 -7 9 -18z
m992 -100 c-3 -3 -11 0 -18 7 -9 10 -8 11 6 5 10 -3 15 -9 12 -12z m-2145
-202 c0 -5 -4 -10 -9 -10 -6 0 -13 5 -16 10 -3 6 1 10 9 10 9 0 16 -4 16 -10z
m-313 -16 c-3 -3 -12 -4 -19 -1 -8 3 -5 6 6 6 11 1 17 -2 13 -5z m46 -21 c-7
-2 -19 -2 -25 0 -7 3 -2 5 12 5 14 0 19 -2 13 -5z m80 -50 c3 -5 1 -17 -3 -28
-6 -17 -7 -16 -12 8 -5 25 5 37 15 20z m63 -28 c9 -8 11 -15 6 -15 -5 0 -15 7
-22 15 -7 8 -9 15 -6 15 4 0 14 -7 22 -15z m136 -87 c-9 -9 -15 -9 -24 0 -9 9
-7 12 12 12 19 0 21 -3 12 -12z m54 -26 c-4 -3 -11 0 -16 8 -15 24 -11 33 6
15 9 -9 13 -19 10 -23z m-526 13 c0 -3 -10 -19 -22 -35 -18 -25 -29 -30 -64
-30 -34 0 -44 -4 -49 -20 -3 -11 -11 -20 -16 -20 -5 0 -9 -7 -9 -15 0 -8 -4
-15 -10 -15 -5 0 -10 -9 -10 -20 0 -27 -34 -26 -116 2 -50 17 -61 24 -53 35 7
7 22 13 35 13 13 0 24 5 24 10 0 6 11 10 25 10 14 0 25 5 25 10 0 6 18 10 40
10 22 0 40 5 40 10 0 6 8 10 18 11 9 0 37 11 62 24 43 22 80 31 80 20z m3023
-22 c-7 -2 -19 -2 -25 0 -7 3 -2 5 12 5 14 0 19 -2 13 -5z m-2537 -29 c-8 -8
-22 -14 -30 -14 -9 0 -16 -4 -16 -10 0 -5 -7 -10 -15 -10 -8 0 -15 5 -15 10 0
6 6 10 14 10 8 0 17 7 20 16 3 8 10 13 15 9 5 -3 12 -1 16 5 4 6 11 8 16 5 5
-4 3 -13 -5 -21z m-86 -38 c0 -2 -7 -6 -15 -10 -8 -3 -15 -1 -15 4 0 6 7 10
15 10 8 0 15 -2 15 -4z m2790 -108 c0 -10 5 -18 10 -18 6 0 10 -7 10 -15 0 -8
5 -15 10 -15 6 0 10 -6 10 -14 0 -8 5 -16 12 -18 6 -2 8 -10 4 -17 -6 -9 -13
-6 -28 11 -41 47 -74 104 -76 133 l-3 30 26 -30 c14 -16 25 -38 25 -47z m-113
46 c-3 -3 -12 -4 -19 -1 -8 3 -5 6 6 6 11 1 17 -2 13 -5z m-47 -14 c0 -5 -7
-10 -16 -10 -8 0 -12 5 -9 10 3 6 10 10 16 10 5 0 9 -4 9 -10z m-70 -14 c0 -3
-4 -8 -10 -11 -5 -3 -10 -1 -10 4 0 6 5 11 10 11 6 0 10 -2 10 -4z m-43 -22
c-3 -3 -12 -4 -19 -1 -8 3 -5 6 6 6 11 1 17 -2 13 -5z m-454 -61 c-7 -2 -19
-2 -25 0 -7 3 -2 5 12 5 14 0 19 -2 13 -5z m257 -11 c0 -4 -12 -12 -27 -19
-76 -32 -161 -63 -172 -63 -7 0 -26 -13 -41 -30 -15 -16 -32 -30 -37 -30 -4 0
-27 -21 -51 -45 -24 -25 -50 -45 -57 -45 -8 0 -16 -4 -20 -10 -8 -13 -35 -1
-35 16 0 9 11 14 29 14 21 0 32 6 36 20 3 11 11 20 17 20 5 0 8 7 5 14 -4 9
-1 13 6 10 7 -2 24 7 39 21 15 14 32 25 38 25 5 0 10 7 10 15 0 22 -5 19 -45
-20 -19 -20 -35 -33 -35 -30 0 18 37 85 47 85 6 0 14 9 18 19 5 17 9 18 50 5
45 -13 115 -9 115 7 0 5 15 9 34 9 19 0 38 5 41 10 7 12 35 14 35 2z m270 -73
c17 -31 -13 -48 -80 -49 -31 0 -60 -4 -65 -8 -6 -5 -39 -17 -75 -26 -68 -19
-153 -55 -158 -68 -2 -5 -10 -8 -17 -8 -7 0 -42 -16 -77 -37 -34 -20 -73 -41
-85 -47 -13 -6 -23 -14 -23 -18 0 -5 -4 -8 -10 -8 -5 0 -10 7 -10 15 0 8 3 15
8 15 4 0 52 43 107 95 76 73 105 95 126 95 15 0 31 5 34 10 3 6 26 10 50 10
24 0 70 7 102 15 31 8 72 15 90 15 18 0 33 5 33 10 0 19 39 10 50 -11z m67 15
c-3 -3 -12 -4 -19 -1 -8 3 -5 6 6 6 11 1 17 -2 13 -5z m102 -31 c10 -17 10
-17 11 0 0 22 14 22 47 0 39 -26 125 -114 118 -121 -3 -4 -9 -1 -13 5 -4 6
-36 28 -71 48 -52 30 -67 35 -85 27 -11 -6 -61 -15 -110 -22 -49 -6 -102 -18
-117 -26 -15 -8 -39 -14 -53 -14 -31 0 -114 -19 -138 -31 -10 -5 -25 -9 -33
-9 -8 0 -15 -4 -15 -10 0 -5 -7 -10 -16 -10 -16 0 -90 -39 -136 -71 -14 -11
-31 -19 -36 -19 -6 0 -12 -4 -14 -8 -1 -5 -24 -21 -50 -35 -27 -15 -68 -38
-92 -52 -52 -29 -56 -30 -56 -10 0 8 5 15 11 15 5 0 30 20 55 45 29 30 52 45
69 45 14 0 25 5 25 10 0 6 9 10 20 10 11 0 20 5 20 10 0 6 4 10 9 10 9 0 118
63 138 80 7 5 26 10 43 10 16 0 30 4 30 9 0 5 12 11 28 14 15 3 59 15 97 27
39 12 107 27 153 33 45 6 82 14 82 19 0 4 7 8 15 8 9 0 18 7 21 15 8 20 31 19
43 -2z m42 -137 c4 -5 0 -25 -8 -44 -8 -20 -12 -48 -9 -63 3 -17 1 -30 -7 -33
-7 -2 -2 -5 11 -5 12 -1 22 -4 22 -7 0 -14 -36 -33 -62 -34 -15 0 -30 -4 -33
-10 -3 -5 -19 -10 -35 -10 -16 0 -31 -4 -34 -8 -3 -5 -36 -17 -73 -26 -37 -10
-77 -21 -88 -26 -11 -5 -31 -12 -45 -15 -14 -4 -41 -14 -60 -22 -19 -8 -46
-19 -60 -25 -14 -5 -38 -16 -53 -24 -16 -8 -35 -14 -43 -14 -8 0 -14 -4 -14
-10 0 -5 -9 -10 -19 -10 -11 0 -23 -4 -26 -10 -3 -5 -15 -10 -25 -10 -10 0
-20 -3 -22 -7 -8 -19 -108 -54 -108 -37 0 3 34 38 76 78 62 61 83 75 117 80
103 15 117 19 117 27 0 5 -5 9 -12 9 -13 0 -58 48 -58 62 0 4 6 8 13 9 27 2
-50 21 -80 20 -25 -1 -31 2 -27 14 3 8 12 15 20 15 8 0 14 5 14 10 0 6 9 10
20 10 11 0 20 5 20 10 0 6 11 10 25 10 14 0 25 4 25 9 0 12 150 71 210 83 25
5 90 13 145 19 55 5 107 11 115 12 15 3 39 -9 51 -27z m-3798 -2 c9 -4 17 -10
17 -15 0 -14 -13 -10 -40 12 -14 11 -18 18 -10 15 8 -3 23 -9 33 -12z m1917
-239 c11 -13 7 -15 -28 -15 -23 0 -44 -4 -47 -10 -3 -6 -42 -9 -88 -8 -54 1
-66 3 -34 5 26 2 47 8 47 14 0 5 12 9 28 9 15 0 34 5 42 10 23 15 66 12 80 -5z
m1836 -19 c-1 -19 -5 -38 -9 -42 -4 -4 -7 -24 -7 -45 0 -21 -4 -41 -10 -44 -6
-4 -10 14 -10 46 0 29 -3 49 -6 46 -11 -10 -13 -118 -3 -111 5 3 9 -2 9 -11 0
-24 -23 -12 -31 16 -4 13 -7 48 -8 77 -1 43 2 52 16 52 14 0 15 2 4 13 -11 10
-14 10 -18 0 -3 -7 -13 -13 -24 -13 -23 0 -25 -15 -4 -24 17 -6 20 -53 5 -76
-8 -13 -10 -13 -10 2 0 9 -6 18 -12 21 -10 3 -10 7 -1 17 9 10 9 15 0 25 -14
13 -49 16 -41 3 3 -4 12 -8 20 -8 8 0 14 -4 14 -10 0 -5 -9 -10 -20 -10 -11 0
-20 5 -20 11 0 6 -7 4 -15 -5 -8 -8 -15 -19 -15 -25 0 -6 -4 -11 -10 -11 -5 0
-10 -4 -10 -10 0 -5 9 -10 20 -10 19 0 24 10 21 37 -1 9 4 9 24 0 25 -12 35
-37 14 -37 -5 0 -7 -4 -4 -10 3 -5 -1 -10 -9 -10 -23 0 -20 -28 4 -35 13 -4
20 -15 20 -31 0 -13 -2 -24 -5 -24 -12 0 -58 48 -72 75 -9 16 -23 36 -31 45
-14 13 -14 15 1 18 18 4 24 22 7 22 -5 0 -10 5 -10 10 0 6 8 10 19 10 10 0 30
9 44 20 14 11 30 20 35 20 14 0 76 33 80 43 2 4 16 7 31 7 25 0 28 -3 27 -34z
m-1008 -5 c-13 -8 -42 -35 -66 -58 l-43 -43 -32 16 c-18 9 -34 18 -36 20 -8 7
42 44 58 43 13 -1 13 -2 -1 -6 -22 -5 -23 -19 -3 -27 9 -3 28 8 48 28 41 41
67 56 84 49 10 -4 8 -10 -9 -22z m-153 -108 c37 -18 44 -33 21 -52 -11 -9 -23
-8 -55 6 -43 18 -49 31 -29 51 16 16 21 15 63 -5z m-115 -25 c1 -18 15 -29 68
-54 66 -30 67 -30 97 -13 42 25 63 24 34 -2 -13 -11 -30 -24 -38 -29 -12 -6
-12 -19 -3 -76 14 -82 6 -94 -60 -100 -24 -1 -61 -10 -82 -19 -21 -9 -45 -14
-52 -11 -8 3 -14 1 -14 -4 0 -18 -46 -11 -68 10 -12 11 -27 20 -34 20 -7 0
-26 11 -42 25 -16 14 -37 25 -48 25 -10 0 -18 5 -18 10 0 6 -7 10 -15 10 -20
0 -19 26 1 34 13 5 14 9 4 21 -16 19 -36 19 -44 0 -3 -8 -13 -15 -23 -15 -25
0 41 59 97 87 60 30 104 56 108 66 2 4 11 7 21 7 9 0 21 4 27 9 10 10 38 18
67 20 11 1 17 -6 17 -21z m1196 -38 c18 0 18 -15 0 -32 -8 -8 -16 -23 -19 -34
-2 -10 -5 8 -5 41 0 33 2 52 5 43 2 -10 11 -18 19 -18z m-892 -66 c6 -10 14
-21 17 -24 3 -3 8 -14 11 -25 3 -11 9 -28 13 -37 6 -15 2 -18 -24 -18 -21 0
-31 5 -31 15 0 8 5 15 10 15 6 0 10 9 10 20 0 11 -4 20 -10 20 -5 0 -10 9 -10
20 0 11 -4 20 -10 20 -5 0 -10 5 -10 11 0 16 22 6 34 -17z m186 16 c0 -5 -5
-10 -11 -10 -5 0 -7 5 -4 10 3 6 8 10 11 10 2 0 4 -4 4 -10z m285 -19 c3 -5
-5 -17 -17 -25 -26 -18 -37 -5 -16 18 15 18 25 20 33 7z m-135 -67 c0 -9 -28
-34 -38 -34 -15 0 -22 28 -9 34 17 7 47 7 47 0z m-1010 -19 c0 -8 -5 -15 -11
-15 -14 0 -39 -26 -40 -42 0 -7 -4 -4 -9 7 -5 14 -2 26 13 43 23 25 47 29 47
7z m881 -35 c10 0 19 5 19 10 0 6 9 1 20 -10 11 -11 32 -20 48 -20 40 -1 9
-16 -50 -25 -40 -6 -48 -4 -57 13 -6 12 -11 29 -10 39 0 10 3 13 6 6 2 -7 13
-13 24 -13z m294 -10 c3 -5 19 -10 35 -10 16 0 31 -4 34 -9 6 -8 60 -20 116
-24 14 -1 55 2 93 6 54 6 67 5 67 -6 0 -9 -16 -17 -42 -22 -24 -3 -68 -11 -98
-16 -30 -5 -86 -14 -125 -19 -38 -5 -90 -14 -115 -19 -60 -13 -60 -13 -60 4 0
8 5 15 10 15 6 0 10 9 10 20 0 11 4 20 10 20 5 0 12 16 16 35 4 25 12 35 25
35 10 0 21 -4 24 -10z m-1155 -50 c0 -5 -4 -10 -10 -10 -5 0 -10 5 -10 10 0 6
5 10 10 10 6 0 10 -4 10 -10z m180 -7 c20 -4 46 -18 61 -34 34 -37 92 -40 120
-8 15 17 31 22 73 23 52 0 85 -12 59 -21 -7 -3 -13 -15 -13 -28 0 -27 10 -35
60 -51 31 -11 24 -12 -65 -13 -56 -1 -105 -5 -110 -10 -13 -11 -172 -61 -197
-61 -10 0 -18 -4 -18 -10 0 -5 -13 -10 -30 -10 -16 0 -30 -4 -30 -10 0 -5 -11
-10 -24 -10 -29 0 -138 -61 -181 -102 -16 -15 -33 -28 -37 -28 -4 0 -18 -11
-32 -25 -14 -14 -30 -25 -36 -25 -5 0 -10 -3 -10 -7 0 -16 -46 -29 -68 -20
-17 8 -20 16 -16 46 7 54 14 71 30 71 8 0 14 5 14 10 0 6 18 10 41 10 37 0 69
17 69 37 0 4 17 9 38 9 49 2 100 29 111 58 6 14 5 37 -2 59 -9 29 -17 37 -35
37 -21 0 -21 2 12 35 20 19 38 35 41 35 4 0 13 7 22 15 8 9 28 19 44 22 16 3
29 10 29 15 0 6 9 7 23 3 12 -4 38 -9 57 -12z m1648 -20 c-3 -19 -48 -32 -48
-14 0 10 28 30 43 31 5 0 7 -8 5 -17z m-1884 -22 c-10 -10 -22 -17 -26 -14
-11 6 14 32 31 33 11 0 9 -5 -5 -19z m1823 -7 c-3 -3 -12 -4 -19 -1 -8 3 -5 6
6 6 11 1 17 -2 13 -5z m-1857 -96 c-1 -26 -3 -30 -10 -16 -6 9 -7 23 -4 32 9
25 14 19 14 -16z m1915 22 c3 -5 1 -10 -4 -10 -6 0 -11 5 -11 10 0 6 2 10 4
10 3 0 8 -4 11 -10z m-2194 -83 c-6 -6 -11 -33 -11 -59 0 -46 -12 -63 -23 -33
-6 14 17 118 31 139 4 7 8 2 10 -13 2 -13 -1 -28 -7 -34z m249 43 c0 -5 -2
-10 -4 -10 -2 0 -12 -3 -22 -7 -16 -6 -17 -5 -4 10 17 19 30 22 30 7z m1954
-95 c-26 -20 -50 -20 -32 0 7 8 22 14 32 15 20 0 20 0 0 -15z m-844 -14 c0 -6
-4 -13 -10 -16 -5 -3 -10 1 -10 9 0 9 5 16 10 16 6 0 10 -4 10 -9z m15 -51 c3
-5 1 -10 -4 -10 -6 0 -11 5 -11 10 0 6 2 10 4 10 3 0 8 -4 11 -10z m-1365 -75
c0 -20 -5 -25 -24 -25 -13 0 -29 7 -36 15 -10 13 -9 15 8 15 12 0 24 5 27 10
11 18 25 10 25 -15z m-258 -101 c44 -8 35 -23 -27 -45 -22 -8 -42 -16 -45 -19
-7 -7 -59 -30 -68 -30 -4 0 -19 10 -34 23 -14 12 -36 30 -48 40 -11 10 -18 22
-15 27 7 11 178 13 237 4z m1114 -51 c3 -10 10 -26 15 -35 5 -10 9 -20 9 -22
0 -11 -68 -35 -105 -37 -92 -4 -175 1 -175 12 0 8 16 10 49 6 27 -3 51 -3 54
-1 3 3 -9 18 -26 34 -18 16 -29 31 -26 34 3 4 34 7 68 7 33 1 61 5 61 10 0 5
16 9 35 9 25 0 37 -5 41 -17z m-2909 -29 c-3 -3 -12 -4 -19 -1 -8 3 -5 6 6 6
11 1 17 -2 13 -5z m-34 -21 c-7 -2 -19 -2 -25 0 -7 3 -2 5 12 5 14 0 19 -2 13
-5z m-47 -28 c-8 -8 -17 -15 -21 -15 -3 0 -11 -5 -18 -10 -56 -47 -74 -60 -84
-60 -7 0 -13 -4 -13 -10 0 -14 -28 -12 -33 3 -2 6 -8 8 -13 4 -5 -4 -2 -12 6
-17 8 -5 12 -11 10 -12 -41 -31 -62 -38 -83 -27 -17 10 -19 13 -7 17 8 3 19
10 23 16 5 6 5 1 2 -11 -8 -27 0 -29 23 -6 12 12 13 18 5 21 -20 6 11 32 39
32 27 0 78 21 78 33 0 4 7 7 15 7 8 0 15 3 15 8 0 8 50 41 63 42 5 0 2 -7 -7
-15z m3041 -7 c-3 -8 -6 -5 -6 6 -1 11 2 17 5 13 3 -3 4 -12 1 -19z m156 -21
c-3 -20 -11 -37 -18 -37 -8 0 -10 9 -7 25 2 14 8 25 13 25 5 0 9 8 9 17 0 9 2
14 5 12 2 -3 2 -22 -2 -42z m-1283 23 c0 -5 11 -10 25 -10 14 0 25 -4 25 -10
0 -5 -5 -10 -10 -10 -6 0 -37 -26 -69 -57 -33 -32 -76 -71 -96 -88 -21 -16
-48 -41 -62 -54 -40 -38 -38 -15 3 29 21 22 45 50 53 61 9 12 26 31 39 44 12
13 22 27 22 30 0 4 6 12 13 19 6 8 19 23 27 35 15 22 30 28 30 11z m595 -28
c-18 -19 -28 -23 -36 -15 -14 14 27 54 47 46 10 -3 7 -12 -11 -31z m1795 28
c0 -5 -4 -10 -10 -10 -5 0 -10 5 -10 10 0 6 5 10 10 10 6 0 10 -4 10 -10z
m-700 -40 c-19 -13 -30 -13 -30 0 0 6 10 10 23 10 18 0 19 -2 7 -10z m-1125
-51 c5 -6 4 -9 -3 -9 -7 0 -12 -11 -12 -25 0 -14 -4 -25 -9 -25 -5 0 -11 -12
-14 -27 -4 -21 0 -34 18 -50 25 -24 55 -31 55 -13 0 6 11 10 25 10 15 0 28 7
32 18 4 9 15 23 25 30 10 7 18 18 18 23 0 6 7 18 16 27 13 12 35 15 101 14 46
-1 93 -6 103 -12 10 -5 54 -10 96 -10 71 0 107 -7 172 -31 l24 -9 -29 -28
c-15 -15 -35 -40 -43 -57 -8 -16 -20 -36 -27 -42 -13 -15 -93 -18 -93 -4 0 5
-12 11 -27 14 -24 3 -23 4 14 11 24 5 40 12 37 17 -3 5 2 16 10 25 9 8 16 11
16 5 0 -16 30 -13 36 4 3 8 14 17 24 20 23 7 35 35 15 35 -8 0 -15 -6 -15 -14
0 -7 -11 -16 -25 -18 -26 -5 -37 16 -12 25 6 2 9 8 4 12 -4 5 -17 3 -30 -3
-12 -6 -53 -20 -90 -32 -38 -11 -78 -30 -90 -40 -11 -11 -27 -20 -35 -20 -9 0
-12 -6 -8 -16 3 -8 2 -12 -4 -9 -13 8 -52 -19 -43 -29 4 -4 -1 -4 -12 0 -15 6
-17 4 -12 -10 4 -10 3 -15 -3 -11 -12 8 -43 -22 -36 -34 3 -4 -4 -19 -15 -32
l-21 -24 7 25 c7 22 6 24 -9 11 -9 -8 -15 -20 -12 -27 3 -9 0 -11 -11 -7 -12
5 -15 2 -10 -10 10 -25 -23 -21 -48 6 -20 22 -43 37 -97 64 -36 19 -41 28 -24
46 11 10 12 17 4 25 -6 6 -12 40 -13 74 0 35 -4 69 -9 76 -4 7 -2 12 4 12 6 0
11 10 10 23 -4 44 -1 47 33 40 17 -3 36 -10 42 -14z m91 -29 c37 0 48 -19 12
-21 -70 -4 -99 8 -72 28 12 9 20 10 22 3 2 -5 19 -10 38 -10z m-2826 -43 c12
-4 11 -6 -2 -6 -10 -1 -18 -5 -18 -11 0 -5 -7 -10 -15 -10 -8 0 -15 -4 -15
-10 0 -5 -6 -10 -12 -10 -7 0 -26 -11 -42 -25 -31 -27 -47 -28 -54 -5 -3 9 1
11 14 6 10 -4 15 -4 12 0 -10 9 50 57 62 49 6 -3 7 0 4 9 -4 11 0 16 15 16 12
0 21 6 21 13 0 8 3 9 8 1 4 -6 14 -14 22 -17z m2430 -5 c0 -16 -9 -46 -20 -68
l-19 -39 -1 32 c0 17 5 35 10 38 6 3 10 19 10 36 0 16 5 29 10 29 6 0 10 -13
10 -28z m370 -7 c13 -24 6 -50 -8 -28 -4 6 -18 13 -31 14 -24 4 -24 5 -7 22
23 23 30 22 46 -8z m953 -12 c-7 -3 -13 -15 -13 -28 0 -13 -4 -27 -10 -30 -5
-3 -10 -18 -10 -33 0 -36 -19 -16 -22 24 -2 37 41 98 57 82 7 -7 6 -12 -2 -15z
m627 -33 c0 -5 7 -10 15 -10 20 0 20 -39 0 -46 -8 -4 -26 -7 -40 -8 -14 0 -25
-4 -25 -8 0 -5 -13 -8 -30 -8 -16 0 -30 5 -30 10 0 6 7 10 15 10 10 0 15 10
15 29 0 16 6 32 13 34 22 9 67 7 67 -3z m-4532 -48 c2 -7 -2 -12 -10 -12 -7 0
-20 -9 -28 -20 -8 -11 -20 -20 -28 -20 -7 0 -27 -13 -45 -30 -18 -16 -35 -30
-39 -30 -4 0 -18 -11 -31 -24 -26 -26 -67 -50 -67 -40 0 9 53 54 63 54 4 0 13
11 19 25 6 14 17 25 25 25 8 0 26 11 40 24 14 13 32 22 39 19 8 -3 14 0 14 6
0 16 23 41 34 37 6 -1 12 -8 14 -14z m2789 -98 c-3 -3 -12 -4 -19 -1 -8 3 -5
6 6 6 11 1 17 -2 13 -5z m1343 -60 c0 -2 -6 -4 -13 -4 -7 0 -25 -15 -39 -32
-15 -18 -38 -46 -52 -63 -14 -16 -26 -33 -26 -36 0 -4 -25 -17 -55 -29 -30
-12 -55 -26 -55 -31 0 -5 -9 -9 -19 -9 -11 0 -21 -3 -23 -7 -5 -12 -76 -63
-87 -63 -20 0 1 28 30 40 16 7 29 16 29 21 0 5 7 9 15 9 8 0 15 3 15 8 0 4 29
27 65 52 36 25 65 51 65 58 0 6 5 12 10 12 6 0 10 7 10 15 0 8 5 15 10 15 6 0
10 4 10 9 0 5 12 29 26 55 l26 46 29 -31 c16 -17 29 -33 29 -35z m-1485 26 c3
-5 1 -10 -4 -10 -6 0 -11 5 -11 10 0 6 2 10 4 10 3 0 8 -4 11 -10z m1175 0 c0
-6 -4 -18 -9 -28 -5 -9 -19 -37 -32 -62 -32 -64 -34 -68 -63 -136 -14 -34 -26
-69 -26 -78 0 -9 -4 -16 -10 -16 -5 0 -10 -9 -10 -20 0 -11 -4 -20 -10 -20 -5
0 -10 6 -10 14 0 8 5 18 10 21 12 8 13 72 1 77 -14 5 -24 68 -11 68 14 0 27
13 65 65 17 22 42 54 57 70 16 17 28 36 28 43 0 6 5 12 10 12 6 0 10 -5 10
-10z m-2313 -25 c10 -10 13 -24 9 -41 -6 -22 -8 -23 -21 -10 -14 14 -21 66 -9
66 3 0 12 -7 21 -15z m1233 5 c0 -5 -4 -10 -10 -10 -5 0 -10 5 -10 10 0 6 5
10 10 10 6 0 10 -4 10 -10z m-110 -20 c0 -5 -2 -10 -4 -10 -3 0 -8 5 -11 10
-3 6 -1 10 4 10 6 0 11 -4 11 -10z m65 0 c-3 -5 -10 -10 -16 -10 -5 0 -9 5 -9
10 0 6 7 10 16 10 8 0 12 -4 9 -10z m153 -91 c2 -5 20 -9 41 -9 21 0 45 -7 57
-18 25 -23 69 -42 97 -42 20 0 19 -2 -7 -15 -39 -20 -56 -19 -56 5 0 11 -2 20
-4 20 -2 0 -11 3 -20 6 -10 4 -24 -8 -43 -38 -15 -23 -43 -58 -60 -76 -18 -18
-33 -35 -33 -38 0 -11 49 32 67 58 10 16 24 28 31 28 6 0 12 5 12 10 0 6 7 10
15 10 8 0 15 -4 15 -10 0 -5 -4 -10 -10 -10 -5 0 -10 -13 -10 -29 0 -17 5 -33
10 -36 6 -3 10 -9 10 -14 0 -10 -84 -31 -128 -31 -20 0 -44 -4 -52 -10 -15 -9
-90 25 -90 42 0 4 -7 8 -16 8 -22 0 -53 32 -36 38 7 2 19 11 28 19 13 13 19
14 40 3 28 -16 42 -7 24 15 -22 27 -1 16 28 -15 16 -16 32 -30 36 -30 3 0 6
14 6 30 0 20 5 30 15 30 8 0 15 6 15 14 0 7 -7 19 -15 26 -12 10 -15 10 -15
-4 0 -24 -7 -22 -55 22 -19 17 -59 16 -52 -2 3 -8 -5 -27 -19 -43 -13 -15 -24
-33 -24 -39 0 -14 -30 -27 -39 -18 -3 4 0 9 7 11 6 3 12 11 12 18 0 7 -6 16
-12 18 -10 4 -9 8 2 16 8 5 11 13 7 17 -4 4 -14 -1 -21 -12 -8 -10 -10 -20 -5
-22 5 -2 9 -10 9 -17 0 -12 -84 -25 -109 -17 -16 5 0 32 19 32 9 0 34 11 54
25 20 14 41 25 46 25 6 0 10 5 10 10 0 6 9 10 19 10 11 0 21 4 23 8 9 22 75
41 123 35 28 -3 52 -10 53 -14z m-510 -96 c-10 -2 -18 -9 -18 -14 0 -5 -7 -9
-15 -9 -8 0 -15 4 -15 9 0 10 24 19 50 19 10 0 9 -2 -2 -5z m-452 -37 c8 -8
14 -19 14 -24 0 -6 3 -12 8 -14 4 -1 22 -22 40 -45 l32 -41 -14 -62 c-15 -63
-26 -87 -26 -57 0 26 -24 97 -32 97 -5 0 -8 15 -8 34 0 19 -3 36 -8 38 -4 2
-15 22 -24 46 -17 42 -9 54 18 28z m391 8 c-3 -3 -12 -4 -19 -1 -8 3 -5 6 6 6
11 1 17 -2 13 -5z m966 -1 c-7 -2 -19 -2 -25 0 -7 3 -2 5 12 5 14 0 19 -2 13
-5z m-1249 -58 c19 -19 36 -25 68 -25 31 0 39 -3 28 -10 -8 -5 -32 -10 -52
-10 -29 0 -41 6 -57 29 -34 47 -27 56 13 16z m223 19 c-3 -3 -12 -4 -19 -1 -8
3 -5 6 6 6 11 1 17 -2 13 -5z m-631 -166 c-3 -7 -11 -32 -18 -55 -7 -24 -16
-43 -20 -43 -4 0 -8 -16 -8 -35 0 -19 -4 -35 -10 -35 -5 0 -10 -13 -10 -30 0
-16 -4 -30 -10 -30 -5 0 -10 -7 -10 -15 0 -8 -4 -23 -9 -33 -13 -22 -51 -139
-58 -174 -3 -16 -9 -28 -14 -28 -5 0 -9 -13 -9 -30 0 -16 -4 -30 -10 -30 -5 0
-10 -13 -10 -28 0 -15 -5 -33 -10 -38 -6 -6 -16 -49 -22 -97 -8 -59 -16 -87
-25 -87 -7 0 -13 9 -13 20 0 11 -4 20 -10 20 -5 0 -10 16 -10 35 0 19 -4 35
-10 35 -5 0 -10 15 -10 34 0 19 5 38 10 41 6 3 10 13 10 22 0 14 32 91 61 145
5 10 9 25 9 33 0 8 5 15 10 15 6 0 10 9 10 20 0 11 5 20 10 20 6 0 10 11 10
25 0 14 4 25 8 25 10 0 62 117 62 138 0 6 5 12 10 12 6 0 10 6 10 14 0 11 41
98 65 137 9 14 27 11 21 -3z m1974 -58 c0 -33 -3 -40 -19 -40 -11 0 -28 -10
-38 -22 -10 -13 -34 -34 -53 -48 -19 -13 -43 -34 -53 -47 -26 -32 -37 -29 -37
12 0 28 4 35 20 35 11 0 20 4 20 10 0 5 10 12 23 15 13 4 47 33 77 66 29 32
55 59 57 59 2 0 3 -18 3 -40z m-995 -30 c19 -29 65 -43 65 -20 0 6 11 10 25
10 14 0 25 -6 25 -13 0 -23 41 -59 59 -51 9 4 24 6 34 6 24 -1 21 15 -9 44
-18 19 -31 24 -50 20 -13 -4 -24 -2 -24 4 0 11 19 13 120 11 35 -1 69 -6 74
-11 6 -6 18 -10 29 -10 30 0 46 -24 49 -74 2 -25 5 -46 8 -46 8 0 33 -61 27
-67 -9 -9 -147 70 -147 84 0 7 -9 13 -19 13 -11 0 -22 6 -24 13 -4 8 -6 7 -6
-4 -1 -16 -72 -79 -90 -79 -6 0 -11 -4 -11 -10 0 -5 -7 -10 -15 -10 -8 0 -15
3 -15 8 0 4 -10 19 -23 33 -61 71 -79 97 -94 127 -8 17 -20 32 -25 32 -5 0 -6
5 -3 10 10 16 19 12 40 -20z m-741 -237 c-10 -21 -21 -40 -24 -43 -10 -9 -80
-131 -80 -141 0 -5 -4 -9 -10 -9 -5 0 -10 -9 -10 -20 0 -11 -4 -20 -10 -20 -5
0 -10 -8 -10 -18 0 -10 -4 -22 -9 -27 -10 -11 -28 -99 -40 -190 -8 -66 -18
-95 -32 -95 -13 0 -11 34 3 48 9 9 9 12 0 12 -7 0 -12 13 -12 29 0 17 -4 33
-10 36 -5 3 -10 17 -10 30 0 43 -21 75 -49 75 -26 0 -26 0 12 36 34 33 37 39
37 92 0 111 -22 129 -77 65 -34 -39 -40 -53 -23 -53 6 0 10 -18 10 -39 0 -22
5 -43 10 -46 20 -12 10 -25 -19 -25 -16 0 -31 -4 -33 -9 -1 -4 -13 -12 -25
-15 -17 -5 -23 -3 -23 8 0 8 5 18 10 21 6 3 10 24 10 46 0 21 5 39 10 39 6 0
10 9 10 19 0 11 9 23 20 26 11 3 20 10 20 15 0 17 75 87 85 79 69 -56 90 -91
63 -102 -10 -4 -10 -6 0 -6 7 -1 15 6 18 14 4 8 15 15 26 15 11 0 34 15 52 34
43 46 50 56 66 94 8 17 18 32 22 32 5 0 8 7 8 15 0 9 6 22 13 29 20 23 21 -8
1 -51z m-451 0 c-11 -16 -33 -55 -49 -88 -16 -33 -32 -61 -36 -63 -5 -2 -8
-17 -8 -33 0 -16 -4 -29 -10 -29 -5 0 -10 -11 -10 -24 0 -26 -52 -72 -69 -62
-10 7 -2 56 10 56 5 0 9 9 9 20 0 13 -9 21 -27 25 -16 4 -36 10 -45 16 -10 5
-25 9 -34 9 -15 0 -44 23 -44 34 0 10 39 6 45 -4 3 -5 21 -10 39 -10 19 0 41
-9 55 -21 26 -24 31 -20 53 39 7 17 16 32 20 32 4 0 8 6 8 13 0 11 10 25 77
105 32 37 44 26 16 -15z m1953 -57 c16 -16 19 -46 5 -46 -5 0 -12 -19 -15 -42
-24 -160 -23 -155 -25 -116 0 20 -5 40 -11 43 -5 3 -10 19 -10 36 0 16 5 29
10 29 6 0 10 22 10 48 0 62 9 74 36 48z m-546 -16 c0 -5 5 -10 10 -10 10 0 20
-7 53 -36 28 -24 51 -32 74 -23 39 14 102 -5 137 -43 45 -48 66 -84 66 -112 0
-14 5 -28 10 -31 6 -3 10 -31 10 -61 0 -40 -4 -54 -14 -54 -8 0 -17 -9 -21
-20 -6 -18 -16 -19 -192 -20 -164 0 -187 -2 -202 -17 -14 -16 -35 -18 -166
-18 -82 0 -192 -3 -243 -7 -83 -7 -92 -6 -78 7 10 10 36 15 85 15 41 0 71 4
71 10 0 6 11 10 25 10 14 0 25 5 25 10 0 6 22 10 49 10 26 0 61 4 77 9 16 6
81 13 144 17 160 9 181 9 213 0 23 -7 27 -5 27 11 0 11 -8 28 -17 39 -26 28
-73 102 -73 114 0 5 -4 10 -10 10 -5 0 -10 7 -10 15 0 8 -4 15 -10 15 -5 0
-10 6 -10 13 0 16 -58 87 -72 87 -13 0 -47 41 -48 58 0 8 15 12 45 12 25 0 45
-4 45 -10z m-2100 -24 c0 -8 -3 -16 -7 -18 -10 -4 -53 -86 -53 -99 0 -5 -11
-27 -25 -49 -28 -44 -31 -70 -13 -88 10 -10 10 -15 -1 -22 -12 -7 -12 -10 0
-22 8 -8 20 -17 27 -19 8 -3 5 -18 -13 -53 -14 -27 -25 -55 -25 -63 0 -7 -4
-13 -10 -13 -5 0 -10 -4 -10 -9 0 -5 -16 -44 -35 -85 -19 -42 -35 -82 -35 -90
0 -8 -3 -16 -7 -18 -5 -1 -25 -38 -46 -80 -37 -74 -41 -78 -72 -78 -36 0 -49
-12 -58 -50 -3 -14 -9 -38 -13 -55 -7 -29 -34 -58 -133 -144 -28 -25 -54 -55
-57 -68 -4 -13 -11 -23 -16 -23 -10 0 -38 -25 -38 -35 0 -17 -84 -135 -96
-135 -21 0 -18 6 41 91 30 43 55 82 55 86 0 13 42 56 85 88 77 57 135 118 135
141 0 13 5 26 10 29 6 3 10 19 10 35 0 29 47 142 62 148 4 2 8 12 8 22 0 10 5
22 10 25 6 3 10 15 10 26 0 10 5 19 10 19 6 0 10 7 10 15 0 21 33 95 42 95 5
0 8 9 8 19 0 11 5 23 10 26 6 3 10 15 10 26 0 10 4 19 8 19 5 0 21 29 37 65
15 36 31 65 36 65 12 0 11 34 -1 46 -12 12 6 64 22 64 4 0 8 9 8 20 0 11 3 20
8 20 4 0 15 21 25 48 11 26 24 57 30 70 11 24 47 30 47 8z m1846 -61 c-8 -8
-20 -15 -26 -15 -16 0 -61 -31 -92 -62 -14 -16 -30 -28 -36 -28 -5 0 -15 -7
-22 -15 -7 -8 -18 -15 -24 -15 -6 0 13 23 43 50 30 28 60 50 68 50 7 0 13 7
13 16 0 10 6 14 15 10 8 -3 15 -1 15 4 0 7 13 12 53 19 5 0 2 -6 -7 -14z
m1674 -2 c0 -5 -7 -17 -15 -27 -15 -20 -20 -10 -9 18 6 16 24 22 24 9z m-1416
-66 c15 -19 26 -39 26 -45 0 -7 5 -12 10 -12 6 0 10 -8 10 -18 0 -10 3 -22 7
-26 11 -11 32 -80 26 -86 -3 -3 -8 0 -10 6 -3 8 -23 10 -58 7 -52 -5 -54 -4
-71 28 -15 29 -39 56 -92 100 -10 8 -17 8 -25 0 -14 -14 -27 -14 -27 -1 0 6 6
10 14 10 8 0 16 4 18 9 5 13 99 59 125 60 14 1 31 -11 47 -32z m365 16 c17
-10 31 -21 31 -25 0 -5 7 -8 15 -8 8 0 15 -4 15 -8 0 -4 14 -16 30 -25 17 -10
30 -24 30 -32 0 -8 8 -20 18 -27 12 -9 17 -28 18 -63 3 -103 29 -145 91 -145
l33 0 -1 -137 c-1 -76 -4 -129 -6 -118 -3 11 -9 25 -13 30 -4 6 -8 33 -9 60
-2 90 -31 135 -85 135 -8 0 -27 7 -42 15 -16 8 -36 15 -44 15 -8 0 -26 9 -40
20 -14 11 -31 20 -37 20 -15 0 -18 40 -3 40 6 0 10 -4 10 -10 0 -5 14 -10 31
-10 17 0 38 -4 47 -9 9 -4 29 -11 44 -15 22 -5 26 -3 22 9 -4 8 -12 15 -20 15
-17 0 -19 17 -3 22 9 3 9 9 0 25 -6 12 -11 40 -11 63 0 40 -17 70 -39 70 -6 0
-11 5 -11 10 0 6 -7 10 -15 10 -8 0 -15 4 -15 8 0 5 -15 17 -34 27 -33 18 -65
55 -47 55 5 0 23 -8 40 -17z m-959 -23 c0 -5 -12 -10 -27 -9 l-28 1 25 8 c14
4 26 8 28 9 1 1 2 -3 2 -9z m1973 -41 c-8 -29 -13 -23 -13 14 0 22 3 28 9 18
5 -7 6 -22 4 -32z m-1883 15 c0 -2 -12 -4 -27 -4 -21 0 -24 3 -14 9 13 8 41 5
41 -5z m287 -30 c-3 -3 -12 -4 -19 -1 -8 3 -5 6 6 6 11 1 17 -2 13 -5z m1633
-24 c0 -5 -4 -10 -10 -10 -5 0 -10 5 -10 10 0 6 5 10 10 10 6 0 10 -4 10 -10z
m-3323 -16 c-3 -3 -12 -4 -19 -1 -8 3 -5 6 6 6 11 1 17 -2 13 -5z m307 -61
c-13 -31 -17 -114 -5 -126 6 -6 11 -23 11 -38 0 -15 5 -31 10 -34 6 -3 10 -26
10 -50 0 -24 5 -47 10 -50 15 -10 12 -52 -5 -59 -17 -6 -45 2 -45 14 0 6 -52
30 -66 30 -2 0 -4 -16 -4 -35 0 -19 -4 -35 -10 -35 -5 0 -10 -11 -10 -24 0
-13 -9 -45 -20 -71 -11 -25 -22 -73 -24 -106 -5 -57 -4 -59 20 -59 23 0 28 -9
25 -37 -3 -24 71 -15 103 12 16 14 35 25 43 25 7 0 13 5 13 10 0 6 7 10 15 10
8 0 15 5 15 10 0 6 6 10 14 10 8 0 16 3 18 8 2 4 30 21 63 37 33 17 62 33 65
36 3 3 20 12 38 20 17 8 32 17 32 21 0 5 6 8 14 8 7 0 34 11 60 25 53 28 91
35 66 11 -16 -14 -123 -74 -245 -136 -38 -19 -72 -38 -75 -41 -3 -4 -27 -19
-55 -34 -27 -16 -57 -35 -65 -44 -8 -9 -33 -29 -55 -46 -22 -16 -51 -41 -65
-55 -14 -15 -50 -43 -80 -63 -30 -20 -60 -41 -67 -47 -7 -5 -15 -10 -19 -10
-4 0 -14 -8 -23 -18 -20 -21 -97 -72 -110 -72 -5 0 -11 -3 -13 -8 -8 -18 -134
-102 -147 -97 -30 11 -51 -5 -51 -40 0 -18 -4 -35 -9 -37 -11 -4 -32 -234 -24
-271 4 -22 -2 -39 -28 -75 -41 -57 -71 -92 -78 -92 -3 0 -14 46 -24 103 -10
56 -22 116 -27 133 -6 17 -10 44 -10 62 0 17 -4 34 -10 37 -18 11 -12 75 8 82
9 4 31 18 48 32 40 33 60 49 109 86 22 16 42 33 43 37 2 4 10 8 18 8 8 0 14 4
14 8 0 5 12 15 28 23 15 8 29 16 32 20 18 20 80 59 93 59 10 0 17 5 17 10 0 6
5 10 11 10 24 0 59 62 59 105 0 14 5 25 10 25 6 0 10 11 10 25 0 14 5 25 10
25 6 0 10 18 10 40 0 22 8 54 18 72 10 18 24 47 31 65 12 30 11 33 -22 66 -27
27 -33 41 -30 61 3 14 9 26 14 26 5 0 9 8 9 18 0 10 4 22 9 28 4 5 16 33 27
62 13 37 23 52 36 52 23 0 67 -42 50 -48 -7 -2 -12 -14 -12 -27 0 -13 -4 -27
-10 -30 -5 -3 -10 -17 -10 -30 0 -13 -4 -25 -9 -27 -4 -1 -10 -26 -13 -55 -4
-44 -2 -52 14 -56 11 -3 22 2 28 13 13 24 41 125 48 170 2 19 10 38 16 43 7 4
8 10 1 15 -23 17 -31 45 -21 69 6 12 14 23 19 23 4 0 7 9 7 19 0 11 4 21 8 23
4 2 23 38 41 81 20 46 40 77 48 77 11 0 13 -5 7 -17z m3016 7 c0 -5 -7 -10
-15 -10 -8 0 -15 5 -15 10 0 6 7 10 15 10 8 0 15 -4 15 -10z m-11 -46 c-8 -9
-8 -18 -2 -26 13 -17 16 -98 3 -98 -6 0 -10 17 -10 38 0 20 -3 54 -6 75 -6 32
-4 37 10 31 13 -5 14 -9 5 -20z m431 -39 c0 -8 -4 -15 -9 -15 -5 0 -11 -10
-14 -22 -3 -22 -4 -22 -12 -4 -6 13 -5 21 3 24 7 2 12 10 12 18 0 8 5 14 10
14 6 0 10 -7 10 -15z m-3230 -54 c0 -22 -4 -43 -10 -46 -5 -3 -10 -32 -10 -64
0 -31 -4 -61 -9 -66 -5 -6 -11 -21 -14 -35 -2 -14 -5 1 -6 32 0 31 3 59 8 63
5 3 9 34 9 69 0 35 3 69 6 75 14 23 26 10 26 -28z m1733 -6 c21 -9 23 -25 2
-25 -8 0 -15 -4 -15 -10 0 -5 -6 -10 -12 -10 -12 0 -71 -21 -160 -58 -21 -8
-38 -19 -38 -24 0 -4 -10 -8 -22 -8 -13 0 -47 26 -89 69 l-69 70 38 4 c55 7
344 1 365 -8z m1112 -34 c3 -5 1 -12 -5 -16 -5 -3 -10 1 -10 9 0 18 6 21 15 7z
m-2082 -8 c-7 -2 -19 -2 -25 0 -7 3 -2 5 12 5 14 0 19 -2 13 -5z m2523 -8 c-8
-8 -17 -15 -20 -15 -3 0 -22 -11 -42 -25 -20 -14 -45 -25 -55 -25 -24 0 -33
-17 -30 -61 1 -21 -3 -40 -9 -44 -5 -3 -10 -21 -10 -40 0 -19 -4 -37 -10 -40
-5 -3 -10 -26 -10 -50 0 -24 -4 -47 -10 -50 -5 -3 -10 -28 -10 -55 0 -28 -5
-70 -12 -95 -12 -44 -13 -45 -53 -45 -23 0 -45 4 -50 9 -6 5 -35 11 -66 14
-74 6 -81 10 -64 45 13 28 32 271 26 340 -1 6 -12 12 -26 12 -39 0 -30 15 18
30 23 7 53 24 68 37 28 26 45 29 52 11 4 -9 8 -10 14 -2 4 6 28 14 53 17 25 4
68 12 95 17 56 12 133 27 153 29 10 1 10 -3 -2 -14z m-2772 -28 c7 -7 15 -32
18 -57 4 -25 4 -37 1 -27 -5 19 -20 22 -42 8 -10 -6 -12 -23 -8 -62 3 -30 4
-45 1 -34 -3 11 -10 24 -15 30 -5 5 -9 17 -9 26 0 10 -9 24 -21 32 -28 20 -61
10 -132 -37 -30 -20 -41 -18 -31 8 3 9 17 16 30 16 13 0 24 5 24 10 0 6 7 10
15 10 8 0 15 5 15 10 0 6 8 10 19 10 19 0 93 46 99 61 5 13 21 11 36 -4z m923
-73 c-3 -3 -12 -4 -19 -1 -8 3 -5 6 6 6 11 1 17 -2 13 -5z m-47 -29 c-7 -9
-15 -13 -17 -11 -6 6 20 36 26 30 2 -2 -2 -10 -9 -19z m430 -45 c11 -14 20
-40 20 -57 0 -22 7 -37 20 -45 28 -18 25 -28 -10 -28 -17 0 -41 9 -53 21 -15
13 -29 18 -42 13 -11 -3 -39 -9 -63 -11 -36 -4 -48 -1 -68 18 -13 12 -24 27
-24 31 0 13 -20 32 -49 47 -12 7 -20 16 -16 19 11 11 106 20 188 18 71 -1 80
-4 97 -26z m-2034 -40 c19 0 34 4 34 8 0 4 14 13 31 19 31 12 79 1 79 -19 0
-4 12 -8 28 -8 30 -1 62 -21 62 -39 0 -15 -22 -14 -46 4 -10 8 -38 15 -61 15
-24 0 -43 5 -43 10 0 17 -20 11 -46 -15 -14 -14 -32 -25 -41 -25 -30 0 -53 31
-52 69 1 36 1 36 11 9 8 -23 16 -28 44 -28z m1564 34 c0 -8 -4 -12 -10 -9 -5
3 -10 10 -10 16 0 5 5 9 10 9 6 0 10 -7 10 -16z m110 -4 c0 -5 -5 -10 -11 -10
-5 0 -7 5 -4 10 3 6 8 10 11 10 2 0 4 -4 4 -10z m-1263 -22 c-3 -8 -6 -5 -6 6
-1 11 2 17 5 13 3 -3 4 -12 1 -19z m313 -24 c0 -8 -5 -12 -10 -9 -6 4 -8 11
-5 16 9 14 15 11 15 -7z m770 6 c0 -5 -4 -10 -10 -10 -5 0 -10 5 -10 10 0 6 5
10 10 10 6 0 10 -4 10 -10z m-40 -30 c0 -13 -7 -20 -20 -20 -23 0 -25 5 -7 25
17 20 27 18 27 -5z m-620 -35 c0 -9 -9 -15 -22 -15 -22 1 -23 1 -4 15 25 19
26 19 26 0z m-40 -110 l-1 -40 -14 40 c-8 22 -15 48 -15 58 0 9 -4 17 -10 17
-5 0 -10 6 -10 13 1 6 12 -1 25 -18 18 -21 25 -42 25 -70z m-865 14 c10 -29 3
-30 -23 -3 -22 23 -22 24 -3 24 11 0 23 -9 26 -21z m1960 -39 c3 -5 18 -10 33
-10 15 0 47 -6 72 -14 l45 -13 -40 -6 c-22 -4 -67 -11 -100 -17 -33 -6 -80
-13 -105 -16 -25 -3 -49 -10 -54 -15 -6 -5 -26 -9 -46 -9 -20 0 -40 -4 -45 -9
-6 -4 -28 -13 -50 -18 -22 -6 -49 -14 -60 -18 -14 -6 -11 0 10 18 17 15 36 27
43 27 6 0 12 4 12 8 0 16 97 62 129 62 17 0 31 5 31 10 0 6 9 10 20 10 11 0
20 5 20 10 0 6 18 10 39 10 22 0 43 -4 46 -10z m315 -116 c0 -14 -8 -15 -52
-10 -29 3 -79 7 -110 8 -105 2 -60 18 52 18 95 0 110 -2 110 -16z m-1307 -19
c15 -2 27 0 27 5 0 6 5 10 10 10 6 0 10 -11 10 -25 0 -18 -5 -25 -19 -25 -11
0 -23 5 -26 10 -3 6 -19 10 -36 10 -20 0 -29 5 -29 16 0 11 5 14 18 9 9 -4 29
-8 45 -10z m2353 -26 c16 -13 19 -55 5 -63 -5 -3 -11 -23 -14 -43 -3 -21 -9
-52 -12 -70 l-7 -32 -39 25 c-47 30 -69 31 -69 3 0 -11 -6 -27 -14 -35 -8 -7
-22 -35 -31 -61 -10 -27 -28 -71 -41 -99 -13 -28 -24 -61 -24 -72 0 -12 -4
-22 -10 -22 -19 0 -10 -32 10 -37 11 -3 20 -9 20 -13 0 -5 9 -11 19 -15 23 -7
36 -36 21 -45 -12 -8 -29 -63 -37 -120 -2 -19 -8 -44 -13 -55 -5 -11 -11 -38
-13 -60 -2 -22 -7 -48 -11 -57 -11 -24 14 -24 40 1 11 10 30 21 41 25 11 4 31
15 43 26 13 11 31 20 41 20 9 0 20 6 22 13 4 9 6 9 6 0 1 -7 -18 -25 -41 -39
-24 -15 -44 -31 -46 -35 -2 -5 -8 -9 -14 -9 -22 0 -140 -93 -149 -118 -2 -6
-37 -11 -78 -13 -62 -3 -75 -1 -85 14 -8 13 -8 19 2 26 10 6 10 14 -2 42 -13
31 -20 73 -17 108 1 21 30 -18 31 -41 0 -10 5 -18 10 -18 6 0 10 -9 10 -20 0
-23 38 -70 57 -70 7 0 13 3 13 8 0 4 15 13 33 20 57 23 62 28 63 63 1 47 37
199 46 199 4 0 8 9 8 20 0 26 -27 26 -35 0 -7 -23 -16 -25 -34 -7 -11 10 -14
10 -18 0 -6 -16 -133 -18 -133 -3 0 6 -5 10 -11 10 -6 0 -24 9 -41 21 -29 21
-52 19 -30 -3 15 -15 16 -88 2 -88 -5 0 -10 9 -10 19 0 11 -4 23 -10 26 -5 3
-10 17 -10 30 0 13 -4 27 -10 30 -5 3 -10 17 -10 30 0 13 -5 25 -12 27 -7 3
-9 12 -4 24 7 18 8 18 27 -5 l19 -24 19 22 c10 11 23 21 28 21 17 0 85 72 79
85 -2 7 1 18 8 24 13 11 56 4 56 -10 0 -5 8 -9 18 -9 12 0 26 22 47 70 17 38
33 70 38 70 4 0 6 12 5 28 -2 32 36 82 63 82 29 0 31 18 5 41 -25 22 -26 25
-10 128 l5 34 86 -6 c47 -3 91 -11 99 -18z m-2015 -29 c10 0 19 -4 19 -10 0
-5 5 -10 10 -10 6 0 53 -20 104 -45 52 -25 101 -45 110 -45 9 0 16 -4 16 -10
0 -5 11 -10 25 -10 14 0 25 -4 25 -10 0 -5 17 -12 38 -15 20 -4 53 -14 72 -23
19 -8 56 -17 83 -20 26 -2 47 -8 47 -13 0 -5 12 -9 26 -9 14 0 23 -4 19 -10
-3 -5 -15 -10 -26 -10 -10 0 -19 5 -19 10 0 6 -46 10 -119 10 -69 0 -122 4
-126 10 -3 6 -17 10 -31 10 -14 0 -32 6 -39 14 -8 7 -34 20 -59 27 -26 7 -46
17 -46 21 0 4 -9 8 -20 8 -11 0 -20 5 -20 10 0 6 -6 10 -14 10 -8 0 -43 16
-78 37 -34 20 -73 41 -85 47 -31 15 -29 26 6 26 16 0 31 -3 34 -7 2 -5 2 -3 1
4 -3 14 19 24 24 12 2 -5 12 -9 23 -9z m2346 -37 c-3 -10 -5 -2 -5 17 0 19 2
27 5 18 2 -10 2 -26 0 -35z m-22 -72 c-4 -28 -11 -53 -16 -57 -5 -3 -9 -21 -9
-40 0 -19 -4 -34 -10 -34 -5 0 -10 -9 -10 -21 0 -11 -4 -17 -10 -14 -16 10
-12 42 10 87 11 23 20 50 20 59 0 10 5 21 10 24 6 3 10 18 10 32 0 15 3 24 6
20 3 -3 3 -29 -1 -56z m-4917 -119 c-24 -56 -75 -152 -80 -152 -5 0 -8 11 -8
25 0 14 5 25 10 25 6 0 10 6 10 13 0 22 45 97 58 97 8 0 12 -3 10 -8z m67 -31
c-4 -17 -11 -31 -16 -31 -5 0 -9 -7 -9 -16 0 -15 -23 -44 -34 -44 -3 0 -6 9
-6 20 0 11 5 20 10 20 6 0 10 7 10 15 0 8 5 15 10 15 6 0 10 7 10 15 0 16 22
46 28 40 2 -2 1 -17 -3 -34z m4241 -19 c-11 -11 -16 -12 -16 -4 0 18 24 43 29
30 2 -5 -4 -17 -13 -26z m-46 -67 c-7 -8 -16 -15 -21 -15 -5 0 -9 7 -9 15 0 9
9 15 21 15 18 0 19 -2 9 -15z m565 -228 c4 -57 3 -122 -4 -167 -16 -99 -5
-185 25 -215 30 -30 30 -37 2 -34 -25 4 -118 -31 -118 -43 0 -5 -18 -8 -40 -8
l-40 0 0 -40 c0 -23 -7 -55 -16 -73 -11 -21 -17 -57 -17 -112 0 -44 -3 -89 -8
-100 -6 -15 -8 -9 -8 23 -1 23 -5 42 -11 42 -5 0 -10 9 -10 20 0 13 -7 20 -20
20 -18 0 -19 2 -8 20 7 11 21 23 30 26 12 3 18 16 18 35 0 16 4 29 9 29 4 0
11 24 14 53 4 28 16 77 27 107 11 30 20 63 20 72 0 10 5 18 10 18 6 0 10 10
10 22 0 12 2 19 5 16 3 -3 1 -40 -3 -82 -5 -42 -5 -79 0 -82 4 -3 26 5 48 17
l40 23 1 105 c1 58 1 112 0 119 -1 6 3 12 9 12 5 0 10 8 10 18 0 10 5 23 11
29 11 11 -7 53 -23 53 -5 0 -8 32 -8 70 0 40 4 70 10 70 6 0 10 7 10 15 0 8 4
15 9 15 5 0 12 -42 16 -93z m-1375 -47 c9 0 34 -8 56 -19 21 -10 56 -25 78
-32 39 -14 57 -36 39 -48 -6 -3 -13 -16 -17 -28 -7 -23 -26 -32 -26 -13 0 6
-9 10 -20 10 -11 0 -20 3 -20 8 0 4 -15 14 -32 21 -18 8 -62 28 -97 44 -37 18
-66 26 -70 20 -3 -5 -25 -14 -48 -20 -34 -9 -40 -8 -36 3 3 8 18 14 34 14 16
0 29 5 29 13 0 6 10 24 22 38 l21 25 36 -18 c19 -10 42 -18 51 -18z m550 -207
c0 -5 -5 -15 -10 -23 -8 -12 -10 -11 -10 8 0 12 5 22 10 22 6 0 10 -3 10 -7z
m-3953 -75 c-3 -8 -6 -5 -6 6 -1 11 2 17 5 13 3 -3 4 -12 1 -19z m3863 -38 c0
-5 9 -10 19 -10 34 0 34 -60 0 -90 -3 -3 -8 -13 -12 -22 -3 -10 -15 -18 -26
-18 -11 0 -26 -6 -33 -13 -7 -7 -28 -20 -45 -28 -18 -7 -33 -17 -33 -21 0 -5
-9 -8 -20 -8 -11 0 -20 -4 -20 -10 0 -15 -60 -12 -76 4 -15 16 -19 46 -6 46
10 0 54 35 104 83 44 41 50 43 68 22 19 -22 36 -18 59 14 25 35 26 41 5 41 -8
0 -12 5 -9 10 3 6 10 10 16 10 5 0 9 -4 9 -10z m-656 -56 c-8 -31 7 -44 54
-44 17 0 32 -4 32 -10 0 -5 7 -10 16 -10 9 0 29 -10 46 -21 41 -30 18 -42 -32
-18 -22 11 -45 19 -52 19 -7 0 -28 9 -47 21 -19 11 -37 16 -40 11 -3 -5 -16
-14 -28 -21 -20 -10 -23 -9 -23 7 0 10 7 27 15 38 8 10 15 27 15 37 0 11 8 17
25 17 22 0 25 -3 19 -26z m1526 -109 c0 -14 -3 -25 -8 -25 -4 0 -15 -12 -23
-26 -15 -25 -16 -25 -21 -6 -6 20 28 81 45 82 4 0 7 -11 7 -25z m-460 7 c0
-14 -23 -32 -42 -32 -10 0 -18 -4 -18 -10 0 -5 -11 -10 -25 -10 -14 0 -25 -4
-25 -10 0 -5 17 -10 38 -11 32 0 34 -1 14 -9 -16 -7 -35 -5 -62 6 -34 14 -37
18 -25 30 7 8 23 14 34 14 12 0 21 5 21 10 0 6 9 10 19 10 11 0 23 5 26 10 7
12 45 14 45 2z m-290 -62 c0 -5 -2 -10 -4 -10 -3 0 -8 5 -11 10 -3 6 -1 10 4
10 6 0 11 -4 11 -10z m280 0 c0 -5 -4 -10 -10 -10 -5 0 -10 5 -10 10 0 6 5 10
10 10 6 0 10 -4 10 -10z m-313 -16 c-3 -3 -12 -4 -19 -1 -8 3 -5 6 6 6 11 1
17 -2 13 -5z m-176 -74 c15 -7 32 -23 38 -36 18 -41 -7 -38 -54 8 -46 45 -58
65 -27 49 9 -5 29 -14 43 -21z"/>
<path d="M3780 7000 c0 -5 5 -10 10 -10 6 0 10 5 10 10 0 6 -4 10 -10 10 -5 0
-10 -4 -10 -10z"/>
<path d="M3710 6715 c0 -8 7 -15 16 -15 14 0 14 3 4 15 -7 8 -14 15 -16 15 -2
0 -4 -7 -4 -15z"/>
<path d="M3802 6675 c0 -16 2 -22 5 -12 2 9 2 23 0 30 -3 6 -5 -1 -5 -18z"/>
<path d="M3797 6590 c-7 -26 -4 -34 11 -29 4 2 5 15 2 29 l-6 25 -7 -25z"/>
<path d="M3621 6554 c0 -11 3 -14 6 -6 3 7 2 16 -1 19 -3 4 -6 -2 -5 -13z"/>
<path d="M3890 6550 c0 -5 5 -10 10 -10 6 0 10 5 10 10 0 6 -4 10 -10 10 -5 0
-10 -4 -10 -10z"/>
<path d="M3951 6444 c0 -11 3 -14 6 -6 3 7 2 16 -1 19 -3 4 -6 -2 -5 -13z"/>
<path d="M3272 7100 c0 -14 2 -19 5 -12 2 6 2 18 0 25 -3 6 -5 1 -5 -13z"/>
<path d="M3230 6861 c0 -11 5 -23 10 -26 6 -4 10 5 10 19 0 14 -4 26 -10 26
-5 0 -10 -9 -10 -19z"/>
<path d="M5313 5063 c15 -2 37 -2 50 0 12 2 0 4 -28 4 -27 0 -38 -2 -22 -4z"/>
<path d="M5390 5041 c0 -5 7 -14 15 -21 12 -10 15 -10 15 3 0 8 -7 17 -15 21
-8 3 -15 2 -15 -3z"/>
<path d="M5345 5000 c-3 -5 1 -10 10 -10 9 0 13 5 10 10 -3 6 -8 10 -10 10 -2
0 -7 -4 -10 -10z"/>
<path d="M5730 4985 c0 -8 5 -15 10 -15 6 0 10 7 10 15 0 8 -4 15 -10 15 -5 0
-10 -7 -10 -15z"/>
<path d="M4235 4660 c3 -5 8 -10 11 -10 2 0 4 5 4 10 0 6 -5 10 -11 10 -5 0
-7 -4 -4 -10z"/>
<path d="M4270 4643 c8 -4 22 -14 30 -23 8 -10 31 -20 50 -24 19 -3 28 -3 20
1 -8 3 -17 9 -20 12 -10 12 -69 41 -82 40 -9 0 -9 -2 2 -6z"/>
<path d="M4395 4564 c17 -17 35 -18 35 -1 0 6 -11 13 -25 13 -21 2 -22 0 -10
-12z"/>
<path d="M4350 4474 c0 -14 3 -15 18 -3 9 7 19 15 21 16 2 2 -5 3 -17 3 -14 0
-22 -6 -22 -16z"/>
<path d="M4411 4443 c-6 -7 -11 -15 -11 -18 0 -9 59 -5 65 5 3 6 15 10 26 10
10 0 19 4 19 9 0 14 -85 8 -99 -6z"/>
<path d="M4525 4450 c-3 -5 -1 -10 4 -10 6 0 11 5 11 10 0 6 -2 10 -4 10 -3 0
-8 -4 -11 -10z"/>
<path d="M4320 4405 c-17 -20 5 -20 40 0 l25 14 -26 1 c-15 0 -32 -7 -39 -15z"/>
<path d="M4240 4381 c-76 -15 -133 -51 -80 -51 11 0 20 5 20 10 0 6 9 10 19
10 11 0 23 5 26 10 3 6 19 10 36 10 16 0 29 5 29 10 0 6 -3 9 -7 9 -5 -1 -24
-5 -43 -8z"/>
<path d="M3878 4173 c7 -3 16 -2 19 1 4 3 -2 6 -13 5 -11 0 -14 -3 -6 -6z"/>
<path d="M4283 3764 c-15 -15 -17 -34 -4 -34 8 0 24 41 18 46 -1 1 -8 -4 -14
-12z"/>
<path d="M4008 3353 c7 -3 16 -2 19 1 4 3 -2 6 -13 5 -11 0 -14 -3 -6 -6z"/>
<path d="M3890 3325 c0 -8 2 -15 4 -15 2 0 6 7 10 15 3 8 1 15 -4 15 -6 0 -10
-7 -10 -15z"/>
<path d="M3882 2928 c-17 -17 -15 -26 6 -31 16 -4 16 -5 0 -6 -10 0 -18 -8
-18 -16 0 -11 8 -13 30 -8 20 4 30 2 30 -7 0 -7 -8 -10 -20 -7 -23 6 -25 1 -6
-18 13 -13 60 -14 73 -2 7 7 -22 37 -35 37 -14 0 -44 49 -37 60 9 14 -9 12
-23 -2z"/>
<path d="M3840 2909 c0 -5 5 -7 10 -4 6 3 10 8 10 11 0 2 -4 4 -10 4 -5 0 -10
-5 -10 -11z"/>
<path d="M2821 2410 c0 -14 6 -36 15 -49 14 -20 18 -21 25 -8 11 19 1 47 -16
47 -8 0 -16 8 -18 18 -3 11 -5 9 -6 -8z"/>
<path d="M4130 2522 c0 -10 9 -27 20 -37 17 -16 21 -16 35 -2 17 17 21 57 5
57 -5 0 -10 -7 -10 -15 0 -19 -14 -19 -34 1 -15 14 -16 14 -16 -4z"/>
<path d="M3910 2467 c0 -11 39 -52 44 -46 2 2 -7 15 -20 29 -13 13 -24 21 -24
17z"/>
<path d="M4020 2426 c0 -2 7 -9 15 -16 12 -10 15 -10 15 4 0 9 -7 16 -15 16
-8 0 -15 -2 -15 -4z"/>
<path d="M3968 2403 c6 -2 12 -11 12 -20 0 -8 6 -21 14 -28 12 -12 15 -12 20
2 8 19 -21 53 -43 52 -10 0 -12 -2 -3 -6z"/>
<path d="M4050 2350 c0 -5 5 -10 10 -10 6 0 10 5 10 10 0 6 -4 10 -10 10 -5 0
-10 -4 -10 -10z"/>
<path d="M2298 1633 c-10 -2 -18 -9 -18 -14 0 -14 16 -11 30 6 7 8 11 14 9 14
-2 -1 -12 -3 -21 -6z"/>
<path d="M2212 1595 c-12 -19 -18 -35 -14 -35 14 0 52 40 52 55 0 24 -14 17
-38 -20z"/>
<path d="M520 7976 l0 -76 304 0 c359 0 376 -3 376 -75 0 -72 -9 -74 -367 -67
l-313 5 0 -75 0 -76 123 -7 c67 -4 216 -5 332 -3 208 3 210 3 257 30 68 41 91
84 96 182 5 105 -19 156 -92 201 l-49 30 -334 3 -333 3 0 -75z"/>
<path d="M520 7830 l0 -40 323 2 322 3 0 30 0 30 -150 6 c-82 4 -228 7 -322 8
l-173 1 0 -40z"/>
<path d="M520 7190 l0 -60 180 0 180 0 0 -33 0 -33 -162 -18 c-198 -21 -198
-21 -198 -50 0 -22 4 -23 43 -19 60 5 713 53 732 53 13 0 15 18 15 110 l0 110
-395 0 -395 0 0 -60z"/>
<path d="M520 7077 l0 -23 138 16 137 15 -70 6 c-38 4 -100 7 -137 8 -64 1
-68 0 -68 -22z"/>
<path d="M520 6890 c0 -27 2 -28 90 -39 50 -6 131 -16 180 -22 90 -12 90 -12
90 -40 l0 -29 -180 0 -181 0 3 -62 3 -63 393 -3 392 -2 0 108 0 108 -332 28
c-183 15 -361 31 -395 35 l-63 7 0 -26z"/>
<path d="M520 6810 c0 -19 6 -20 148 -19 l147 1 -130 18 c-169 24 -165 24
-165 0z"/>
<path d="M520 6190 l0 -80 110 0 110 0 0 -75 0 -75 50 0 50 0 0 75 0 75 175 0
175 0 0 -100 0 -100 60 0 60 0 0 173 0 174 -142 6 c-79 4 -257 7 -395 7 l-253
0 0 -80z"/>
<path d="M4580 5720 c0 -5 -10 -10 -22 -10 -13 -1 -34 -7 -48 -15 -14 -8 -35
-14 -47 -15 -13 0 -23 -4 -23 -10 0 -5 -15 -10 -32 -10 -18 0 -64 -11 -103
-25 -38 -13 -78 -25 -87 -25 -10 0 -18 -4 -18 -10 0 -5 -14 -10 -30 -10 -17 0
-38 -4 -48 -9 -28 -14 -114 -43 -164 -55 -25 -6 -50 -14 -54 -19 -4 -4 -18 -7
-30 -7 -13 0 -26 -4 -29 -10 -3 -5 -17 -10 -31 -10 -13 0 -24 -4 -24 -10 0 -5
-15 -10 -34 -10 -19 0 -38 -4 -41 -10 -3 -5 -20 -10 -37 -10 -33 0 -131 -30
-136 -42 -2 -5 -19 -8 -38 -8 -19 0 -34 -4 -34 -10 0 -5 -18 -10 -40 -10 -22
0 -40 -4 -40 -10 0 -5 -8 -10 -18 -10 -10 0 -38 -10 -63 -21 -24 -12 -63 -24
-86 -27 -24 -2 -43 -9 -43 -13 0 -5 -9 -9 -19 -9 -11 0 -23 -4 -26 -10 -3 -5
-24 -10 -46 -10 -21 0 -39 -4 -39 -8 0 -5 -33 -16 -72 -26 -40 -11 -77 -23
-82 -27 -6 -5 -23 -9 -38 -9 -15 0 -28 -4 -28 -10 0 -5 -16 -10 -35 -10 -19 0
-35 -4 -35 -10 0 -5 -9 -10 -20 -10 -11 0 -20 -4 -20 -8 0 -4 -28 -14 -62 -21
-70 -15 -154 -39 -180 -52 -10 -5 -29 -9 -43 -9 -14 0 -25 -4 -25 -10 0 -5 -7
-10 -15 -10 -8 0 -23 -4 -33 -9 -9 -5 -33 -16 -52 -24 -19 -8 -55 -24 -78 -36
-24 -11 -50 -21 -58 -21 -8 0 -22 -4 -32 -9 -9 -5 -32 -16 -49 -23 -42 -16
-49 -36 -18 -44 16 -4 46 2 80 16 40 16 65 20 92 16 21 -4 58 -9 83 -13 25 -3
50 -9 55 -13 13 -11 91 -37 125 -42 23 -4 23 -5 5 -12 -11 -4 -33 -14 -48 -22
-16 -7 -35 -14 -43 -14 -8 0 -14 -4 -14 -10 0 -5 -11 -10 -25 -10 -14 0 -25
-4 -25 -10 0 -5 -6 -10 -14 -10 -8 0 -16 -3 -18 -7 -5 -12 -106 -63 -123 -63
-8 0 -15 -4 -15 -10 0 -5 -9 -10 -19 -10 -11 0 -23 -4 -26 -10 -3 -5 -15 -10
-26 -10 -10 0 -19 -4 -19 -8 0 -4 -20 -16 -45 -26 -52 -22 -60 -46 -16 -46 17
0 33 5 36 10 3 6 15 10 26 10 10 0 19 5 19 10 0 6 16 10 35 10 19 0 35 4 35 9
0 9 52 16 200 27 41 3 81 11 88 16 7 6 28 11 47 10 25 -1 35 3 35 13 0 11 11
15 38 14 l37 0 -35 -17 c-19 -9 -37 -20 -40 -23 -12 -15 -51 -29 -79 -29 -21
0 -31 -5 -31 -15 0 -11 -11 -15 -40 -15 -22 0 -40 -4 -40 -9 0 -13 -58 -19
-69 -8 -7 7 -13 5 -17 -6 -3 -9 -17 -17 -30 -17 -13 0 -24 -4 -24 -10 0 -5 -8
-10 -17 -10 -9 0 -42 -9 -72 -19 -31 -10 -83 -22 -116 -25 -85 -9 -105 -16
-98 -32 4 -11 -9 -14 -66 -14 -41 0 -71 -4 -71 -10 0 -5 -16 -10 -35 -10 -19
0 -35 -4 -35 -10 0 -6 -32 -10 -75 -10 -41 0 -75 -4 -75 -9 0 -9 -44 -15 -213
-31 -73 -7 -103 -7 -117 2 -15 10 -22 10 -32 0 -6 -6 -36 -12 -66 -12 -33 0
-59 -5 -68 -14 -15 -15 -19 -46 -6 -46 15 0 32 -56 32 -107 0 -33 6 -63 17
-79 10 -17 16 -46 16 -85 0 -32 4 -59 9 -59 4 0 8 7 8 15 0 8 5 15 10 15 6 0
10 7 10 15 0 8 5 15 10 15 14 0 12 37 -2 43 -15 6 21 9 80 7 24 -1 42 3 42 9
0 6 11 11 25 11 26 0 34 15 13 22 -21 7 17 38 46 38 14 0 31 -9 39 -21 15 -20
15 -20 21 -1 12 38 53 75 75 69 12 -3 19 -1 16 3 -3 5 1 11 7 13 8 3 6 6 -4 6
-21 1 -22 8 -6 42 12 26 49 49 78 49 9 0 20 4 26 8 5 5 36 16 69 26 33 9 74
21 91 26 17 6 52 7 77 4 34 -5 47 -3 47 6 0 7 7 10 15 7 8 -4 17 -2 20 3 4 6
17 10 31 10 13 0 24 5 24 10 0 6 9 10 19 10 11 0 22 4 25 9 3 5 20 11 38 14
18 4 48 9 66 13 21 4 32 2 32 -5 0 -7 21 -11 54 -11 30 0 57 -4 60 -9 6 -10
-37 -31 -64 -31 -14 0 -18 -5 -13 -16 5 -13 2 -15 -15 -10 -29 9 -63 -10 -55
-30 5 -13 2 -15 -15 -10 -17 6 -21 4 -16 -8 4 -10 -5 -20 -25 -31 -28 -14 -31
-14 -31 0 0 25 -29 17 -36 -10 -5 -19 -11 -24 -25 -20 -10 4 -28 0 -38 -7 -19
-14 -19 -14 0 -26 10 -7 19 -18 18 -25 0 -9 -2 -9 -6 1 -7 19 -31 14 -43 -8
-6 -11 -16 -18 -21 -14 -6 3 -13 -3 -16 -15 -3 -12 -16 -24 -29 -27 -18 -5
-20 -9 -11 -19 11 -11 38 -5 57 15 3 3 19 12 35 20 36 18 55 35 55 49 0 6 15
11 34 11 19 0 36 3 38 8 6 13 147 102 163 102 8 0 15 3 15 8 0 4 18 16 40 26
22 11 40 22 40 26 0 3 16 12 35 20 19 8 35 17 35 22 0 4 9 8 20 8 11 0 20 4
20 8 0 5 22 21 50 36 27 15 52 31 55 36 4 6 15 10 26 10 10 0 19 3 19 8 0 4
15 13 33 21 17 8 34 17 37 20 9 11 115 61 128 61 6 0 12 3 12 8 0 4 29 21 65
37 36 17 65 33 65 38 0 4 11 7 24 7 13 0 26 4 28 9 4 12 175 101 193 101 8 0
15 4 15 9 0 5 11 12 24 15 14 3 31 12 38 19 7 6 47 28 88 48 41 20 127 62 191
93 64 31 121 56 125 56 5 0 31 11 58 25 27 14 55 25 63 25 7 0 13 5 13 10 0 6
8 10 18 10 18 1 52 22 52 34 0 3 -22 6 -48 6 -34 0 -54 -6 -70 -20 -12 -11
-30 -20 -42 -20 -11 0 -20 -4 -20 -10 0 -5 -9 -10 -20 -10 -11 0 -20 -3 -20
-8 0 -14 -125 -69 -147 -64 -7 2 -13 -2 -13 -8 0 -5 -4 -10 -10 -10 -5 0 -10
7 -10 15 0 8 4 15 9 15 5 0 11 8 15 18 20 60 67 94 149 109 15 3 27 9 27 14 0
5 9 9 19 9 11 0 23 5 26 10 3 6 15 10 26 10 10 0 28 5 39 10 11 6 29 15 40 20
11 6 38 10 60 10 31 0 40 -4 40 -18 0 -29 48 -44 92 -29 21 8 41 16 44 20 4 4
19 7 33 7 15 0 33 9 41 20 8 11 20 20 28 20 7 0 25 11 40 25 15 14 30 25 35
25 4 0 13 5 20 10 40 34 107 80 116 80 6 0 11 5 11 10 0 6 5 10 10 10 12 0 94
52 98 63 2 4 12 7 23 7 10 0 19 4 19 8 0 5 11 15 25 22 17 9 22 17 15 24 -7 7
-14 6 -22 -2 -7 -7 -36 -12 -66 -12 -29 0 -61 -4 -70 -9 -9 -4 -36 -11 -59
-14 -36 -4 -40 -3 -28 9 7 8 18 14 22 14 5 0 35 16 66 34 32 19 73 41 93 48
19 7 43 20 54 30 11 10 23 18 28 18 4 0 17 7 28 15 18 14 18 14 -8 15 -16 0
-28 -4 -28 -10z m-1440 -800 c0 -5 -2 -10 -4 -10 -3 0 -8 5 -11 10 -3 6 -1 10
4 10 6 0 11 -4 11 -10z m-537 -77 c-7 -2 -21 -2 -30 0 -10 3 -4 5 12 5 17 0
24 -2 18 -5z m404 1 c-3 -3 -12 -4 -19 -1 -8 3 -5 6 6 6 11 1 17 -2 13 -5z
m-92 -33 c-6 -5 -27 -13 -48 -16 -32 -6 -36 -5 -31 9 4 11 19 16 47 16 25 0
37 -4 32 -9z m-105 -31 c-6 -11 -17 -20 -25 -20 -7 0 -21 -7 -29 -16 -15 -14
-16 -13 -16 10 0 19 5 26 19 26 11 0 23 5 26 10 3 6 13 10 21 10 12 0 12 -4 4
-20z m-90 -35 c0 -8 -4 -15 -9 -15 -5 0 -17 -3 -26 -7 -15 -5 -16 -3 -6 15 13
25 41 29 41 7z m-63 -41 c-3 -3 -12 -4 -19 -1 -8 3 -5 6 6 6 11 1 17 -2 13 -5z
m71 -48 c-7 -8 -15 -12 -17 -11 -5 6 10 25 20 25 5 0 4 -6 -3 -14z m-298 -153
c0 -9 -78 -43 -97 -43 -6 0 -14 -6 -16 -12 -4 -10 -8 -10 -15 0 -6 9 -21 12
-41 9 -17 -3 -31 -2 -31 3 0 7 19 12 89 26 7 1 18 7 24 13 12 12 87 15 87 4z
m-967 -240 c-7 -2 -19 -2 -25 0 -7 3 -2 5 12 5 14 0 19 -2 13 -5z m-163 -138
c0 -8 -4 -15 -10 -15 -5 0 -10 7 -10 15 0 8 5 15 10 15 6 0 10 -7 10 -15z"/>
<path d="M4586 5611 c-4 -7 -5 -15 -2 -18 9 -9 19 4 14 18 -4 11 -6 11 -12 0z"/>
<path d="M520 5495 l0 -65 159 0 159 0 6 -26 c4 -15 6 -27 4 -29 -2 -1 -59
-15 -128 -29 -69 -15 -142 -32 -162 -37 l-38 -10 0 -94 0 -95 359 0 c229 0
362 4 366 10 3 6 17 10 31 10 22 0 24 4 24 50 l0 50 -284 0 -284 0 -7 31 c-4
17 -5 32 -3 33 1 1 131 28 288 60 156 31 288 60 293 65 4 4 7 37 5 72 l-3 64
-392 3 -393 2 0 -65z"/>
<path d="M2960 5502 c0 -5 -9 -12 -20 -15 -28 -7 -25 -24 4 -29 30 -6 43 1 48
27 2 12 -3 21 -14 23 -10 2 -18 -1 -18 -6z"/>
<path d="M2850 5463 c-14 -3 -27 -8 -30 -12 -9 -11 -50 -31 -65 -31 -9 0 -15
-9 -15 -25 0 -23 -4 -25 -44 -25 -25 0 -48 -4 -51 -10 -4 -6 13 -10 44 -10 28
0 51 5 51 10 0 6 12 10 26 10 14 0 23 4 19 10 -4 6 15 10 51 10 49 0 55 2 44
15 -7 8 -10 25 -6 40 4 14 5 24 4 24 -2 -1 -14 -4 -28 -6z"/>
<path d="M2921 5441 c-11 -7 -10 -11 6 -20 22 -11 33 -6 33 16 0 15 -18 17
-39 4z"/>
<path d="M2695 5410 c3 -5 10 -10 16 -10 5 0 9 5 9 10 0 6 -7 10 -16 10 -8 0
-12 -4 -9 -10z"/>
<path d="M520 5366 l0 -34 83 19 c45 10 109 24 142 32 l60 15 -142 1 -143 1 0
-34z"/>
<path d="M2613 5390 c-31 -13 -29 -20 7 -20 20 0 30 5 30 15 0 17 -5 18 -37 5z"/>
<path d="M2495 5360 c-3 -5 -17 -10 -31 -10 -13 0 -24 -4 -24 -10 0 -14 54
-12 68 2 7 7 12 16 12 20 0 11 -18 10 -25 -2z"/>
<path d="M2340 5315 c0 -19 5 -35 11 -35 7 0 9 10 5 25 -5 20 -3 25 14 25 11
0 20 5 20 10 0 6 -11 10 -25 10 -22 0 -25 -4 -25 -35z"/>
<path d="M2594 5329 c-5 -8 50 -69 63 -69 1 0 -5 16 -15 35 -18 37 -37 50 -48
34z"/>
<path d="M2255 5320 c8 -13 35 -13 55 0 11 7 5 10 -23 10 -23 0 -36 -4 -32
-10z"/>
<path d="M2195 5300 c3 -5 17 -10 31 -10 13 0 24 5 24 10 0 6 -14 10 -31 10
-17 0 -28 -4 -24 -10z"/>
<path d="M2778 5263 c6 -2 18 -2 25 0 6 3 1 5 -13 5 -14 0 -19 -2 -12 -5z"/>
<path d="M2320 5250 c0 -5 5 -10 11 -10 5 0 7 5 4 10 -3 6 -8 10 -11 10 -2 0
-4 -4 -4 -10z"/>
<path d="M2662 5251 c-8 -4 -14 -25 -15 -45 -1 -28 -5 -36 -19 -36 -10 0 -18
-4 -18 -10 0 -5 16 -10 36 -10 26 0 33 3 27 13 -4 6 -8 23 -8 35 -1 21 3 23
28 18 25 -5 28 -3 25 17 -3 24 -33 33 -56 18z"/>
<path d="M2740 5230 c0 -5 5 -10 10 -10 6 0 10 5 10 10 0 6 -4 10 -10 10 -5 0
-10 -4 -10 -10z"/>
<path d="M2543 5205 c0 -8 4 -12 9 -9 4 3 8 9 8 15 0 5 -4 9 -8 9 -5 0 -9 -7
-9 -15z"/>
<path d="M2220 5160 c-13 -8 -12 -10 3 -10 9 0 17 5 17 10 0 12 -1 12 -20 0z"/>
<path d="M2430 5154 c0 -20 -24 -44 -44 -44 -9 0 -16 -7 -16 -15 0 -8 4 -15 8
-15 13 0 92 77 85 84 -12 12 -33 6 -33 -10z"/>
<path d="M2530 5161 c0 -5 -7 -17 -16 -25 -14 -15 -14 -16 5 -16 16 0 21 6 21
25 0 14 -2 25 -5 25 -3 0 -5 -4 -5 -9z"/>
<path d="M2140 5140 c0 -5 -9 -10 -21 -10 -11 0 -28 -8 -37 -17 -16 -15 -14
-16 22 -10 22 3 43 12 47 18 4 7 14 9 23 6 10 -4 16 -1 16 8 0 9 -10 15 -25
15 -14 0 -25 -4 -25 -10z"/>
<path d="M2560 5146 c0 -9 30 -14 35 -6 4 6 -3 10 -14 10 -12 0 -21 -2 -21 -4z"/>
<path d="M1610 5080 c-37 -21 -85 -40 -104 -40 -14 0 -17 -3 -9 -11 12 -12 80
7 96 26 6 6 10 6 14 -2 3 -9 28 -13 77 -13 44 0 77 5 85 13 11 10 14 10 18 0
3 -7 16 -13 29 -13 13 0 24 -4 24 -9 0 -11 44 -61 54 -61 12 0 6 23 -12 39 -9
9 -23 28 -30 44 -11 26 -15 27 -81 27 -38 0 -73 -4 -76 -10 -9 -15 -42 -12
-49 5 -6 17 -14 18 -36 5z"/>
<path d="M2030 5082 c0 -5 -16 -17 -35 -28 -22 -12 -31 -22 -25 -28 6 -6 16
-2 27 11 10 11 32 27 48 36 27 15 28 16 8 17 -13 0 -23 -4 -23 -8z"/>
<path d="M2258 5083 c7 -3 16 -2 19 1 4 3 -2 6 -13 5 -11 0 -14 -3 -6 -6z"/>
<path d="M520 4961 c0 -126 7 -181 22 -181 5 0 6 5 3 10 -3 6 1 10 9 10 9 0
16 -4 16 -8 0 -5 16 -14 35 -22 19 -8 35 -20 35 -27 0 -16 17 -17 22 -1 3 8
12 8 36 -3 18 -8 32 -17 32 -21 0 -5 18 -8 40 -8 22 0 40 5 40 10 0 6 -18 10
-40 10 -22 0 -40 4 -40 10 0 5 -16 12 -35 16 -19 3 -35 10 -35 15 0 5 -9 9
-20 9 -11 0 -20 5 -20 10 0 6 -9 10 -21 10 -11 0 -27 7 -35 15 -14 13 -14 17
0 30 8 8 24 15 35 15 12 0 21 5 21 10 0 6 7 10 15 10 18 0 89 32 93 43 2 4 12
7 23 7 10 0 19 5 19 10 0 6 9 10 19 10 11 0 21 4 23 8 4 11 137 62 161 62 9 0
17 5 17 10 0 6 16 10 35 10 19 0 35 5 35 10 0 6 15 10 33 10 24 0 28 3 17 10
-9 6 -134 10 -302 10 l-288 0 0 -119z"/>
<path d="M2285 5070 c-3 -5 -1 -10 4 -10 6 0 11 5 11 10 0 6 -2 10 -4 10 -3 0
-8 -4 -11 -10z"/>
<path d="M2320 5055 c0 -8 2 -15 4 -15 2 0 6 7 10 15 3 8 1 15 -4 15 -6 0 -10
-7 -10 -15z"/>
<path d="M1770 4990 c0 -5 -9 -10 -20 -10 -11 0 -20 -7 -20 -15 0 -19 14 -19
30 0 7 8 27 19 44 24 l31 9 -32 1 c-18 1 -33 -3 -33 -9z"/>
<path d="M1672 4963 c-6 -2 -10 -9 -7 -13 7 -11 35 -2 35 11 0 10 -8 10 -28 2z"/>
<path d="M1600 4940 c-11 -7 -7 -10 18 -10 17 0 32 5 32 10 0 13 -30 13 -50 0z"/>
<path d="M1530 4920 c0 -5 -16 -10 -35 -10 -19 0 -35 -4 -35 -9 0 -18 15 -19
60 -4 57 19 73 33 37 33 -15 0 -27 -4 -27 -10z"/>
<path d="M1410 4880 c0 -5 -18 -10 -39 -10 -22 0 -43 -4 -46 -10 -3 -5 -28
-12 -55 -16 -28 -4 -50 -10 -50 -15 0 -5 -13 -9 -30 -9 -16 0 -30 -4 -30 -10
0 -13 57 -13 65 0 5 8 11 8 19 1 9 -8 19 -5 34 9 11 11 36 20 54 21 30 2 118
35 118 45 0 2 -9 4 -20 4 -11 0 -20 -4 -20 -10z"/>
<path d="M1100 4790 c0 -5 -9 -10 -20 -10 -11 0 -20 -5 -20 -11 0 -12 30 -4
70 17 l25 13 -27 1 c-16 0 -28 -4 -28 -10z"/>
<path d="M2368 4793 c6 -2 18 -2 25 0 6 3 1 5 -13 5 -14 0 -19 -2 -12 -5z"/>
<path d="M2310 4780 c-12 -8 -11 -10 8 -10 12 0 22 5 22 10 0 13 -11 13 -30 0z"/>
<path d="M547 4759 c7 -7 15 -10 18 -7 3 3 -2 9 -12 12 -14 6 -15 5 -6 -5z"/>
<path d="M1010 4759 c-14 -4 -40 -7 -57 -8 -18 -1 -33 -5 -33 -11 0 -5 -13
-10 -30 -10 -16 0 -30 -4 -30 -10 0 -5 -9 -10 -20 -10 -11 0 -20 -4 -20 -10 0
-5 9 -10 20 -10 11 0 20 5 20 10 0 6 13 10 29 10 17 0 33 5 36 10 3 6 19 10
36 10 16 0 29 4 29 9 0 6 15 11 33 13 17 2 28 6 22 9 -5 3 -21 3 -35 -2z"/>
<path d="M1981 4748 c0 -9 4 -20 10 -24 6 -3 9 -15 6 -25 -3 -11 -1 -19 4 -19
5 0 9 11 9 25 0 14 -4 25 -9 25 -5 0 -12 8 -14 18 -4 15 -5 15 -6 0z"/>
<path d="M1070 4740 c0 -5 5 -10 11 -10 5 0 7 5 4 10 -3 6 -8 10 -11 10 -2 0
-4 -4 -4 -10z"/>
<path d="M2066 4715 c4 -8 8 -15 10 -15 2 0 4 7 4 15 0 8 -4 15 -10 15 -5 0
-7 -7 -4 -15z"/>
<path d="M2182 4715 c-16 -19 -4 -19 28 0 22 13 23 14 5 14 -11 0 -26 -6 -33
-14z"/>
<path d="M1942 4690 c0 -19 2 -27 5 -17 2 9 2 25 0 35 -3 9 -5 1 -5 -18z"/>
<path d="M2123 4698 c-23 -11 -32 -38 -13 -38 6 0 10 5 10 10 0 6 6 10 14 10
8 0 16 7 20 15 6 17 0 18 -31 3z"/>
<path d="M880 4690 c0 -5 5 -10 11 -10 5 0 7 5 4 10 -3 6 -8 10 -11 10 -2 0
-4 -4 -4 -10z"/>
<path d="M770 4664 c0 -8 5 -12 10 -9 6 3 10 10 10 16 0 5 -4 9 -10 9 -5 0
-10 -7 -10 -16z"/>
<path d="M1955 4617 c-8 -30 0 -47 14 -31 4 5 5 20 1 34 l-7 25 -8 -28z"/>
<path d="M2135 4560 c-3 -5 -1 -10 4 -10 6 0 11 5 11 10 0 6 -2 10 -4 10 -3 0
-8 -4 -11 -10z"/>
<path d="M2090 4540 c0 -5 9 -10 21 -10 11 0 17 5 14 10 -3 6 -13 10 -21 10
-8 0 -14 -4 -14 -10z"/>
<path d="M5688 4362 c-32 -19 -36 -32 -10 -32 21 1 52 23 52 39 0 15 -10 14
-42 -7z"/>
<path d="M1810 4320 c0 -5 9 -10 20 -10 11 0 20 5 20 10 0 6 -9 10 -20 10 -11
0 -20 -4 -20 -10z"/>
<path d="M5610 4320 c-8 -5 -34 -10 -57 -10 -24 0 -43 -4 -43 -9 0 -5 -8 -12
-17 -14 -10 -2 -7 -2 7 0 14 3 43 6 65 7 48 3 85 15 85 27 0 12 -21 11 -40 -1z"/>
<path d="M2010 4300 c0 -5 5 -10 10 -10 6 0 10 5 10 10 0 6 -4 10 -10 10 -5 0
-10 -4 -10 -10z"/>
<path d="M1570 4251 c0 -30 14 -32 27 -5 10 21 9 24 -8 24 -12 0 -19 -7 -19
-19z"/>
<path d="M1741 4247 c16 -15 28 -19 35 -12 14 12 -12 34 -40 35 -17 0 -17 -2
5 -23z"/>
<path d="M1848 4263 c7 -3 16 -2 19 1 4 3 -2 6 -13 5 -11 0 -14 -3 -6 -6z"/>
<path d="M1630 4229 c0 -5 6 -9 13 -9 7 0 18 -9 25 -20 13 -21 72 -29 72 -10
0 6 -9 10 -20 10 -11 0 -20 3 -20 8 0 4 -16 12 -35 18 -19 6 -35 7 -35 3z"/>
<path d="M1920 4230 c0 -5 5 -10 10 -10 6 0 10 5 10 10 0 6 -4 10 -10 10 -5 0
-10 -4 -10 -10z"/>
<path d="M1862 4209 c2 -6 8 -10 13 -10 5 0 11 4 13 10 2 6 -4 11 -13 11 -9 0
-15 -5 -13 -11z"/>
<path d="M1752 4164 c2 -8 6 -15 11 -15 4 1 26 1 50 1 l42 1 -29 15 c-22 12
-30 13 -36 4 -5 -9 -9 -9 -14 -1 -11 17 -28 13 -24 -5z"/>
<path d="M5815 4169 c-11 -16 -1 -19 13 -3 7 8 8 14 3 14 -5 0 -13 -5 -16 -11z"/>
<path d="M1720 4120 c0 -5 12 -10 26 -10 14 0 23 4 19 10 -3 6 -15 10 -26 10
-10 0 -19 -4 -19 -10z"/>
<path d="M1790 4120 c0 -5 5 -10 10 -10 6 0 10 5 10 10 0 6 -4 10 -10 10 -5 0
-10 -4 -10 -10z"/>
<path d="M1360 4080 c0 -5 7 -10 15 -10 8 0 15 5 15 10 0 6 -7 10 -15 10 -8 0
-15 -4 -15 -10z"/>
<path d="M1410 4079 c0 -5 5 -7 10 -4 6 3 10 8 10 11 0 2 -4 4 -10 4 -5 0 -10
-5 -10 -11z"/>
<path d="M790 4065 c0 -8 -4 -15 -10 -15 -18 0 -11 -20 8 -21 13 0 14 -2 2 -6
-8 -3 -17 -10 -20 -14 -3 -5 -21 -15 -40 -23 l-35 -15 38 -1 c26 0 37 4 37 15
0 8 5 15 10 15 21 0 80 46 80 63 0 27 -31 18 -43 -13 -4 -10 -6 -8 -6 8 -1 24
-21 31 -21 7z"/>
<path d="M1658 4069 c-10 -5 -30 -9 -44 -7 -15 2 -29 -3 -31 -9 -7 -18 57 -16
81 2 23 18 18 28 -6 14z"/>
<path d="M900 4059 c0 -5 5 -7 10 -4 6 3 10 8 10 11 0 2 -4 4 -10 4 -5 0 -10
-5 -10 -11z"/>
<path d="M1501 4054 c0 -11 3 -14 6 -6 3 7 2 16 -1 19 -3 4 -6 -2 -5 -13z"/>
<path d="M570 4032 c0 -12 49 -34 60 -27 5 3 7 12 3 20 -5 16 -63 21 -63 7z"/>
<path d="M880 4030 c0 -5 5 -10 11 -10 5 0 7 5 4 10 -3 6 -8 10 -11 10 -2 0
-4 -4 -4 -10z"/>
<path d="M1525 4030 c-4 -6 5 -10 19 -10 14 0 26 5 26 10 0 6 -9 10 -19 10
-11 0 -23 -4 -26 -10z"/>
<path d="M658 3993 c6 -2 18 -2 25 0 6 3 1 5 -13 5 -14 0 -19 -2 -12 -5z"/>
<path d="M1280 3985 c0 -8 5 -15 10 -15 6 0 10 7 10 15 0 8 -4 15 -10 15 -5 0
-10 -7 -10 -15z"/>
<path d="M1346 3991 c5 -5 23 -11 39 -13 17 -3 24 -3 18 -1 -7 3 -13 9 -13 14
0 5 -12 9 -27 9 -16 0 -23 -4 -17 -9z"/>
<path d="M1280 3940 c0 -5 5 -10 10 -10 6 0 10 5 10 10 0 6 -4 10 -10 10 -5 0
-10 -4 -10 -10z"/>
<path d="M1138 3933 c-10 -2 -18 -9 -18 -14 0 -15 40 -10 56 6 14 13 13 15 -3
14 -10 -1 -26 -3 -35 -6z"/>
<path d="M1060 3909 c0 -16 -5 -20 -22 -17 -13 2 -22 9 -21 15 2 7 -3 10 -11
7 -15 -6 -19 -54 -5 -54 5 0 9 5 9 10 0 6 9 10 20 10 29 0 70 21 70 37 0 7 -9
13 -20 13 -14 0 -20 -7 -20 -21z"/>
<path d="M1210 3920 c0 -5 7 -10 15 -10 8 0 15 5 15 10 0 6 -7 10 -15 10 -8 0
-15 -4 -15 -10z"/>
<path d="M810 3906 c0 -8 6 -16 14 -19 10 -4 12 0 9 14 -6 22 -23 26 -23 5z"/>
<path d="M5647 3879 c8 -8 16 -8 30 0 16 9 14 10 -11 11 -22 0 -27 -3 -19 -11z"/>
<path d="M915 3850 c-3 -5 3 -10 15 -10 12 0 18 5 15 10 -3 6 -10 10 -15 10
-5 0 -12 -4 -15 -10z"/>
<path d="M5772 3482 c9 -4 30 -19 47 -34 17 -16 37 -28 45 -28 12 0 12 5 -1
31 -12 25 -20 30 -39 25 -14 -4 -24 -2 -24 4 0 5 -10 10 -22 9 -18 0 -20 -2
-6 -7z"/>
<path d="M5650 2931 c8 -4 54 -16 103 -27 48 -10 87 -22 87 -26 0 -5 15 -8 33
-8 17 -1 50 -7 72 -15 60 -22 67 -20 63 18 -2 26 -7 32 -28 33 -14 0 -38 4
-54 9 -18 5 -36 4 -47 -3 -12 -8 -20 -8 -24 -2 -3 6 -33 10 -66 10 -33 0 -59
4 -59 10 0 6 -21 10 -47 10 -31 0 -43 -4 -33 -9z"/>
<path d="M5972 2771 c-12 -10 -22 -25 -22 -32 0 -8 11 -1 25 15 35 41 34 50
-3 17z"/>
<path d="M5690 2661 c0 -5 14 -11 31 -15 45 -9 49 -8 43 9 -7 16 -74 22 -74 6z"/>
<path d="M5813 2643 c9 -2 23 -2 30 0 6 3 -1 5 -18 5 -16 0 -22 -2 -12 -5z"/>
</g>
</svg>
