<?xml version="1.0" standalone="no"?>
<!DOCTYPE svg PUBLIC "-//W3C//DTD SVG 20010904//EN"
 "http://www.w3.org/TR/2001/REC-SVG-20010904/DTD/svg10.dtd">
<svg version="1.0" xmlns="http://www.w3.org/2000/svg"
 width="601.000000pt" height="867.000000pt" viewBox="0 0 601.000000 867.000000"
 preserveAspectRatio="xMidYMid meet">

<g transform="translate(0.000000,867.000000) scale(0.100000,-0.100000)"
fill="#000000" stroke="none">
<path d="M903 8656 c-88 -22 -164 -66 -234 -135 -103 -103 -149 -219 -149
-376 l0 -75 185 0 c117 0 185 4 185 10 0 6 -5 10 -11 10 -24 0 -1 24 27 27 16
2 36 6 44 10 8 3 36 14 63 23 45 16 47 16 47 -2 0 -10 -8 -21 -17 -25 -44 -14
-93 -37 -93 -43 0 -10 137 -20 277 -20 l125 0 -4 -157 c-3 -138 -6 -163 -25
-199 -28 -53 -75 -97 -126 -120 -23 -10 -43 -19 -45 -20 -3 -1 7 -27 34 -91
22 -50 18 -70 -18 -84 -18 -7 -36 -14 -39 -16 -3 -2 -9 25 -12 59 -3 35 -12
77 -21 94 -16 31 -17 31 -109 36 -73 4 -103 10 -144 31 -28 15 -55 32 -58 38
-5 7 -14 4 -29 -10 -36 -34 -91 -51 -166 -51 l-70 0 0 -150 0 -150 325 0 c197
0 325 4 325 9 0 6 -9 26 -21 45 l-21 36 34 0 c19 0 63 11 98 25 35 14 66 23
68 20 7 -7 -29 -45 -43 -45 -6 0 -19 -6 -28 -13 -15 -10 -16 -17 -7 -44 11
-31 32 -43 78 -43 21 0 22 -3 22 -104 0 -102 7 -142 37 -202 14 -27 14 -45 5
-130 -6 -54 -19 -139 -28 -189 -9 -49 -18 -128 -21 -175 -2 -46 -6 -86 -7 -87
-2 -2 -81 -25 -176 -51 l-172 -49 123 -35 c68 -20 147 -42 174 -50 l50 -14 3
-106 3 -106 -316 104 c-311 103 -316 104 -410 104 l-95 0 0 -238 0 -239 158
-6 c218 -9 360 -9 366 2 5 7 80 7 225 0 19 -2 37 3 39 9 6 20 32 13 32 -7 0
-11 5 -23 10 -26 6 -3 10 -15 10 -26 0 -17 10 -45 50 -134 5 -11 23 -56 41
-100 17 -44 37 -94 45 -112 16 -37 18 -73 4 -73 -6 0 -13 8 -16 18 -13 37 -45
96 -40 72 3 -14 6 -42 6 -62 0 -27 4 -38 15 -38 8 0 15 -7 15 -15 0 -17 -30
-35 -59 -35 -12 0 -21 -4 -21 -9 0 -5 -2 -15 -5 -23 -4 -9 4 -13 27 -13 22 0
34 -5 36 -16 3 -18 -33 -29 -92 -29 -31 0 -34 -3 -54 -62 -24 -68 -28 -98 -12
-98 6 0 10 -6 10 -14 0 -14 -82 -76 -99 -76 -12 0 -21 -26 -21 -60 0 -27 3
-29 70 -41 l70 -12 0 -114 0 -113 -24 0 c-28 0 -64 -43 -86 -100 -7 -19 -22
-44 -32 -56 -10 -11 -18 -28 -18 -38 0 -20 25 -101 47 -153 7 -17 13 -38 13
-46 0 -9 5 -19 10 -22 6 -3 10 -13 10 -22 0 -8 7 -31 16 -51 8 -21 21 -50 29
-67 79 -183 86 -205 62 -205 -15 0 -53 72 -83 155 -4 11 -20 56 -36 100 -16
44 -33 94 -38 110 -8 29 -25 79 -41 120 -4 11 -14 44 -23 73 -18 59 -15 71 33
116 33 32 41 66 16 66 -9 0 -98 -13 -198 -29 -100 -16 -246 -40 -325 -52
l-142 -23 2 -1981 3 -1980 24 -60 c69 -172 209 -294 375 -324 40 -7 319 -11
826 -11 l766 0 11 27 c7 16 25 51 42 78 17 28 34 56 38 64 9 20 41 51 52 51 5
0 11 3 13 8 2 4 32 32 68 62 36 30 67 58 68 62 2 5 8 8 13 8 5 0 18 8 30 17
11 10 33 28 47 40 15 13 30 23 35 23 10 0 9 -47 -2 -68 -5 -9 -17 -34 -27 -54
-10 -21 -22 -38 -26 -38 -5 0 -8 -5 -8 -11 0 -6 -11 -24 -25 -41 -14 -16 -25
-37 -25 -45 0 -9 -3 -13 -7 -10 -9 9 -63 -43 -63 -60 0 -8 -21 -35 -46 -61
-43 -43 -45 -47 -25 -50 12 -2 29 2 37 8 10 9 14 9 14 1 0 -7 35 -11 109 -11
l109 0 5 27 c3 16 11 53 16 83 6 30 14 71 20 90 5 19 19 79 31 132 13 54 28
102 34 106 28 22 122 53 169 57 29 3 67 7 85 10 39 7 103 -20 148 -61 17 -16
49 -44 71 -62 23 -19 49 -48 58 -65 9 -18 44 -52 77 -77 33 -25 69 -53 81 -62
11 -10 26 -18 34 -18 7 0 13 -4 13 -10 0 -5 6 -10 14 -10 7 0 19 -7 26 -15 7
-8 20 -15 29 -15 10 0 30 -14 46 -30 25 -26 28 -33 17 -50 -7 -11 -12 -22 -12
-25 0 -3 360 -5 800 -5 l800 0 44 31 c54 38 82 35 40 -4 -34 -31 -26 -33 64
-12 173 41 305 174 341 343 14 65 16 2423 2 2450 -48 93 -62 135 -49 143 7 5
8 9 3 9 -6 0 -18 -9 -28 -20 -19 -23 -39 -27 -31 -6 3 7 -6 33 -19 58 -26 50
-42 97 -37 113 5 17 1 59 -9 80 -20 46 -43 125 -39 136 2 7 17 -1 36 -19 18
-18 35 -32 37 -32 2 0 21 -16 42 -35 21 -19 41 -35 45 -35 4 0 14 17 23 38 9
20 21 45 26 54 14 27 12 4913 -2 4980 -39 187 -200 348 -387 387 -81 17 -4638
14 -4709 -3z m-80 -254 c15 -15 30 -43 33 -62 4 -19 13 -46 21 -60 7 -14 13
-30 13 -36 0 -7 7 -25 15 -40 19 -37 19 -54 0 -54 -8 0 -15 -5 -15 -11 0 -6
-5 -9 -11 -7 -10 3 -42 82 -72 178 -6 19 -14 37 -17 40 -18 17 -27 48 -18 63
12 23 20 22 51 -11z m403 -29 c-10 -10 -19 5 -10 18 6 11 8 11 12 0 2 -7 1
-15 -2 -18z m4300 -193 c32 -11 72 -30 87 -43 l28 -22 -126 -125 -125 -124
-124 124 c-68 69 -122 128 -119 133 7 11 82 49 128 63 63 20 182 17 251 -6z
m-346 -525 c-81 -81 -117 -111 -126 -104 -6 5 -24 37 -40 72 -26 56 -29 72
-29 167 0 95 3 111 29 168 l29 63 126 -125 126 -126 -115 -115z m586 310 c51
-110 51 -242 0 -348 -43 -91 -32 -94 -162 36 l-118 118 124 124 c69 69 126
125 128 125 2 0 14 -25 28 -55z m-256 -410 l114 -114 -57 -26 c-112 -52 -247
-51 -356 2 l-53 26 113 113 c63 63 116 114 119 114 3 0 57 -52 120 -115z
m-980 35 c0 -5 -9 -10 -19 -10 -11 0 -23 -4 -26 -10 -3 -5 -17 -10 -31 -10
-33 0 -22 17 19 29 44 13 57 13 57 1z m-395 -100 c-16 -11 -36 -20 -42 -20 -7
0 -13 -4 -13 -10 0 -5 -6 -10 -13 -10 -14 0 -60 -47 -84 -86 -41 -63 -44 -75
-33 -110 6 -19 15 -34 19 -34 13 0 42 -71 61 -153 14 -57 28 -91 50 -116 17
-20 40 -51 53 -68 12 -18 25 -33 28 -33 3 0 23 25 45 55 46 64 64 70 64 20 0
-24 5 -35 15 -35 8 0 15 4 15 8 0 13 139 89 188 103 34 10 53 10 98 -1 85 -21
93 -31 110 -140 25 -165 32 -200 48 -216 22 -22 20 -27 -8 -20 -17 4 -49 -9
-117 -46 -134 -73 -165 -88 -202 -94 -17 -4 -43 -14 -57 -23 -32 -21 -180 -19
-233 4 -20 8 -47 15 -60 15 -14 0 -30 7 -37 15 -7 8 -17 15 -23 15 -5 0 -24
11 -41 24 -83 63 -107 63 -121 1 -5 -24 -4 -27 5 -12 14 21 28 22 52 0 26 -23
23 -29 -17 -28 -23 1 -35 -3 -35 -12 0 -7 4 -13 9 -13 15 0 19 -49 4 -54 -11
-5 -11 -10 3 -31 12 -18 18 -54 21 -118 5 -125 17 -186 50 -254 15 -32 30 -60
33 -63 8 -7 31 -62 28 -65 -11 -12 -53 45 -102 137 -12 23 -27 43 -32 45 -19
6 -73 -131 -74 -187 0 -41 24 -141 45 -187 10 -20 15 -62 15 -117 0 -83 5 -97
26 -76 17 17 4 -52 -13 -72 -32 -37 -76 25 -67 93 7 54 -11 192 -26 197 -6 2
-8 19 -5 40 3 21 2 30 -1 22 -3 -8 -9 -24 -14 -35 -31 -74 -65 -271 -41 -236
7 11 8 4 6 -25 -3 -21 -6 -65 -9 -96 l-4 -57 28 32 c15 18 31 47 34 64 4 18
12 36 18 39 18 12 -4 -171 -41 -338 -6 -26 -25 -77 -43 -114 -62 -126 -62
-126 -73 -57 -4 26 -12 55 -19 65 -10 15 -14 11 -25 -30 -7 -26 -18 -61 -25
-77 -7 -17 -17 -45 -20 -63 -4 -17 -11 -32 -14 -32 -4 0 -16 -18 -26 -40 -11
-22 -23 -40 -27 -40 -11 0 -39 -55 -39 -77 0 -10 -16 -36 -35 -58 -39 -44 -34
-55 15 -30 18 9 34 15 36 12 2 -2 5 -31 7 -64 2 -47 5 -57 15 -47 15 15 16 46
1 61 -6 6 -9 23 -7 39 3 30 19 41 123 93 33 17 74 39 90 50 43 29 50 26 26
-12 -11 -19 -18 -37 -14 -41 4 -3 -2 -15 -13 -25 -10 -10 -26 -29 -34 -41 -8
-12 -23 -30 -33 -40 -14 -14 -16 -22 -7 -44 13 -36 13 -36 -10 -36 -11 0 -23
6 -26 14 -3 8 -12 17 -20 20 -18 7 -18 1 0 -17 15 -14 15 -14 -43 -83 -16 -19
-50 -99 -63 -147 -10 -39 -16 -46 -42 -50 -17 -3 -56 -13 -86 -22 -119 -36
-220 -40 -300 -10 -29 11 -37 10 -47 -1 -7 -7 -13 -17 -13 -22 0 -5 -7 -15
-15 -22 -13 -10 -15 -9 -15 8 0 12 6 36 14 54 8 18 17 40 20 48 7 17 28 53 37
60 3 3 20 28 39 55 18 28 51 66 72 87 22 20 35 39 29 42 -5 4 15 29 45 58 30
28 54 55 54 61 0 5 15 27 33 47 17 21 43 54 57 75 14 20 30 42 36 48 5 7 13
19 17 27 4 8 17 31 28 50 50 82 76 138 63 133 -8 -3 -14 -9 -14 -13 0 -11
-160 -180 -171 -180 -14 0 -10 15 10 36 46 50 141 243 141 288 0 19 6 41 13
48 18 18 30 51 16 42 -12 -7 -3 33 12 51 4 6 11 35 15 65 l7 55 -40 -42 c-78
-84 -84 -35 -8 70 24 34 48 67 53 72 14 17 72 144 72 159 0 8 3 16 8 18 9 4
86 200 108 273 8 28 18 73 23 100 5 28 19 79 30 115 11 36 21 81 21 100 0 44
-22 123 -49 177 -21 42 -28 108 -13 129 4 6 15 13 25 17 20 7 19 13 -4 167 -5
36 -11 119 -12 185 -2 117 -1 122 31 190 18 39 42 86 53 105 11 19 34 63 51
97 24 50 41 69 79 93 27 16 60 32 74 36 14 3 25 10 25 15 0 5 8 9 18 9 10 0
22 3 26 8 10 9 67 30 86 31 8 1 2 -8 -15 -19z m371 -225 c-16 -17 -36 -20 -36
-6 0 8 17 16 43 20 5 0 2 -6 -7 -14z m-339 -37 c-3 -8 -6 -5 -6 6 -1 11 2 17
5 13 3 -3 4 -12 1 -19z m574 -77 c-12 -8 -51 -4 -51 5 0 2 15 4 33 4 22 0 28
-3 18 -9z m-3001 -90 c0 -13 -39 -58 -40 -46 0 10 31 55 38 55 1 0 2 -4 2 -9z
m303 -534 c27 -36 41 -78 23 -70 -6 3 -35 34 -64 70 -35 42 -52 70 -47 80 5
14 11 11 35 -16 16 -17 40 -46 53 -64z m2737 23 c20 -6 16 -8 -23 -9 -30 -1
-46 3 -42 9 7 11 29 11 65 0z m-84 -188 c-4 -10 -21 -27 -39 -37 -27 -14 -46
-16 -100 -11 -37 4 -67 12 -67 17 0 18 29 21 61 5 46 -23 62 -20 105 19 40 37
50 39 40 7z m420 -17 c-8 -43 -33 -42 -28 1 3 26 21 49 30 39 3 -2 1 -20 -2
-40z m-1129 -14 c4 -17 26 -32 63 -44 8 -3 2 -6 -13 -6 -42 -1 -95 33 -97 62
0 16 42 6 47 -12z m147 -26 c-6 -16 -34 -21 -34 -7 0 13 11 22 26 22 8 0 11
-6 8 -15z m946 -39 c0 -7 -6 -19 -14 -25 -19 -16 -32 5 -16 24 16 19 30 19 30
1z m-80 -39 c0 -8 -11 -24 -25 -37 -14 -13 -25 -29 -25 -36 0 -6 -6 -17 -13
-23 -8 -6 -20 -49 -27 -96 -7 -47 -17 -88 -21 -91 -13 -7 3 139 17 168 8 15
14 32 14 39 0 15 59 89 71 89 5 0 9 -6 9 -13z m-734 -12 c4 -8 11 -15 18 -15
12 0 33 -43 48 -98 16 -61 15 -84 -7 -96 -11 -6 -22 -13 -25 -16 -3 -3 -28 -6
-55 -7 -39 -2 -57 3 -78 20 l-26 22 29 60 c16 33 29 63 30 67 0 15 42 78 51
78 5 0 12 -7 15 -15z m-296 -491 c-21 -33 -40 -40 -47 -18 -2 5 6 20 17 32 11
11 20 26 20 31 0 6 6 23 13 38 l12 28 3 -38 c2 -25 -4 -49 -18 -73z m1117 84
c-3 -8 -6 -5 -6 6 -1 11 2 17 5 13 3 -3 4 -12 1 -19z m-2617 -13 c0 -8 -7 -15
-15 -15 -26 0 -18 20 13 29 1 1 2 -6 2 -14z m2595 -55 c-9 -41 -17 -33 -9 9 4
17 9 30 11 27 3 -2 2 -19 -2 -36z m-35 -71 c0 -48 -1 -49 -30 -49 -34 0 -38 7
-13 25 13 10 17 24 14 56 -2 38 -1 42 13 30 11 -9 16 -30 16 -62z m-1680 -84
c20 -6 38 -45 42 -90 3 -43 -9 -58 -30 -37 -16 17 -92 119 -92 125 0 6 63 7
80 2z m-1251 -87 c-1 -22 -3 -26 -6 -13 -3 11 -10 26 -15 33 -8 9 -6 12 6 12
12 0 16 -9 15 -32z m3591 -140 c0 -30 -116 79 -148 139 -25 46 -9 35 68 -46
44 -46 80 -88 80 -93z m-3650 114 c0 -17 -28 -21 -40 -6 -10 11 -10 17 0 29
10 12 14 12 26 0 8 -7 14 -18 14 -23z m-350 -52 c-6 -11 -12 -20 -14 -20 -2 0
-2 9 1 20 3 11 9 20 15 20 5 0 4 -9 -2 -20z m2787 -23 c7 -5 10 -13 7 -18 -7
-12 -44 13 -44 29 0 13 11 10 37 -11z m669 -93 c-4 -19 -25 -69 -47 -110 l-39
-75 57 7 c32 3 66 10 75 15 9 5 28 9 41 9 13 0 34 9 47 20 26 23 42 26 34 8
-5 -13 -88 -78 -99 -78 -7 0 -23 -12 -82 -65 -75 -66 -79 -70 -99 -83 -10 -7
-27 -15 -36 -18 -10 -4 -18 -9 -18 -13 0 -3 -12 -12 -27 -18 -16 -7 -40 -23
-54 -35 -15 -13 -48 -41 -75 -63 -75 -61 -254 -231 -254 -241 0 -7 36 11 53
27 10 9 32 20 49 23 17 3 73 26 125 51 51 25 100 45 108 45 7 0 17 5 20 10 3
6 15 10 26 10 30 0 14 -17 -24 -25 -17 -4 -36 -11 -42 -15 -5 -4 -23 -10 -40
-14 -16 -4 -32 -11 -35 -14 -3 -4 -34 -22 -70 -41 -72 -37 -203 -121 -208
-133 -2 -4 -8 -8 -13 -8 -10 0 -59 -48 -59 -58 0 -3 10 3 22 14 12 10 27 22
33 27 5 4 21 16 34 27 13 11 30 20 37 20 7 0 14 4 16 8 2 7 149 83 193 101 6
2 -1 -8 -14 -23 l-24 -26 43 0 43 0 -29 -22 c-16 -12 -31 -25 -34 -29 -3 -3
-12 -9 -20 -12 -13 -5 -13 -6 0 -6 8 -1 31 7 50 17 38 20 113 36 123 26 16
-16 -55 -96 -143 -162 -19 -15 -45 -37 -57 -49 -12 -13 -27 -23 -33 -23 -5 0
-10 -4 -10 -9 0 -5 -9 -12 -19 -16 -11 -3 -23 -15 -26 -26 -28 -87 -125 -147
-169 -104 -8 8 -20 15 -26 15 -8 0 -10 11 -6 33 5 25 4 27 -3 11 -5 -12 -14
-25 -19 -28 -13 -8 -92 46 -92 64 0 8 14 30 30 49 32 36 38 54 17 45 -8 -3
-24 -22 -38 -44 -27 -44 -35 -47 -61 -23 -23 21 -23 54 0 84 10 13 21 32 25
42 3 9 11 17 17 17 5 0 10 7 10 15 0 20 225 238 350 341 19 16 54 47 77 69 23
22 53 51 68 64 34 32 23 40 -16 12 -27 -20 -34 -22 -58 -11 -38 18 -160 43
-203 42 -44 -2 -59 14 -26 27 50 20 132 41 157 41 15 0 31 4 37 9 14 13 93 31
254 56 28 4 77 56 106 112 10 21 22 40 26 43 3 3 10 18 13 33 4 15 11 27 16
27 5 0 9 9 9 20 0 11 3 20 6 20 3 0 3 -16 0 -36z m-1766 -60 c0 -3 -12 -9 -27
-15 -21 -7 -39 -29 -67 -84 -22 -41 -43 -75 -48 -75 -4 0 -8 -5 -8 -11 0 -18
-38 -61 -68 -77 -15 -8 -44 -16 -66 -17 -21 -2 -41 -7 -45 -13 -3 -5 -17 -11
-31 -14 -67 -15 -130 -53 -130 -78 0 -5 -4 -10 -8 -10 -4 0 -25 -25 -47 -55
-40 -55 -57 -63 -63 -31 -4 18 34 103 55 124 7 7 13 18 13 23 0 19 35 47 100
80 36 19 71 40 78 46 7 7 20 13 28 13 8 0 14 5 14 10 0 6 7 10 15 10 10 0 15
-11 16 -37 1 -21 3 -29 5 -18 18 90 29 132 36 142 8 10 84 44 178 79 37 14 70
18 70 8z m-1630 -76 c38 -7 70 -16 70 -21 0 -4 -5 -5 -11 -2 -13 8 -38 -23
-39 -47 0 -19 -30 -26 -30 -8 0 6 -7 10 -15 10 -8 0 -15 -4 -15 -10 0 -5 5
-10 10 -10 6 0 10 -7 10 -15 0 -8 -4 -15 -9 -15 -5 0 -11 -9 -14 -20 -5 -20
-30 -26 -87 -22 -30 3 -102 -15 -149 -35 -45 -20 -55 -4 -32 56 13 37 22 47
44 49 25 3 27 7 27 47 l0 44 43 4 c88 8 129 7 197 -5z m2584 -53 c-4 -8 -10
-15 -15 -15 -5 0 -9 -6 -9 -14 0 -8 -22 -57 -50 -110 -27 -53 -50 -103 -50
-111 0 -8 -4 -15 -10 -15 -5 0 -10 -6 -10 -12 0 -7 -6 -24 -13 -38 -36 -68
-22 -93 24 -42 43 48 109 94 125 88 9 -3 30 5 47 18 18 13 42 29 54 35 37 19
18 -10 -25 -39 -20 -14 -42 -29 -48 -35 -6 -5 -25 -21 -43 -35 -18 -14 -42
-33 -53 -42 -12 -10 -25 -18 -30 -18 -4 0 -8 -4 -8 -10 0 -15 26 -12 40 5 7 8
17 15 23 15 5 0 -2 -9 -16 -20 -14 -11 -27 -20 -30 -20 -2 0 -21 -16 -42 -35
l-37 -35 34 -34 c27 -28 41 -35 78 -36 25 -1 47 -1 50 0 3 2 23 3 46 4 l41 2
-49 -47 c-47 -45 -49 -46 -102 -43 -56 4 -66 -2 -134 -83 -10 -11 -37 -31 -60
-43 -41 -21 -72 -65 -72 -102 0 -10 -4 -18 -9 -18 -15 0 -20 25 -14 69 4 32 2
41 -9 41 -9 0 -22 7 -29 16 -10 13 -25 15 -75 9 -50 -5 -64 -3 -78 11 -24 23
-16 48 17 52 15 2 27 7 27 12 0 4 11 11 25 14 25 6 52 26 107 78 16 16 58 41
93 58 36 17 65 34 65 39 0 5 12 14 28 21 49 20 72 34 76 47 3 7 -1 13 -8 13
-8 0 -16 -6 -19 -13 -6 -16 -74 -53 -82 -45 -4 4 0 21 9 40 17 37 35 124 45
208 5 50 8 55 31 56 35 0 42 6 70 59 35 66 44 81 59 99 17 20 22 20 15 1z
m1470 -110 c25 -25 49 -45 54 -45 13 0 132 -117 132 -129 0 -6 -4 -11 -10 -11
-5 0 -10 -8 -10 -18 0 -10 -12 -29 -27 -42 -16 -12 -43 -36 -60 -53 -29 -27
-34 -29 -50 -16 -41 34 -198 87 -298 101 -38 5 -81 11 -95 13 -14 2 -35 4 -46
4 -27 1 -36 32 -18 63 8 12 16 30 20 39 4 11 21 18 52 21 47 5 66 13 195 82
38 20 79 36 93 36 15 0 40 -16 68 -45z m46 25 c3 -4 12 -10 20 -14 8 -3 0 -4
-18 -1 -18 2 -40 12 -49 20 -14 15 -13 15 13 9 16 -4 31 -10 34 -14z m-541
-134 c-37 -48 -69 -71 -69 -50 0 26 59 94 82 94 10 0 18 5 18 12 0 6 3 9 6 5
3 -3 -13 -31 -37 -61z m-3330 20 c7 -8 25 -18 41 -21 16 -3 34 -13 41 -21 10
-13 5 -23 -34 -59 -25 -24 -58 -47 -74 -51 l-28 -7 20 22 c16 19 17 24 5 31
-8 6 -23 10 -32 10 -10 0 -18 4 -18 9 0 5 -7 11 -15 13 -11 2 -8 11 15 35 17
18 30 37 30 42 0 16 36 13 49 -3z m2138 -3 c5 -14 -22 -24 -42 -17 -14 6 -13
8 2 20 20 15 35 14 40 -3z m-2517 -23 c0 -12 -7 -34 -15 -49 -12 -24 -19 -27
-42 -23 -15 3 -31 9 -34 15 -4 5 -35 -1 -77 -16 -79 -28 -94 -21 -63 29 14 24
29 31 77 41 32 7 68 14 79 17 53 10 75 6 75 -14z m3074 -6 c4 -11 1 -14 -11
-12 -10 2 -19 11 -21 21 -4 21 24 13 32 -9z m559 11 c-3 -9 -8 -14 -10 -11 -3
3 -2 9 2 15 9 16 15 13 8 -4z m-1126 -142 c-3 -10 -5 -2 -5 17 0 19 2 27 5 18
2 -10 2 -26 0 -35z m1574 -58 c35 -10 80 -24 99 -33 l35 -15 -35 -13 c-50 -18
-188 -17 -224 1 -15 8 -36 15 -45 15 -9 0 -27 7 -39 16 -12 8 -34 16 -49 17
-18 2 -29 9 -31 21 -4 18 2 19 111 13 63 -3 143 -13 178 -22z m-1875 -93 c6
-4 14 -15 17 -26 6 -16 4 -17 -20 -11 -34 8 -55 24 -47 36 6 11 35 12 50 1z
m1614 -52 c0 -5 -4 -10 -9 -10 -6 0 -13 5 -16 10 -3 6 1 10 9 10 9 0 16 -4 16
-10z m-2922 -89 c4 -27 -34 -69 -49 -54 -11 11 -2 43 12 43 5 0 9 9 9 21 0 28
24 19 28 -10z m1802 0 c0 -5 -7 -11 -14 -14 -10 -4 -13 -1 -9 9 6 15 23 19 23
5z m-1813 -241 c23 -68 33 -105 64 -223 5 -21 13 -45 18 -55 5 -9 17 -43 27
-74 15 -47 15 -59 5 -72 -7 -9 -17 -14 -21 -11 -5 3 -15 -4 -24 -16 -13 -19
-18 -20 -31 -9 -19 15 -30 3 -67 -72 -13 -26 -29 -47 -37 -48 -11 0 -11 -4 2
-18 10 -10 17 -22 17 -27 0 -5 7 -16 16 -26 16 -18 10 -41 -19 -71 -14 -14
-47 -107 -47 -132 0 -9 -6 -16 -13 -16 -14 0 -47 35 -47 49 0 5 -7 14 -15 21
-17 14 -20 71 -5 98 26 48 49 111 48 138 -1 36 50 144 67 144 7 0 16 12 20 27
3 15 10 30 13 33 14 11 62 116 62 136 0 12 -4 34 -9 50 -5 16 -16 54 -25 84
-44 155 -59 201 -67 206 -6 3 -5 12 2 20 13 16 14 16 66 -136z m-577 -29 c0
-6 -4 -12 -10 -16 -5 -3 -7 -12 -4 -20 5 -13 -41 -45 -66 -45 -20 0 -11 57 13
73 24 18 67 22 67 8z m2070 -6 c0 -8 -9 -15 -20 -15 -20 0 -26 11 -13 23 12
13 33 7 33 -8z m-2403 -467 c17 -38 43 -122 43 -139 0 -9 7 -30 15 -45 8 -16
15 -39 15 -51 0 -12 4 -24 9 -27 5 -4 12 -24 16 -47 4 -22 13 -53 21 -67 8
-15 14 -35 14 -45 0 -9 4 -25 10 -35 5 -9 23 -62 41 -117 40 -130 58 -183 75
-222 8 -17 14 -35 14 -40 0 -39 99 -176 208 -290 42 -43 72 -119 72 -179 0
-50 35 -102 127 -191 53 -51 103 -93 113 -93 23 0 56 -25 42 -33 -5 -4 -45 -2
-87 5 -66 10 -78 15 -90 38 -7 14 -44 54 -82 89 -37 34 -91 84 -118 109 -28
26 -73 65 -100 87 -28 22 -61 50 -75 62 -14 13 -28 23 -31 23 -22 0 -60 139
-93 342 -6 36 -14 70 -18 74 -5 4 -8 20 -8 37 0 16 -6 56 -14 90 -8 34 -22 96
-31 137 -16 72 -39 153 -56 195 -4 11 -15 61 -24 110 -15 82 -34 154 -56 212
-4 11 -5 24 -2 27 14 13 40 5 50 -16z m1522 -535 c28 -26 31 -36 40 -132 6
-57 16 -122 22 -145 19 -75 42 -141 56 -161 7 -11 13 -29 13 -40 0 -12 4 -25
8 -31 30 -33 132 -355 132 -416 0 -27 4 -68 10 -91 5 -23 15 -114 21 -202 6
-88 13 -186 16 -218 l5 -58 31 6 32 6 -29 -27 c-23 -21 -29 -34 -28 -60 2 -19
-2 -34 -8 -34 -5 0 -10 -5 -10 -11 0 -15 -24 -33 -80 -61 -25 -13 -47 -25 -50
-28 -3 -3 -31 -23 -63 -45 -61 -41 -107 -86 -52 -50 89 58 131 63 105 15 -11
-21 -10 -22 13 -16 l24 6 5 -218 c5 -211 4 -217 -16 -234 -33 -28 -39 -32 -76
-58 -19 -13 -49 -38 -66 -55 -43 -42 -73 -65 -84 -65 -6 0 -10 -4 -10 -10 0
-5 -20 -19 -44 -31 -24 -11 -75 -49 -112 -84 l-69 -63 25 -21 c14 -11 37 -20
53 -21 32 0 32 1 10 -47 -18 -38 -34 -56 -86 -96 -15 -12 -37 -29 -47 -37 -10
-8 -32 -25 -47 -37 -15 -12 -46 -38 -68 -57 -37 -34 -65 -46 -65 -28 0 30 27
90 50 114 16 15 32 38 36 51 4 12 9 24 13 27 8 7 31 57 72 155 18 44 36 85 41
92 9 12 20 62 43 208 8 50 19 115 24 146 13 85 19 96 57 119 18 12 34 26 34
31 0 5 6 9 13 9 17 0 94 76 112 110 8 15 17 52 19 83 9 90 23 137 49 161 13
12 27 36 30 52 3 16 15 61 26 99 11 39 25 108 32 155 6 47 15 110 19 140 11
73 11 241 0 310 -5 30 -13 82 -18 116 -8 49 -49 174 -102 309 -34 86 -63 179
-71 225 -11 73 -37 219 -44 248 -7 31 16 29 54 -5z m-548 -86 c-10 -9 -11 -8
-5 6 3 10 9 15 12 12 3 -3 0 -11 -7 -18z m-78 -92 c-3 -9 -8 -14 -10 -11 -3 3
-2 9 2 15 9 16 15 13 8 -4z m2232 -771 c22 -33 29 -174 9 -174 -11 0 -14 15
-14 63 0 43 -6 74 -20 100 -11 20 -20 39 -20 42 0 12 30 -9 45 -31z m330 4 c2
-13 1 -48 -3 -78 l-7 -55 -26 44 c-27 45 -28 81 -3 81 8 0 14 7 14 15 0 23 19
18 25 -7z m-134 -76 c1 -29 0 -54 -3 -57 -3 -3 -23 13 -46 35 l-41 40 37 25
c20 14 40 21 44 17 4 -4 8 -31 9 -60z m-11 -199 c0 -34 -4 -63 -8 -63 -4 0
-25 18 -46 39 -39 40 -41 61 -4 61 15 0 19 5 15 18 -22 70 -23 68 11 37 30
-26 32 -33 32 -92z m144 40 c-4 -32 -9 -60 -11 -63 -6 -7 -53 52 -48 60 3 4
-2 11 -11 14 -28 11 14 40 64 45 9 1 11 -13 6 -56z m116 38 c0 -11 -4 -23 -10
-26 -5 -3 -13 -20 -18 -37 l-8 -32 -18 40 c-11 21 -24 42 -30 47 -17 11 13 27
52 27 25 0 32 -4 32 -19z m-460 -41 c3 0 6 -34 8 -76 1 -57 -1 -75 -10 -72 -7
3 -15 27 -18 54 -3 27 -16 68 -28 90 -26 50 -19 61 16 28 15 -13 29 -24 32
-24z m453 -98 c-21 -7 -43 -10 -49 -8 -7 3 -15 -1 -17 -9 -3 -7 -21 -16 -39
-20 -48 -9 -127 -32 -262 -75 -32 -10 -40 -10 -47 1 -14 23 -10 39 10 39 11 0
22 4 25 9 3 5 21 12 40 15 20 4 48 13 63 21 15 8 38 15 51 15 13 0 31 4 41 10
10 5 52 12 92 15 41 4 78 10 83 15 5 5 17 3 27 -3 17 -11 15 -13 -18 -25z
m-43 -134 c18 -35 33 -65 34 -68 0 -3 9 -4 20 -2 22 3 46 -15 46 -33 0 -15
-51 -35 -86 -35 -13 0 -24 -4 -24 -10 0 -5 -6 -10 -12 -10 -7 0 -25 -6 -39
-14 -14 -7 -38 -16 -55 -20 -16 -4 -31 -11 -34 -15 -3 -5 -22 -11 -42 -15 -31
-6 -39 -3 -47 13 -9 16 -7 23 11 36 l23 16 -29 24 c-16 13 -35 21 -43 18 -7
-3 -13 -1 -13 5 0 18 -72 54 -97 47 -13 -3 -23 -1 -23 5 0 5 7 10 15 10 8 0
31 7 52 16 64 28 76 32 133 48 30 8 75 22 100 29 74 23 76 22 110 -45z m197
-65 c2 -6 -10 -14 -26 -18 -38 -8 -55 1 -38 20 14 17 59 16 64 -2z m-392 -670
c-27 -2 -54 -8 -59 -14 -6 -5 -16 -9 -23 -9 -11 0 -11 3 -1 15 9 10 31 14 73
13 60 -2 60 -2 10 -5z m105 2 c0 -5 -56 -35 -66 -35 -4 0 1 9 11 20 16 17 55
28 55 15z m-505 -75 c-32 -33 -45 -38 -45 -16 0 21 28 46 53 46 19 0 19 -2 -8
-30z m-545 -5 c-22 -23 -30 -25 -119 -25 l-96 0 25 24 c23 23 33 25 119 25
l94 1 -23 -25z m1080 21 c0 -3 -4 -8 -10 -11 -5 -3 -10 -1 -10 4 0 6 5 11 10
11 6 0 10 -2 10 -4z m160 -16 c0 -11 -7 -20 -15 -20 -8 0 -15 9 -15 20 0 11 7
20 15 20 8 0 15 -9 15 -20z m1 -92 c20 -15 42 -28 48 -28 6 0 11 -7 11 -15 0
-8 -7 -15 -15 -15 -23 0 -21 -77 2 -82 12 -2 1 -15 -37 -42 -30 -22 -59 -44
-65 -51 -5 -6 -27 -21 -47 -34 -21 -12 -38 -28 -38 -34 0 -8 -3 -8 -11 0 -9 9
-8 16 5 28 20 21 21 32 1 15 -39 -32 -67 50 -40 117 15 38 15 44 1 72 -16 31
-21 86 -10 115 8 22 41 20 71 -4 41 -32 48 -23 9 12 -20 17 -36 35 -36 40 0 9
96 -50 151 -94z m-1493 -165 c-25 -25 -34 -27 -140 -31 l-113 -4 29 31 30 31
110 0 111 0 -27 -27z m1662 -397 c0 -18 13 -76 30 -127 35 -111 38 -154 11
-162 -16 -4 -19 6 -30 97 -7 55 -16 123 -21 149 -13 61 -12 77 0 77 6 0 10
-15 10 -34z"/>
<path d="M3843 7160 c0 -47 2 -66 4 -42 2 23 2 61 0 85 -2 23 -4 4 -4 -43z"/>
<path d="M3851 7013 c-1 -25 2 -31 14 -27 16 7 21 24 6 24 -5 0 -12 8 -14 18
-3 9 -5 3 -6 -15z"/>
<path d="M3820 6979 c0 -22 -6 -47 -14 -55 -18 -17 -30 -18 -24 -1 3 6 -1 26
-8 42 -13 30 -13 30 -14 -21 0 -33 5 -56 14 -63 10 -8 13 -24 9 -49 -3 -28 -2
-33 6 -22 6 8 11 32 11 52 0 20 3 38 8 40 16 7 43 71 33 81 -5 5 -7 16 -4 23
3 8 0 14 -6 14 -6 0 -11 -18 -11 -41z"/>
<path d="M3950 6982 c0 -12 39 -60 40 -49 0 5 -9 20 -20 34 -11 14 -20 21 -20
15z"/>
<path d="M3424 4427 c-27 -31 -51 -77 -59 -114 -3 -18 -11 -35 -16 -38 -15
-10 -10 -25 6 -19 8 4 15 15 15 26 0 17 49 116 73 146 18 23 1 22 -19 -1z"/>
<path d="M3308 4381 c-9 -10 -19 -29 -23 -42 -4 -13 -11 -26 -15 -29 -4 -3
-10 -22 -14 -44 -6 -29 -4 -37 6 -34 7 3 15 18 18 34 4 16 18 53 33 82 27 53
25 67 -5 33z"/>
<path d="M4400 4510 c-13 -9 -13 -10 0 -10 8 0 22 5 30 10 13 9 13 10 0 10 -8
0 -22 -5 -30 -10z"/>
<path d="M4405 4370 c-3 -5 -1 -10 4 -10 6 0 11 5 11 10 0 6 -2 10 -4 10 -3 0
-8 -4 -11 -10z"/>
<path d="M4570 4370 c-9 -6 -10 -10 -3 -10 6 0 15 5 18 10 8 12 4 12 -15 0z"/>
<path d="M4471 4273 c-1 -6 -4 -20 -7 -30 -5 -17 -5 -17 6 0 6 10 9 23 6 30
-3 9 -5 9 -5 0z"/>
<path d="M3171 1175 c-2 -14 -59 -45 -84 -45 -12 0 -39 -15 -60 -33 -36 -30
-39 -37 -53 -122 -8 -49 -17 -107 -20 -127 -4 -21 -4 -38 -1 -38 7 0 116 73
194 130 66 49 73 63 73 163 0 40 -3 47 -19 47 -11 0 -22 8 -24 18 -3 9 -5 13
-6 7z"/>
<path d="M520 7960 l0 -80 100 0 100 0 0 -48 c0 -71 -17 -82 -118 -82 l-82 0
0 -75 0 -75 70 0 c77 0 136 22 164 61 l14 21 34 -25 c18 -13 47 -32 65 -41 37
-19 131 -31 168 -22 23 6 24 8 10 22 -8 9 -15 33 -15 57 -1 64 -16 77 -92 77
-80 0 -98 15 -98 83 l0 47 50 0 c34 0 52 5 56 14 3 7 -4 40 -15 72 l-19 59
-64 6 c-35 4 -123 7 -195 8 l-133 1 0 -80z"/>
<path d="M977 8013 c3 -10 9 -22 13 -28 4 -5 10 -22 13 -36 5 -21 2 -28 -19
-38 -14 -6 -22 -16 -19 -21 8 -12 80 -2 117 16 35 18 77 19 60 2 -20 -20 -14
-28 23 -28 l35 0 0 -48 c0 -53 -20 -82 -56 -82 -47 0 -60 -10 -56 -41 4 -24 0
-31 -16 -36 -23 -6 -38 -32 -19 -34 25 -2 62 3 67 10 3 4 22 12 43 18 34 10
38 10 35 -5 -2 -9 -12 -18 -23 -20 -30 -6 -48 -23 -36 -35 17 -17 102 34 134
79 38 54 46 97 47 232 l0 112 -175 0 c-162 0 -174 -1 -168 -17z"/>
<path d="M520 7815 l0 -36 83 3 82 3 3 33 3 32 -85 0 -86 0 0 -35z"/>
<path d="M872 7818 c3 -33 3 -33 66 -36 67 -3 73 2 46 43 -14 21 -24 25 -66
25 l-49 0 3 -32z"/>
<path d="M1053 7815 c11 -36 11 -36 61 -33 49 3 51 4 54 36 l3 32 -64 0 -65 0
11 -35z"/>
<path d="M520 7160 l0 -79 113 -3 112 -3 3 -72 3 -73 44 0 44 0 3 73 3 72 80
3 c44 2 122 0 173 -3 l92 -7 0 -94 0 -94 48 0 c26 0 53 5 60 12 14 14 16 52 2
76 -5 9 -23 53 -40 97 -17 44 -38 92 -46 107 -8 14 -14 33 -14 40 0 12 -34 16
-187 21 -104 4 -257 7 -340 7 l-153 0 0 -80z"/>
<path d="M1285 7208 c12 -39 25 -44 25 -10 0 22 -5 32 -16 32 -11 0 -14 -6 -9
-22z"/>
<path d="M520 6715 l0 -335 96 0 c94 0 104 2 360 85 145 47 264 87 264 89 0 4
29 182 38 238 8 46 8 46 -21 52 -16 3 -45 6 -63 6 l-34 0 0 95 0 95 -145 0
-145 0 0 -70 0 -70 -75 0 -74 0 -3 73 -3 72 -97 3 -98 3 0 -336z"/>
<path d="M1265 6525 c-22 -8 -154 -50 -294 -94 -246 -79 -256 -81 -352 -81
l-99 0 0 -75 0 -75 98 0 c96 0 100 -1 382 -95 157 -52 290 -95 297 -95 9 0 13
20 13 70 l0 69 -42 11 c-119 32 -365 103 -378 110 -10 6 -1 12 34 21 32 8 50
18 54 31 2 10 8 18 13 18 5 0 9 5 9 10 0 27 45 70 79 76 20 4 41 10 46 14 6 4
30 11 55 15 24 4 51 11 60 16 8 4 27 10 43 14 21 4 27 11 27 30 0 14 -1 25 -2
24 -2 0 -21 -7 -43 -14z"/>
<path d="M1235 6448 c-16 -5 -61 -17 -100 -27 -67 -16 -70 -18 -70 -46 0 -17
-4 -34 -10 -38 -15 -12 53 2 157 32 91 26 93 28 96 59 3 28 0 32 -20 31 -13 0
-36 -5 -53 -11z"/>
<path d="M520 5591 l0 -61 159 0 159 0 6 -26 c4 -15 3 -30 -1 -34 -4 -4 -79
-22 -165 -41 l-158 -34 0 -97 0 -98 390 0 390 0 0 65 0 65 -284 0 -284 0 -6
26 c-4 15 -5 28 -3 30 2 2 133 30 293 62 l289 58 3 52 c2 28 -2 61 -8 73 -10
18 -17 20 -48 14 -21 -4 -55 -6 -77 -6 -22 0 -178 3 -347 7 l-308 6 0 -61z"/>
<path d="M1340 5513 l0 -30 -290 -59 -290 -59 288 -5 287 -5 5 -74 c4 -65 6
-71 16 -50 23 47 32 85 37 146 4 51 1 70 -19 109 -31 61 -34 63 -34 27z"/>
<path d="M520 5465 c0 -19 5 -35 10 -35 17 0 284 61 289 65 2 3 -64 5 -147 5
l-152 0 0 -35z"/>
<path d="M520 5007 l0 -162 288 -49 c158 -26 299 -50 315 -53 27 -5 27 -5 27
49 0 49 3 55 29 71 33 19 43 60 31 127 -7 38 -5 52 13 85 18 32 29 41 56 45
23 3 36 12 42 28 l8 22 -404 0 -405 0 0 -163z"/>
<path d="M520 4600 c0 -161 3 -210 13 -210 18 0 630 99 644 105 12 4 5 41 -18
90 -5 11 -8 42 -7 70 l3 50 -295 52 c-162 28 -305 52 -317 52 l-23 1 0 -210z
m250 50 c113 -11 213 -20 223 -20 12 0 17 -8 17 -30 0 -35 1 -35 -210 -50 -80
-6 -171 -13 -202 -17 l-58 -6 0 72 c0 50 4 71 13 71 6 0 104 -9 217 -20z"/>
<path d="M578 4604 c-2 -19 -2 -36 1 -38 3 -1 94 5 201 14 214 17 212 20 -30
40 -69 6 -135 13 -146 15 -19 4 -22 -1 -26 -31z"/>
<path d="M1203 4653 c2 -21 11 -62 18 -90 13 -50 15 -53 46 -53 l33 0 0 84 c0
92 -3 96 -74 96 -27 0 -28 -2 -23 -37z"/>
</g>
</svg>
