<?xml version="1.0" standalone="no"?>
<!DOCTYPE svg PUBLIC "-//W3C//DTD SVG 20010904//EN"
 "http://www.w3.org/TR/2001/REC-SVG-20010904/DTD/svg10.dtd">
<svg version="1.0" xmlns="http://www.w3.org/2000/svg"
 width="601.000000pt" height="867.000000pt" viewBox="0 0 601.000000 867.000000"
 preserveAspectRatio="xMidYMid meet">

<g transform="translate(0.000000,867.000000) scale(0.100000,-0.100000)"
fill="#000000" stroke="none">
<path d="M903 8656 c-88 -22 -164 -66 -234 -135 -102 -102 -149 -219 -149
-371 l0 -70 70 0 71 0 -3 -102 -3 -103 -67 -3 -68 -3 0 -34 0 -35 62 0 61 0
81 88 c181 195 182 196 362 190 103 -3 114 -5 160 -33 76 -47 106 -98 112
-189 6 -90 -13 -149 -61 -198 -54 -54 -99 -68 -219 -68 l-108 0 0 105 0 104
98 3 c96 3 97 3 97 28 0 24 -2 25 -80 28 -44 2 -89 1 -101 -2 -11 -3 -66 -57
-122 -121 -56 -63 -117 -122 -134 -131 -20 -10 -67 -19 -120 -22 l-89 -5 3
-141 3 -140 410 -71 c401 -69 409 -70 415 -95 4 -19 17 -28 60 -41 64 -19 229
-84 280 -109 52 -26 122 -92 203 -189 40 -47 176 -193 304 -323 195 -199 234
-243 244 -280 7 -24 13 -99 13 -170 0 -137 3 -127 -60 -190 -11 -11 -88 -60
-170 -108 l-150 -87 -56 38 c-53 37 -58 38 -88 25 -24 -9 -46 -37 -91 -112
-33 -54 -58 -107 -55 -116 5 -21 -10 -65 -47 -136 -33 -63 -97 -219 -97 -236
0 -7 22 -22 49 -34 64 -29 161 -99 161 -117 0 -7 5 -15 12 -17 16 -6 -31 -88
-51 -88 -12 0 -13 -2 -3 -8 7 -5 10 -16 6 -25 -3 -9 3 -29 13 -44 44 -63 83
-144 83 -170 0 -30 -47 -83 -58 -67 -4 5 -18 10 -32 11 -14 1 -55 4 -92 7 -38
3 -68 3 -68 1 0 -3 7 -17 16 -31 13 -18 15 -38 11 -80 -5 -47 -3 -54 11 -52
12 2 16 -3 14 -17 -5 -27 -14 -35 -45 -41 -21 -3 -25 -1 -21 11 5 11 -1 15
-22 15 -16 0 -36 4 -43 9 -9 6 -22 6 -32 0 -23 -12 -57 1 -91 36 -37 36 -38
88 -3 139 31 46 31 50 0 70 -28 18 -72 21 -112 5 -35 -13 -39 -19 -42 -76 -1
-30 -8 -51 -19 -59 -22 -17 -62 -18 -62 -1 0 6 -8 2 -18 -11 -15 -19 -20 -21
-35 -10 -16 12 -16 16 -2 60 9 26 23 52 31 59 16 13 19 45 4 54 -5 3 -10 25
-10 49 0 41 -1 42 -35 43 -19 1 -35 -3 -35 -8 0 -5 -7 -9 -15 -9 -8 0 -15 5
-15 10 0 6 6 10 14 10 8 0 18 5 22 11 9 16 -19 41 -39 33 -19 -7 -61 -77 -71
-119 -4 -16 -12 -33 -18 -36 -5 -4 -8 -15 -5 -25 4 -17 6 -17 12 4 4 12 11 22
16 22 4 0 14 -10 20 -22 6 -13 22 -34 34 -48 21 -23 22 -29 12 -82 -12 -64 2
-132 28 -142 12 -4 15 6 15 54 0 33 4 60 10 60 5 0 7 -6 4 -14 -3 -7 6 -20 19
-29 13 -9 27 -28 30 -44 6 -29 104 -150 119 -145 4 1 33 -12 63 -29 30 -17 59
-28 64 -25 5 3 14 0 20 -8 9 -11 21 -12 53 -5 22 6 43 8 45 5 12 -11 -10 -24
-49 -29 -34 -5 -56 1 -117 29 -41 19 -76 33 -77 31 -2 -2 24 -27 59 -55 l62
-53 153 4 c83 2 152 0 152 -3 0 -24 -188 -51 -272 -40 -85 12 -112 21 -209 71
-146 76 -237 195 -257 337 -9 64 -19 86 -77 180 l-66 106 7 73 6 73 43 -25
c24 -14 48 -25 53 -25 5 0 12 19 16 41 5 31 3 46 -9 59 -12 13 -13 20 -5 25 6
4 9 17 6 29 -4 17 4 31 31 57 31 29 33 30 17 7 -10 -15 -22 -28 -26 -28 -5 0
-8 -8 -7 -17 0 -11 3 -13 6 -5 2 6 9 12 14 12 6 0 7 -4 4 -10 -14 -23 24 -8
39 15 9 14 21 25 27 25 12 0 69 57 69 70 0 21 20 9 21 -12 1 -13 7 5 15 39 7
34 24 88 38 120 l24 58 -47 3 -47 3 4 99 4 100 -145 0 -146 0 -3 -72 -3 -73
-77 -3 -78 -3 0 76 0 75 -95 0 -95 0 0 -2525 c0 -1804 3 -2539 11 -2577 16
-76 62 -168 114 -225 53 -60 148 -128 168 -120 8 3 28 30 46 61 42 76 48 71 9
-9 -18 -35 -29 -67 -25 -71 3 -3 32 -13 64 -20 46 -11 188 -14 668 -14 l610 1
17 37 c22 47 125 153 168 174 l33 16 23 -64 c12 -36 34 -86 47 -112 l25 -47
666 -3 c474 -1 673 1 688 9 14 8 23 8 27 1 15 -24 46 -4 71 46 14 28 29 55 33
59 4 3 35 12 70 19 l62 12 -49 1 -48 1 7 73 c4 39 11 77 15 82 4 6 10 18 13
28 6 16 4 16 -21 3 -15 -8 -45 -28 -66 -45 -22 -17 -41 -29 -44 -27 -2 3 5 22
16 43 12 21 28 56 37 78 47 113 149 323 166 341 11 11 25 21 32 21 7 0 36 16
65 36 28 21 76 53 105 74 28 20 77 55 107 78 30 22 70 50 88 60 17 11 32 23
32 27 0 4 4 8 10 8 5 0 8 -18 5 -42 -28 -248 -37 -313 -40 -316 -2 -2 1 -17 7
-34 9 -26 7 -33 -19 -61 -70 -75 -101 -138 -123 -248 -6 -31 -19 -73 -29 -92
-16 -31 -16 -37 -3 -42 9 -3 27 9 50 36 40 46 116 123 187 188 32 29 41 42 27
39 -20 -6 -38 13 -25 26 10 9 25 7 19 -3 -3 -5 1 -8 10 -7 9 0 38 -28 66 -64
28 -36 57 -74 66 -85 10 -11 30 -39 46 -63 33 -48 42 -51 52 -20 3 12 24 50
45 85 22 35 39 65 39 68 0 2 15 29 34 60 28 47 33 63 29 98 l-5 42 54 10 55
10 25 -65 c40 -101 46 -130 68 -330 20 -177 23 -200 30 -200 6 0 16 128 21
265 1 11 -4 117 -10 235 -6 118 -13 314 -16 435 -3 121 -10 258 -16 305 -9 80
-26 218 -33 267 -4 31 32 25 49 -8 20 -39 109 -400 109 -444 0 -22 -5 -71 -12
-110 -32 -194 -41 -321 -47 -634 l-6 -334 153 6 c102 3 171 11 208 22 30 9 56
18 57 19 2 1 -2 18 -8 37 -25 80 -78 330 -95 444 -2 17 -11 75 -19 130 -8 55
-22 150 -31 210 -9 61 -18 154 -19 207 -2 53 -6 106 -10 117 -10 32 1 26 68
-34 33 -30 63 -52 66 -49 3 3 -2 11 -12 18 -23 18 -21 35 6 45 28 11 41 -6 68
-96 12 -37 24 -72 28 -78 16 -23 101 -323 101 -357 0 -15 -13 -1 -46 48 -25
38 -42 60 -38 49 4 -11 11 -62 16 -113 8 -79 7 -96 -6 -117 -9 -14 -23 -25
-32 -25 -23 0 -8 -17 23 -25 37 -9 112 -90 143 -153 14 -28 28 -51 31 -52 9 0
46 96 59 150 14 66 14 7801 -1 7872 -39 187 -200 348 -387 387 -81 17 -4638
14 -4709 -3z m4450 -466 c57 -22 156 -93 165 -117 3 -10 -65 -13 -317 -13
-179 0 -321 4 -321 9 0 31 140 121 217 141 62 15 191 5 256 -20z m-369 -529
c86 -150 155 -276 152 -278 -9 -10 -100 18 -144 43 -125 73 -199 187 -217 336
-9 70 20 207 39 187 7 -8 84 -137 170 -288z m625 245 c29 -117 4 -252 -66
-354 -57 -83 -163 -154 -252 -168 l-42 -7 147 254 c80 140 156 271 167 291 12
20 24 35 28 32 4 -2 12 -24 18 -48z m-209 16 c0 -11 -178 -323 -194 -339 -9
-10 -34 27 -111 159 -55 94 -101 175 -103 180 -2 4 89 8 202 8 113 0 206 -4
206 -8z m-1480 -189 c14 -6 48 -16 75 -23 49 -11 330 -112 370 -133 11 -6 27
-12 35 -13 14 -1 160 -54 168 -60 2 -1 -30 -37 -72 -80 -42 -42 -76 -82 -76
-88 0 -7 18 -50 40 -95 22 -46 39 -86 36 -88 -9 -10 -106 30 -106 44 0 8 -7
36 -16 63 -21 64 -70 100 -137 100 -27 0 -58 -7 -72 -16 -33 -21 -32 -10 4 35
15 20 33 46 40 59 9 16 21 22 46 22 18 0 37 -5 40 -10 4 -6 11 -8 16 -4 16 9
-21 30 -64 37 -27 4 -37 3 -34 -6 2 -7 -23 -26 -56 -44 -62 -34 -75 -33 -112
3 -10 10 -38 18 -68 21 -51 3 -79 13 -39 13 28 0 29 16 2 23 -13 3 -20 14 -20
29 0 14 -12 58 -26 99 -14 41 -28 80 -30 88 -4 11 -8 10 -19 -5 -14 -18 -14
-18 -15 3 0 14 9 24 28 31 15 5 29 9 32 8 3 -1 16 -7 30 -13z m-130 -68 c0 -5
-5 -3 -10 5 -5 8 -10 20 -10 25 0 6 5 3 10 -5 5 -8 10 -19 10 -25z m101 -205
c9 0 21 -12 27 -26 7 -14 17 -22 22 -19 6 3 24 -4 41 -16 l31 -22 -16 31 c-19
37 -20 42 -3 42 17 0 67 -65 67 -87 0 -11 5 -24 12 -31 25 -25 -2 -22 -33 5
-50 41 -75 53 -113 53 -68 0 -146 -52 -182 -121 -17 -34 -49 -41 -39 -8 4 12
14 29 23 40 9 10 17 25 18 33 2 16 42 76 50 76 3 0 3 -4 0 -9 -4 -5 -3 -16 0
-25 5 -12 9 -13 25 -3 25 15 26 52 2 42 -12 -4 -15 -3 -8 4 6 5 22 11 36 13
l26 3 -28 60 c-16 33 -28 65 -28 70 1 6 13 -16 27 -47 16 -36 33 -58 43 -58z
m-363 -53 c-28 -54 -96 -219 -136 -334 -40 -110 -93 -226 -136 -298 -114 -188
-166 -303 -242 -540 -9 -27 -20 -59 -25 -70 -4 -11 -44 -128 -88 -260 -81
-243 -118 -348 -166 -465 -14 -36 -38 -96 -52 -134 -14 -38 -61 -138 -104
-221 -44 -84 -88 -177 -98 -206 -22 -64 -103 -231 -108 -225 -3 2 33 91 78
198 167 393 215 519 379 983 49 138 107 300 130 360 76 204 121 329 217 600
52 149 102 282 111 296 9 15 35 53 57 85 22 33 73 108 113 167 41 60 76 106
80 102 3 -3 -1 -20 -10 -38z m1096 27 c25 -10 19 -19 -21 -33 -20 -8 -59 -27
-86 -43 -27 -16 -51 -27 -54 -25 -3 4 135 107 143 107 1 0 9 -3 18 -6z m-507
-66 c-3 -8 -6 -5 -6 6 -1 11 2 17 5 13 3 -3 4 -12 1 -19z m13 -48 c0 -5 -4
-10 -9 -10 -6 0 -13 5 -16 10 -3 6 1 10 9 10 9 0 16 -4 16 -10z m-130 -30 c0
-5 -4 -10 -10 -10 -5 0 -2 -15 7 -34 15 -32 19 -34 56 -30 52 5 40 -7 -16 -16
l-44 -6 -15 48 c-8 26 -12 50 -10 53 9 9 32 5 32 -5z m-58 -19 c-7 -4 -10 -15
-6 -24 3 -9 11 -14 16 -11 6 4 9 1 6 -7 -7 -21 -35 -22 -42 -2 -3 10 -8 23
-11 29 -3 6 5 15 17 21 25 11 40 7 20 -6z m294 4 c18 -14 17 -14 -9 -5 -16 6
-33 8 -38 4 -5 -3 -9 0 -9 5 0 16 33 13 56 -4z m-56 -30 c0 -8 -7 -15 -15 -15
-13 0 -14 3 -3 15 16 18 18 18 18 0z m-325 -25 c-3 -5 -12 -10 -18 -10 -7 0
-6 4 3 10 19 12 23 12 15 0z m-35 -24 c0 -2 -8 -10 -17 -17 -16 -13 -17 -12
-4 4 13 16 21 21 21 13z m-1856 -141 c20 -8 36 -17 36 -18 0 -2 -7 -25 -16
-51 -18 -51 -21 -52 -89 -26 -37 14 -36 69 3 92 15 9 28 17 28 17 1 1 18 -6
38 -14z m1776 5 c18 -12 2 -12 -25 0 -13 6 -15 9 -5 9 8 0 22 -4 30 -9z m619
-100 c72 -47 104 -74 231 -197 52 -51 89 -93 82 -93 -8 0 -53 38 -102 85 -87
84 -105 96 -112 74 -2 -6 -17 -13 -32 -14 -50 -6 -51 -20 -6 -69 43 -47 42
-65 -1 -23 -13 13 -40 33 -60 45 l-37 22 -5 -21 c-4 -16 11 -37 65 -92 38 -40
67 -67 65 -62 -7 13 0 23 29 48 21 17 24 17 60 1 36 -16 43 -25 90 -135 29
-66 50 -119 48 -119 -1 0 -26 45 -55 100 -29 55 -60 107 -70 116 -16 14 -21
14 -58 -6 -23 -11 -41 -26 -41 -33 0 -13 -79 72 -205 223 -85 101 -107 139
-60 102 14 -12 56 -25 96 -32 63 -11 72 -10 90 6 20 18 27 40 9 29 -5 -3 -7 0
-4 8 3 9 -15 24 -53 45 -32 17 -51 32 -42 32 9 0 44 -18 78 -40z m-291 -72
c33 -32 39 -44 31 -55 -6 -7 -15 -13 -19 -13 -12 0 -311 -170 -347 -197 -18
-14 -31 -19 -28 -12 3 8 18 23 35 34 16 11 27 21 25 23 -8 8 36 42 52 39 18
-2 235 110 241 125 2 4 10 8 18 8 16 0 19 16 5 24 -5 3 -14 -1 -21 -9 -19 -23
-31 -18 -20 10 8 20 6 27 -10 35 -25 14 -27 13 -33 -10 -5 -21 -37 -28 -37 -9
0 7 -10 9 -27 4 -29 -7 -45 -23 -37 -37 3 -4 1 -8 -5 -8 -5 0 -11 4 -13 9 -1
5 -14 3 -28 -4 l-25 -14 23 -1 c13 0 20 -4 17 -10 -4 -6 -19 -9 -33 -8 -19 2
-26 -1 -24 -11 3 -12 0 -12 -12 -2 -10 8 -16 9 -21 1 -3 -5 -1 -10 4 -10 6 0
11 -5 11 -11 0 -8 -6 -7 -16 2 -15 12 -16 11 -10 -9 5 -13 3 -22 -3 -22 -6 0
-11 -5 -11 -11 0 -7 10 -9 25 -5 33 8 32 1 -3 -16 -26 -14 -28 -13 -44 18
l-17 33 76 52 c73 49 191 107 224 108 8 1 34 -18 57 -41z m458 -9 c30 -17 54
-37 54 -44 0 -7 23 -32 51 -54 44 -35 53 -39 65 -26 8 8 21 12 29 9 9 -4 15 0
15 10 0 9 6 16 14 16 8 0 17 6 19 13 3 6 6 7 6 1 1 -15 -40 -51 -64 -56 -11
-2 -19 -11 -19 -21 1 -9 0 -17 -3 -17 -2 0 -46 37 -96 83 -51 45 -103 90 -117
99 -42 28 -11 20 46 -13z m-561 -29 c4 -11 10 -18 15 -15 5 3 11 1 15 -5 3 -5
-2 -10 -12 -10 -36 0 -61 12 -66 31 -7 27 39 26 48 -1z m50 0 c3 -5 1 -10 -4
-10 -6 0 -11 5 -11 10 0 6 2 10 4 10 3 0 8 -4 11 -10z m142 -141 c177 -150
189 -165 218 -280 14 -53 35 -126 41 -137 1 -1 12 2 26 7 21 8 24 6 23 -16 0
-22 -8 -28 -76 -49 -85 -27 -90 -31 -108 -92 -14 -48 -9 -62 21 -62 20 0 20
-1 3 -27 -17 -25 -17 -27 1 -40 24 -17 39 -17 24 2 -6 8 -9 19 -5 25 5 7 14 0
26 -19 12 -20 30 -34 48 -37 16 -4 28 -11 25 -18 -2 -6 17 -21 43 -34 27 -12
59 -31 72 -42 24 -20 24 -22 8 -56 -10 -19 -17 -47 -17 -63 0 -33 -44 -144
-73 -185 -12 -16 -39 -46 -61 -65 -54 -47 -128 -121 -198 -198 l-56 -63 -95 0
c-88 0 -97 2 -133 28 -47 34 -96 88 -195 218 l-74 95 -5 -243 c-3 -134 -1
-249 4 -255 9 -13 -9 -43 -25 -43 -5 0 -9 7 -9 15 0 29 -30 15 -92 -43 -35
-32 -78 -70 -95 -84 l-33 -26 29 -19 c52 -33 224 -164 400 -306 166 -133 269
-205 392 -275 83 -47 206 -154 482 -420 65 -62 122 -111 125 -107 8 7 -156
166 -353 344 -158 142 -200 175 -296 230 -41 23 -91 52 -111 64 -46 27 -139
101 -165 129 l-18 21 30 -19 c17 -10 66 -43 109 -71 79 -53 109 -66 86 -38
-16 20 -6 19 25 -1 52 -34 76 10 25 46 -32 23 -43 67 -14 56 9 -3 18 -6 20 -6
2 0 4 -6 4 -14 0 -7 13 -16 29 -19 16 -4 38 -15 48 -25 10 -11 29 -23 43 -27
18 -5 12 2 -20 26 -25 17 -61 44 -80 58 -19 15 -54 39 -77 55 -44 30 -52 41
-31 48 7 3 -18 28 -55 58 -37 29 -67 58 -67 63 0 5 14 -3 30 -17 17 -14 46
-28 65 -32 24 -4 41 -15 52 -34 22 -38 121 -100 159 -100 19 0 38 8 50 21 17
19 18 22 2 50 -10 16 -13 29 -8 29 22 0 44 -67 44 -137 1 -66 -12 -75 -13 -10
-1 33 -18 42 -54 28 -21 -8 -35 -5 -82 21 -31 16 -58 28 -61 25 -7 -7 228
-173 294 -207 73 -37 94 -39 87 -7 -3 12 -10 53 -15 91 -13 80 -44 219 -59
259 -6 15 -7 27 -3 27 4 0 34 -64 66 -142 74 -179 157 -371 163 -378 15 -15
-15 75 -54 163 -50 114 -76 187 -70 193 4 4 21 -26 38 -71 9 -21 13 -25 16
-13 2 9 -3 33 -11 53 -20 47 -20 55 -1 55 18 0 19 -5 -5 60 -22 61 -25 79 -10
64 5 -5 25 -53 44 -107 20 -54 52 -131 71 -173 19 -41 35 -80 36 -87 0 -8 2
-8 5 -1 3 6 -5 36 -17 65 -51 130 -109 304 -109 328 0 15 3 21 8 14 4 -6 25
-18 48 -25 33 -12 42 -12 52 -1 11 11 17 11 35 0 25 -15 155 -42 163 -34 7 7
-96 37 -133 38 -76 3 67 19 224 24 125 4 173 3 179 -6 4 -7 -14 -31 -47 -60
-53 -47 -82 -59 -94 -39 -8 12 -45 13 -45 1 0 -5 7 -14 15 -21 16 -13 165
-225 165 -234 0 -3 16 -30 35 -60 19 -30 35 -59 35 -63 0 -11 154 -161 206
-201 23 -17 63 -64 90 -104 27 -40 51 -75 54 -78 24 -22 70 -98 70 -117 0 -27
-2 -27 -55 -9 -39 14 -40 14 -51 -12 -7 -15 -24 -40 -38 -56 -14 -16 -27 -41
-27 -55 -5 -98 -17 -164 -39 -214 -13 -28 -22 -88 -30 -187 -6 -80 -15 -171
-20 -204 -5 -32 -7 -63 -4 -68 9 -14 -26 -48 -77 -74 -25 -12 -61 -36 -80 -51
-27 -23 -32 -24 -25 -8 5 11 11 32 14 48 4 24 22 39 22 18 0 -11 53 1 92 21
19 9 28 21 28 38 0 14 3 46 6 72 6 45 4 48 -21 58 -15 6 -29 9 -30 8 -1 -2 -9
-20 -19 -40 -19 -42 -19 -42 -47 -28 -23 13 -25 1 -4 -26 14 -19 14 -19 30 4
19 26 41 31 26 5 -6 -10 -19 -28 -30 -40 l-19 -22 -34 32 c-33 31 -34 33 -31
107 5 151 3 247 -6 330 -6 47 -13 115 -16 151 -5 73 -12 99 -26 99 -12 0 -11
-13 0 -26 5 -5 7 -24 3 -43 l-7 -33 -14 26 c-8 14 -22 26 -32 26 -10 0 -35 8
-55 17 l-36 18 -30 -35 c-16 -19 -27 -29 -23 -23 4 9 -1 12 -16 10 -17 -1 -24
6 -36 38 -13 38 -59 92 -69 82 -3 -3 6 -16 19 -28 15 -15 27 -40 31 -64 3 -22
8 -60 11 -85 5 -38 4 -42 -6 -25 -6 11 -21 30 -33 43 -17 19 -18 24 -6 32 8 5
12 11 10 13 -44 36 -104 66 -146 72 l-52 7 -5 -34 c-6 -36 33 -220 60 -287 15
-37 -21 7 -50 61 -17 34 -36 68 -42 77 -21 34 -96 131 -101 131 -15 0 -64 -32
-64 -42 0 -6 -17 -26 -37 -44 -35 -31 -37 -35 -21 -47 10 -8 15 -17 12 -20 -3
-3 1 -20 9 -39 9 -18 30 -67 47 -108 17 -41 38 -89 46 -107 8 -17 14 -34 14
-37 0 -3 30 -67 67 -143 46 -91 64 -138 55 -141 -6 -2 -12 -10 -12 -18 0 -8
-5 -14 -11 -14 -6 0 -8 -7 -5 -15 5 -14 3 -14 -15 -1 -31 21 -40 37 -203 331
-16 28 -45 75 -66 105 -20 31 -40 66 -44 78 -4 12 -13 22 -19 22 -7 0 -24 14
-38 31 -32 40 -55 37 -34 -4 l14 -28 -39 31 c-22 18 -46 40 -53 49 -6 10 -25
26 -42 36 -16 11 -44 31 -62 46 -31 27 -229 129 -249 129 -18 0 -104 61 -104
74 0 7 -9 22 -20 34 -11 12 -20 28 -20 37 0 9 -5 25 -10 36 -9 16 3 41 70 150
108 176 107 179 -22 399 -41 70 -79 145 -91 180 -5 17 -158 128 -268 197 l-68
41 29 -40 29 -40 -63 -92 c-65 -93 -146 -243 -146 -270 0 -9 -9 -20 -20 -26
-15 -8 -18 -15 -12 -28 6 -11 3 -31 -10 -59 -19 -44 -38 -56 -39 -25 0 10 -7
2 -16 -18 -8 -19 -32 -73 -53 -120 -77 -174 -111 -243 -116 -237 -3 3 -1 15 6
26 12 24 120 349 120 363 0 5 -4 6 -10 3 -5 -3 -10 -2 -10 2 0 5 43 127 95
271 53 144 98 281 101 305 l6 43 -153 12 c-136 10 -189 8 -151 -5 17 -6 15
-23 -5 -45 -16 -18 -15 -18 20 -3 77 32 112 16 137 -62 23 -73 4 -139 -75
-258 -57 -86 -147 -142 -171 -104 -8 14 -20 1 -28 -34 -4 -19 -3 -26 4 -22 5
3 10 13 10 21 0 17 17 19 23 2 5 -17 -3 -48 -13 -48 -4 0 -5 -30 -2 -68 4 -56
0 -77 -21 -127 -19 -46 -47 -153 -47 -182 0 -2 -4 -3 -10 -3 -6 0 -11 30 -11
68 l-1 67 -12 -60 c-7 -33 -16 -69 -20 -80 -32 -80 -36 -97 -26 -115 13 -25
-4 -35 -24 -14 -15 14 -16 13 -16 -13 0 -15 7 -40 15 -56 8 -15 19 -53 24 -84
6 -30 16 -62 23 -70 17 -21 -8 -34 -40 -22 -22 8 -23 8 -12 -6 12 -15 132 -55
165 -55 9 0 39 -8 65 -17 l48 -17 43 29 c115 74 152 117 213 244 l57 120 37
-6 c20 -4 53 -13 74 -22 38 -17 133 -99 124 -108 -3 -3 -17 9 -31 26 -15 17
-31 31 -36 31 -11 0 0 -32 17 -45 14 -13 -21 -170 -75 -335 -17 -52 -31 -100
-31 -107 0 -6 -5 -24 -12 -40 -6 -15 -26 -75 -43 -132 -34 -113 -34 -103 0
-276 23 -123 48 -332 41 -350 -8 -23 -52 -12 -130 31 -33 19 -95 52 -138 74
-52 27 -89 55 -118 89 -39 46 -144 121 -170 121 -6 0 -18 7 -27 16 -9 8 -22
13 -30 10 -8 -3 -11 -1 -8 4 3 6 -2 10 -12 10 -28 0 -89 47 -190 146 -57 54
-93 97 -93 109 0 11 17 43 38 70 79 106 114 159 131 199 20 45 57 186 53 200
-2 4 2 44 8 88 9 62 8 92 -1 129 -11 41 -10 67 4 161 21 139 50 349 72 528 29
235 54 373 72 392 9 10 36 30 61 44 l44 26 137 -16 c283 -33 307 -28 470 99
189 147 204 177 217 419 6 102 4 131 -8 158 -9 18 -19 52 -23 76 -4 23 -8 42
-10 42 -2 0 -15 -4 -28 -9 -21 -8 -30 -5 -56 19 -16 16 -34 44 -39 63 -5 19
-29 63 -53 98 -50 76 -59 134 -39 263 9 62 10 91 1 123 -10 37 -8 57 15 150
31 126 50 158 40 68 -29 -247 -27 -275 13 -275 45 0 70 -11 76 -34 4 -11 9
-29 11 -38 9 -29 -14 -20 -57 23 -38 38 -42 40 -58 25 -13 -14 -16 -37 -14
-133 2 -64 7 -121 13 -127 7 -7 10 -1 11 17 4 80 29 179 47 185 12 4 42 -36
42 -58 0 -9 -16 -31 -35 -50 -38 -37 -41 -55 -24 -125 16 -63 31 -73 68 -43
17 12 30 32 30 43 1 12 4 16 11 9 5 -5 6 -24 2 -44 -4 -20 -2 -59 5 -90 l12
-55 0 60 c-1 87 16 189 44 277 14 42 28 92 32 110 4 18 27 75 51 126 24 51 44
98 44 103 0 15 76 93 134 138 61 47 144 93 159 88 14 -4 -82 -73 -99 -69 -7 1
-16 -3 -20 -9 -5 -9 -2 -10 11 -5 18 6 18 6 -1 -15 -23 -27 -5 -18 47 23 42
32 110 95 92 84 -7 -4 -13 -5 -13 -2 0 6 57 33 72 35 4 1 28 -17 55 -40z m448
-49 c3 -6 -1 -7 -9 -4 -18 7 -21 14 -7 14 6 0 13 -4 16 -10z m-274 -47 l34
-37 -32 25 c-26 20 -50 49 -40 49 2 0 19 -17 38 -37z m-1991 -48 c0 -18 -5
-25 -20 -25 -15 0 -20 7 -20 25 0 18 5 25 20 25 15 0 20 -7 20 -25z m2410 -60
c0 -5 -5 -3 -10 5 -5 8 -10 20 -10 25 0 6 5 3 10 -5 5 -8 10 -19 10 -25z
m-285 -117 c61 -126 58 -118 46 -118 -4 0 -16 21 -26 48 -9 26 -33 75 -51 110
-19 34 -34 65 -34 67 0 20 18 -10 65 -107z m-52 -11 c-4 -6 -10 -2 -14 9 -12
31 -9 40 6 20 8 -10 11 -24 8 -29z m35 -58 c-20 -13 -25 -11 -31 13 -9 34 4
44 25 18 15 -18 16 -25 6 -31z m-1 -185 c-3 -3 -12 -4 -19 -1 -8 3 -5 6 6 6
11 1 17 -2 13 -5z m-81 -25 c-27 -11 -51 -18 -53 -15 -7 7 58 34 82 35 11 0
-2 -9 -29 -20z m119 -39 c3 -5 1 -10 -4 -10 -6 0 -11 5 -11 10 0 6 2 10 4 10
3 0 8 -4 11 -10z m36 -27 c13 -16 12 -17 -3 -4 -10 7 -18 15 -18 17 0 8 8 3
21 -13z m-24 -9 c2 -6 -8 -16 -22 -22 -36 -17 -38 -15 -19 13 16 25 34 29 41
9z m73 -54 c0 -5 -5 -10 -11 -10 -5 0 -7 5 -4 10 3 6 8 10 11 10 2 0 4 -4 4
-10z m-50 -50 c0 -5 -5 -10 -11 -10 -5 0 -7 5 -4 10 3 6 8 10 11 10 2 0 4 -4
4 -10z m-1086 -110 c15 -5 33 -25 42 -43 15 -31 15 -36 0 -66 -10 -17 -28 -36
-41 -41 -23 -9 -25 -15 -27 -87 l-2 -78 -3 76 c-3 69 -6 77 -28 87 -32 15 -57
65 -49 97 7 27 48 65 70 65 7 0 24 -4 38 -10z m1352 -168 c12 -35 24 -66 28
-69 3 -4 6 -61 6 -127 -1 -119 -18 -247 -39 -296 -11 -24 -11 -24 -5 5 11 53
20 155 14 155 -10 0 -11 88 -1 94 4 3 9 35 10 71 1 43 -2 64 -9 60 -5 -3 -10
-2 -10 4 0 5 6 11 13 14 9 3 9 7 1 18 -7 8 -15 29 -19 48 -4 18 -15 52 -25 75
-10 22 -21 52 -24 66 -11 42 35 -49 60 -118z m-82 47 c29 -34 32 -50 14 -82
-17 -33 -39 -46 -78 -47 -77 0 -106 55 -65 120 22 36 30 40 64 40 31 0 44 -6
65 -31z m-2274 -4 c11 -13 8 -20 -18 -45 -17 -16 -27 -30 -22 -32 5 -2 6 -9 1
-16 -6 -9 -17 -7 -49 10 -48 26 -51 36 -19 65 35 33 87 42 107 18z m-488 -87
c-2 -29 -9 -59 -14 -65 -7 -9 -7 -13 1 -13 6 0 11 -4 11 -10 0 -5 -11 -10 -25
-10 -19 0 -25 -5 -25 -22 0 -17 -6 -23 -25 -24 -14 -1 -25 2 -25 8 0 5 4 7 8
4 12 -7 52 49 52 74 0 23 0 23 -34 10 -17 -6 -24 -15 -20 -24 6 -16 -43 -73
-53 -62 -3 3 10 29 29 58 20 29 43 69 53 88 27 54 35 61 55 50 14 -7 16 -19
12 -62z m-62 -68 c0 -5 -4 -10 -9 -10 -6 0 -13 5 -16 10 -3 6 1 10 9 10 9 0
16 -4 16 -10z m315 -21 c11 -17 -1 -21 -15 -4 -8 9 -8 15 -2 15 6 0 14 -5 17
-11z m-225 -63 c0 -5 -7 -3 -15 4 -12 10 -18 10 -30 0 -8 -7 -15 -18 -15 -24
0 -6 -14 -19 -31 -29 -17 -9 -29 -23 -26 -30 3 -7 -3 -22 -13 -34 -17 -21 -17
-21 -18 17 -1 22 3 51 8 65 9 24 11 25 26 10 15 -15 18 -13 40 17 13 17 24 36
24 40 0 12 49 -24 50 -36z m34 28 c4 -10 1 -14 -6 -12 -15 5 -23 28 -10 28 5
0 13 -7 16 -16z m56 -114 c12 -16 19 -34 16 -39 -3 -5 6 -36 20 -71 13 -34 22
-70 19 -80 -3 -10 2 -36 10 -58 16 -40 12 -87 -15 -147 -43 -98 -62 -135 -71
-135 -12 0 -31 48 -23 61 3 5 1 9 -5 9 -14 0 -52 106 -45 125 4 10 2 15 -6 13
-19 -4 -60 122 -47 146 8 16 6 18 -8 12 -16 -6 -16 -4 -3 16 8 12 25 28 39 36
l24 14 -24 -21 c-13 -12 -21 -24 -17 -28 7 -8 46 31 46 47 0 5 16 28 37 50 27
31 33 44 25 52 -14 14 -15 28 -3 28 5 0 19 -13 31 -30z m-937 -1 c3 -11 3 -36
0 -55 -5 -28 -10 -34 -30 -34 -22 0 -25 3 -21 30 3 17 1 33 -4 36 -4 3 -8 14
-8 25 0 28 56 27 63 -2z m754 -21 c-3 -7 -5 -2 -5 12 0 14 2 19 5 13 2 -7 2
-19 0 -25z m8 -86 c-7 -7 -45 29 -45 41 0 6 11 0 25 -13 14 -13 23 -26 20 -28z
m1905 -324 c0 -6 -6 -5 -15 2 -8 7 -15 14 -15 16 0 2 7 1 15 -2 8 -4 15 -11
15 -16z m650 -83 c0 -5 -5 -3 -10 5 -5 8 -10 20 -10 25 0 6 5 3 10 -5 5 -8 10
-19 10 -25z m-3513 19 c-3 -3 -12 -4 -19 -1 -8 3 -5 6 6 6 11 1 17 -2 13 -5z
m2983 -93 c19 -17 30 -31 25 -31 -6 1 -39 31 -75 67 -36 37 -47 51 -25 31 22
-20 56 -50 75 -67z m303 -5 c35 -15 77 -51 77 -66 0 -6 -18 3 -40 19 -45 33
-115 50 -133 32 -14 -14 -30 -14 -22 0 18 28 72 35 118 15z m-843 -151 c-1
-12 -49 -69 -55 -63 -2 2 7 16 21 31 18 20 23 34 19 50 -5 17 -4 19 4 7 6 -8
11 -19 11 -25z m172 -5 c3 -17 0 -30 -6 -30 -6 0 -11 15 -11 34 0 41 11 38 17
-4z m25 -52 c-3 -8 -6 -5 -6 6 -1 11 2 17 5 13 3 -3 4 -12 1 -19z m-1245 -25
c-5 -10 -31 -64 -57 -120 -27 -57 -50 -101 -53 -99 -8 9 101 236 114 236 3 0
1 -8 -4 -17z m1969 0 c13 -15 12 -15 -8 -4 -24 12 -29 21 -14 21 5 0 15 -7 22
-17z m-1340 -58 c-35 -92 -61 -136 -116 -195 -28 -30 -67 -83 -86 -117 -31
-57 -49 -77 -49 -54 0 17 42 146 67 206 30 70 57 111 84 126 17 9 15 2 -11
-44 -16 -29 -30 -57 -30 -62 0 -18 53 43 87 100 59 99 64 107 70 102 3 -3 -5
-31 -16 -62z m337 37 c-13 -16 -25 -25 -26 -20 -2 4 7 17 20 28 32 27 33 25 6
-8z m-1334 -8 c5 -14 4 -15 -9 -4 -17 14 -19 20 -6 20 5 0 12 -7 15 -16z
m1173 -70 c-3 -3 -12 -4 -19 -1 -8 3 -5 6 6 6 11 1 17 -2 13 -5z m427 -145 c6
-38 4 -48 -9 -53 -11 -4 -14 -2 -9 6 4 7 6 32 5 57 -3 57 4 51 13 -10z m186
-89 c-16 -31 -23 -18 -8 15 7 15 14 23 16 17 2 -6 -2 -21 -8 -32z m-616 -227
c-65 -101 -88 -133 -91 -129 -5 5 95 156 103 156 4 0 -2 -12 -12 -27z m72 -14
c17 -18 22 -28 12 -24 -14 6 -55 55 -45 55 2 0 16 -14 33 -31z m-1532 -54 c-3
-19 1 -66 9 -107 21 -98 30 -228 16 -228 -6 0 -8 -8 -5 -17 3 -10 8 -34 11
-53 6 -34 5 -36 -20 -35 -28 0 -45 19 -45 51 0 36 -33 56 -76 49 -65 -11 -65
-11 -53 -42 6 -15 12 -50 14 -78 3 -67 31 -191 53 -237 18 -40 44 -48 84 -27
29 16 37 0 9 -22 -62 -51 -139 9 -185 145 -5 14 -10 16 -17 9 -8 -8 -7 -18 5
-34 9 -13 16 -28 16 -34 0 -5 -9 3 -20 20 -17 26 -71 60 -55 35 9 -14 -6 -12
-35 5 -14 8 -35 14 -47 15 -13 0 -23 2 -23 4 0 2 13 30 30 62 16 32 30 64 30
70 0 27 -52 102 -78 112 -57 23 -110 32 -179 32 -69 0 -103 13 -103 40 0 4
-29 45 -65 89 -67 84 -76 101 -50 101 9 0 20 11 25 25 5 13 15 23 22 20 7 -2
40 -9 73 -15 51 -10 66 -19 102 -57 l42 -45 93 12 c56 6 113 20 143 34 28 13
62 28 76 34 28 11 90 3 126 -16 32 -17 33 -16 33 31 0 42 21 87 41 87 6 0 7
-14 3 -35z m996 -5 c0 -12 -27 -12 -55 0 -16 7 -13 9 18 9 20 1 37 -3 37 -9z
m180 6 c0 -2 -8 -10 -17 -17 -16 -13 -17 -12 -4 4 13 16 21 21 21 13z m-42
-33 c-2 -12 -12 -18 -28 -18 -16 0 -26 6 -28 18 -3 13 3 17 28 17 25 0 31 -4
28 -17z m-992 -58 c9 -40 -4 -27 -16 15 -6 20 -6 30 -1 24 5 -5 13 -22 17 -39z
m215 -77 c6 -56 11 -113 12 -126 2 -19 -9 -27 -68 -52 -38 -17 -70 -30 -71
-30 -10 0 -73 188 -77 230 -2 24 0 25 53 21 30 -1 72 -9 92 -16 44 -15 48 -12
39 23 -7 27 -3 68 6 59 2 -3 9 -52 14 -109z m994 61 c-9 -17 -19 -29 -22 -26
-5 5 25 57 33 57 3 0 -3 -14 -11 -31z m-36 -61 c-33 -63 -148 -159 -188 -157
-24 1 -24 2 5 8 43 11 93 51 145 116 48 60 56 67 38 33z m1825 -83 c3 -9 0
-15 -9 -15 -8 0 -15 7 -15 15 0 8 4 15 9 15 5 0 11 -7 15 -15z m-2064 -56 c17
-5 9 -7 -25 -4 -27 2 -63 9 -80 14 -24 8 -19 9 25 4 30 -3 66 -10 80 -14z
m1957 -31 c-3 -8 -6 -5 -6 6 -1 11 2 17 5 13 3 -3 4 -12 1 -19z m-2828 -43 l0
-20 -9 20 c-5 11 -9 29 -9 40 l0 20 9 -20 c5 -11 9 -29 9 -40z m20 -106 c1
-30 -4 -51 -14 -59 -13 -11 -13 -8 -4 20 6 17 9 53 6 78 -4 31 -3 40 3 27 5
-11 9 -41 9 -66z m2044 36 c42 -13 100 -40 129 -60 29 -20 72 -48 96 -63 23
-15 42 -31 42 -36 0 -5 6 -17 14 -25 7 -9 30 -47 50 -85 20 -38 41 -75 47 -83
18 -21 3 -27 -23 -9 -12 9 -34 16 -49 16 -15 0 -40 3 -57 6 -26 5 -31 11 -34
45 -2 21 1 41 7 43 6 2 6 8 -2 16 -14 15 -47 5 -37 -11 4 -7 3 -10 -2 -7 -5 2
-30 14 -56 26 -27 12 -48 27 -48 32 0 7 6 7 20 0 16 -8 18 -8 14 4 -8 21 -44
28 -44 8 -1 -14 -3 -14 -16 3 -11 15 -17 17 -23 7 -5 -9 -13 -6 -30 12 -21 22
-21 24 -4 20 18 -5 20 3 14 58 -1 4 -15 11 -33 16 -36 9 -74 53 -65 76 8 20 0
21 90 -9z m-2293 -6 c0 -6 -4 -7 -10 -4 -5 3 -10 11 -10 16 0 6 5 7 10 4 6 -3
10 -11 10 -16z m52 -26 c10 -12 14 -31 11 -55 -6 -45 -20 -50 -29 -10 -3 15
-9 37 -14 49 -14 34 7 45 32 16z m2143 -3 c3 -5 -1 -10 -9 -10 -9 0 -16 5 -16
10 0 6 4 10 9 10 6 0 13 -4 16 -10z m-578 -62 c-3 -8 -6 -5 -6 6 -1 11 2 17 5
13 3 -3 4 -12 1 -19z m653 -18 c0 -5 -2 -10 -4 -10 -3 0 -8 5 -11 10 -3 6 -1
10 4 10 6 0 11 -4 11 -10z m-2070 -14 c0 -2 -7 -7 -16 -10 -8 -3 -12 -2 -9 4
6 10 25 14 25 6z m1378 -94 c-24 -83 -35 -91 -14 -11 17 64 27 91 32 86 2 -2
-6 -36 -18 -75z m-1944 53 c15 -8 33 -15 39 -15 6 0 21 -9 33 -21 31 -29 21
-55 -24 -63 -33 -5 -41 -1 -71 29 -31 33 -37 35 -95 34 -90 -2 -120 -10 -124
-35 -3 -18 3 -21 42 -22 51 -2 93 -16 118 -39 14 -12 39 -15 118 -14 83 2 100
-1 100 -13 0 -25 -20 -30 -118 -27 -67 2 -106 8 -136 21 -22 11 -67 22 -98 25
-56 6 -58 8 -58 35 0 45 17 80 39 80 10 0 38 9 62 20 52 23 133 26 173 5z m70
4 c14 -7 27 -18 30 -25 4 -10 -7 -8 -37 7 -23 12 -44 23 -46 25 -10 9 30 3 53
-7z m448 -13 c8 -7 25 -19 40 -27 51 -27 135 -171 154 -264 44 -213 81 -414
81 -440 0 -16 21 -130 48 -252 39 -180 53 -227 72 -248 14 -14 32 -47 40 -73
9 -26 37 -78 63 -117 66 -100 66 -100 37 -80 -14 9 -28 22 -30 29 -7 18 -146
214 -157 221 -4 3 -6 -70 -3 -163 5 -169 9 -197 72 -436 22 -85 29 -165 11
-134 -6 9 -28 83 -50 165 -21 81 -44 163 -49 181 -6 19 -13 120 -16 225 -4
106 -13 239 -22 297 -8 58 -17 122 -20 143 -6 36 -16 47 -28 27 -3 -5 -12 -10
-18 -10 -7 0 -1 9 13 19 l24 19 -18 79 c-11 43 -37 130 -58 193 -22 63 -54
162 -72 220 -18 58 -44 131 -59 163 -35 73 -77 195 -77 224 0 12 -5 25 -10 28
-11 7 -4 25 10 25 5 0 15 -6 22 -14z m2204 -34 c-9 -9 -37 8 -31 18 5 8 11 7
21 -1 8 -6 12 -14 10 -17z m-2588 -48 c-4 -3 -12 5 -18 18 -12 22 -12 22 6 6
10 -10 15 -20 12 -24z m2642 -26 c0 -12 -6 -9 -26 13 -19 22 -19 22 4 8 12 -8
22 -17 22 -21z m-2633 -10 c-3 -8 -6 -5 -6 6 -1 11 2 17 5 13 3 -3 4 -12 1
-19z m2547 6 c5 -14 4 -15 -9 -4 -17 14 -19 20 -6 20 5 0 12 -7 15 -16z m-249
-24 c10 -11 16 -20 13 -20 -3 0 -13 9 -23 20 -10 11 -16 20 -13 20 3 0 13 -9
23 -20z m-530 -30 c-4 -17 -9 -29 -12 -26 -3 2 -2 19 2 36 4 17 9 29 12 26 3
-2 2 -19 -2 -36z m765 14 c0 -14 -4 -23 -10 -19 -5 3 -10 15 -10 26 0 10 5 19
10 19 6 0 10 -12 10 -26z m-449 5 c11 -5 55 -38 97 -72 42 -35 107 -82 145
-107 37 -24 67 -49 67 -55 0 -12 -66 -143 -81 -161 -7 -9 6 -30 50 -76 73 -78
83 -107 48 -141 -13 -14 -27 -32 -30 -40 -3 -8 -22 -21 -41 -28 -36 -13 -36
-14 -38 -74 -1 -33 -1 -71 -1 -85 0 -14 2 -63 4 -109 3 -95 3 -95 106 -162 35
-23 63 -45 63 -49 0 -15 -32 -76 -70 -135 -62 -96 -186 -305 -219 -370 -17
-33 -35 -65 -40 -71 -5 -6 -16 -25 -25 -41 -16 -32 -34 -43 -69 -43 -38 0 0
-17 43 -18 67 -3 240 -77 240 -103 0 -5 -14 -2 -31 6 -17 9 -38 14 -47 12 -19
-4 65 -32 86 -28 6 1 12 -8 12 -20 0 -14 5 -19 14 -16 20 8 90 -68 125 -137
32 -59 40 -93 20 -80 -6 3 -24 -4 -41 -16 -27 -20 -31 -20 -52 -6 -21 13 -29
13 -75 0 -28 -9 -51 -21 -51 -27 0 -7 -13 -12 -30 -13 -16 -1 -45 -13 -65 -28
-29 -22 -39 -25 -50 -16 -8 7 -13 16 -10 20 3 5 -20 10 -50 12 -48 3 -55 1
-57 -17 -2 -16 -9 -19 -37 -17 -22 2 -31 0 -26 -7 3 -6 13 -11 22 -11 9 0 13
-3 9 -7 -4 -4 -29 -8 -57 -9 -41 -1 -49 2 -49 18 0 10 5 18 10 18 6 0 9 -4 8
-9 -2 -5 0 -9 5 -10 21 -3 28 0 24 12 -2 6 3 18 12 25 14 11 12 12 -14 6 -16
-5 -61 -7 -99 -5 -48 2 -72 -2 -78 -11 -6 -8 -8 6 -5 40 2 28 1 52 -4 52 -4 0
-24 -16 -45 -35 -20 -19 -39 -35 -42 -35 -2 0 -2 21 1 48 l6 47 -19 -40 c-11
-22 -20 -45 -20 -52 0 -6 -5 -15 -10 -18 -19 -12 1 77 36 159 30 71 32 81 19
105 -19 37 -17 39 232 340 56 68 107 140 114 160 6 20 42 88 79 151 37 63 88
153 114 199 l47 85 -39 40 c-96 101 -88 80 -79 223 4 71 10 134 12 140 5 15
109 63 135 63 44 0 49 8 35 61 -7 27 -27 72 -45 100 -29 48 -31 56 -25 111 l7
59 -78 95 c-44 52 -94 116 -111 141 -46 64 -43 90 8 62z m699 -45 c0 -2 -7 -4
-15 -4 -8 0 -15 4 -15 10 0 5 7 7 15 4 8 -4 15 -8 15 -10z m-375 -38 c17 -8
24 -15 17 -16 -19 0 -72 39 -72 53 0 6 6 4 13 -5 6 -9 26 -23 42 -32z m165 34
c0 -5 -7 -10 -15 -10 -8 0 -15 5 -15 10 0 6 7 10 15 10 8 0 15 -4 15 -10z
m135 0 c3 -5 -3 -10 -15 -10 -11 0 -55 -11 -98 -24 -136 -43 -162 -49 -167
-44 -3 3 13 10 35 17 22 6 40 17 40 23 0 6 9 8 21 5 12 -3 32 1 45 9 13 9 28
13 34 9 6 -4 17 -1 25 5 8 7 15 10 15 7 0 -4 10 -2 23 3 29 12 35 12 42 0z
m-925 -20 c0 -5 -2 -10 -4 -10 -3 0 -8 5 -11 10 -3 6 -1 10 4 10 6 0 11 -4 11
-10z m7 -147 c-2 -16 -4 -3 -4 27 0 30 2 43 4 28 2 -16 2 -40 0 -55z m2063 63
c0 -3 -4 -8 -10 -11 -5 -3 -10 -1 -10 4 0 6 5 11 10 11 6 0 10 -2 10 -4z
m-381 -133 c9 -18 9 -23 -1 -23 -8 0 -15 12 -16 27 -2 29 0 29 17 -4z m-2198
-20 c13 -16 12 -17 -3 -4 -17 13 -22 21 -14 21 2 0 10 -8 17 -17z m526 -40
c-3 -10 -5 -4 -5 12 0 17 2 24 5 18 2 -7 2 -21 0 -30z m2066 30 c4 -3 -8 -17
-27 -29 -28 -19 -48 -23 -122 -24 -87 -2 -124 4 -124 20 0 5 39 11 88 15 48 3
94 10 102 15 18 10 74 13 83 3z m-2533 -73 c11 -21 20 -45 20 -51 0 -7 -11 10
-25 37 -27 53 -27 54 -20 54 2 0 14 -18 25 -40z m2212 3 c43 -45 57 -57 81
-66 10 -4 15 -11 12 -17 -3 -5 -1 -10 4 -10 6 0 11 -5 11 -10 0 -6 -12 -2 -27
8 -16 11 -45 30 -66 43 -20 13 -40 32 -43 42 -4 14 -17 17 -74 17 -66 0 -100
-14 -100 -41 0 -8 -43 -3 -63 8 -4 2 5 17 20 32 26 26 34 28 118 30 l91 2 36
-38z m-1735 -30 c-3 -10 -5 -4 -5 12 0 17 2 24 5 18 2 -7 2 -21 0 -30z m0 -45
c-3 -8 -6 -5 -6 6 -1 11 2 17 5 13 3 -3 4 -12 1 -19z m-313 -14 c5 -14 4 -15
-9 -4 -17 14 -19 20 -6 20 5 0 12 -7 15 -16z m2574 -85 c16 -10 13 -15 -26
-54 -38 -39 -47 -43 -78 -38 -19 3 -34 11 -34 19 0 8 5 14 11 14 6 0 29 16 52
35 45 39 49 40 75 24z m-2248 -30 c0 -5 -4 -9 -10 -9 -5 0 -10 7 -10 16 0 8 5
12 10 9 6 -3 10 -10 10 -16z m1760 -18 c17 -34 12 -38 -61 -55 -93 -21 -91
-21 -111 14 l-17 30 42 1 c23 0 58 7 77 14 48 19 58 18 70 -4z m162 -46 c26
-16 28 -16 57 4 34 25 46 15 36 -29 l-6 -29 -90 0 -89 0 6 42 c10 70 12 73 37
50 12 -11 34 -28 49 -38z m-767 5 c-3 -5 -12 -10 -18 -10 -7 0 -6 4 3 10 19
12 23 12 15 0z m78 3 c-13 -2 -33 -2 -45 0 -13 2 -3 4 22 4 25 0 35 -2 23 -4z
m260 1 c7 -8 -80 -53 -101 -54 -21 0 -4 19 36 40 40 21 55 24 65 14z m-633
-44 c12 -16 19 -30 16 -30 -2 0 -14 14 -26 30 -12 17 -19 30 -16 30 2 0 14
-13 26 -30z m309 -17 c9 -6 -33 -43 -69 -62 l-38 -20 -23 25 c-12 13 -21 26
-18 28 2 2 26 17 54 34 47 29 51 30 70 14 11 -9 22 -18 24 -19z m18 21 c-3 -3
-12 -4 -19 -1 -8 3 -5 6 6 6 11 1 17 -2 13 -5z m303 -128 c0 -3 -13 -11 -30
-20 -16 -8 -30 -11 -30 -6 0 7 23 18 58 29 1 1 2 -1 2 -3z m-2730 -10 c0 -2
-8 -10 -17 -17 -16 -13 -17 -12 -4 4 13 16 21 21 21 13z m2518 -443 c26 -6 28
-16 7 -33 -13 -11 -18 -11 -28 0 -9 9 -9 11 0 6 6 -3 14 -2 18 4 7 11 -39 25
-54 15 -17 -10 -13 -28 4 -21 13 4 13 2 5 -14 -16 -30 -27 -32 -32 -5 -7 32
19 69 41 59 9 -3 26 -9 39 -11z m-168 -297 c-16 -42 -30 -85 -30 -94 0 -10 -6
-24 -12 -31 -11 -10 -10 -11 5 -6 18 8 22 -2 8 -24 -13 -20 -28 -6 -35 34 -6
30 0 48 41 120 26 46 49 82 51 81 1 -2 -11 -38 -28 -80z m347 22 c-2 -13 -4
-3 -4 22 0 25 2 35 4 23 2 -13 2 -33 0 -45z m-467 -33 c-18 -19 -36 -32 -39
-29 -6 5 57 64 68 64 3 0 -10 -16 -29 -35z m997 3 c-3 -8 -6 -5 -6 6 -1 11 2
17 5 13 3 -3 4 -12 1 -19z m-1080 -86 c-20 -21 -37 -46 -37 -55 0 -9 -7 -17
-15 -17 -8 0 -15 5 -15 12 0 15 80 98 94 98 6 0 -7 -17 -27 -38z m540 -14 c-3
-7 -5 -2 -5 12 0 14 2 19 5 13 2 -7 2 -19 0 -25z m-434 -49 c11 -25 99 -130
160 -190 16 -16 25 -33 21 -42 -8 -22 -56 -39 -100 -35 -34 3 -46 12 -112 88
-72 84 -73 86 -68 130 7 54 51 107 73 88 8 -6 20 -24 26 -39z m238 -16 c24
-38 45 -71 47 -74 1 -3 -13 -6 -31 -5 -29 1 -42 10 -82 59 -26 32 -46 60 -44
61 12 10 46 25 55 26 6 0 30 -30 55 -67z m361 44 c1 -18 -14 -105 -23 -132
-10 -32 -23 -91 -65 -290 -31 -149 -38 -170 -92 -275 -47 -91 -72 -126 -72
-100 0 8 7 56 15 105 8 50 17 126 20 170 3 44 7 94 10 110 2 17 7 86 10 155 7
178 15 249 27 256 7 4 9 -10 7 -40 -4 -41 3 -61 13 -38 2 4 32 27 67 50 60 40
82 47 83 29z m-412 -144 c1 -30 -22 -19 -66 32 -26 31 -45 57 -42 60 2 2 22
-18 43 -45 22 -28 44 -50 49 -50 9 0 1 13 -53 82 -26 34 -23 31 17 -12 28 -30
51 -60 52 -67z m-343 65 c-3 -7 -5 -2 -5 12 0 14 2 19 5 13 2 -7 2 -19 0 -25z
m-42 12 c6 -10 -7 -14 -32 -11 -7 1 -10 -5 -7 -13 3 -8 -3 -19 -14 -25 -34
-18 -53 -42 -44 -55 5 -6 12 -19 15 -29 6 -16 4 -16 -16 -2 -15 9 -27 11 -37
5 -19 -12 -70 -13 -70 -1 0 5 15 20 33 32 17 12 46 35 64 52 52 49 95 67 108
47z m894 -84 c1 -42 -5 -29 -12 24 -4 30 -3 38 3 25 5 -11 9 -33 9 -49z m-791
-8 c22 -29 63 -77 92 -105 48 -49 55 -53 99 -53 33 0 57 7 83 25 39 26 48 30
48 17 0 -4 -21 -21 -48 -38 -42 -28 -53 -31 -102 -27 -44 4 -62 12 -88 37 -43
39 -152 174 -152 187 0 24 31 4 68 -43z m-80 -20 c7 -13 34 -50 62 -83 86
-104 96 -135 41 -135 -28 0 -70 38 -124 112 -29 39 -36 95 -15 116 17 17 23
15 36 -10z m884 -90 c5 -88 -9 -74 -18 17 -4 48 -3 67 4 60 5 -5 12 -40 14
-77z m-956 -28 c29 -41 58 -80 63 -87 6 -7 11 -22 11 -33 0 -12 4 -19 9 -15 5
3 17 -5 25 -17 9 -12 18 -19 21 -16 3 3 -3 16 -14 29 -19 24 -81 127 -81 134
0 2 25 -23 57 -56 46 -48 62 -59 88 -59 18 0 38 7 45 16 23 27 48 36 70 24 22
-12 28 -32 7 -24 -7 2 -31 -9 -52 -26 -36 -29 -39 -34 -36 -75 3 -48 -9 -56
-50 -34 -11 6 -33 11 -49 11 -33 1 -97 59 -85 77 3 6 1 10 -5 9 -15 -4 -162
196 -147 201 6 2 13 -1 15 -7 4 -13 23 -17 21 -4 -9 56 29 36 87 -48z m523 51
c-25 -21 -39 -26 -39 -13 0 8 53 40 59 36 2 -2 -7 -12 -20 -23z m-515 -17 c3
-8 2 -12 -4 -9 -6 3 -10 10 -10 16 0 14 7 11 14 -7z m1078 -70 c21 -15 38 -28
38 -31 0 -5 -51 23 -75 41 -34 26 -3 18 37 -10z m-482 -33 c0 -5 -8 -12 -18
-15 -10 -3 -33 -21 -52 -39 -19 -19 -44 -37 -55 -41 -24 -9 -20 -5 58 58 61
48 67 52 67 37z m421 -33 c5 -13 17 -36 26 -52 22 -41 45 -148 35 -158 -11
-11 -84 -29 -91 -22 -15 14 -27 207 -15 238 9 23 33 20 45 -6z m39 -14 c0 -8
-4 -12 -10 -9 -5 3 -10 10 -10 16 0 5 5 9 10 9 6 0 10 -7 10 -16z m-626 -79
c-4 -8 -11 -15 -16 -15 -6 0 -5 6 2 15 7 8 14 15 16 15 2 0 1 -7 -2 -15z
m-114 -9 c0 -2 -8 -10 -17 -17 -16 -13 -17 -12 -4 4 13 16 21 21 21 13z m60
-30 c0 -3 -4 -8 -10 -11 -5 -3 -10 -1 -10 4 0 6 5 11 10 11 6 0 10 -2 10 -4z
m717 -18 c-3 -8 -6 -5 -6 6 -1 11 2 17 5 13 3 -3 4 -12 1 -19z m420 0 c-3 -8
-6 -5 -6 6 -1 11 2 17 5 13 3 -3 4 -12 1 -19z m-354 -18 c3 -11 1 -20 -4 -20
-5 0 -9 9 -9 20 0 11 2 20 4 20 2 0 6 -9 9 -20z m-833 2 c0 -4 -10 -13 -22
-21 -23 -14 -23 -14 -4 8 20 22 26 25 26 13z m-620 -31 c0 -6 -4 -13 -10 -16
-5 -3 -10 1 -10 9 0 9 5 16 10 16 6 0 10 -4 10 -9z m-216 -51 c8 0 18 9 21 21
4 11 9 18 13 15 4 -5 -11 -44 -25 -65 -8 -11 -51 43 -46 57 5 12 8 11 14 -6 5
-12 15 -22 23 -22z m695 17 c-2 -1 -13 -9 -24 -17 -19 -14 -19 -14 -6 3 7 9
18 17 24 17 6 0 8 -1 6 -3z m907 -91 l21 -84 -21 -10 c-11 -6 -35 -12 -52 -14
l-32 -4 -6 60 c-4 34 -9 75 -12 92 -5 30 -4 32 33 41 21 5 40 8 42 6 3 -2 15
-41 27 -87z m-1181 32 c-3 -18 -16 -57 -27 -85 -20 -53 -20 -53 -67 -54 -56
-2 -45 -2 -113 4 -36 4 -58 2 -58 -4 0 -12 68 -43 94 -41 10 0 16 -2 12 -5 -3
-3 9 -17 26 -30 18 -12 29 -23 25 -23 -17 0 -24 -5 -65 -41 -51 -44 -115 -68
-192 -70 -66 -3 -90 3 -164 37 -72 33 -78 44 -19 38 l48 -5 59 68 c77 89 88
96 167 104 77 9 177 52 235 103 21 20 40 35 42 36 2 0 1 -15 -3 -32z m170 -18
c-10 -11 -23 -20 -28 -20 -13 0 24 39 37 39 5 1 1 -8 -9 -19z m-1115 -30 c0
-5 -5 -10 -10 -10 -6 0 -4 -13 5 -30 8 -16 15 -39 15 -51 0 -12 8 -27 17 -34
19 -14 23 -106 5 -128 -6 -7 -12 -32 -14 -56 -4 -55 -32 -79 -103 -86 -27 -3
-65 -8 -83 -11 -26 -4 -90 9 -111 23 -2 2 10 17 28 34 18 17 30 33 28 36 -7 6
-86 -80 -87 -94 0 -7 11 -15 25 -19 14 -3 25 -10 25 -15 0 -6 8 -5 19 1 14 7
22 7 26 -1 4 -6 13 -8 21 -5 8 3 11 0 7 -9 -4 -11 -15 -13 -47 -9 -22 4 -46
11 -52 16 -7 5 -23 4 -38 -2 -41 -15 -52 -12 -65 16 -8 18 -17 24 -28 20 -9
-4 -29 4 -48 18 -18 14 -35 22 -39 19 -3 -4 -6 14 -7 38 l0 44 -22 -42 c-11
-24 -25 -43 -30 -43 -26 0 41 160 93 223 45 54 146 122 215 146 65 22 255 31
255 11z m60 -19 c0 -5 -7 -14 -15 -21 -16 -14 -18 -10 -9 14 6 17 24 22 24 7z
m510 -40 c0 -11 -29 -35 -35 -29 -10 9 7 38 21 38 8 0 14 -4 14 -9z m1671 -63
c0 -18 2 -42 4 -53 8 -52 13 -227 5 -200 -5 17 -11 83 -15 148 -4 64 -11 117
-17 117 -5 0 -6 5 -3 10 12 20 25 9 26 -22z m636 -20 c-3 -7 -5 -2 -5 12 0 14
2 19 5 13 2 -7 2 -19 0 -25z m23 -50 c0 -5 -4 -8 -10 -8 -5 0 -10 10 -10 23 0
18 2 19 10 7 5 -8 10 -18 10 -22z m-1400 -165 c-6 -21 -14 -44 -16 -52 -2 -8
-7 -11 -10 -8 -5 5 0 28 22 96 2 8 7 11 10 8 3 -3 1 -23 -6 -44z m1440 11 c0
-8 -4 -12 -10 -9 -5 3 -10 13 -10 21 0 8 5 12 10 9 6 -3 10 -13 10 -21z
m-2907 -28 c3 -8 0 -17 -7 -19 -10 -4 -12 1 -9 14 6 23 9 24 16 5z m2234 -58
c-3 -8 -6 -5 -6 6 -1 11 2 17 5 13 3 -3 4 -12 1 -19z m-2302 2 c-3 -5 -16 -10
-28 -9 -20 1 -20 2 3 9 14 4 26 8 28 9 2 1 0 -3 -3 -9z m-120 -20 c-3 -5 -1
-10 4 -10 6 0 11 5 11 10 0 6 5 10 10 10 6 0 10 -4 10 -8 0 -11 -48 -37 -55
-30 -8 8 6 38 17 38 5 0 6 -4 3 -10z m-338 -42 c-3 -8 -6 -5 -6 6 -1 11 2 17
5 13 3 -3 4 -12 1 -19z m43 -28 c0 -5 -4 -10 -10 -10 -5 0 -10 -6 -10 -13 0
-8 -12 -14 -30 -14 -20 0 -30 5 -30 15 0 10 8 13 26 9 16 -3 28 0 31 9 6 16
23 19 23 4z m1292 -42 c-7 -7 -12 -8 -12 -2 0 14 12 26 19 19 2 -3 -1 -11 -7
-17z m-32 -31 c0 -2 -10 -12 -22 -23 l-23 -19 19 23 c18 21 26 27 26 19z"/>
<path d="M4412 7520 c-1 -28 2 -30 34 -30 45 0 44 24 -3 49 -30 15 -30 15 -31
-19z"/>
<path d="M4504 7481 c4 -5 0 -11 -6 -14 -7 -2 -10 -7 -7 -11 3 -4 17 2 30 13
l24 20 -23 1 c-13 0 -21 -4 -18 -9z"/>
<path d="M4060 7440 c20 -13 33 -13 25 0 -3 6 -14 10 -23 10 -15 0 -15 -2 -2
-10z"/>
<path d="M4414 7418 c4 -21 3 -28 -3 -19 -5 7 -13 11 -19 7 -5 -3 -23 4 -38
16 l-29 22 23 -25 c26 -30 27 -37 6 -60 -12 -13 -13 -21 -5 -31 7 -7 17 -21
24 -31 18 -27 49 -12 41 19 -6 25 15 68 44 90 9 7 12 16 7 24 -5 9 -4 11 3 6
7 -4 12 -2 12 3 0 6 -16 11 -36 11 -36 0 -36 -1 -30 -32z"/>
<path d="M4300 7395 c-7 -9 -10 -18 -7 -21 3 -3 10 4 17 15 13 25 8 27 -10 6z"/>
<path d="M3773 7354 c-12 -26 -3 -33 15 -11 6 7 8 18 4 24 -5 7 -11 3 -19 -13z"/>
<path d="M3770 6456 c0 -24 -3 -53 -6 -63 -5 -12 -4 -15 4 -8 13 12 22 115 10
115 -4 0 -8 -20 -8 -44z"/>
<path d="M3696 6385 c-3 -8 -1 -15 4 -15 6 0 10 7 10 15 0 8 -2 15 -4 15 -2 0
-6 -7 -10 -15z"/>
<path d="M3780 6353 c-14 -2 -32 -7 -40 -10 -8 -4 -19 -8 -25 -9 -5 -1 -13 -3
-17 -4 -5 -1 -14 -3 -20 -4 -14 -1 -37 -58 -37 -93 -1 -12 7 -27 17 -33 15
-10 15 -11 0 -6 -21 6 -41 -24 -57 -88 -19 -77 3 -78 28 -1 24 72 49 83 83 40
29 -37 138 -105 168 -105 17 0 38 13 60 35 l34 35 28 -27 c41 -39 35 -6 -7 39
-72 78 -182 109 -235 68 -28 -22 -64 -27 -57 -7 2 6 -5 22 -17 35 l-21 23 20
37 c19 35 23 37 78 40 52 3 66 -1 124 -34 37 -20 77 -49 89 -63 l23 -26 -25
-5 -25 -5 32 -32 c37 -39 40 -39 64 -13 10 11 21 16 24 11 4 -6 15 -5 28 3
l23 12 -26 37 c-25 38 -51 52 -194 112 -36 15 -69 31 -74 36 -6 5 -12 8 -15 8
-4 -1 -17 -4 -31 -6z m315 -183 c3 -5 -1 -10 -9 -10 -8 0 -18 5 -21 10 -3 6 1
10 9 10 8 0 18 -4 21 -10z m-271 -65 l7 -30 -28 28 c-23 23 -26 29 -13 37 18
11 25 4 34 -35z"/>
<path d="M3940 6050 c0 -13 30 -13 50 0 11 7 7 10 -17 10 -18 0 -33 -4 -33
-10z"/>
<path d="M4228 5806 l4 -63 -33 -15 c-58 -27 -79 -31 -79 -15 0 8 -10 17 -22
21 -23 6 -78 -13 -78 -26 0 -10 3 -10 35 2 22 8 32 6 52 -10 14 -11 32 -20 39
-20 7 0 18 -16 25 -35 15 -40 29 -47 22 -11 -4 19 1 25 26 34 17 6 31 16 31
21 0 6 10 19 22 31 l22 20 -29 61 c-16 33 -32 62 -35 64 -3 2 -4 -25 -2 -59z"/>
<path d="M3997 5596 c-15 -8 -43 -18 -62 -22 -45 -8 -46 -28 -2 -21 19 3 40 1
48 -4 11 -7 11 -9 -3 -9 -29 0 -21 -17 26 -52 25 -18 47 -40 49 -50 3 -11 22
-19 58 -25 63 -10 99 5 99 41 0 25 35 62 64 68 11 1 21 9 24 17 3 8 -1 12 -9
8 -8 -2 -26 7 -41 21 -21 19 -39 26 -80 27 -29 2 -73 6 -98 9 -32 5 -53 3 -73
-8z m56 -69 c4 -10 -5 -13 -28 -13 -22 1 -31 5 -28 14 7 16 49 16 56 -1z m17
-37 c-18 -13 -28 -16 -37 -8 -18 15 -10 23 29 25 l33 2 -25 -19z m77 -47 c-8
-7 -77 -6 -85 2 -3 3 16 5 43 5 27 0 45 -3 42 -7z"/>
<path d="M2726 4918 c-14 -48 -84 -469 -90 -543 -3 -27 -7 -66 -11 -85 l-6
-35 16 40 c9 22 16 47 16 55 0 34 61 409 75 458 2 7 8 11 13 7 5 -3 12 -1 16
5 3 5 -1 10 -10 10 -13 0 -15 5 -10 18 12 28 15 82 4 82 -5 0 -11 -6 -13 -12z"/>
<path d="M4635 4754 c11 -9 29 -20 40 -26 19 -11 20 -10 2 10 -10 11 -28 22
-40 26 -22 5 -22 5 -2 -10z"/>
<path d="M4707 4709 c7 -7 15 -10 18 -7 3 3 -2 9 -12 12 -14 6 -15 5 -6 -5z"/>
<path d="M4760 4716 c0 -3 9 -10 20 -16 11 -6 20 -8 20 -6 0 3 -9 10 -20 16
-11 6 -20 8 -20 6z"/>
<path d="M4740 4690 c0 -5 5 -10 11 -10 5 0 7 5 4 10 -3 6 -8 10 -11 10 -2 0
-4 -4 -4 -10z"/>
<path d="M4816 4679 c4 -7 93 -59 101 -59 15 0 -16 23 -57 43 -27 13 -47 20
-44 16z"/>
<path d="M4959 4650 c-15 -17 -21 -30 -14 -30 7 0 15 -7 19 -15 3 -8 12 -15
20 -15 8 0 24 -15 35 -34 12 -19 35 -39 51 -45 17 -5 33 -17 36 -26 4 -8 15
-20 25 -26 18 -9 18 -9 1 19 -41 69 -95 147 -103 150 -5 2 -9 8 -9 14 0 9 -25
38 -32 38 -2 -1 -15 -14 -29 -30z"/>
<path d="M4862 4614 c10 -10 20 -16 22 -13 3 3 -5 11 -17 18 -21 13 -21 12 -5
-5z"/>
<path d="M4910 4590 c0 -5 7 -10 15 -10 8 0 15 5 15 10 0 6 -7 10 -15 10 -8 0
-15 -4 -15 -10z"/>
<path d="M4985 4530 c38 -39 45 -45 45 -35 0 10 -63 75 -73 75 -6 0 7 -18 28
-40z"/>
<path d="M5070 4484 c1 -15 28 -46 37 -43 4 2 -2 15 -14 28 -13 13 -23 20 -23
15z"/>
<path d="M4315 4440 c3 -5 8 -10 11 -10 2 0 4 5 4 10 0 6 -5 10 -11 10 -5 0
-7 -4 -4 -10z"/>
<path d="M5150 4426 c0 -8 5 -18 10 -21 6 -3 10 1 10 9 0 8 -4 18 -10 21 -5 3
-10 -1 -10 -9z"/>
<path d="M4362 4408 c46 -40 112 -86 163 -114 28 -15 53 -32 56 -37 3 -4 12
-9 20 -11 8 -1 29 -10 47 -20 18 -9 38 -16 43 -14 6 2 -27 23 -73 47 -94 49
-175 98 -200 121 -9 8 -32 23 -50 33 l-33 19 27 -24z"/>
<path d="M3025 4379 c-4 -6 -5 -12 -2 -15 2 -3 7 2 10 11 7 17 1 20 -8 4z"/>
<path d="M2680 4350 c0 -14 -3 -35 -6 -47 -4 -13 -2 -23 4 -23 15 0 26 70 13
83 -8 8 -11 4 -11 -13z"/>
<path d="M3643 3888 c-2 -24 60 -63 99 -63 32 0 30 2 -42 48 -51 32 -56 33
-57 15z"/>
<path d="M5267 3674 c-4 -4 -7 -14 -7 -23 0 -11 3 -12 11 -4 6 6 10 16 7 23
-2 6 -7 8 -11 4z"/>
<path d="M5418 3664 c-16 -8 -28 -16 -28 -18 0 -9 40 7 51 20 14 17 11 17 -23
-2z"/>
<path d="M5251 3614 c0 -11 3 -14 6 -6 3 7 2 16 -1 19 -3 4 -6 -2 -5 -13z"/>
<path d="M5242 3570 c0 -14 2 -19 5 -12 2 6 2 18 0 25 -3 6 -5 1 -5 -13z"/>
<path d="M4240 3524 c0 -6 7 -19 16 -30 14 -18 14 -18 3 6 -14 31 -19 36 -19
24z"/>
<path d="M5336 3415 c-10 -7 -16 -19 -14 -26 2 -7 11 0 21 15 20 30 19 31 -7
11z"/>
<path d="M1900 5594 c0 -8 5 -12 10 -9 6 4 8 11 5 16 -9 14 -15 11 -15 -7z"/>
<path d="M2026 5135 c-22 -33 -20 -42 3 -21 26 23 56 17 57 -12 1 -12 4 -26 8
-30 4 -4 6 11 4 33 -2 32 -7 39 -20 37 -10 -2 -18 2 -18 8 0 18 -17 11 -34
-15z"/>
<path d="M1082 3746 c-6 -15 -12 -36 -12 -47 0 -16 -5 -19 -20 -14 -11 3 -20
3 -20 -2 1 -22 21 -31 85 -36 39 -3 109 -9 158 -13 l87 -7 0 -42 c0 -71 14
-60 27 22 6 42 11 79 9 80 -1 2 -28 -4 -60 -12 -32 -8 -62 -12 -68 -9 -6 4
-13 2 -17 -3 -3 -6 -28 -6 -61 -2 l-55 7 52 -1 c28 -1 49 2 46 7 -3 4 -31 6
-63 4 -52 -4 -57 -2 -52 15 4 17 2 18 -17 8 -24 -13 -26 -9 -10 20 5 11 9 27
7 36 -2 12 -7 9 -16 -11z m298 -103 c-1 -24 -2 -25 -11 -10 -5 9 -22 17 -37
18 -24 0 -25 1 -7 9 39 17 55 12 55 -17z"/>
<path d="M1365 3360 c27 -12 43 -12 25 0 -8 5 -22 9 -30 9 -10 0 -8 -3 5 -9z"/>
<path d="M3870 3455 c0 -10 10 -15 28 -16 15 0 35 -2 45 -4 9 -2 15 1 11 6 -3
5 -14 9 -25 9 -11 0 -29 5 -40 10 -15 8 -19 7 -19 -5z"/>
<path d="M3990 3416 c14 -8 27 -12 29 -10 6 6 -1 11 -29 18 l-25 7 25 -15z"/>
<path d="M4120 3336 c0 -10 8 -16 22 -16 12 0 19 1 17 3 -2 1 -12 9 -21 16
-15 12 -18 11 -18 -3z"/>
<path d="M4064 3305 c4 -24 16 -30 16 -7 0 12 -4 22 -9 22 -5 0 -8 -7 -7 -15z"/>
<path d="M4158 3287 c-4 -20 -1 -23 19 -19 13 2 23 1 21 -4 -2 -5 0 -10 5 -11
9 -4 7 5 -6 35 -13 29 -33 28 -39 -1z"/>
<path d="M4170 3190 c0 -5 5 -10 10 -10 6 0 10 5 10 10 0 6 -4 10 -10 10 -5 0
-10 -4 -10 -10z"/>
<path d="M4218 3193 c7 -3 16 -2 19 1 4 3 -2 6 -13 5 -11 0 -14 -3 -6 -6z"/>
<path d="M3320 1270 c-9 -6 -10 -10 -3 -10 6 0 15 5 18 10 8 12 4 12 -15 0z"/>
<path d="M3280 1250 c-9 -6 -10 -10 -3 -10 6 0 15 5 18 10 8 12 4 12 -15 0z"/>
<path d="M3605 1220 c3 -5 11 -10 16 -10 6 0 7 5 4 10 -3 6 -11 10 -16 10 -6
0 -7 -4 -4 -10z"/>
<path d="M3331 1199 c-13 -5 -22 -12 -19 -14 6 -6 58 12 58 20 0 7 -11 5 -39
-6z"/>
<path d="M3588 1113 c7 -3 16 -2 19 1 4 3 -2 6 -13 5 -11 0 -14 -3 -6 -6z"/>
<path d="M3665 1100 c-4 -6 5 -10 19 -10 14 0 26 5 26 10 0 6 -9 10 -19 10
-11 0 -23 -4 -26 -10z"/>
<path d="M3180 1079 c0 -5 5 -7 10 -4 6 3 10 8 10 11 0 2 -4 4 -10 4 -5 0 -10
-5 -10 -11z"/>
<path d="M3535 1080 c-3 -6 1 -7 9 -4 18 7 21 14 7 14 -6 0 -13 -4 -16 -10z"/>
<path d="M3766 1083 c5 -5 12 -12 16 -18 4 -6 8 -2 8 8 0 9 -7 17 -17 17 -9 0
-12 -3 -7 -7z"/>
<path d="M3480 1038 c0 -7 9 -26 20 -43 11 -16 20 -25 20 -20 0 6 -7 21 -16
33 -8 12 -12 27 -9 32 3 6 1 10 -4 10 -6 0 -11 -6 -11 -12z"/>
<path d="M3813 1005 c0 -39 2 -45 10 -28 6 13 6 32 0 50 -9 25 -10 23 -10 -22z"/>
<path d="M3540 951 c0 -10 24 -21 43 -21 7 0 3 7 -7 15 -22 17 -36 19 -36 6z"/>
<path d="M3846 942 c-3 -6 -1 -14 5 -17 14 -9 20 -2 10 14 -6 8 -11 9 -15 3z"/>
<path d="M3665 910 c3 -5 8 -10 11 -10 2 0 4 5 4 10 0 6 -5 10 -11 10 -5 0 -7
-4 -4 -10z"/>
<path d="M3969 1333 c-13 -17 -13 -17 6 -3 11 8 22 16 24 17 2 2 0 3 -6 3 -6
0 -17 -8 -24 -17z"/>
<path d="M2665 540 c4 -6 11 -8 16 -5 14 9 11 15 -7 15 -8 0 -12 -5 -9 -10z"/>
<path d="M2584 448 c-19 -23 -19 -23 1 -6 11 9 38 18 60 21 l40 4 -41 1 c-31
2 -45 -3 -60 -20z"/>
<path d="M2720 441 c0 -5 5 -13 10 -16 6 -3 10 -2 10 4 0 5 -4 13 -10 16 -5 3
-10 2 -10 -4z"/>
<path d="M2620 301 c0 -5 9 -7 20 -4 11 3 20 7 20 9 0 2 -9 4 -20 4 -11 0 -20
-4 -20 -9z"/>
<path d="M520 7975 l0 -75 49 0 c56 0 61 8 61 98 l0 52 -55 0 -55 0 0 -75z"/>
<path d="M930 8039 c-14 -5 -81 -68 -150 -139 l-125 -130 -67 0 -68 0 0 -81 0
-82 83 5 c46 3 97 12 113 21 16 8 67 58 112 111 129 148 126 146 241 146 108
0 131 -11 131 -62 0 -44 -28 -58 -118 -58 l-82 0 0 -75 0 -75 93 0 c106 0 148
18 200 82 26 32 31 48 35 112 4 62 1 82 -17 119 -23 48 -76 91 -132 107 -43
13 -216 12 -249 -1z"/>
<path d="M520 7047 l0 -214 141 23 c85 13 145 28 150 36 5 7 9 24 9 38 0 14 3
36 7 49 6 24 6 24 -58 17 -35 -3 -97 -9 -136 -12 l-73 -7 0 73 0 72 43 -6
c144 -19 315 -28 336 -17 17 10 192 37 271 42 24 2 -642 119 -676 119 -11 0
-14 -40 -14 -213z"/>
<path d="M1258 7133 c7 -3 16 -2 19 1 4 3 -2 6 -13 5 -11 0 -14 -3 -6 -6z"/>
<path d="M590 7047 c0 -39 0 -39 33 -34 17 3 76 9 129 13 64 4 101 11 109 20
9 11 8 14 -7 15 -11 0 -74 6 -141 13 l-123 12 0 -39z"/>
<path d="M655 6824 c-71 -12 -131 -23 -132 -23 -2 -1 -3 -64 -3 -141 l0 -140
263 -1 c337 0 414 -8 467 -43 22 -14 52 -45 67 -68 23 -35 29 -55 32 -121 4
-95 -9 -145 -51 -193 -58 -65 -95 -78 -255 -82 l-143 -4 0 111 0 110 128 3
127 3 0 30 0 30 -317 3 -318 2 0 -40 0 -40 70 0 c68 0 70 1 70 25 0 25 2 26
58 23 l57 -3 0 -125 0 -125 -127 3 -128 2 0 -150 0 -150 410 0 410 0 0 -127 0
-127 24 33 c47 63 115 127 228 211 127 96 266 224 310 288 37 53 67 144 68
200 0 81 -43 195 -92 245 -11 10 -16 23 -12 30 4 7 4 9 0 5 -5 -4 -36 17 -71
47 -64 54 -212 146 -304 189 -28 12 -47 26 -44 30 4 4 -1 4 -11 0 -11 -4 -17
-3 -14 2 4 5 -4 10 -15 10 -12 1 -67 14 -122 29 -130 36 -277 40 -343 11 -44
-20 -91 -82 -93 -122 0 -10 -11 14 -24 55 -14 42 -22 85 -19 98 7 27 19 27
-151 -3z m1149 -683 c16 -18 16 -21 -4 -60 -11 -23 -26 -41 -33 -41 -41 0 -52
78 -15 104 28 20 31 20 52 -3z m-327 -77 c4 -13 -153 -181 -162 -173 -3 4 11
37 31 73 45 83 118 139 131 100z m13 -77 c0 -18 4 -37 9 -42 5 -6 12 -28 15
-50 5 -37 2 -44 -35 -85 -39 -42 -42 -44 -53 -26 -6 11 -23 34 -38 51 -27 32
-36 55 -20 55 4 0 30 29 57 65 28 35 53 65 58 65 4 0 7 -15 7 -33z"/>
<path d="M1830 6510 c0 -5 5 -10 11 -10 5 0 7 5 4 10 -3 6 -8 10 -11 10 -2 0
-4 -4 -4 -10z"/>
<path d="M520 6411 l0 -81 319 0 c367 0 360 2 351 -85 -4 -41 -18 -45 -141
-45 l-119 0 0 -81 0 -81 123 3 c117 4 126 6 173 34 66 41 94 96 94 186 0 37
-5 80 -11 96 -14 39 -77 101 -113 112 -17 5 -176 13 -353 16 l-323 7 0 -81z"/>
<path d="M690 6215 c0 -25 -1 -25 -85 -25 l-85 0 0 -70 0 -70 115 0 115 0 0
89 c0 84 -1 89 -22 95 -35 9 -38 8 -38 -19z"/>
<path d="M520 5610 l0 -80 110 0 110 0 0 -70 0 -70 45 0 45 0 0 70 0 70 180 0
180 0 0 -100 0 -100 35 0 c33 0 38 4 60 53 22 46 25 65 25 180 l0 127 -395 0
-395 0 0 -80z"/>
<path d="M1568 5265 c-36 -34 -61 -85 -40 -85 9 0 46 50 71 98 15 29 13 28
-31 -13z"/>
<path d="M1625 4840 c-3 -5 -1 -10 4 -10 6 0 11 5 11 10 0 6 -2 10 -4 10 -3 0
-8 -4 -11 -10z"/>
<path d="M1607 4814 c-3 -3 -51 -6 -108 -8 -57 -2 -121 -7 -142 -12 l-38 -9
33 -36 c18 -20 32 -43 30 -53 -2 -9 2 -16 9 -16 7 0 9 -3 6 -7 -10 -9 41 -33
71 -33 31 0 172 89 172 109 0 8 7 23 17 33 9 10 14 20 12 22 -7 7 -57 15 -62
10z"/>
<path d="M5602 700 c0 -14 2 -19 5 -12 2 6 2 18 0 25 -3 6 -5 1 -5 -13z"/>
<path d="M4300 420 c-58 -16 -96 -29 -85 -29 11 0 45 6 75 14 72 19 84 19 77
-2 -9 -30 -71 -177 -81 -191 -4 -7 -14 -11 -22 -8 -8 3 -14 1 -14 -4 0 -5 -19
-14 -42 -20 -111 -28 -93 -40 21 -14 41 9 71 21 71 28 0 13 47 116 95 209 13
26 21 47 17 46 -4 -1 -54 -14 -112 -29z"/>
<path d="M2335 10 c-4 -6 5 -10 19 -10 14 0 26 5 26 10 0 6 -9 10 -19 10 -11
0 -23 -4 -26 -10z"/>
</g>
</svg>
