<?xml version="1.0" standalone="no"?>
<!DOCTYPE svg PUBLIC "-//W3C//DTD SVG 20010904//EN"
 "http://www.w3.org/TR/2001/REC-SVG-20010904/DTD/svg10.dtd">
<svg version="1.0" xmlns="http://www.w3.org/2000/svg"
 width="1000.000000pt" height="908.000000pt" viewBox="0 0 1000.000000 908.000000"
 preserveAspectRatio="xMidYMid meet">

<g transform="translate(0.000000,908.000000) scale(0.100000,-0.100000)"
fill="#000000" stroke="none">
<path d="M5095 8081 c-33 -8 -201 -97 -210 -111 -3 -5 29 10 72 34 44 25 92
44 110 44 18 0 40 9 52 21 22 22 22 23 -24 12z"/>
<path d="M5180 7961 c0 -13 93 -48 113 -43 16 4 14 7 -12 18 -48 20 -101 33
-101 25z"/>
<path d="M4797 7882 c-15 -16 -29 -43 -32 -60 -4 -34 3 -40 24 -19 11 10 13 9
9 -3 -5 -17 -68 -41 -83 -32 -5 4 -14 7 -20 7 -5 1 -18 5 -28 9 -10 5 -23 4
-30 -3 -16 -12 -71 -111 -65 -116 1 -2 19 19 38 46 19 27 38 49 43 49 12 0 8
-115 -4 -127 -9 -9 -5 -20 15 -43 14 -17 26 -28 27 -23 2 16 17 -43 18 -71 1
-32 48 -96 56 -74 2 7 6 36 7 63 3 42 6 50 23 50 18 0 21 6 17 35 -1 6 -7 10
-13 10 -5 0 -7 -4 -4 -10 10 -16 -15 -11 -32 6 -12 12 -14 20 -6 33 6 9 14 31
17 48 6 25 4 31 -12 36 -11 2 -25 14 -31 26 -10 18 -9 21 9 21 14 0 20 -7 20
-22 l0 -23 20 25 c24 31 26 47 3 29 -15 -11 -16 -11 -6 1 7 8 18 15 25 16 16
3 254 124 244 124 -4 0 -23 -7 -44 -16 -20 -9 -53 -20 -72 -23 -19 -4 -34 -13
-32 -19 1 -7 -6 -12 -16 -12 -10 0 -27 -7 -38 -15 -38 -29 -37 -14 1 27 25 25
31 35 15 25 -13 -10 -34 -17 -46 -17 -12 0 -25 -7 -28 -16 -4 -9 -9 -14 -12
-11 -7 7 13 46 39 75 30 32 16 27 -16 -6z m-34 -217 c-3 -9 -8 -14 -10 -11 -3
3 -2 9 2 15 9 16 15 13 8 -4z m-18 -115 c23 -9 25 -13 15 -25 -11 -14 -15 -14
-31 1 -17 16 -25 34 -15 34 3 0 17 -5 31 -10z"/>
<path d="M5225 7898 c11 -6 29 -18 40 -27 12 -9 8 -4 -7 12 -16 15 -34 27 -41
27 -6 0 -3 -6 8 -12z"/>
<path d="M4703 7864 c-6 -15 15 -100 23 -92 2 2 -1 20 -6 38 -6 19 -7 43 -4
52 7 22 -4 24 -13 2z"/>
<path d="M5095 7872 c-38 -4 -153 -41 -160 -52 -2 -4 23 -11 57 -14 76 -9 94
-18 102 -52 4 -14 20 -37 35 -50 30 -25 50 -96 33 -118 -5 -6 -12 -20 -14 -31
-3 -11 -9 -29 -13 -40 -7 -16 -6 -18 6 -7 7 6 16 12 20 12 10 0 49 -118 49
-147 0 -24 -51 -59 -81 -55 -18 3 -90 -72 -87 -90 2 -7 -3 -12 -9 -11 -7 2
-25 -15 -39 -37 -15 -22 -34 -40 -43 -40 -13 0 -13 2 -3 9 10 6 3 10 -23 15
-20 4 -40 5 -43 2 -3 -3 3 -6 13 -6 10 0 16 -3 12 -6 -14 -14 -47 8 -47 32 0
20 7 26 33 31 17 4 36 6 41 4 16 -4 56 9 56 18 0 5 -25 13 -55 16 -30 4 -55
10 -55 14 0 18 28 31 66 31 24 0 46 5 50 11 5 9 -14 10 -72 4 -74 -7 -100 -18
-88 -37 10 -16 -7 -29 -22 -17 -11 9 -15 6 -20 -20 -4 -17 -10 -28 -15 -26 -4
3 -6 14 -4 25 2 11 0 22 -6 25 -5 4 -9 -7 -9 -23 0 -30 27 -61 91 -103 48 -32
125 -103 139 -129 6 -11 16 -20 23 -20 7 0 6 4 -3 10 -8 5 -10 10 -5 10 6 0 3
5 -5 10 -13 8 -13 10 1 10 9 0 20 -8 24 -17 13 -31 23 -93 14 -87 -5 3 -9 14
-9 24 0 25 -17 35 -24 13 -6 -23 -21 -144 -19 -161 0 -7 -5 -11 -12 -8 -8 3
-11 -2 -8 -14 3 -12 11 -16 25 -12 25 6 24 4 -27 -78 -22 -35 -40 -67 -40 -72
0 -5 -5 -12 -11 -16 -16 -10 -100 -144 -97 -154 2 -4 -2 -7 -9 -5 -7 1 -13 -8
-14 -21 -1 -13 -9 -31 -19 -40 -17 -16 -17 -16 0 13 l17 30 -21 -25 c-20 -24
-24 -34 -18 -45 4 -8 -44 -38 -50 -31 -6 6 43 91 174 299 70 112 74 119 56
133 -16 13 -16 13 0 8 21 -8 21 -10 -2 52 -44 115 -152 275 -184 273 -8 0 -8
-2 1 -6 19 -7 14 -19 -9 -20 -21 -2 -60 18 -87 44 -9 8 -11 25 -8 46 l6 32
-14 -35 c-16 -39 -19 -36 109 -142 31 -27 50 -48 41 -48 -8 0 -20 9 -26 20 -6
11 -23 23 -38 27 -15 3 -50 21 -78 39 -41 26 -56 44 -78 93 -15 34 -28 61 -29
61 -2 0 -3 -18 -4 -41 -2 -43 38 -160 65 -191 8 -10 10 -18 5 -18 -6 0 -13 7
-17 15 -3 8 -12 15 -20 15 -7 0 -31 22 -51 49 -39 51 -112 92 -125 70 -12 -18
-40 75 -40 132 l0 56 -67 44 c-38 24 -102 67 -143 95 -132 90 -338 214 -354
214 -20 0 -289 -49 -293 -54 -8 -8 62 -90 107 -123 27 -20 48 -38 47 -39 -4
-4 -129 33 -185 55 -56 23 -89 28 -57 9 18 -10 126 -91 223 -167 30 -23 79
-98 70 -106 -4 -5 -47 -13 -110 -21 -27 -4 -48 -9 -48 -13 0 -3 24 -37 53 -76
29 -38 63 -88 76 -110 73 -123 83 -136 97 -124 10 8 29 4 78 -19 57 -27 66
-35 75 -68 6 -21 9 -40 7 -42 -2 -2 -20 3 -39 11 -53 23 -286 89 -297 85 -5
-1 4 -24 21 -50 27 -41 52 -59 173 -129 77 -44 145 -81 150 -82 13 -3 46 136
35 144 -5 3 12 25 38 50 25 24 43 36 39 26 -3 -10 -6 -30 -6 -43 0 -19 -5 -24
-25 -24 l-25 0 0 -100 c0 -62 -7 -133 -19 -188 -32 -145 -54 -351 -42 -402 22
-96 20 -100 -181 -314 -43 -45 -44 -46 -22 -46 12 0 14 -7 9 -32 -24 -105 -35
-115 -132 -117 -55 -1 -57 -3 -53 -51 2 -32 21 -52 93 -103 31 -22 57 -43 57
-47 0 -4 -7 -13 -15 -20 -23 -19 -19 -43 5 -35 13 4 20 2 20 -6 0 -7 11 -2 25
11 24 22 25 22 25 4 0 -11 -4 -24 -9 -30 -11 -10 -33 -135 -26 -143 3 -2 5 4
5 13 0 11 5 16 14 13 15 -6 36 11 36 30 0 7 -7 10 -17 7 -12 -4 -9 1 7 15 33
27 46 21 42 -20 -4 -36 -24 -65 -52 -74 -12 -4 -16 -13 -13 -29 3 -13 -1 -34
-8 -47 -11 -23 -11 -23 7 -7 22 19 48 10 39 -13 -3 -9 -20 -21 -38 -27 -37
-13 -91 -90 -81 -116 9 -22 -95 -134 -154 -166 -26 -14 -45 -27 -42 -30 3 -3
-8 -27 -23 -53 -22 -37 -26 -51 -17 -62 8 -10 -5 -39 -61 -127 -40 -62 -87
-139 -106 -170 -32 -53 -37 -56 -59 -47 -61 23 -59 0 2 -29 40 -20 55 -22 125
-16 l79 7 1 -74 c0 -41 3 -68 6 -61 5 13 33 17 33 4 0 -4 -11 -23 -24 -42 -12
-19 -54 -89 -91 -155 -112 -197 -293 -501 -380 -640 -45 -71 -97 -159 -115
-195 -18 -36 -50 -91 -71 -122 -22 -31 -55 -90 -74 -130 -19 -40 -65 -127
-102 -193 -56 -97 -73 -121 -93 -123 -14 -2 -33 -14 -43 -28 -14 -19 -219
-357 -305 -503 -7 -13 -14 -11 -41 8 -18 13 -34 21 -36 19 -8 -8 27 -50 68
-79 35 -25 49 -29 106 -29 l66 0 139 241 138 240 -10 42 -11 41 351 586 c411
683 518 860 523 860 20 0 113 -46 126 -62 9 -11 24 -19 35 -16 11 2 79 89 169
218 l150 215 3 -39 c3 -30 6 -36 14 -25 7 10 8 5 4 -18 -5 -32 -5 -33 31 -33
55 0 93 40 94 99 0 36 2 41 9 25 11 -29 57 -40 79 -19 10 8 24 15 32 15 25 0
49 65 49 132 0 38 5 68 14 77 7 9 16 46 18 82 5 54 2 72 -17 109 l-23 45 159
234 c144 212 159 239 159 277 0 36 -3 43 -22 46 -32 5 -32 22 0 56 16 17 45
64 65 104 19 40 57 98 85 128 l51 55 2 -45 c2 -65 0 -77 -27 -165 -14 -44 -26
-88 -27 -97 -1 -11 -9 -18 -22 -18 -43 0 -48 -16 -11 -38 40 -24 50 -67 19
-75 -17 -4 -16 -5 0 -6 15 -1 17 -7 13 -28 -3 -16 -8 -59 -12 -97 -5 -55 -10
-70 -25 -73 -23 -6 -24 -11 -3 -34 14 -15 14 -25 3 -76 -7 -32 -16 -66 -21
-76 -5 -10 -42 -33 -83 -52 -40 -18 -78 -41 -83 -52 -5 -10 -12 -51 -15 -90
-7 -82 -5 -83 61 -53 23 10 42 17 42 14 0 -22 -35 -153 -45 -169 -8 -12 -16
-76 -20 -160 -4 -77 -13 -155 -20 -175 l-13 -35 -8 30 c-11 39 -11 167 0 225
l9 45 -27 -25 c-30 -27 -29 -18 -11 -267 4 -55 3 -63 -12 -64 -12 0 -36 -37
-76 -116 l-59 -116 44 5 c41 5 46 3 61 -24 13 -22 14 -34 6 -49 -5 -11 -7 -24
-4 -29 3 -6 -18 -49 -48 -98 -30 -48 -62 -102 -71 -120 l-17 -33 67 -107 c37
-59 83 -129 102 -157 20 -27 48 -72 63 -99 l27 -50 -24 -47 c-23 -47 -29 -86
-61 -450 -6 -75 1 -102 60 -229 53 -114 65 -148 88 -260 52 -249 90 -581 92
-795 l2 -150 -37 -75 c-33 -68 -36 -80 -28 -117 6 -23 11 -110 12 -194 l3
-153 -110 -18 c-60 -9 -162 -24 -225 -33 -106 -14 -179 -21 -560 -57 l-135
-12 65 -8 c36 -5 119 -17 185 -29 184 -32 222 -36 480 -54 188 -13 249 -20
280 -35 22 -10 43 -19 47 -20 4 0 26 -7 49 -15 28 -10 46 -12 59 -5 28 15 48
12 71 -11 19 -19 41 -23 172 -33 148 -11 151 -11 197 12 59 29 120 38 400 57
124 8 245 17 270 20 200 20 564 36 705 30 88 -3 176 -7 195 -8 19 0 159 22
310 51 309 58 478 87 563 97 32 4 57 9 55 11 -2 1 -140 17 -308 34 -292 30
-314 31 -564 23 -362 -11 -420 -9 -596 18 -163 25 -235 29 -338 17 l-62 -8
-35 53 c-56 86 -69 98 -128 121 -55 23 -57 23 -73 5 -38 -42 -83 -10 -134 93
-20 40 -22 56 -17 117 5 66 4 72 -25 112 -96 133 -101 215 -32 604 25 143 50
292 54 330 15 122 25 150 94 249 36 53 71 116 77 141 9 34 22 53 58 81 25 21
62 52 81 70 23 21 47 34 70 36 l35 3 3 128 3 129 56 80 c32 46 59 75 63 69 9
-15 23 2 97 115 l60 92 -25 48 c-13 27 -26 51 -27 52 -11 13 -51 -18 -97 -74
-44 -54 -52 -71 -49 -99 2 -28 -6 -45 -46 -94 -45 -58 -48 -59 -51 -34 -2 14
-13 34 -25 43 -19 16 -20 20 -8 63 7 25 24 56 37 68 13 12 24 27 24 32 0 4
-21 35 -46 68 -25 33 -44 63 -42 67 6 15 203 199 226 211 20 11 22 19 22 101
l0 89 49 32 c28 17 53 39 56 47 3 8 -3 70 -14 136 -53 316 -91 583 -91 632 0
45 -13 37 -46 -28 -24 -48 -26 -49 -47 -35 -16 11 -22 24 -21 48 1 19 -3 59
-8 89 -31 173 -54 351 -47 356 5 3 9 43 9 90 l0 84 -30 0 c-37 0 -37 6 -4 41
l26 27 63 -82 c35 -45 92 -127 128 -182 35 -54 81 -116 100 -137 30 -32 39
-37 56 -28 27 15 94 14 109 -1 8 -8 15 -9 23 -1 7 7 26 6 65 -3 46 -10 54 -10
54 2 0 17 5 17 50 4 19 -6 52 -11 73 -12 20 -1 37 -5 37 -10 0 -6 6 -8 13 -5
6 2 32 -2 57 -9 25 -8 81 -20 124 -29 44 -8 89 -21 101 -29 12 -8 78 -74 146
-148 68 -73 144 -147 169 -164 89 -61 174 -113 178 -109 7 7 -93 272 -207 548
-61 147 -111 273 -111 281 0 14 83 96 97 96 5 0 55 45 113 100 58 54 113 99
123 100 23 0 104 41 194 97 67 43 77 54 97 116 4 12 12 16 24 13 13 -5 34 12
80 64 34 38 75 75 90 82 51 25 39 114 -23 166 -48 40 -125 166 -140 228 -7 30
-11 54 -9 54 18 0 215 -87 424 -188 52 -25 99 -48 105 -51 13 -6 -56 82 -72
92 -7 4 -13 12 -13 18 0 16 -148 239 -201 302 -39 46 -50 68 -55 108 -6 44
-11 51 -38 63 -17 7 -54 16 -81 20 -28 5 -189 57 -360 117 l-310 110 -364 70
c-526 101 -478 85 -662 223 -39 29 -88 58 -110 65 -42 13 -50 26 -21 35 10 4
34 22 53 42 l34 36 -34 -17 c-18 -9 -57 -19 -87 -22 -48 -5 -56 -3 -74 18
l-20 24 11 -27 c8 -18 9 -32 2 -40 -5 -7 -13 -21 -16 -31 -6 -16 -4 -16 23 -2
29 15 30 15 30 -10 0 -14 -3 -25 -7 -25 -5 0 -8 -26 -9 -57 -1 -46 -5 -60 -23
-75 l-23 -18 28 0 c61 0 56 -16 -15 -48 -39 -18 -74 -32 -79 -32 -5 0 -33 -10
-61 -22 -41 -17 -54 -18 -64 -9 -9 10 -8 12 7 9 10 -2 21 4 23 12 3 9 1 11 -4
5 -16 -20 -50 -14 -74 13 -18 20 -18 22 -3 10 20 -17 21 -16 60 25 22 23 46
50 53 59 11 14 9 16 -11 11 -13 -3 -31 -13 -41 -22 -16 -13 -20 -13 -27 -1 -5
8 -6 19 -3 25 3 5 -10 -5 -28 -22 -19 -18 -38 -33 -41 -33 -4 0 -39 51 -78
114 -66 107 -117 166 -143 166 -6 0 5 16 24 36 36 39 84 64 121 64 15 1 50 26
96 71 55 53 66 68 47 63 -15 -4 -25 -2 -25 4 0 6 7 12 15 14 11 2 5 12 -20 34
-40 36 -43 30 -14 -27 11 -23 19 -42 17 -44 -24 -21 -125 -76 -164 -89 -50
-16 -114 -69 -101 -82 11 -11 -14 -34 -37 -34 -17 0 -18 2 -6 9 8 6 18 7 24 4
5 -3 6 -1 2 6 -8 12 30 81 43 81 11 0 62 52 57 57 -2 2 -27 -7 -55 -21 -28
-15 -51 -25 -51 -23 0 2 11 36 25 76 13 40 30 99 36 132 6 32 15 59 19 59 4 0
11 -16 14 -35 7 -38 21 -38 37 -1 6 15 7 7 4 -29 -4 -36 -2 -44 4 -30 7 14 10
16 10 4 1 -8 -3 -19 -9 -25 -5 -5 -6 -15 0 -23 6 -11 11 -5 18 20 16 60 -12
194 -55 256 -52 78 -113 143 -142 155 -36 13 -110 24 -146 20z m31 -107 c1 -8
-2 -15 -6 -15 -5 0 -8 9 -7 20 1 21 10 18 13 -5z m68 -30 c-4 -8 -11 -15 -16
-15 -6 0 -5 6 2 15 7 8 14 15 16 15 2 0 1 -7 -2 -15z m86 9 c-9 -3 -31 -28
-49 -56 -28 -42 -32 -54 -23 -69 7 -10 9 -26 5 -36 -4 -14 -3 -15 6 -7 7 6 13
20 14 32 0 11 5 18 9 16 5 -3 11 2 15 11 3 10 0 21 -7 25 -7 4 -9 13 -5 19 9
16 31 -2 38 -30 4 -14 -2 -29 -18 -44 -12 -13 -20 -26 -17 -29 3 -3 0 -6 -8
-6 -9 0 -10 -3 -1 -14 16 -19 -6 -66 -30 -66 -21 0 -27 43 -19 132 5 48 11 63
40 93 19 19 41 34 49 34 14 -1 14 -2 1 -5z m20 -55 c0 -26 -3 -29 -14 -20 -8
7 -12 21 -9 31 8 31 23 23 23 -11z m67 -71 c-3 -7 -5 -2 -5 12 0 14 2 19 5 13
2 -7 2 -19 0 -25z m-67 -38 c0 -5 -2 -10 -4 -10 -3 0 -8 5 -11 10 -3 6 -1 10
4 10 6 0 11 -4 11 -10z m-25 -10 c3 -5 1 -10 -4 -10 -6 0 -11 5 -11 10 0 6 2
10 4 10 3 0 8 -4 11 -10z m26 -87 c-8 -15 -10 -15 -11 -2 0 17 10 32 18 25 2
-3 -1 -13 -7 -23z m-42 -97 l12 -75 -35 -51 c-24 -35 -35 -62 -34 -84 1 -17
-7 -44 -17 -59 -17 -26 -17 -27 1 -27 15 0 14 -3 -7 -26 -48 -52 -56 -44 -22
24 18 37 32 77 33 89 0 12 5 34 12 50 6 15 10 36 9 46 -1 9 2 17 7 17 6 0 8
10 6 23 -5 22 -5 22 6 -1 5 -13 14 -20 20 -17 15 9 12 55 -4 55 -8 0 -17 7
-20 16 -6 15 -4 15 10 3 16 -13 17 -11 11 20 -4 18 -7 40 -7 48 0 8 -4 12 -10
8 -6 -4 -6 -15 0 -30 5 -14 6 -25 1 -25 -11 0 -24 48 -16 60 17 28 33 5 44
-64z m-1249 -37 c0 -11 -108 53 -114 68 -3 6 22 -5 55 -24 32 -19 59 -39 59
-44z m1505 -19 c-3 -5 -12 -10 -18 -10 -7 0 -6 4 3 10 19 12 23 12 15 0z
m-1420 -20 c3 -5 2 -10 -4 -10 -5 0 -13 5 -16 10 -3 6 -2 10 4 10 5 0 13 -4
16 -10z m1260 -64 c-22 -19 -42 -33 -43 -31 -6 5 62 64 73 65 6 0 -8 -16 -30
-34z m-85 -7 c-7 -11 -14 -18 -17 -15 -3 3 0 12 7 21 18 21 23 19 10 -6z
m-1384 -17 c-17 -16 -18 -16 -5 5 7 12 15 20 18 17 3 -2 -3 -12 -13 -22z m329
8 c3 -6 -1 -7 -9 -4 -18 7 -21 14 -7 14 6 0 13 -4 16 -10z m-380 -18 c-3 -3
-11 0 -18 7 -9 10 -8 11 6 5 10 -3 15 -9 12 -12z m450 -27 l20 -16 -20 10
c-11 5 -29 17 -40 26 l-20 16 20 -10 c11 -5 29 -17 40 -26z m-407 -17 c-4 -25
31 -73 66 -92 50 -27 49 -49 -2 -30 -30 12 -42 26 -60 65 -13 27 -20 54 -17
59 9 14 16 12 13 -2z m482 -76 c0 -4 -43 -30 -95 -58 -53 -27 -119 -68 -148
-92 -28 -23 -60 -45 -69 -48 -9 -3 -20 -14 -23 -25 -4 -11 -15 -19 -28 -19
-23 0 -55 16 -47 23 3 2 29 18 58 36 48 31 52 35 37 51 -8 9 -15 24 -15 32 0
9 -7 18 -15 22 -28 10 -16 28 15 24 28 -4 31 -2 28 20 -2 14 3 27 10 29 7 3
12 -4 12 -16 0 -26 39 -49 51 -30 5 9 10 5 14 -14 4 -15 8 -27 9 -27 1 0 46
22 101 50 114 56 105 52 105 42z m431 -146 c29 -14 56 -23 60 -20 7 4 59 -67
59 -80 0 -2 -16 0 -34 4 -19 4 -37 6 -39 4 -2 -2 -27 23 -56 56 -29 33 -50 60
-48 60 3 0 29 -11 58 -24z m297 -68 c-18 -11 -45 -32 -60 -46 -32 -29 -38 -22
-8 8 11 11 20 30 20 43 0 20 4 22 41 19 l41 -4 -34 -20z m824 -528 c54 -6 146
-11 205 -11 99 -1 103 -2 54 -10 -29 -5 -80 -20 -112 -33 -32 -13 -61 -21 -64
-18 -6 7 -93 31 -110 31 -5 0 -2 -4 8 -10 28 -16 10 -29 -41 -29 -36 0 -43 -3
-34 -12 19 -19 14 -33 -6 -15 -10 10 -22 17 -27 17 -15 0 30 -42 65 -61 19
-10 29 -18 23 -19 -7 0 -13 -7 -13 -16 0 -9 -8 -23 -17 -31 -16 -13 -16 -13 4
-4 23 12 72 68 93 107 12 21 11 26 -6 40 -18 14 -18 15 6 9 65 -17 62 -14 55
-61 -3 -25 -15 -64 -25 -87 -11 -23 -20 -56 -20 -73 0 -26 -11 -41 -66 -88
l-67 -57 -81 5 c-45 3 -106 5 -136 5 -34 0 -63 6 -75 15 -15 12 -16 15 -5 16
33 0 160 78 160 97 0 7 -8 28 -17 48 -14 29 -15 37 -3 48 10 10 12 9 7 -4 -3
-10 7 -31 25 -53 l30 -37 -23 -27 c-23 -25 -23 -26 -1 -8 17 15 22 16 22 5 0
-8 -6 -21 -12 -27 -7 -7 12 -3 42 9 30 12 60 28 66 36 15 18 6 53 -14 53 -9 0
-26 10 -39 22 -19 18 -23 19 -23 5 0 -9 10 -23 23 -32 l22 -16 -23 3 c-15 2
-33 18 -48 43 l-23 40 25 33 c24 31 27 32 39 15 7 -10 11 -22 7 -28 -3 -5 2
-4 11 4 9 7 14 18 10 25 -4 6 1 5 10 -3 9 -7 17 -10 17 -5 0 14 -43 54 -58 54
-12 0 -12 3 -1 16 12 15 10 15 -26 0 -43 -18 -44 -19 -140 -100 -38 -33 -68
-61 -66 -63 1 -2 -2 -17 -9 -33 -9 -21 -19 -30 -35 -30 -26 0 -85 -19 -103
-33 -10 -8 -6 -14 17 -28 60 -36 55 -40 -77 -59 -41 -6 -98 -19 -128 -29 -30
-11 -54 -17 -54 -14 0 3 8 17 19 31 10 15 26 43 36 62 18 35 18 35 -2 18 -11
-10 -25 -18 -31 -18 -6 0 -26 -9 -44 -20 -18 -11 -37 -20 -43 -20 -5 1 2 8 18
16 15 8 27 19 27 24 0 14 -7 13 -36 -7 -20 -13 -27 -14 -33 -4 -5 7 -12 11
-17 9 -4 -1 -11 12 -15 29 -7 36 1 47 44 57 31 7 34 -3 11 -42 l-16 -27 21 24
c12 13 21 31 21 41 0 27 187 72 238 57 20 -6 40 -16 44 -22 5 -6 8 -3 8 7 0 9
6 19 13 22 6 3 1 3 -13 0 -14 -3 -36 -1 -50 4 -22 8 -20 10 30 27 52 17 154
59 262 107 25 11 65 40 89 64 35 36 47 42 73 38 17 -2 75 -9 128 -14z m419
-47 c12 -16 12 -17 -2 -6 -9 7 -20 9 -24 5 -5 -4 -5 -1 -1 6 9 16 11 15 27 -5z
m-161 -8 c0 -3 -21 -15 -47 -26 -27 -11 -58 -32 -70 -47 -22 -26 -22 -26 -16
-3 4 17 24 32 67 52 69 32 66 31 66 24z m136 -17 c5 -7 3 -8 -6 -3 -10 6 -12
4 -7 -8 3 -9 2 -19 -3 -22 -11 -7 -14 28 -3 38 9 9 11 9 19 -5z m-1533 -114
c-43 -34 -48 -13 -11 46 l33 54 3 -39 c3 -32 -1 -42 -25 -61z m1502 56 c-3 -5
-15 -10 -25 -10 -10 0 -22 5 -25 10 -4 6 7 10 25 10 18 0 29 -4 25 -10z m-610
-19 c-3 -6 -11 -11 -17 -11 -6 0 -6 6 2 15 14 17 26 13 15 -4z m-1236 -130 c6
-19 11 -43 11 -55 1 -12 27 -49 58 -83 l58 -61 72 118 c65 106 74 117 97 113
13 -3 30 -12 37 -21 11 -13 11 -14 -1 -7 -11 6 -13 4 -8 -7 3 -9 -1 -24 -9
-35 -14 -17 -14 -16 -4 5 18 37 3 24 -21 -18 -13 -22 -26 -40 -30 -40 -4 0
-21 -23 -38 -50 -17 -28 -39 -53 -49 -56 -9 -3 -28 -11 -42 -17 -14 -6 -31 -9
-39 -8 -8 1 -10 -2 -5 -10 4 -8 3 -10 -4 -5 -22 13 -89 -15 -103 -43 -12 -25
-13 -23 -22 39 -10 69 9 299 23 283 4 -4 12 -23 19 -42z m547 -38 c3 -10 9
-25 14 -33 6 -12 0 -18 -26 -26 -27 -9 -34 -8 -39 5 -4 9 2 23 14 33 29 23 26
32 -4 12 -14 -9 -25 -24 -25 -33 -1 -9 -17 -26 -36 -38 l-35 -23 37 46 c37 45
71 74 87 74 4 0 10 -8 13 -17z m-46 -93 c6 -11 8 -20 4 -20 -3 0 1 -11 9 -24
23 -34 10 -66 -48 -116 -27 -24 -53 -48 -57 -54 -6 -8 -11 -6 -18 4 -14 21
-13 24 15 50 14 13 25 28 25 34 -1 17 -80 -74 -80 -91 0 -9 -9 -31 -21 -49
-11 -19 -18 -38 -15 -43 3 -5 -2 -15 -11 -22 -12 -10 -14 -10 -9 -1 4 6 4 12
-1 12 -4 0 -7 27 -6 61 1 67 11 83 77 129 38 26 42 39 26 71 -9 16 -4 23 37
49 56 36 59 36 73 10z m110 -21 c0 -5 -10 -13 -22 -19 -22 -11 -22 -10 -4 4
19 15 19 16 0 38 l-19 23 23 -19 c12 -11 22 -23 22 -27z m5 -49 c-10 -11 -20
-18 -23 -15 -7 6 18 35 31 35 5 0 2 -9 -8 -20z m855 10 c13 -9 13 -10 0 -9 -8
1 -26 5 -40 9 l-25 8 25 1 c14 0 32 -4 40 -9z m-820 -7 c0 -5 -13 -17 -28 -27
l-27 -19 24 26 c26 28 31 32 31 20z m-274 -31 c-17 -16 -18 -16 -5 5 7 12 15
20 18 17 3 -2 -3 -12 -13 -22z m1086 7 c29 -12 29 -33 0 -22 -15 6 -15 5 -3
-11 12 -14 8 -13 -22 4 -20 12 -39 25 -41 29 -8 12 37 11 66 0z m-1658 -33
c-7 -17 -34 -23 -34 -6 0 9 32 31 38 26 1 -2 0 -11 -4 -20z m14 -38 c-21 -42
-22 -42 -28 -18 -6 21 -8 23 -15 8 -7 -18 -35 -25 -35 -9 0 15 29 33 45 27 9
-3 19 3 25 14 6 11 15 20 21 20 5 0 0 -19 -13 -42z m399 10 c-15 -9 -19 -4
-11 16 5 14 9 15 15 5 5 -8 3 -17 -4 -21z m-367 -22 c0 -2 -7 -7 -16 -10 -8
-3 -12 -2 -9 4 6 10 25 14 25 6z m264 -93 c-32 -47 -40 -55 -24 -23 12 24 40
60 46 60 2 0 -8 -17 -22 -37z m256 14 c0 -2 -12 -14 -27 -28 l-28 -24 24 28
c23 25 31 32 31 24z m-650 -27 c0 -5 -11 -10 -24 -10 -14 0 -28 5 -31 10 -4 6
7 10 24 10 17 0 31 -4 31 -10z m-89 -42 c-18 -43 -41 -62 -41 -33 0 26 29 75
45 75 12 0 11 -7 -4 -42z m39 -32 c0 -2 -8 -10 -17 -17 -16 -13 -17 -12 -4 4
13 16 21 21 21 13z m563 -55 c-9 -14 -23 -37 -30 -51 -8 -15 -13 -19 -13 -9 0
8 11 30 25 49 19 26 22 36 13 47 -10 12 -15 8 -30 -21 -10 -20 -21 -36 -23
-36 -3 0 4 18 15 41 21 40 22 40 41 23 18 -16 18 -19 2 -43z m-193 19 c-6 -11
-13 -20 -16 -20 -2 0 0 9 6 20 6 11 13 20 16 20 2 0 0 -9 -6 -20z m-400 -12
c14 -2 26 -11 28 -21 3 -16 -2 -17 -36 -14 -34 4 -41 2 -51 -19 -6 -13 -18
-24 -27 -24 -15 0 -15 2 0 23 9 12 22 34 28 49 8 17 16 24 23 19 5 -5 21 -11
35 -13z m360 -58 c-6 -11 -13 -20 -16 -20 -2 0 0 9 6 20 6 11 13 20 16 20 2 0
0 -9 -6 -20z m-379 -13 c-10 -9 -11 -8 -5 6 3 10 9 15 12 12 3 -3 0 -11 -7
-18z m-31 -64 c0 -10 -7 -12 -22 -7 -29 8 -28 6 -21 32 5 22 7 22 24 6 11 -9
19 -23 19 -31z m375 17 c-9 -16 -18 -30 -21 -30 -2 0 2 14 11 30 9 17 18 30
21 30 2 0 -2 -13 -11 -30z m-295 -20 c17 -12 30 -24 30 -26 0 -3 -14 4 -30 16
-17 12 -37 23 -45 24 -8 1 -17 5 -21 9 -15 15 39 -4 66 -23z m-150 -8 c0 -4
-5 -13 -12 -20 -8 -8 -5 -14 15 -23 27 -12 34 -24 20 -31 -13 -5 -44 -79 -38
-89 3 -5 -1 -6 -9 -3 -18 7 -72 -20 -85 -43 -6 -11 -11 -13 -11 -5 0 7 18 42
40 79 23 36 38 73 36 80 -3 8 1 25 10 39 16 23 34 32 34 16z m405 -42 c-9 -16
-18 -30 -21 -30 -2 0 2 14 11 30 9 17 18 30 21 30 2 0 -2 -13 -11 -30z m-309
-27 c-10 -10 -19 5 -10 18 6 11 8 11 12 0 2 -7 1 -15 -2 -18z m269 -43 c-9
-16 -18 -30 -21 -30 -2 0 2 14 11 30 9 17 18 30 21 30 2 0 -2 -13 -11 -30z
m-35 -60 c-6 -11 -13 -20 -16 -20 -2 0 0 9 6 20 6 11 13 20 16 20 2 0 0 -9 -6
-20z m-35 -60 c-9 -16 -18 -30 -21 -30 -2 0 2 14 11 30 9 17 18 30 21 30 2 0
-2 -13 -11 -30z m-395 -59 c-12 -24 -58 -57 -66 -48 -3 3 8 13 25 22 22 11 34
26 38 48 4 19 9 25 11 15 2 -9 -2 -26 -8 -37z m81 2 c-12 -20 -14 -14 -5 12 4
9 9 14 11 11 3 -2 0 -13 -6 -23z m-16 -33 c-3 -5 -12 -7 -20 -3 -21 7 -19 13
6 13 11 0 18 -4 14 -10z m11 -28 c-17 -16 -18 -16 -5 5 7 12 15 20 18 17 3 -2
-3 -12 -13 -22z m-29 2 c-3 -3 -12 -4 -19 -1 -8 3 -5 6 6 6 11 1 17 -2 13 -5z
m268 -24 c-9 -16 -18 -30 -21 -30 -2 0 2 14 11 30 9 17 18 30 21 30 2 0 -2
-13 -11 -30z m-45 -80 c-6 -11 -13 -20 -16 -20 -2 0 0 9 6 20 6 11 13 20 16
20 2 0 0 -9 -6 -20z m-50 -87 c-18 -32 -37 -62 -43 -68 -6 -5 1 10 15 35 14
25 31 55 37 68 6 12 14 22 17 22 3 0 -9 -26 -26 -57z m-53 -90 c-66 -117 -100
-173 -104 -173 -2 0 10 26 28 58 50 89 70 122 75 122 3 0 3 -3 1 -7z m-287
-153 c-28 -40 -35 -34 -14 15 11 26 19 34 26 27 7 -7 4 -20 -12 -42z m530 -80
c0 -5 -4 -10 -10 -10 -5 0 -10 5 -10 10 0 6 5 10 10 10 6 0 10 -4 10 -10z
m-65 -30 c-3 -5 -12 -10 -18 -10 -7 0 -6 4 3 10 19 12 23 12 15 0z m487 -222
c-4 -16 -2 -19 9 -13 11 6 12 5 1 -6 -16 -17 -94 -41 -103 -31 -4 4 -10 17
-13 28 -6 19 -1 23 41 32 71 14 72 14 65 -10z m488 -274 c0 -17 -5 -17 -33 -2
-21 11 -21 11 -2 18 24 9 35 4 35 -16z m840 -19 c0 -5 -5 -3 -10 5 -5 8 -10
20 -10 25 0 6 5 3 10 -5 5 -8 10 -19 10 -25z m-380 -136 c0 -11 -3 -19 -6 -19
-13 0 -32 34 -27 47 7 19 33 -3 33 -28z m-1262 -96 c-17 -43 -33 -80 -35 -82
-4 -5 -32 30 -33 40 0 7 90 119 96 119 1 0 -11 -35 -28 -77z m1312 63 c0 -11
-19 -15 -25 -6 -3 5 1 10 9 10 9 0 16 -2 16 -4z m-1170 -20 c0 -3 -4 -8 -10
-11 -5 -3 -10 -1 -10 4 0 6 5 11 10 11 6 0 10 -2 10 -4z m551 -413 c7 -10 10
-15 5 -11 -5 4 -29 -10 -54 -32 -24 -22 -50 -37 -56 -33 -6 3 -7 2 -3 -2 4 -5
-35 -52 -86 -104 l-94 -96 -38 -120 c-47 -149 -54 -169 -61 -163 -3 3 4 29 15
58 11 29 18 57 16 61 -3 4 -1 9 4 11 6 1 12 16 15 31 12 68 50 145 100 202 93
105 157 166 168 159 6 -4 8 -2 4 4 -3 6 6 20 20 31 32 25 29 25 45 4z m-1
-104 c0 -5 -4 -8 -8 -5 -5 3 -7 -16 -4 -42 5 -52 -13 -132 -29 -132 -6 0 -40
-20 -75 -44 l-63 -45 -30 37 -31 36 72 75 c39 42 85 88 102 104 30 27 66 36
66 16z m951 -256 c-14 -18 -29 -33 -33 -33 -16 0 -7 52 14 81 l22 29 12 -22
c10 -19 8 -27 -15 -55z m-1050 -69 c5 -3 2 -18 -6 -34 -15 -30 -15 -30 -35
-10 -11 11 -20 31 -20 45 0 22 2 24 26 14 15 -5 31 -12 35 -15z m58 -31 c0
-10 -6 -36 -13 -58 l-12 -40 -17 26 c-14 21 -15 31 -6 57 12 35 50 46 48 15z
m-404 -86 c40 -56 41 -60 16 -52 -17 5 -30 -1 -56 -30 l-34 -36 13 32 c10 23
11 42 4 66 -20 72 12 83 57 20z m19 -103 l29 -25 -23 -42 c-13 -23 -40 -64
-60 -92 -52 -71 -61 -91 -54 -120 5 -20 2 -25 -13 -25 -10 0 -35 -11 -56 -25
l-37 -26 0 30 c0 59 50 169 96 213 24 23 44 47 44 52 -1 6 -15 -5 -32 -24 -17
-19 -24 -24 -15 -10 9 14 29 46 44 72 16 27 33 48 38 48 6 0 23 -12 39 -26z
m856 -300 c0 -2 -7 -4 -15 -4 -8 0 -15 4 -15 10 0 5 7 7 15 4 8 -4 15 -8 15
-10z m-789 -53 c64 -72 70 -79 61 -85 -11 -7 -52 22 -52 36 0 16 -41 58 -56
58 -19 0 -37 27 -22 33 22 9 24 8 69 -42z m379 21 c0 -13 -102 -93 -109 -86
-6 6 88 93 102 94 4 0 7 -4 7 -8z m-55 -660 c-4 -98 -13 -227 -21 -287 -10
-85 -12 -93 -9 -35 3 41 5 160 6 264 1 172 7 236 25 236 3 0 3 -80 -1 -178z
m-336 -1312 c-17 -27 -35 -52 -39 -55 -5 -3 -12 -34 -17 -68 l-7 -62 -8 40
c-4 22 -10 54 -14 72 -5 28 -4 31 13 27 15 -4 29 7 56 45 47 65 56 66 16 1z
m711 18 c0 -4 -18 -8 -40 -8 -22 0 -40 4 -40 9 0 6 18 9 40 8 22 -1 40 -5 40
-9z m-362 -106 c19 5 41 7 50 5 10 -2 -9 -9 -41 -17 -58 -13 -58 -13 -85 14
l-27 28 35 -19 c27 -15 42 -18 68 -11z"/>
<path d="M5225 7279 c-4 -6 -5 -12 -2 -15 2 -3 7 2 10 11 7 17 1 20 -8 4z"/>
<path d="M5880 6330 c0 -5 12 -10 26 -10 14 0 23 4 19 10 -3 6 -15 10 -26 10
-10 0 -19 -4 -19 -10z"/>
<path d="M6078 6323 c7 -3 16 -2 19 1 4 3 -2 6 -13 5 -11 0 -14 -3 -6 -6z"/>
<path d="M5958 6313 c7 -3 16 -2 19 1 4 3 -2 6 -13 5 -11 0 -14 -3 -6 -6z"/>
<path d="M5825 6180 c3 -5 10 -10 16 -10 5 0 9 5 9 10 0 6 -7 10 -16 10 -8 0
-12 -4 -9 -10z"/>
<path d="M5782 6168 c-15 -15 -16 -35 -2 -43 5 -3 7 0 4 8 -3 8 2 22 11 31 9
9 13 16 8 16 -5 0 -14 -5 -21 -12z"/>
<path d="M5160 6040 c-52 -27 -92 -49 -88 -49 19 -2 168 63 183 79 27 29 10
24 -95 -30z"/>
<path d="M5333 6017 c-10 -13 -44 -38 -76 -56 -32 -18 -56 -35 -54 -38 3 -2
37 9 75 26 59 26 75 29 99 21 26 -9 27 -9 9 5 -11 8 -26 15 -33 15 -16 0 -16
5 -3 31 14 26 5 24 -17 -4z"/>
<path d="M5165 5910 c-3 -6 1 -7 9 -4 18 7 21 14 7 14 -6 0 -13 -4 -16 -10z"/>
<path d="M4494 2490 c-66 -80 -79 -103 -43 -78 13 9 23 21 21 27 -1 7 7 9 23
5 25 -6 36 10 13 19 -9 3 -3 19 19 51 18 25 31 46 29 46 -2 0 -30 -32 -62 -70z"/>
<path d="M4680 7790 c0 -5 5 -10 11 -10 5 0 7 5 4 10 -3 6 -8 10 -11 10 -2 0
-4 -4 -4 -10z"/>
<path d="M4944 7626 c-21 -11 -57 -25 -81 -31 -40 -10 -42 -12 -30 -35 7 -14
19 -25 27 -25 8 0 29 -8 47 -18 25 -13 38 -15 59 -7 15 6 24 13 21 16 -3 3
-14 1 -24 -4 -12 -7 -25 -7 -34 -1 -11 7 -9 9 9 9 12 0 22 5 22 10 0 6 -9 10
-21 10 -11 0 -18 4 -15 9 3 5 15 7 26 4 11 -3 27 0 35 7 9 7 15 8 15 2 0 -5 9
-8 20 -5 23 6 51 46 42 60 -13 20 -78 19 -118 -1z"/>
<path d="M5435 7613 c4 -10 13 -52 21 -93 33 -172 70 -191 57 -29 -4 49 -10
69 -20 69 -7 0 -23 16 -34 35 -22 37 -36 47 -24 18z m48 -87 c-1 -14 2 -24 7
-21 6 3 7 -1 3 -10 -9 -26 -24 4 -16 34 4 17 2 22 -6 17 -6 -4 -11 -2 -11 4 0
7 6 10 13 7 6 -2 11 -16 10 -31z"/>
<path d="M4790 7505 c-1 -5 -2 -39 -2 -75 0 -56 3 -66 21 -74 15 -6 20 -15 15
-29 -5 -16 -3 -18 18 -12 28 9 31 12 46 49 11 25 11 28 -4 22 -8 -3 -32 -9
-52 -12 l-37 -6 3 50 c3 45 -2 110 -8 87z"/>
<path d="M4600 7391 c-12 -23 3 -37 17 -18 22 27 24 37 9 37 -8 0 -20 -9 -26
-19z"/>
<path d="M5401 7373 c-10 -26 -10 -27 4 -9 8 11 15 23 15 28 0 15 -7 8 -19
-19z"/>
<path d="M4468 7379 c4 -4 24 -14 46 -23 33 -14 37 -14 26 -1 -10 13 -9 15 9
15 11 0 21 4 21 9 0 5 -25 9 -55 8 -30 -1 -52 -4 -47 -8z"/>
<path d="M5559 7333 c0 -10 0 -36 1 -59 1 -39 -2 -44 -67 -100 -37 -32 -70
-60 -72 -61 -2 -2 -2 -5 1 -8 2 -3 38 6 79 20 l74 25 0 39 c0 30 9 48 43 89
24 28 41 56 37 62 -3 5 -26 10 -51 10 -35 0 -44 -4 -45 -17z"/>
<path d="M5054 7308 l-19 -23 23 19 c21 18 27 26 19 26 -2 0 -12 -10 -23 -22z"/>
<path d="M4401 7213 c11 -34 19 -42 19 -20 0 7 -7 22 -15 33 -13 17 -14 16 -4
-13z"/>
<path d="M4651 7204 c0 -11 3 -14 6 -6 3 7 2 16 -1 19 -3 4 -6 -2 -5 -13z"/>
<path d="M4910 7040 c0 -3 7 -25 15 -50 l15 -45 -6 40 c-3 22 -10 44 -15 50
-5 5 -9 7 -9 5z"/>
<path d="M5820 7009 c0 -5 5 -7 10 -4 6 3 10 8 10 11 0 2 -4 4 -10 4 -5 0 -10
-5 -10 -11z"/>
<path d="M4860 7005 c0 -10 29 -75 33 -75 3 0 4 8 3 18 0 9 5 16 12 14 9 -1 8
5 -4 23 -14 22 -44 35 -44 20z"/>
<path d="M5750 6879 c0 -5 5 -7 10 -4 6 3 10 8 10 11 0 2 -4 4 -10 4 -5 0 -10
-5 -10 -11z"/>
<path d="M4951 6834 c0 -11 3 -14 6 -6 3 7 2 16 -1 19 -3 4 -6 -2 -5 -13z"/>
<path d="M3679 4933 c-32 -39 -44 -57 -32 -50 13 8 57 67 50 67 -2 0 -10 -8
-18 -17z"/>
<path d="M2314 2319 c-4 -8 -14 -24 -22 -36 -13 -20 -12 -23 1 -23 20 0 47 43
37 59 -6 11 -9 10 -16 0z"/>
<path d="M2218 2160 c-16 -28 -16 -30 0 -30 20 0 46 36 37 50 -10 16 -19 11
-37 -20z"/>
<path d="M2135 2030 c-3 -5 -2 -10 4 -10 5 0 13 5 16 10 3 6 2 10 -4 10 -5 0
-13 -4 -16 -10z"/>
<path d="M2117 1993 c-4 -3 -7 -11 -7 -17 0 -6 5 -5 12 2 6 6 9 14 7 17 -3 3
-9 2 -12 -2z"/>
</g>
</svg>
